<?xml version="1.0" encoding="UTF-8" standalone="no"?>
<svg
   xmlns:dc="http://purl.org/dc/elements/1.1/"
   xmlns:cc="http://creativecommons.org/ns#"
   xmlns:rdf="http://www.w3.org/1999/02/22-rdf-syntax-ns#"
   xmlns:svg="http://www.w3.org/2000/svg"
   xmlns="http://www.w3.org/2000/svg"
   xmlns:sodipodi="http://sodipodi.sourceforge.net/DTD/sodipodi-0.dtd"
   xmlns:inkscape="http://www.inkscape.org/namespaces/inkscape"
   height="65.999969"
   width="82"
   version="1.1"
   id="svg816"
   sodipodi:docname="juicy-flag-sprite.svg"
   inkscape:version="1.0 (4035a4fb49, 2020-05-01)">
  <metadata
     id="metadata822">
    <rdf:RDF>
      <cc:Work
         rdf:about="">
        <dc:format>image/svg+xml</dc:format>
        <dc:type
           rdf:resource="http://purl.org/dc/dcmitype/StillImage" />
        <dc:title></dc:title>
      </cc:Work>
    </rdf:RDF>
  </metadata>
  <defs
     id="defs820" />
  <sodipodi:namedview
     inkscape:snap-bbox-edge-midpoints="true"
     inkscape:snap-page="true"
     inkscape:bbox-paths="true"
     inkscape:snap-global="true"
     inkscape:snap-bbox-midpoints="true"
     inkscape:snap-bbox="true"
     inkscape:document-rotation="0"
     pagecolor="#ffffff"
     bordercolor="#666666"
     borderopacity="1"
     objecttolerance="10"
     gridtolerance="10"
     guidetolerance="10"
     inkscape:pageopacity="0"
     inkscape:pageshadow="2"
     inkscape:window-width="1366"
     inkscape:window-height="745"
     id="namedview818"
     showgrid="false"
     inkscape:zoom="5.6418733"
     inkscape:cx="38.171102"
     inkscape:cy="40.276392"
     inkscape:window-x="-8"
     inkscape:window-y="-8"
     inkscape:window-maximized="1"
     inkscape:current-layer="svg816" />
  <path
     style="fill:none;fill-opacity:1;fill-rule:evenodd;stroke:#101010;stroke-opacity:1"
     fill="#eeeeee"
     stroke-width="4"
     stroke="#ffffff"
     id="Rectangle-3"
     d="M 63.436962,3.9999645 H 18.563038 c -4.934837,0 -6.696219,0.5845126 -8.492779,1.5453238 -1.9507295,1.0432615 -3.4816732,2.5742052 -4.5249347,4.5249337 -0.9608112,1.796561 -1.5453238,3.557943 -1.5453238,8.49278 v 28.873924 c 0,4.934837 0.5845126,6.696219 1.5453238,8.49278 1.0432615,1.950729 2.5742052,3.481673 4.5249337,4.524934 1.796561,0.960811 3.557943,1.545324 8.49278,1.545324 h 44.873924 c 4.934837,0 6.69622,-0.584513 8.492781,-1.545324 1.950728,-1.043261 3.481673,-2.574205 4.524934,-4.524934 C 77.415487,54.133145 78,52.371763 78,47.436926 V 18.563002 C 78,13.628165 77.415487,11.866783 76.454677,10.070222 75.411416,8.1194935 73.880471,6.5885498 71.929743,5.5452883 70.133181,4.5844771 68.371799,3.9999645 63.436962,3.9999645 Z" />
  <rect
     transform="rotate(90)"
     y="-55.996544"
     x="63.999966"
     height="25.317047"
     width="1.999999"
     id="rect1310"
     style="fill:none;fill-opacity:1;stroke:#101010;stroke-width:0;stroke-dasharray:none;paint-order:fill markers stroke" />
  <rect
     transform="rotate(90)"
     y="-55.996544"
     x="63.999966"
     height="25.317047"
     width="1.999999"
     id="rect1314"
     style="fill:none;fill-opacity:1;stroke:#101010;stroke-width:0;stroke-dasharray:none;paint-order:fill markers stroke" />
</svg>
