<?xml version="1.0" encoding="UTF-8" standalone="no"?>
<svg
   xmlns:dc="http://purl.org/dc/elements/1.1/"
   xmlns:cc="http://creativecommons.org/ns#"
   xmlns:rdf="http://www.w3.org/1999/02/22-rdf-syntax-ns#"
   xmlns:svg="http://www.w3.org/2000/svg"
   xmlns="http://www.w3.org/2000/svg"
   xmlns:sodipodi="http://sodipodi.sourceforge.net/DTD/sodipodi-0.dtd"
   xmlns:inkscape="http://www.inkscape.org/namespaces/inkscape"
   inkscape:version="1.0 (4035a4fb49, 2020-05-01)"
   sodipodi:docname="juicy-fire.svg"
   id="svg16"
   version="1.1"
   viewBox="3 3 34 34"
   height="34"
   width="34">
  <metadata
     id="metadata22">
    <rdf:RDF>
      <cc:Work
         rdf:about="">
        <dc:format>image/svg+xml</dc:format>
        <dc:type
           rdf:resource="http://purl.org/dc/dcmitype/StillImage" />
      </cc:Work>
    </rdf:RDF>
  </metadata>
  <defs
     id="defs20" />
  <sodipodi:namedview
     inkscape:current-layer="svg16"
     inkscape:window-maximized="1"
     inkscape:window-y="-8"
     inkscape:window-x="-8"
     inkscape:cy="17"
     inkscape:cx="17"
     inkscape:zoom="15.058824"
     showgrid="false"
     id="namedview18"
     inkscape:window-height="745"
     inkscape:window-width="1366"
     inkscape:pageshadow="2"
     inkscape:pageopacity="0"
     guidetolerance="10"
     gridtolerance="10"
     objecttolerance="10"
     borderopacity="1"
     bordercolor="#666666"
     pagecolor="#ffffff" />
  <title
     id="title2">streak</title>
  <g
     id="g6"
     stroke-width="2"
     stroke="#ffffff"
     fill="#ff9600"
     style="fill-rule:evenodd;stroke:#101010;stroke-opacity:1">
    <path
       style="stroke:#101010;stroke-opacity:1"
       id="path4"
       d="M 9.068,21.675 9.044,13.216 c -0.005,-1.882 1.206,-3.274 3.012,-2.97 0.357,0.06 0.942,0.245 1.25,0.41 l 1.691,0.905 3.25,-4.097 a 2.876,2.876 0 0 1 4.506,0 L 29.523,16 A 10.832,10.832 0 0 1 32,22.889 C 32,29.034 26.843,34 20.5,34 14.157,34 9,29.034 9,22.889 9,22.481 9.023,22.076 9.068,21.675 Z" />
  </g>
  <g
     id="g10"
     fill="#ffc800"
     style="fill-rule:evenodd;stroke:none;stroke-width:1">
    <path
       id="path8"
       d="m 17.012,22.077 a 0.462,0.462 0 0 1 0.057,-0.104 l 2.65,-3.609 a 0.924,0.924 0 0 1 1.49,0 L 23.732,21.8 A 4.237,4.237 0 0 1 25,24.815 c 0,2.393 -2.015,4.333 -4.5,4.333 -2.485,0 -4.5,-1.94 -4.5,-4.333 0,-1.039 0.38,-1.992 1.012,-2.738 z" />
  </g>
</svg>
