<?xml version="1.0" encoding="UTF-8" standalone="no"?>
<svg
   xmlns:dc="http://purl.org/dc/elements/1.1/"
   xmlns:cc="http://creativecommons.org/ns#"
   xmlns:rdf="http://www.w3.org/1999/02/22-rdf-syntax-ns#"
   xmlns:svg="http://www.w3.org/2000/svg"
   xmlns="http://www.w3.org/2000/svg"
   xmlns:sodipodi="http://sodipodi.sourceforge.net/DTD/sodipodi-0.dtd"
   xmlns:inkscape="http://www.inkscape.org/namespaces/inkscape"
   inkscape:version="1.0 (4035a4fb49, 2020-05-01)"
   sodipodi:docname="juicy-crown-inactive.svg"
   id="svg9"
   version="1.1"
   viewBox="0 0 32 26"
   height="26px"
   width="32px">
  <metadata
     id="metadata15">
    <rdf:RDF>
      <cc:Work
         rdf:about="">
        <dc:format>image/svg+xml</dc:format>
        <dc:type
           rdf:resource="http://purl.org/dc/dcmitype/StillImage" />
      </cc:Work>
    </rdf:RDF>
  </metadata>
  <defs
     id="defs13" />
  <sodipodi:namedview
     inkscape:current-layer="svg9"
     inkscape:window-maximized="1"
     inkscape:window-y="-8"
     inkscape:window-x="-8"
     inkscape:cy="13"
     inkscape:cx="16"
     inkscape:zoom="19.692308"
     showgrid="false"
     id="namedview11"
     inkscape:window-height="745"
     inkscape:window-width="1366"
     inkscape:pageshadow="2"
     inkscape:pageopacity="0"
     guidetolerance="10"
     gridtolerance="10"
     objecttolerance="10"
     borderopacity="1"
     bordercolor="#666666"
     pagecolor="#ffffff" />
  <title
     id="title2">juicy-crown-unlocked</title>
  <desc
     id="desc4">Created with Sketch.</desc>
  <path
     sodipodi:nodetypes="ccscccsccscccsccc"
     id="Path"
     d="M 8.756,7.993 13.632,2.882 C 14.237854,2.2469304 15.072902,1.8810841 15.950485,1.8662385 16.828068,1.8513929 17.675012,2.1887857 18.302,2.803 l 5.292,5.186 2.843,-2.261 C 27.276129,5.0605037 28.449114,5.0076 29.344925,5.5968474 30.240736,6.1860948 30.656646,7.2841439 30.376,8.319 L 26.67,21.971 c -0.330889,1.219888 -1.438033,2.067 -2.702,2.067 H 7.908 C 6.643661,24.038292 5.5359859,23.191246 5.205,21.971 L 1.555,8.518 C 1.2607313,7.4335594 1.6856955,6.2817403 2.6137818,5.6482882 3.541868,5.0148361 4.769348,5.0388027 5.672,5.708 Z"
     style="fill:#404040;fill-rule:nonzero;stroke:#101010;stroke-width:2;stroke-opacity:1;fill-opacity:1" />
</svg>
