<?xml version="1.0" encoding="UTF-8" standalone="no"?>
<svg
   xmlns:dc="http://purl.org/dc/elements/1.1/"
   xmlns:cc="http://creativecommons.org/ns#"
   xmlns:rdf="http://www.w3.org/1999/02/22-rdf-syntax-ns#"
   xmlns:svg="http://www.w3.org/2000/svg"
   xmlns="http://www.w3.org/2000/svg"
   xmlns:sodipodi="http://sodipodi.sourceforge.net/DTD/sodipodi-0.dtd"
   xmlns:inkscape="http://www.inkscape.org/namespaces/inkscape"
   inkscape:export-ydpi="96"
   inkscape:export-xdpi="96"
   inkscape:export-filename="C:\Users\justi\Pictures\darklingo\thumbnail.png"
   inkscape:version="1.0 (4035a4fb49, 2020-05-01)"
   sodipodi:docname="thumbnail.svg"
   id="svg52"
   version="1.1"
   fill="none"
   viewBox="0 0 700 350"
   height="350"
   width="700">
  <metadata
     id="metadata58">
    <rdf:RDF>
      <cc:Work
         rdf:about="">
        <dc:format>image/svg+xml</dc:format>
        <dc:type
           rdf:resource="http://purl.org/dc/dcmitype/StillImage" />
        <dc:title></dc:title>
      </cc:Work>
    </rdf:RDF>
  </metadata>
  <defs
     id="defs56" />
  <sodipodi:namedview
     inkscape:current-layer="svg52"
     inkscape:window-maximized="1"
     inkscape:window-y="-8"
     inkscape:window-x="-8"
     inkscape:cy="66.643207"
     inkscape:cx="349.22746"
     inkscape:zoom="0.62899263"
     inkscape:snap-page="true"
     showgrid="false"
     id="namedview54"
     inkscape:window-height="745"
     inkscape:window-width="1366"
     inkscape:pageshadow="2"
     inkscape:pageopacity="0"
     guidetolerance="10"
     gridtolerance="10"
     objecttolerance="10"
     borderopacity="1"
     bordercolor="#666666"
     pagecolor="#ffffff" />
  <rect
     y="0"
     x="0"
     height="350"
     width="700"
     id="rect910"
     style="fill:#101010;stroke-width:0;stroke-linecap:round;stroke-dasharray:none;paint-order:markers fill stroke" />
  <g
     id="g1071">
    <path
       style="fill:#040404;fill-opacity:1;stroke-width:2.09969"
       opacity="0.3"
       fill-rule="evenodd"
       clip-rule="evenodd"
       d="M 421.47255,262.424 H 319.29477 c -2.49837,0 -4.62187,1.99125 -4.62187,4.60449 0,2.48893 1.99858,4.60448 4.62187,4.60448 h 102.17778 c 2.49846,0 4.62163,-1.99077 4.62163,-4.60448 0,-2.61324 -2.12317,-4.60449 -4.62163,-4.60449 z"
       fill="#afafaf"
       id="path2" />
    <g
       id="g1037">
      <g
         id="g1005">
        <path
           style="stroke-width:2.09969"
           fill-rule="evenodd"
           clip-rule="evenodd"
           d="m 367.38465,254.8329 c 0,-4.10679 -3.3724,-7.59111 -7.61969,-7.59111 h -12.11605 c -4.12251,0 -7.61969,3.36001 -7.61969,7.59111 0,4.10679 3.3724,7.5911 7.61969,7.5911 h 12.11605 c 4.24729,0 7.61969,-3.36001 7.61969,-7.5911 z"
           fill="#f49000"
           id="path4" />
        <g
           id="g999">
          <path
             id="path6"
             fill="#f49000"
             d="m 408.35587,258.19291 c 1.87361,-3.7334 0.37434,-8.2131 -3.24809,-10.08004 l -7.36965,-3.73341 c -3.74721,-1.86646 -8.24406,-0.37338 -10.11767,3.23571 -1.87408,3.73341 -0.37481,8.21359 3.24762,10.08005 l 7.36965,3.7334 c 3.74721,1.99124 8.24406,0.49769 10.11814,-3.23571 z"
             clip-rule="evenodd"
             fill-rule="evenodd"
             style="stroke-width:2.09969" />
          <path
             id="path8"
             fill="#f49000"
             d="m 413.22754,254.9572 c 0,-4.10631 -3.37288,-7.46681 -7.49491,-7.46681 h -2.3732 c -4.12203,0 -7.49491,3.3605 -7.49491,7.46681 0,4.10679 3.37288,7.4668 7.49491,7.4668 h 2.3732 c 4.12203,0 7.49491,-3.36001 7.49491,-7.4668 z"
             clip-rule="evenodd"
             fill-rule="evenodd"
             style="stroke-width:2.09969" />
        </g>
      </g>
      <g
         id="g990">
        <path
           style="stroke-width:2.09969"
           d="m 351.39708,172.8233 46.09244,-90.098623 c 2.49799,-4.85338 8.9937,-5.848945 12.86569,-1.991129 18.48699,18.417938 23.10862,47.040312 10.99256,70.809492 -12.11653,23.76919 -38.2232,36.83586 -64.07984,32.72907 -5.37126,-0.87108 -8.36932,-6.59525 -5.87085,-11.44881 z"
           fill="#58cc02"
           id="path10" />
        <path
           style="stroke-width:2.09969"
           d="m 279.44709,239.15299 19.98592,-93.5832 c 1.12421,-4.97787 6.74522,-7.4668 11.24207,-4.97787 21.4849,12.3199 32.72702,37.33355 27.48054,61.97382 -5.24601,24.64026 -25.98161,43.18297 -50.58925,45.67143 -5.12137,0.49817 -9.24349,-3.98201 -8.11928,-9.08418 z"
           fill="#58cc02"
           id="path12" />
        <path
           style="stroke-width:2.09969"
           fill-rule="evenodd"
           clip-rule="evenodd"
           d="m 346.40063,97.658125 c -10.86778,12.444535 -18.8618,19.911285 -23.9835,22.400225 -4.99626,2.48889 -15.73868,4.1067 -31.97725,4.85338 -10.74242,0.49778 -18.98661,9.70694 -18.48697,20.53328 0.12492,2.61372 0.74947,5.22695 1.99859,7.59159 l 26.48132,54.00931 c 14.11506,28.87137 49.09017,40.81787 78.1949,26.75582 28.97947,-14.06253 40.97122,-48.78284 26.85583,-77.5299 v -0.1243 L 378.7525,101.88927 c -4.74641,-9.706754 -16.48812,-13.68905 -26.23145,-8.960074 -2.24842,1.119973 -4.37207,2.737781 -6.12042,4.728929 z"
           fill="#58cc02"
           id="path14" />
      </g>
      <path
         id="path16"
         fill="#89e219"
         d="m 379.876,189.49907 c -0.12478,-0.74678 -0.87442,-1.12017 -1.62405,-0.87108 l -13.11572,6.34664 c -0.74916,0.37339 -0.87442,1.24446 -0.37435,1.74216 2.62277,2.61324 6.62002,3.23571 10.11767,1.61785 3.49766,-1.61785 5.49604,-5.22695 4.99645,-8.83557 z m -24.48263,10.57773 -13.11572,6.34664 c -0.74964,0.37339 -0.87442,1.24447 -0.37482,1.74216 2.62324,2.61372 6.62049,3.23571 10.11767,1.61786 3.49765,-1.74216 5.49604,-5.35078 4.99644,-8.95988 -0.12478,-0.62247 -0.99919,-0.99539 -1.62357,-0.74678 z m 16.98772,5.47556 -13.11572,6.34664 c -0.74916,0.37339 -0.87442,1.24447 -0.37434,1.74264 2.62276,2.61324 6.62001,3.23523 10.11767,1.61738 3.49765,-1.74216 5.49604,-5.35078 4.99644,-8.95988 -0.12478,-0.622 -0.99919,-1.12016 -1.62405,-0.74678 z"
         style="stroke-width:2.09969" />
      <g
         id="g985">
        <path
           style="stroke-width:2.09969"
           d="m 344.77611,109.85391 -7.36965,24.76476 c -0.37482,1.36877 0.62438,2.61324 1.99839,2.61324 6.62049,-0.24909 12.36609,-4.72879 14.24017,-11.20021 1.87361,-6.47104 -0.62485,-13.44001 -6.12089,-17.04892 -1.12398,-0.74668 -2.37321,-0.37334 -2.74802,0.87113 z"
           fill="#89e219"
           id="path18" />
        <path
           style="stroke-width:2.09969"
           fill-rule="evenodd"
           clip-rule="evenodd"
           d="m 338.90573,129.51649 c -2.37321,8.33741 -11.99176,13.06667 -19.98602,9.70666 6.62025,13.56436 16.48836,33.60015 16.48836,33.60015 0,-0.12431 6.62049,-3.36002 20.11104,-9.70666 -4.87167,-9.95574 -10.49297,-21.15595 -16.61338,-33.60015 z"
           fill="#89e219"
           id="path20" />
        <path
           style="stroke-width:2.09969"
           d="m 354.51896,110.10275 -7.12009,24.51592 c -0.37481,1.36877 0.62438,2.61324 1.99839,2.61324 6.62049,-0.24909 12.36657,-4.72879 14.24017,-11.20021 1.87361,-6.47109 -0.62437,-13.31561 -6.12089,-17.04897 -1.12397,-0.87113 -2.62276,-0.24889 -2.99758,1.12002 z"
           fill="#89e219"
           id="path22" />
        <path
           style="stroke-width:2.09969"
           d="m 300.4322,131.75634 23.98284,9.83096 c 1.24923,0.49817 1.62405,2.11555 0.74963,3.23572 -4.37207,4.97787 -11.49182,6.59572 -17.7374,3.98248 -6.24563,-2.61371 -9.99298,-8.96035 -9.36842,-15.4313 0,-1.49355 1.12422,-2.11555 2.37335,-1.61786 z"
           fill="#89e219"
           id="path24" />
        <path
           style="stroke-width:2.09969"
           d="m 294.6867,138.97407 23.60835,9.95574 c 1.24928,0.49769 1.62409,2.11554 0.74949,3.23571 -4.37192,4.97787 -11.49192,6.59572 -17.7375,3.98201 -6.24562,-2.61324 -9.99298,-8.95988 -9.36841,-15.43131 0,-1.49307 1.49893,-2.23985 2.74807,-1.74215 z"
           fill="#89e219"
           id="path26" />
        <path
           style="stroke-width:2.09969"
           fill-rule="evenodd"
           clip-rule="evenodd"
           d="m 351.5209,116.20055 -1.62404,0.74668 c -10.86731,5.22671 -15.36415,18.16913 -9.99289,28.99595 l 6.99531,14.18683 c 5.246,10.70204 18.23695,15.18222 29.10425,9.95574 l 1.62404,-0.74677 c 10.86731,-5.22696 15.36415,-18.16932 9.99289,-28.99614 L 380.62515,126.156 c -5.246,-10.70213 -18.23695,-15.18217 -29.10425,-9.95545 z"
           fill="#89e219"
           id="path28" />
        <path
           style="stroke-width:2.09969"
           fill-rule="evenodd"
           clip-rule="evenodd"
           d="m 300.682,140.34331 -1.62386,0.7463 c -10.86735,5.22696 -15.36419,18.16932 -9.99298,28.99614 l 6.99507,14.18684 c 5.24629,10.70204 18.23714,15.18222 29.10444,9.95526 l 1.49879,-0.7463 c 10.74252,-5.22695 15.23937,-18.16932 10.11815,-28.87136 l -6.87005,-14.31161 c -5.24649,-10.70204 -18.23734,-15.18222 -29.22956,-9.95527 0,0 0.12488,0 0,0 z"
           fill="#89e219"
           id="path30" />
      </g>
      <g
         id="g976">
        <path
           style="stroke-width:2.09969"
           fill-rule="evenodd"
           clip-rule="evenodd"
           d="m 304.55471,148.30733 c -7.99436,3.85819 -11.24207,13.44054 -7.36979,21.28026 l 4.247,8.58696 c 3.87228,7.9645 13.49049,11.20021 21.4848,7.34203 7.99451,-3.85771 11.24212,-13.44006 7.36965,-21.27978 l -4.24681,-8.58696 c -3.99725,-7.8402 -13.61542,-11.20021 -21.48485,-7.34251 z"
           fill="#ffffff"
           id="path32" />
        <path
           style="stroke-width:2.09969"
           fill-rule="evenodd"
           clip-rule="evenodd"
           d="m 310.92478,155.15214 c -3.74736,1.86647 -5.24629,6.34664 -3.49751,10.08005 l 3.62243,7.34202 c 1.87366,3.7334 6.37051,5.22696 10.11772,3.4848 3.74769,-1.86694 5.24648,-6.34664 3.49765,-10.08005 l -3.62243,-7.3425 c -1.74883,-3.8577 -6.24558,-5.35126 -10.11786,-3.48432 z"
           fill="#4b4b4b"
           id="path34" />
        <path
           style="stroke-width:2.09969"
           d="m 307.55257,164.9831 c 2.62153,0 4.74665,-2.11697 4.74665,-4.72878 0,-2.61181 -2.12512,-4.72879 -4.74665,-4.72879 -2.62147,0 -4.74664,2.11698 -4.74664,4.72879 0,2.61181 2.12517,4.72878 4.74664,4.72878 z"
           fill="#ffffff"
           id="path36" />
        <path
           style="stroke-width:2.09969"
           fill-rule="evenodd"
           clip-rule="evenodd"
           d="m 355.76914,123.29387 c -7.9945,3.85799 -11.24212,13.44034 -7.37012,21.28006 l 4.24729,8.58697 c 3.87199,7.9645 13.49054,11.20021 21.48456,7.34202 7.9945,-3.8577 11.24212,-13.44005 7.37013,-21.27977 l -4.24729,-8.58697 c -3.87199,-7.96454 -13.49054,-11.20011 -21.48457,-7.34231 z"
           fill="#ffffff"
           id="path38" />
        <path
           style="stroke-width:2.09969"
           fill-rule="evenodd"
           clip-rule="evenodd"
           d="m 357.64227,132.75173 c -3.74721,1.86694 -5.246,6.34664 -3.49717,10.08004 l 3.62243,7.3425 c 1.87361,3.73341 6.37045,5.22648 10.11767,3.48432 3.74721,-1.86646 5.24648,-6.34664 3.49765,-10.08004 l -3.62243,-7.3425 c -1.74883,-3.73293 -6.24568,-5.22648 -10.11815,-3.48432 z"
           fill="#4b4b4b"
           id="path40" />
        <path
           style="stroke-width:2.09969"
           d="m 354.01936,143.08086 c 2.62181,0 4.74689,-2.11746 4.74689,-4.72879 0,-2.61181 -2.12508,-4.72926 -4.74689,-4.72926 -2.62133,0 -4.7464,2.11745 -4.7464,4.72926 0,2.61133 2.12507,4.72879 4.7464,4.72879 z"
           fill="#ffffff"
           id="path42" />
      </g>
      <g
         id="g968">
        <path
           style="stroke-width:2.09969"
           d="m 341.52039,161.56641 c 3.77008,-2.1765 8.59888,-0.89489 10.82921,2.81994 0,0 0,0 0.0367,0.0633 l 6.57143,11.38262 c 2.16651,3.75197 0.89823,8.6384 -2.93519,10.85206 -3.77007,2.17603 -8.66269,0.93156 -10.86587,-2.88376 L 338.5852,172.418 c -2.10221,-3.78865 -0.79773,-8.61174 2.93519,-10.85159 z"
           fill="#f49000"
           id="path44" />
        <path
           style="stroke-width:2.09969"
           d="m 343.06252,164.23728 c 2.939,-1.69691 6.66193,-0.70915 8.35075,2.21604 l 4.36873,7.56729 c 1.68882,2.92519 0.68296,6.64288 -2.25604,8.33979 -2.939,1.69692 -6.59763,0.67201 -8.35027,-2.21651 l -4.36921,-7.56682 c -1.65215,-2.86185 -0.64628,-6.57953 2.25604,-8.33979 z"
           fill="#b66e28"
           id="path46" />
        <path
           style="stroke-width:2.09969"
           d="m 346.14631,169.57901 8.31931,-6.83814 c 0.15526,-0.17431 0.20955,-0.37529 0.0357,-0.52912 -3.90533,-4.69783 -10.97208,-5.28125 -15.66086,-1.30258 -3.55719,2.98663 -4.88929,7.91021 -3.31572,12.25846 0.11001,0.19098 0.34814,0.30767 0.47578,0.23432 z"
           fill="#ffc200"
           id="path48" />
        <path
           style="stroke-width:2.09969"
           d="m 345.06044,162.82946 c -0.12764,0.0738 -0.25576,0.14764 -0.42007,0.15764 -1.33352,0.34624 -2.48369,1.01014 -3.4505,1.99219 -0.65629,0.63343 -1.6531,0.53008 -2.2851,-0.12192 -0.5315,-0.62581 -0.55198,-1.54689 -0.0233,-2.1065 1.40401,-1.40401 3.1295,-2.40035 4.98358,-2.87708 0.8768,-0.25195 1.7374,0.35338 1.94981,1.1635 0.13859,0.68296 -0.11525,1.42306 -0.75439,1.79217 z"
           fill="#ffde00"
           id="path50" />
      </g>
    </g>
  </g>
</svg>
