<?xml version="1.0" encoding="UTF-8" standalone="no"?>
<svg
   xmlns:dc="http://purl.org/dc/elements/1.1/"
   xmlns:cc="http://creativecommons.org/ns#"
   xmlns:rdf="http://www.w3.org/1999/02/22-rdf-syntax-ns#"
   xmlns:svg="http://www.w3.org/2000/svg"
   xmlns="http://www.w3.org/2000/svg"
   xmlns:sodipodi="http://sodipodi.sourceforge.net/DTD/sodipodi-0.dtd"
   xmlns:inkscape="http://www.inkscape.org/namespaces/inkscape"
   inkscape:version="1.0 (4035a4fb49, 2020-05-01)"
   sodipodi:docname="checkpoint-castle-unlocked.svg"
   id="svg12"
   version="1.1"
   viewBox="0 0 93 106"
   height="106"
   width="93">
  <metadata
     id="metadata18">
    <rdf:RDF>
      <cc:Work
         rdf:about="">
        <dc:format>image/svg+xml</dc:format>
        <dc:type
           rdf:resource="http://purl.org/dc/dcmitype/StillImage" />
      </cc:Work>
    </rdf:RDF>
  </metadata>
  <defs
     id="defs16" />
  <sodipodi:namedview
     inkscape:current-layer="svg12"
     inkscape:window-maximized="0"
     inkscape:window-y="0"
     inkscape:window-x="609"
     inkscape:cy="107.46"
     inkscape:cx="30.28149"
     inkscape:zoom="1.2075472"
     showgrid="false"
     id="namedview14"
     inkscape:window-height="729"
     inkscape:window-width="771"
     inkscape:pageshadow="2"
     inkscape:pageopacity="0"
     guidetolerance="10"
     gridtolerance="10"
     objecttolerance="10"
     borderopacity="1"
     bordercolor="#666666"
     pagecolor="#ffffff" />
  <path
     fill="#ffc800"
     d="m 85.63,79.144 a 6.568,6.568 0 0 1 6.044,6.547 v 13.73 a 6.567,6.567 0 0 1 -6.567,6.568 H 7.989 A 6.567,6.567 0 0 1 1.421,99.422 V 85.691 A 6.567,6.567 0 0 1 7.704,79.129 L 11.422,30.574 H 6.699 A 6.567,6.567 0 0 1 0.132,24.006 V 6.731 A 6.567,6.567 0 0 1 6.699,0.164 h 12.653 a 6.567,6.567 0 0 1 6.568,6.567 v 4.38 h 7.736 v -4.38 a 6.567,6.567 0 0 1 6.566,-6.567 h 12.652 a 6.567,6.567 0 0 1 6.567,6.567 v 4.38 h 7.736 v -4.38 a 6.567,6.567 0 0 1 6.567,-6.567 h 12.653 a 6.567,6.567 0 0 1 6.567,6.567 v 17.275 a 6.567,6.567 0 0 1 -6.567,6.567 h -3.705 l 2.937,48.57 z"
     id="path2"
     style="fill-rule:evenodd;fill:#e6b400;fill-opacity:1" />
  <path
     d="M 14.886719 5.0351562 C 13.676719 5.0351563 12.697266 6.0165625 12.697266 7.2265625 L 12.697266 24.765625 A 2.19 2.19 0 0 0 14.886719 26.955078 L 19.533203 26.955078 A 2.19 2.19 0 0 0 20.226562 26.841797 A 2.19 2.19 0 0 0 20.822266 26.925781 L 45.957031 26.925781 A 2.19 2.19 0 0 0 48.148438 24.734375 L 48.148438 15.734375 C 48.148438 15.529384 48.111201 15.334626 48.058594 15.146484 L 48.058594 7.2246094 C 48.058594 6.0119035 47.081847 5.0351562 45.869141 5.0351562 L 41.222656 5.0351562 C 40.00995 5.0351563 39.033203 6.0119035 39.033203 7.2246094 L 39.033203 13.544922 L 21.722656 13.544922 L 21.722656 7.2265625 A 2.19 2.19 0 0 0 19.533203 5.0351562 L 14.886719 5.0351562 z M 24.572266 32.345703 A 2.19 2.19 0 0 0 22.421875 34.363281 L 19.195312 75.546875 A 2.19 2.19 0 0 0 21.378906 77.90625 L 45.982422 77.90625 A 2.19 2.19 0 0 0 48.171875 75.71875 L 48.171875 34.535156 C 48.171875 33.325156 47.192422 32.345703 45.982422 32.345703 L 24.605469 32.345703 A 2.19 2.19 0 0 1 24.603516 32.345703 A 2.19 2.19 0 0 0 24.572266 32.345703 z M 15.386719 83.679688 A 2.19 2.19 0 0 0 13.275391 85.867188 L 13.275391 97.498047 A 2.19 2.19 0 0 0 15.464844 99.6875 L 45.957031 99.6875 A 2.19 2.19 0 0 0 48.148438 97.498047 L 48.148438 85.869141 C 48.148438 84.659141 47.167031 83.679688 45.957031 83.679688 L 15.464844 83.679688 A 2.19 2.19 0 0 0 15.386719 83.679688 z "
     style="fill-rule:evenodd;fill:#efc927;fill-opacity:1"
     id="path4" />
</svg>
