<?xml version="1.0" encoding="UTF-8" standalone="no"?>
<svg
   xmlns:dc="http://purl.org/dc/elements/1.1/"
   xmlns:cc="http://creativecommons.org/ns#"
   xmlns:rdf="http://www.w3.org/1999/02/22-rdf-syntax-ns#"
   xmlns:svg="http://www.w3.org/2000/svg"
   xmlns="http://www.w3.org/2000/svg"
   xmlns:sodipodi="http://sodipodi.sourceforge.net/DTD/sodipodi-0.dtd"
   xmlns:inkscape="http://www.inkscape.org/namespaces/inkscape"
   inkscape:version="1.0 (4035a4fb49, 2020-05-01)"
   sodipodi:docname="close.svg"
   id="svg18"
   version="1.1"
   viewBox="0 0 32 16"
   height="16"
   width="32">
  <metadata
     id="metadata24">
    <rdf:RDF>
      <cc:Work
         rdf:about="">
        <dc:format>image/svg+xml</dc:format>
        <dc:type
           rdf:resource="http://purl.org/dc/dcmitype/StillImage" />
      </cc:Work>
    </rdf:RDF>
  </metadata>
  <defs
     id="defs22" />
  <sodipodi:namedview
     inkscape:snap-page="true"
     inkscape:current-layer="svg18"
     inkscape:window-maximized="1"
     inkscape:window-y="-8"
     inkscape:window-x="-8"
     inkscape:cy="9.3182586"
     inkscape:cx="17.605109"
     inkscape:zoom="11.313709"
     showgrid="false"
     id="namedview20"
     inkscape:window-height="745"
     inkscape:window-width="1366"
     inkscape:pageshadow="2"
     inkscape:pageopacity="0"
     guidetolerance="10"
     gridtolerance="10"
     objecttolerance="10"
     borderopacity="1"
     bordercolor="#666666"
     pagecolor="#ffffff"
     inkscape:document-rotation="0" />
  <title
     id="title2">Group 9</title>
  <path
     d="M 16,0 V 16 H 32 V 0 Z m 1.941406,0.5 a 1.5,1.5 0 0 1 0.103516,0 1.5,1.5 0 0 1 1.015625,0.43945312 L 24,5.8789062 28.939453,0.93945312 a 1.5,1.5 0 0 1 2.121094,0 1.5,1.5 0 0 1 0,2.12109378 L 26.121094,8 l 4.939453,4.939453 a 1.5,1.5 0 0 1 0,2.121094 1.5,1.5 0 0 1 -2.121094,0 L 24,10.121094 19.060547,15.060547 a 1.5,1.5 0 0 1 -2.121094,0 1.5,1.5 0 0 1 0,-2.121094 L 21.878906,8 16.939453,3.0605469 a 1.5,1.5 0 0 1 0,-2.12109378 A 1.5,1.5 0 0 1 17.941406,0.5 Z"
     style="fill:#05070a;fill-opacity:1;stroke:none;stroke-width:0;stroke-linecap:round;stroke-dasharray:none;paint-order:markers fill stroke"
     id="rect840" />
  <g
     id="g871">
    <g
       style="fill:none;fill-rule:evenodd;stroke:#606060;stroke-width:3;stroke-linecap:round;stroke-opacity:1"
       id="g6">
      <path
         id="path4"
         d="M 2,2 14,14 M 14,2 2,14"
         style="stroke:#575e6b;stroke-opacity:1" />
    </g>
  </g>
  <g
     transform="translate(16)"
     id="g846">
    <g
       id="g844"
       style="fill:none;fill-rule:evenodd;stroke:#606060;stroke-width:3;stroke-linecap:round;stroke-opacity:1" />
  </g>
</svg>
