<?xml version="1.0" encoding="UTF-8" standalone="no"?>
<svg
   xmlns:dc="http://purl.org/dc/elements/1.1/"
   xmlns:cc="http://creativecommons.org/ns#"
   xmlns:rdf="http://www.w3.org/1999/02/22-rdf-syntax-ns#"
   xmlns:svg="http://www.w3.org/2000/svg"
   xmlns="http://www.w3.org/2000/svg"
   xmlns:sodipodi="http://sodipodi.sourceforge.net/DTD/sodipodi-0.dtd"
   xmlns:inkscape="http://www.inkscape.org/namespaces/inkscape"
   inkscape:version="1.0 (4035a4fb49, 2020-05-01)"
   sodipodi:docname="dictionary.svg"
   id="svg22"
   version="1.1"
   viewBox="0 0 92 46"
   height="46"
   width="92">
  <metadata
     id="metadata28">
    <rdf:RDF>
      <cc:Work
         rdf:about="">
        <dc:format>image/svg+xml</dc:format>
        <dc:type
           rdf:resource="http://purl.org/dc/dcmitype/StillImage" />
      </cc:Work>
    </rdf:RDF>
  </metadata>
  <defs
     id="defs26" />
  <sodipodi:namedview
     inkscape:current-layer="svg22"
     inkscape:window-maximized="1"
     inkscape:window-y="-8"
     inkscape:window-x="-8"
     inkscape:cy="31.163568"
     inkscape:cx="35.086023"
     inkscape:zoom="5.5652174"
     inkscape:snap-page="true"
     showgrid="false"
     id="namedview24"
     inkscape:window-height="745"
     inkscape:window-width="1366"
     inkscape:pageshadow="2"
     inkscape:pageopacity="0"
     guidetolerance="10"
     gridtolerance="10"
     objecttolerance="10"
     borderopacity="1"
     bordercolor="#666666"
     pagecolor="#ffffff"
     inkscape:document-rotation="0" />
  <title
     id="title2">dictionary</title>
  <g
     id="g883">
    <g
       id="g862">
      <path
         d="M 0,0 V 46 H 46 V 0 Z m 12.511719,18.113281 c 5.114432,0 9.312499,4.159459 9.3125,9.257813 0,2.13708 -0.744979,4.103877 -1.978516,5.673828 l 5.546875,5.505859 a 1.8,1.8 0 0 1 0.0098,2.546875 1.8,1.8 0 0 1 -2.546875,0.0098 l -5.746094,-5.703125 c -1.360239,0.774678 -2.927845,1.224609 -4.597656,1.224609 -5.1144336,0 -9.3125005,-4.159458 -9.3125002,-9.257812 5e-7,-5.098354 4.1980672,-9.257813 9.3125002,-9.257813 z m 0,3.601563 c -3.1830937,0 -5.7109373,2.51783 -5.7109378,5.65625 10e-8,3.13842 2.5278438,5.65625 5.7109378,5.65625 3.183093,0 5.71289,-2.51783 5.71289,-5.65625 0,-3.13842 -2.529797,-5.65625 -5.71289,-5.65625 z"
         style="fill:#0b0e14;fill-opacity:1;stroke:#606060;stroke-width:0;stroke-linecap:round;stroke-dasharray:none;paint-order:markers fill stroke"
         id="rect853" />
      <path
         d="m 24.564453,5 c -1.9944,0 -3.599609,1.6052095 -3.599609,3.5996094 V 23.519531 c 0.54603,1.174985 0.859374,2.476951 0.859375,3.851563 0,1.374367 -0.311354,2.676355 -0.859375,3.849609 v 0.0078 c 0,1.9944 1.605209,3.599609 3.599609,3.599609 h 10.640625 c 1.9944,0 3.601563,-1.605209 3.601563,-3.599609 V 8.5996094 C 38.806641,6.6052095 37.199478,5 35.205078,5 Z"
         style="fill:#fdb500;fill-rule:evenodd;stroke:none;stroke-width:1"
         id="rect4" />
      <path
         d="m 21.746094,6.8632812 c -1.9944,0 -3.59961,1.6071622 -3.59961,3.6015628 v 9.560547 c 2.226951,1.694464 3.677734,4.35481 3.677735,7.345703 0,1.622489 -0.431138,3.145614 -1.177735,4.472656 0.348758,0.111968 0.712704,0.1875 1.09961,0.1875 h 10.642578 c 1.994399,0 3.599609,-1.605209 3.599609,-3.599609 V 10.464844 c 0,-1.9944007 -1.60521,-3.6015627 -3.599609,-3.6015628 z"
         style="fill:#ffffff;fill-rule:evenodd;stroke:none;stroke-width:1"
         id="rect6" />
      <path
         d="m 14.234375,5 c -1.9944,0 -3.599609,1.6052095 -3.599609,3.5996094 v 9.7050786 c 0.606726,-0.124754 1.234843,-0.191407 1.876953,-0.191407 5.114432,0 9.312499,4.159459 9.3125,9.257813 0,2.13708 -0.744979,4.103877 -1.978516,5.673828 l 1.796875,1.783203 h 6.990234 c 1.994401,0 3.59961,-1.605209 3.59961,-3.599609 V 8.5996094 C 32.232422,6.6052095 30.627212,5 28.632812,5 Z"
         style="fill:#ffc733;fill-rule:evenodd;stroke:none;stroke-width:1"
         id="rect8" />
      <path
         d="M 17.207031,5 C 16.166619,5 15.330078,5.8384943 15.330078,6.8789062 V 18.552734 c 1.430115,0.455317 2.715236,1.243908 3.75586,2.277344 V 6.8789062 C 19.085938,5.8384943 18.247443,5 17.207031,5 Z"
         style="fill:#fdb500;fill-rule:evenodd;stroke:none;stroke-width:1"
         id="rect10" />
    </g>
    <g
       id="g869">
      <path
         id="path847"
         style="fill:#10151e;fill-opacity:1;stroke:#606060;stroke-width:0;stroke-linecap:round;stroke-dasharray:none;paint-order:markers fill stroke"
         d="M 46,0 V 46 H 92 V 0 Z m 12.511719,18.113281 c 5.114432,0 9.312499,4.159459 9.3125,9.257813 0,2.13708 -0.744979,4.103877 -1.978516,5.673828 l 5.546875,5.505859 a 1.8,1.8 0 0 1 0.0098,2.546875 1.8,1.8 0 0 1 -2.546875,0.0098 l -5.746094,-5.703125 c -1.360239,0.774678 -2.927845,1.224609 -4.597656,1.224609 -5.114434,0 -9.312501,-4.159458 -9.3125,-9.257812 0,-5.098354 4.198067,-9.257813 9.3125,-9.257813 z m 0,3.601563 c -3.183094,0 -5.710937,2.51783 -5.710938,5.65625 0,3.13842 2.527844,5.65625 5.710938,5.65625 3.183093,0 5.71289,-2.51783 5.71289,-5.65625 0,-3.13842 -2.529797,-5.65625 -5.71289,-5.65625 z" />
      <path
         id="path849"
         style="fill:#fdb500;fill-rule:evenodd;stroke:none;stroke-width:1"
         d="m 70.564453,5 c -1.9944,0 -3.599609,1.6052095 -3.599609,3.5996094 V 23.519531 c 0.54603,1.174985 0.859374,2.476951 0.859375,3.851563 0,1.374367 -0.311354,2.676355 -0.859375,3.849609 v 0.0078 c 0,1.9944 1.605209,3.599609 3.599609,3.599609 h 10.640625 c 1.9944,0 3.601563,-1.605209 3.601563,-3.599609 V 8.5996094 C 84.806641,6.6052095 83.199478,5 81.205078,5 Z" />
      <path
         id="path851"
         style="fill:#ffffff;fill-rule:evenodd;stroke:none;stroke-width:1"
         d="m 67.746094,6.8632812 c -1.9944,0 -3.59961,1.6071622 -3.59961,3.6015628 v 9.560547 c 2.226951,1.694464 3.677734,4.35481 3.677735,7.345703 0,1.622489 -0.431138,3.145614 -1.177735,4.472656 0.348758,0.111968 0.712704,0.1875 1.09961,0.1875 h 10.642578 c 1.994399,0 3.599609,-1.605209 3.599609,-3.599609 V 10.464844 c 0,-1.9944007 -1.60521,-3.6015627 -3.599609,-3.6015628 z" />
      <path
         id="path853"
         style="fill:#ffc733;fill-rule:evenodd;stroke:none;stroke-width:1"
         d="m 60.234375,5 c -1.9944,0 -3.599609,1.6052095 -3.599609,3.5996094 v 9.7050786 c 0.606726,-0.124754 1.234843,-0.191407 1.876953,-0.191407 5.114432,0 9.312499,4.159459 9.3125,9.257813 0,2.13708 -0.744979,4.103877 -1.978516,5.673828 l 1.796875,1.783203 h 6.990234 c 1.994401,0 3.59961,-1.605209 3.59961,-3.599609 V 8.5996094 C 78.232422,6.6052095 76.627212,5 74.632812,5 Z" />
      <path
         id="path855"
         style="fill:#fdb500;fill-rule:evenodd;stroke:none;stroke-width:1"
         d="M 63.207031,5 C 62.166619,5 61.330078,5.8384943 61.330078,6.8789062 V 18.552734 c 1.430115,0.455317 2.715236,1.243908 3.75586,2.277344 V 6.8789062 C 65.085938,5.8384943 64.247443,5 63.207031,5 Z" />
    </g>
  </g>
</svg>
