<?xml version="1.0" encoding="UTF-8" standalone="no"?>
<svg
   xmlns:dc="http://purl.org/dc/elements/1.1/"
   xmlns:cc="http://creativecommons.org/ns#"
   xmlns:rdf="http://www.w3.org/1999/02/22-rdf-syntax-ns#"
   xmlns:svg="http://www.w3.org/2000/svg"
   xmlns="http://www.w3.org/2000/svg"
   xmlns:sodipodi="http://sodipodi.sourceforge.net/DTD/sodipodi-0.dtd"
   xmlns:inkscape="http://www.inkscape.org/namespaces/inkscape"
   inkscape:version="1.0 (4035a4fb49, 2020-05-01)"
   sodipodi:docname="incubator.svg"
   xml:space="preserve"
   viewBox="0 0 831.4 100"
   y="0"
   x="0"
   id="Layer_1"
   version="1.1"><metadata
     id="metadata17"><rdf:RDF><cc:Work
         rdf:about=""><dc:format>image/svg+xml</dc:format><dc:type
           rdf:resource="http://purl.org/dc/dcmitype/StillImage" /><dc:title></dc:title></cc:Work></rdf:RDF></metadata><defs
     id="defs15" /><sodipodi:namedview
     inkscape:current-layer="Layer_1"
     inkscape:window-maximized="1"
     inkscape:window-y="-8"
     inkscape:window-x="-8"
     inkscape:cy="-23.595658"
     inkscape:cx="294.93245"
     inkscape:zoom="1.3531392"
     inkscape:snap-page="true"
     showgrid="false"
     id="namedview13"
     inkscape:window-height="745"
     inkscape:window-width="1366"
     inkscape:pageshadow="2"
     inkscape:pageopacity="0"
     guidetolerance="10"
     gridtolerance="10"
     objecttolerance="10"
     borderopacity="1"
     bordercolor="#666666"
     pagecolor="#ffffff" /><style
     id="style2"
     type="text/css">.st0{fill:#1bb0f6}</style><path
     d="M 0 0 L 0 50 C 0 34.5 10.799219 23 26.199219 23 C 31.299219 23 36.299219 24.500391 40.699219 27.400391 L 40.699219 20.199219 C 40.699219 7.6992186 47.8 0.59960938 53.5 0.59960938 C 55.3 0.59960938 56.300781 1.7996094 56.300781 4.0996094 L 56.300781 72.5 C 56.300781 74.9 55.100781 76 53.300781 76 C 50.600781 76 46.799609 73.699219 44.099609 69.699219 C 40.799609 73.499219 33.999219 77 26.199219 77 C 10.499219 77 0 65.5 0 50 L 0 100 L 333.71289 100 C 318.70119 98.985198 309 90.265685 309 77.400391 C 308.8 69.900391 312.9 62.900781 319.5 59.300781 C 314.5 55.200781 311.69922 49.999219 311.69922 44.199219 C 311.69922 32.299219 321.00078 23.599609 335.80078 23.599609 C 344.50078 23.599609 347.09961 25.099609 352.09961 25.099609 C 355.39961 25.299609 358.89922 24.3 361.69922 22.5 C 362.79922 21.9 363.8 21.400391 365 21.400391 C 367 21.400391 368 23.400781 368 25.800781 C 368.5 31.200781 365.19922 35.8 360.19922 37.5 C 361.29922 39.6 361.69922 41.900781 361.69922 44.300781 C 361.69922 50.000781 358.70039 55.300391 353.90039 59.400391 C 360.50039 62.600391 364.40039 70.2 364.40039 77.5 C 364.40039 90.271387 354.69745 98.985505 339.68555 100 L 831.40039 100 L 831.40039 0 L 228.59961 0 C 233.29961 0.3 236.89961 4.4 236.59961 9 C 236.29961 13.6 232.19961 17.3 227.59961 17 C 222.99961 16.9 219.59961 13.099609 219.59961 8.5996094 C 219.59961 3.7996094 223.70078 0 228.30078 0 L 0 0 z M 205.59961 0.59960938 C 207.39961 0.59960938 208.59961 1.7996094 208.59961 4.0996094 L 208.59961 69.900391 C 208.59961 73.700391 207.10078 75 203.30078 75 L 198 75 C 194.4 75 192.80078 73.600391 192.80078 69.900391 L 192.80078 20.199219 C 192.80078 7.6992186 199.69961 0.59960936 205.59961 0.59960938 z M 458 5 C 461 5 463.5 7.4 463.5 10.5 C 463.5 13.5 461 16 458 16 C 455 16.1 452.5 13.6 452.5 10.5 C 452.5 7.4 455 5 458 5 z M 626.80078 5 C 629.20078 5 631 6.7 631 9.5 L 631 31 L 631.09961 31 C 633.29961 27.3 637.50078 24.599609 644.80078 24.599609 C 652.90078 24.599609 658.90039 29.099219 661.40039 36.699219 C 662.60039 40.499219 663.09961 44.300781 663.09961 49.800781 C 663.09961 55.300781 662.60039 59.1 661.40039 63 C 658.90039 70.5 653.00078 75.099609 644.80078 75.099609 C 637.70078 75.099609 633.39961 72.499219 631.09961 68.699219 L 631 68.699219 L 631 70 C 631 72.8 629.20078 74.5 626.80078 74.5 C 624.40078 74.3 622.59961 72.600781 622.59961 69.800781 L 622.59961 9.5 C 622.59961 6.7 624.40078 5 626.80078 5 z M 728.40039 10.099609 C 730.80039 10.099609 732.59961 11.799609 732.59961 14.599609 L 732.59961 25.099609 C 732.59961 25.499609 732.79922 25.699219 733.19922 25.699219 L 739.5 25.699219 C 741.8 25.699219 743.09961 27.099609 743.09961 29.099609 C 743.09961 31.099609 741.8 32.5 739.5 32.5 L 733.19922 32.5 C 732.79922 32.5 732.59961 32.699609 732.59961 33.099609 L 732.59961 59.800781 C 732.59961 64.900781 733.9 66.400391 739 66.400391 C 741.6 66.400391 743.09961 68.000781 743.09961 70.300781 C 743.09961 72.600781 741.59961 74.199219 738.59961 74.199219 L 737.69922 74.199219 L 737.69922 74.300781 C 727.89922 74.300781 724.19922 70.199609 724.19922 60.099609 L 724.19922 33.099609 C 724.19922 32.699609 723.99961 32.5 723.59961 32.5 L 720.90039 32.5 C 718.60039 32.5 717.30078 31.099609 717.30078 29.099609 C 717.30078 27.099609 718.60039 25.699219 720.90039 25.699219 L 723.59961 25.699219 C 723.99961 25.699219 724.19922 25.499609 724.19922 25.099609 L 724.19922 14.599609 C 724.19922 11.799609 726.00039 10.099609 728.40039 10.099609 z M 155.69922 23 C 171.69922 23 183.69922 34.1 183.69922 50 C 183.69922 65.9 171.69922 77 155.69922 77 C 139.69922 77 127.69922 65.7 127.69922 50 C 127.69922 34.2 139.69922 23 155.69922 23 z M 398.80078 23 C 414.80078 23 426.80078 34.1 426.80078 50 C 426.80078 65.9 414.80078 77 398.80078 77 C 382.80078 77 370.80078 65.7 370.80078 50 C 370.80078 34.2 382.80078 23 398.80078 23 z M 277.59961 23.199219 C 285.29961 23.199219 291.5 25.900391 295.5 30.400391 C 299.8 34.900391 301.80078 41.099609 301.80078 51.099609 L 301.80078 69.900391 C 301.80078 73.500391 300.4 75 296.5 75 L 291.19922 75 C 287.29922 75 285.90039 73.500391 285.90039 69.900391 L 285.90039 51.5 C 285.90039 46.8 285.1 43.500391 283.5 41.400391 C 281.5 39.000391 278.5 37.800391 275.5 37.900391 C 272.3 37.700391 269.29922 39.100391 267.19922 41.400391 C 265.39922 43.500391 264.19922 46.800781 264.19922 51.300781 L 264.19922 69.699219 C 264.19922 73.499219 262.50039 74.800781 258.90039 74.800781 L 253.59961 74.800781 C 249.99961 74.800781 248.30078 73.399219 248.30078 69.699219 L 248.30078 27.599609 C 248.30078 25.199609 249.50078 24.099609 251.30078 24.099609 C 254.00078 24.099609 257.79961 26.399219 260.59961 30.699219 C 264.99961 25.899219 271.09961 23.199219 277.59961 23.199219 z M 545 24.5 C 552.2 24.5 557.40039 27.6 560.40039 31.5 C 561.20039 32.6 561.59961 33.499609 561.59961 34.599609 C 561.59961 36.699609 560.00039 38.300781 557.90039 38.300781 C 556.40039 38.300781 555.29922 37.500781 554.19922 36.300781 C 551.99922 33.900781 549.39961 32.300781 545.09961 32.300781 C 539.89961 32.300781 536.00039 34.800781 534.40039 39.800781 C 533.60039 42.300781 533.30078 45.3 533.30078 49.5 C 533.30078 53.8 533.60039 56.800781 534.40039 59.300781 C 536.00039 64.300781 539.89961 66.800781 545.09961 66.800781 C 549.39961 66.800781 551.99922 65.200781 554.19922 62.800781 C 555.29922 61.600781 556.40039 60.800781 557.90039 60.800781 C 560.00039 60.800781 561.59961 62.4 561.59961 64.5 C 561.59961 65.6 561.20039 66.499609 560.40039 67.599609 C 557.40039 71.499609 552.3 74.599609 545 74.599609 C 535.7 74.899609 528.7 70.3 526 62 C 525.1 59.1 524.5 55.199219 524.5 49.699219 C 524.5 44.399219 525.1 40.5 526 37.5 C 528.7 29.2 535.7 24.5 545 24.5 z M 769.30078 24.5 C 778.60078 24.5 785.70078 29.2 788.30078 37.5 C 789.40078 40.8 789.90039 44.099219 789.90039 49.699219 C 789.90039 55.299219 789.40078 58.6 788.30078 62 C 785.70078 70.1 778.70078 75 769.30078 75 C 760.00078 74.9 753.00078 70.1 750.30078 62 C 749.20078 58.7 748.69922 55.399219 748.69922 49.699219 C 748.69922 44.199219 749.20078 40.9 750.30078 37.5 C 752.90078 29.3 759.90078 24.5 769.30078 24.5 z M 497.30078 24.599609 C 507.70078 24.599608 514 31.699219 514 42.699219 L 514 69.800781 C 514 72.600781 512.20078 74.300781 509.80078 74.300781 C 507.40078 74.300781 505.59961 72.600781 505.59961 69.800781 L 505.59961 44.699219 C 505.59961 36.999219 502.10039 32.400391 494.90039 32.400391 C 488.40039 32.400391 483.90039 36.999219 483.90039 44.199219 L 483.90039 69.800781 C 483.90039 72.600781 482.09922 74.300781 479.69922 74.300781 C 477.29922 74.300781 475.5 72.600781 475.5 69.800781 L 475.5 29.699219 L 475.30078 29.699219 C 475.30078 26.899219 477.1 25.199219 479.5 25.199219 C 481.9 25.199219 483.69922 26.899219 483.69922 29.699219 L 483.69922 31.099609 L 483.80078 31.099609 C 486.10078 27.399609 490.70078 24.599609 497.30078 24.599609 z M 691.19922 24.599609 C 704.09922 24.599608 710.09961 30.699609 710.09961 42.599609 L 710.09961 59.900391 C 710.09961 62.400391 710.3 63.400781 711 64.800781 L 712.69922 67.900391 C 713.09922 68.600391 713.40039 69.500781 713.40039 70.300781 C 713.40039 72.600781 711.59961 74.300781 709.09961 74.300781 C 707.59961 74.300781 706.40039 73.599219 705.40039 72.199219 L 703.5 69.199219 L 703.40039 69.199219 C 700.20039 72.799219 695.69961 74.900391 688.59961 74.900391 C 677.89961 74.900391 671.59961 69.600391 671.59961 60.400391 C 671.59961 50.500391 678.40039 45.5 690.40039 45.5 L 701.30078 45.5 C 701.70078 45.5 701.90039 45.300391 701.90039 44.900391 L 701.90039 42.599609 C 701.90039 35.899609 698.80078 32.099609 690.30078 32.099609 C 686.60078 32.099609 682.8 33.3 680.5 34.5 C 679.7 34.9 678.79961 35.199219 678.09961 35.199219 C 675.89961 35.199219 674.5 33.799609 674.5 31.599609 C 674.5 30.299609 675.1 28.999219 676.5 28.199219 C 679.5 26.199219 684.49922 24.599609 691.19922 24.599609 z M 821.80078 24.599609 C 825.10078 24.599609 827.30039 25.400781 828.90039 26.300781 C 830.60039 27.200781 831.30078 28.500391 831.30078 29.900391 C 831.30078 32.300391 829.59961 34.099609 827.09961 34.099609 C 826.49961 34.099609 825.7 33.899609 825 33.599609 C 823.2 32.899609 821.5 32.400391 819.5 32.400391 C 812.3 32.400391 809.40039 38.4 809.40039 46.5 L 809.40039 69.800781 C 809.40039 72.600781 807.59922 74.300781 805.19922 74.300781 C 802.69922 74.300781 800.90039 72.600781 800.90039 69.800781 L 800.90039 29.699219 C 800.90039 26.899219 802.69961 25.199219 805.09961 25.199219 C 807.49961 25.199219 809.30078 26.899219 809.30078 29.699219 L 809.30078 31.900391 L 809.40039 31.900391 C 811.40039 27.600391 815.80078 24.599609 821.80078 24.599609 z M 72.5 25 L 77.800781 25 C 81.700781 25 83.099609 26.500781 83.099609 30.300781 L 83.099609 48 C 83.099609 54 84.199609 57.200781 86.099609 59.300781 C 87.899609 61.100781 90.599219 62.2 93.199219 62 C 96.099219 62 98.799218 60.900781 100.69922 58.800781 C 102.59922 56.700781 103.69922 53.400781 103.69922 48.300781 L 103.69922 30.300781 C 103.69922 26.500781 105.4 25 109 25 L 114.30078 25 C 117.90078 25 119.59961 26.500781 119.59961 30.300781 L 119.59961 72.5 C 119.59961 74.9 118.39961 76 116.59961 76 C 113.89961 76 110.10039 73.7 107.40039 69.5 C 103.20039 74.3 97.199219 77.000391 90.699219 76.900391 C 84.699219 77.100391 79.000391 74.900391 74.400391 70.900391 C 69.700391 66.400391 67.199219 59.5 67.199219 49.5 L 67.199219 30.300781 C 67.199219 26.700781 68.6 25 72.5 25 z M 225.90039 25 L 231.19922 25 C 235.09922 25 236.5 26.500781 236.5 30.300781 L 236.5 69.900391 C 236.5 73.500391 235.09922 75 231.19922 75 L 225.90039 75 C 222.00039 75 220.59961 73.500391 220.59961 69.900391 L 220.59961 30.300781 C 220.59961 26.700781 222.00039 25 225.90039 25 z M 458 25.199219 C 460.4 25.199219 462.19922 26.899219 462.19922 29.699219 L 462.19922 69.800781 C 462.19922 72.600781 460.4 74.300781 458 74.300781 C 455.6 74.300781 453.80078 72.600781 453.80078 69.800781 L 453.80078 29.699219 C 453.80078 26.899219 455.6 25.199219 458 25.199219 z M 575.09961 25.199219 C 577.49961 25.199219 579.30078 26.899219 579.30078 29.699219 L 579.30078 54.800781 C 579.30078 62.500781 582.70039 67.099609 589.90039 67.099609 C 596.40039 67.099609 600.69922 62.500781 600.69922 55.300781 L 600.69922 29.699219 C 600.69922 26.899219 602.50039 25.199219 604.90039 25.199219 C 607.30039 25.199219 609.09961 26.899219 609.09961 29.699219 L 609.09961 69.800781 L 609.30078 69.800781 C 609.30078 72.600781 607.49961 74.300781 605.09961 74.300781 C 602.69961 74.300781 600.90039 72.600781 600.90039 69.800781 L 600.90039 68.400391 L 600.80078 68.400391 C 598.50078 72.100391 594.1 74.900391 587.5 74.900391 C 577.1 74.900391 570.90039 67.800781 570.90039 56.800781 L 570.90039 29.699219 C 570.90039 26.899219 572.69961 25.199219 575.09961 25.199219 z M 642.80078 32.599609 C 637.40078 32.599609 633.79922 35.299609 632.19922 40.099609 C 631.29922 42.699609 631.09961 45.700781 631.09961 49.800781 C 631.09961 54.000781 631.29922 56.999609 632.19922 59.599609 C 633.79922 64.399609 637.40078 67.099609 642.80078 67.099609 C 648.10078 67.099609 651.70078 64.399609 653.30078 59.599609 C 654.20078 56.999609 654.40039 54.000781 654.40039 49.800781 C 654.40039 45.700781 654.20078 42.699609 653.30078 40.099609 C 651.70078 35.299609 648.10078 32.599609 642.80078 32.599609 z M 769.40039 32.599609 C 764.10039 32.599609 760.19961 35.299609 758.59961 40.099609 C 757.79961 42.699609 757.5 45.200781 757.5 49.800781 C 757.5 54.400781 757.79961 56.999609 758.59961 59.599609 C 760.19961 64.399609 764.10039 67.099609 769.40039 67.099609 C 774.70039 67.099609 778.59922 64.399609 780.19922 59.599609 C 780.99922 56.999609 781.30078 54.400781 781.30078 49.800781 C 781.30078 45.200781 780.99922 42.699609 780.19922 40.099609 C 778.59922 35.299609 774.70039 32.599609 769.40039 32.599609 z M 336.90039 36 C 331.20039 36 327.09961 39.599219 327.09961 45.199219 C 327.29961 50.499219 331.79922 54.7 337.19922 54.5 C 342.29922 54.3 346.2 50.299219 346.5 45.199219 C 346.5 39.799219 342.60039 36 336.90039 36 z M 28.5 37.199219 C 21.7 37.199219 16.099609 42.3 16.099609 50 C 16.099609 57.7 21.500391 62.800781 28.400391 62.800781 C 35.300391 62.800781 40.699219 57.8 40.699219 50 C 40.699219 42.3 35.3 37.199219 28.5 37.199219 z M 155.80078 37.199219 C 148.40078 37.199219 143.80078 42.6 143.80078 50 C 143.80078 57.4 148.50078 62.800781 155.80078 62.800781 C 163.10078 62.800781 167.80078 57.5 167.80078 50 C 167.80078 42.6 163.10078 37.199219 155.80078 37.199219 z M 399 37.199219 C 391.7 37.199219 387 42.6 387 50 C 387 57.4 391.7 62.800781 399 62.800781 C 406.3 62.800781 411 57.5 411 50 C 411 42.6 406.3 37.199219 399 37.199219 z M 691.80078 52.400391 C 683.60078 52.400391 679.80078 54.799219 679.80078 60.199219 C 679.80078 65.199219 683.40078 67.699219 689.80078 67.699219 C 697.20078 67.699219 702 64.200781 702 58.300781 L 702 53 C 702 52.6 701.80039 52.400391 701.40039 52.400391 L 691.80078 52.400391 z M 336.90039 66.800781 C 329.60039 66.800781 324.90039 70.9 324.90039 77 C 324.90039 82.7 330.00039 87.199219 336.90039 87.199219 C 343.80039 87.199219 348.90039 82.7 348.90039 77 C 348.90039 71 344.20039 66.800781 336.90039 66.800781 z "
     style="fill:#0b0e14;fill-opacity:1;fill-rule:evenodd;stroke:none;stroke-width:4.1;stroke-linecap:round;paint-order:markers fill stroke"
     id="rect846" /></svg>
