<?xml version="1.0" encoding="UTF-8" standalone="no"?>
<svg
   xmlns:dc="http://purl.org/dc/elements/1.1/"
   xmlns:cc="http://creativecommons.org/ns#"
   xmlns:rdf="http://www.w3.org/1999/02/22-rdf-syntax-ns#"
   xmlns:svg="http://www.w3.org/2000/svg"
   xmlns="http://www.w3.org/2000/svg"
   xmlns:sodipodi="http://sodipodi.sourceforge.net/DTD/sodipodi-0.dtd"
   xmlns:inkscape="http://www.inkscape.org/namespaces/inkscape"
   inkscape:version="1.0 (4035a4fb49, 2020-05-01)"
   sodipodi:docname="more.svg"
   id="svg18"
   version="1.1"
   viewBox="0 0 46 46"
   height="46"
   width="46">
  <metadata
     id="metadata24">
    <rdf:RDF>
      <cc:Work
         rdf:about="">
        <dc:format>image/svg+xml</dc:format>
        <dc:type
           rdf:resource="http://purl.org/dc/dcmitype/StillImage" />
      </cc:Work>
    </rdf:RDF>
  </metadata>
  <defs
     id="defs22" />
  <sodipodi:namedview
     inkscape:current-layer="svg18"
     inkscape:window-maximized="1"
     inkscape:window-y="-8"
     inkscape:window-x="-8"
     inkscape:cy="18.895937"
     inkscape:cx="2.2650939"
     inkscape:zoom="5.5652175"
     showgrid="false"
     id="namedview20"
     inkscape:window-height="745"
     inkscape:window-width="1366"
     inkscape:pageshadow="2"
     inkscape:pageopacity="0"
     guidetolerance="10"
     gridtolerance="10"
     objecttolerance="10"
     borderopacity="1"
     bordercolor="#666666"
     pagecolor="#ffffff"
     inkscape:document-rotation="0" />
  <title
     id="title2">tab_more inactive</title>
  <g
     id="g853">
    <path
       d="M 23.5 2 C 11.611485 2 2 11.611485 2 23.5 C 2 35.388514 11.611485 45 23.5 45 C 35.388514 45 45 35.388514 45 23.5 C 45 11.611485 35.388514 2 23.5 2 z M 23.5 4.5996094 C 33.993086 4.5996094 42.400391 13.006913 42.400391 23.5 C 42.400391 33.993086 33.993086 42.400391 23.5 42.400391 C 13.006913 42.400391 4.5996094 33.993086 4.5996094 23.5 C 4.5996094 13.006913 13.006913 4.5996094 23.5 4.5996094 z M 14.900391 20.632812 A 2.8670001 2.8670001 0 0 0 12.033203 23.5 A 2.8670001 2.8670001 0 0 0 14.900391 26.367188 A 2.8670001 2.8670001 0 0 0 17.767578 23.5 A 2.8670001 2.8670001 0 0 0 14.900391 20.632812 z M 23.5 20.632812 A 2.8670001 2.8670001 0 0 0 20.632812 23.5 A 2.8670001 2.8670001 0 0 0 23.5 26.367188 A 2.8670001 2.8670001 0 0 0 26.367188 23.5 A 2.8670001 2.8670001 0 0 0 23.5 20.632812 z M 32.099609 20.632812 A 2.8670001 2.8670001 0 0 0 29.232422 23.5 A 2.8670001 2.8670001 0 0 0 32.099609 26.367188 A 2.8670001 2.8670001 0 0 0 34.966797 23.5 A 2.8670001 2.8670001 0 0 0 32.099609 20.632812 z "
       style="color:#000000;font-style:normal;font-variant:normal;font-weight:normal;font-stretch:normal;font-size:medium;line-height:normal;font-family:sans-serif;font-variant-ligatures:normal;font-variant-position:normal;font-variant-caps:normal;font-variant-numeric:normal;font-variant-alternates:normal;font-variant-east-asian:normal;font-feature-settings:normal;font-variation-settings:normal;text-indent:0;text-align:start;text-decoration:none;text-decoration-line:none;text-decoration-style:solid;text-decoration-color:#000000;letter-spacing:normal;word-spacing:normal;text-transform:none;writing-mode:lr-tb;direction:ltr;text-orientation:mixed;dominant-baseline:auto;baseline-shift:baseline;text-anchor:start;white-space:normal;shape-padding:0;shape-margin:0;inline-size:0;clip-rule:nonzero;display:inline;overflow:visible;visibility:visible;isolation:auto;mix-blend-mode:normal;color-interpolation:sRGB;color-interpolation-filters:linearRGB;solid-color:#000000;solid-opacity:1;vector-effect:none;fill:#737c8c;fill-opacity:1;fill-rule:evenodd;stroke:none;stroke-width:2.6;stroke-linecap:butt;stroke-linejoin:miter;stroke-miterlimit:4;stroke-dasharray:none;stroke-dashoffset:0;stroke-opacity:1;color-rendering:auto;image-rendering:auto;shape-rendering:auto;text-rendering:auto;enable-background:accumulate;stop-color:#000000"
       id="path844" />
  </g>
</svg>
