<?xml version="1.0" encoding="UTF-8" standalone="no"?>
<svg
   xmlns:dc="http://purl.org/dc/elements/1.1/"
   xmlns:cc="http://creativecommons.org/ns#"
   xmlns:rdf="http://www.w3.org/1999/02/22-rdf-syntax-ns#"
   xmlns:svg="http://www.w3.org/2000/svg"
   xmlns="http://www.w3.org/2000/svg"
   xmlns:sodipodi="http://sodipodi.sourceforge.net/DTD/sodipodi-0.dtd"
   xmlns:inkscape="http://www.inkscape.org/namespaces/inkscape"
   inkscape:version="1.0 (4035a4fb49, 2020-05-01)"
   sodipodi:docname="shop.svg"
   id="svg19"
   version="1.1"
   viewBox="0 0 88 38"
   height="45"
   width="90">
  <metadata
     id="metadata25">
    <rdf:RDF>
      <cc:Work
         rdf:about="">
        <dc:format>image/svg+xml</dc:format>
        <dc:type
           rdf:resource="http://purl.org/dc/dcmitype/StillImage" />
      </cc:Work>
    </rdf:RDF>
  </metadata>
  <defs
     id="defs23" />
  <sodipodi:namedview
     inkscape:current-layer="svg19"
     inkscape:window-maximized="1"
     inkscape:window-y="-8"
     inkscape:window-x="-8"
     inkscape:cy="12.381881"
     inkscape:cx="32.689742"
     inkscape:zoom="5.6888889"
     inkscape:snap-smooth-nodes="true"
     inkscape:snap-page="true"
     showgrid="false"
     id="namedview21"
     inkscape:window-height="745"
     inkscape:window-width="1366"
     inkscape:pageshadow="2"
     inkscape:pageopacity="0"
     guidetolerance="10"
     gridtolerance="10"
     objecttolerance="10"
     borderopacity="1"
     bordercolor="#666666"
     pagecolor="#ffffff" />
  <title
     id="title2">shop</title>
  <desc
     id="desc4">Created with Sketch.</desc>
  <path
     transform="matrix(0.97777778,0,0,0.97777778,0,-3)"
     d="M 43.876953 14.111328 C 43.888182 14.148568 43.892126 14.186876 43.900391 14.224609 C 43.892279 14.186847 43.888066 14.148605 43.876953 14.111328 z M 43.935547 14.419922 C 43.938073 14.449301 43.934699 14.478404 43.935547 14.507812 C 43.934839 14.478304 43.937948 14.449401 43.935547 14.419922 z M 1.1074219 14.955078 L 1.1074219 15.492188 C 1.1074219 19.421314 4.3189175 22.630859 8.2480469 22.630859 C 11.96848 22.630859 15.041045 19.752726 15.357422 16.111328 L 2.5957031 16.111328 C 1.8909519 16.111328 1.2846248 15.611602 1.1074219 14.955078 z M 43.861328 15.044922 C 43.743221 15.406911 43.499579 15.728607 43.148438 15.921875 C 42.920358 16.047397 42.664595 16.111328 42.404297 16.111328 L 29.613281 16.111328 C 29.929659 19.752726 33.002224 22.630859 36.722656 22.630859 C 40.651785 22.630859 43.861328 19.421314 43.861328 15.492188 L 43.861328 15.044922 z "
     style="color:#000000;font-style:normal;font-variant:normal;font-weight:normal;font-stretch:normal;font-size:medium;line-height:normal;font-family:sans-serif;font-variant-ligatures:normal;font-variant-position:normal;font-variant-caps:normal;font-variant-numeric:normal;font-variant-alternates:normal;font-variant-east-asian:normal;font-feature-settings:normal;font-variation-settings:normal;text-indent:0;text-align:start;text-decoration:none;text-decoration-line:none;text-decoration-style:solid;text-decoration-color:#000000;letter-spacing:normal;word-spacing:normal;text-transform:none;writing-mode:lr-tb;direction:ltr;text-orientation:mixed;dominant-baseline:auto;baseline-shift:baseline;text-anchor:start;white-space:normal;shape-padding:0;shape-margin:0;inline-size:0;clip-rule:nonzero;display:inline;overflow:visible;visibility:visible;isolation:auto;mix-blend-mode:normal;color-interpolation:sRGB;color-interpolation-filters:linearRGB;solid-color:#000000;solid-opacity:1;vector-effect:none;fill:#ff4945;fill-opacity:0;fill-rule:evenodd;stroke:none;stroke-width:2.43884;stroke-linecap:butt;stroke-linejoin:round;stroke-miterlimit:4;stroke-dasharray:none;stroke-dashoffset:0;stroke-opacity:1;color-rendering:auto;image-rendering:auto;shape-rendering:auto;text-rendering:auto;enable-background:accumulate;stop-color:#000000"
     id="path1118" />
  <path
     transform="matrix(0.97777778,0,0,0.97777778,0,-3)"
     d="M 0 0 L 0 45 L 45 45 L 45 0 L 0 0 z M 8.7089844 3.8945312 L 16.580078 3.8945312 L 18.095703 3.8945312 L 15.40625 16.111328 L 15.357422 16.111328 C 15.041045 19.752726 11.96848 22.630859 8.2480469 22.630859 C 4.3189175 22.630859 1.1074219 19.421314 1.1074219 15.492188 L 1.1074219 14.955078 C 1.0737639 14.830376 1.0507813 14.702223 1.0507812 14.568359 C 1.0507811 14.307908 1.1167572 14.050235 1.2421875 13.822266 L 5.7421875 5.6484375 C 6.3366194 4.5684289 7.4761958 3.8945312 8.7089844 3.8945312 z M 26.904297 3.8945312 L 36.291016 3.8945312 C 37.523808 3.8945316 38.663383 4.5684314 39.257812 5.6484375 L 43.757812 13.822266 C 43.968911 14.205805 43.990332 14.649532 43.861328 15.044922 L 43.861328 15.492188 C 43.861328 19.421314 40.651785 22.630859 36.722656 22.630859 C 33.002224 22.630859 29.929659 19.752726 29.613281 16.111328 L 29.59375 16.111328 L 26.904297 3.8945312 z M 23.847656 25.626953 L 36.224609 25.626953 C 37.047735 25.626953 37.714844 26.294062 37.714844 27.117188 L 37.714844 35.269531 C 37.714844 36.092657 37.047735 36.759766 36.224609 36.759766 L 23.847656 36.759766 C 23.024531 36.759766 22.357422 36.092657 22.357422 35.269531 L 22.357422 27.117188 C 22.357422 26.294062 23.024531 25.626953 23.847656 25.626953 z M 8.7753906 25.628906 L 16.847656 25.628906 C 17.656338 25.628906 18.33789 26.310456 18.337891 27.119141 L 18.337891 39.886719 L 18.337891 41.105469 L 7.2851562 41.105469 L 7.2851562 27.119141 C 7.2851564 26.310461 7.9667092 25.628906 8.7753906 25.628906 z "
     style="fill:#0b0e14;fill-opacity:1;fill-rule:evenodd;stroke-width:4.1;stroke-linecap:round;paint-order:markers fill stroke"
     id="rect850" />
  <path
     transform="matrix(0.97777778,0,0,0.97777778,0,-3)"
     d="M 15.464844 15.847656 L 15.40625 16.111328 L 15.357422 16.111328 C 15.041045 19.752726 11.96848 22.630859 8.2480469 22.630859 C 6.1634201 22.630859 4.2866777 21.722155 2.9785156 20.287109 L 2.9785156 38.800781 C 2.9785156 40.05844 4.0255449 41.105469 5.2832031 41.105469 L 7.2851562 41.105469 L 7.2851562 27.119141 C 7.2851564 26.310461 7.9667092 25.628906 8.7753906 25.628906 L 16.847656 25.628906 C 17.656338 25.628906 18.33789 26.310456 18.337891 27.119141 L 18.337891 39.886719 L 18.337891 41.105469 L 39.716797 41.105469 C 40.974456 41.105469 42.021484 40.058441 42.021484 38.800781 L 42.021484 20.253906 C 40.712704 21.708267 38.823366 22.630859 36.722656 22.630859 C 33.002224 22.630859 29.929659 19.752726 29.613281 16.111328 L 29.59375 16.111328 L 29.535156 15.847656 L 15.464844 15.847656 z M 23.847656 25.626953 L 36.224609 25.626953 C 37.047735 25.626953 37.714844 26.294062 37.714844 27.117188 L 37.714844 35.269531 C 37.714844 36.092657 37.047735 36.759766 36.224609 36.759766 L 23.847656 36.759766 C 23.024531 36.759766 22.357422 36.092657 22.357422 35.269531 L 22.357422 27.117188 C 22.357422 26.294062 23.024531 25.626953 23.847656 25.626953 z "
     style="color:#000000;font-style:normal;font-variant:normal;font-weight:normal;font-stretch:normal;font-size:medium;line-height:normal;font-family:sans-serif;font-variant-ligatures:normal;font-variant-position:normal;font-variant-caps:normal;font-variant-numeric:normal;font-variant-alternates:normal;font-variant-east-asian:normal;font-feature-settings:normal;font-variation-settings:normal;text-indent:0;text-align:start;text-decoration:none;text-decoration-line:none;text-decoration-style:solid;text-decoration-color:#000000;letter-spacing:normal;word-spacing:normal;text-transform:none;writing-mode:lr-tb;direction:ltr;text-orientation:mixed;dominant-baseline:auto;baseline-shift:baseline;text-anchor:start;white-space:normal;shape-padding:0;shape-margin:0;inline-size:0;clip-rule:nonzero;display:inline;overflow:visible;visibility:visible;isolation:auto;mix-blend-mode:normal;color-interpolation:sRGB;color-interpolation-filters:linearRGB;solid-color:#000000;solid-opacity:1;vector-effect:none;fill:#a56644;fill-opacity:1;fill-rule:evenodd;stroke:none;stroke-width:2.43884;stroke-linecap:butt;stroke-linejoin:miter;stroke-miterlimit:4;stroke-dasharray:none;stroke-dashoffset:0;stroke-opacity:1;color-rendering:auto;image-rendering:auto;shape-rendering:auto;text-rendering:auto;enable-background:accumulate;stop-color:#000000"
     id="path1024" />
  <path
     transform="matrix(0.97777778,0,0,0.97777778,0,-3)"
     d="M 8.7753906 25.628906 C 7.9667092 25.628906 7.2851562 26.310461 7.2851562 27.119141 L 7.2851562 41.105469 L 18.337891 41.105469 L 18.337891 39.886719 L 18.337891 27.119141 C 18.33789 26.310456 17.656338 25.628906 16.847656 25.628906 L 8.7753906 25.628906 z "
     style="color:#000000;font-style:normal;font-variant:normal;font-weight:normal;font-stretch:normal;font-size:medium;line-height:normal;font-family:sans-serif;font-variant-ligatures:normal;font-variant-position:normal;font-variant-caps:normal;font-variant-numeric:normal;font-variant-alternates:normal;font-variant-east-asian:normal;font-feature-settings:normal;font-variation-settings:normal;text-indent:0;text-align:start;text-decoration:none;text-decoration-line:none;text-decoration-style:solid;text-decoration-color:#000000;letter-spacing:normal;word-spacing:normal;text-transform:none;writing-mode:lr-tb;direction:ltr;text-orientation:mixed;dominant-baseline:auto;baseline-shift:baseline;text-anchor:start;white-space:normal;shape-padding:0;shape-margin:0;inline-size:0;clip-rule:nonzero;display:inline;overflow:visible;visibility:visible;isolation:auto;mix-blend-mode:normal;color-interpolation:sRGB;color-interpolation-filters:linearRGB;solid-color:#000000;solid-opacity:1;vector-effect:none;fill:#88e6f9;fill-opacity:0.74509805;fill-rule:evenodd;stroke:none;stroke-width:2.43884;stroke-linecap:butt;stroke-linejoin:miter;stroke-miterlimit:4;stroke-dasharray:none;stroke-dashoffset:0;stroke-opacity:1;color-rendering:auto;image-rendering:auto;shape-rendering:auto;text-rendering:auto;enable-background:accumulate;stop-color:#000000"
     id="path1030" />
  <path
     d="M 35.419251,32.94232 H 23.317592 c -0.804834,0 -1.45728,-0.652446 -1.45728,-1.45728 v -7.97008 c 0,-0.804834 0.652446,-1.45728 1.45728,-1.45728 h 12.101659 c 0.804834,0 1.45728,0.652446 1.45728,1.45728 v 7.97008 c 0,0.804834 -0.652446,1.45728 -1.45728,1.45728 z"
     id="Mask"
     fill="#9ae6f7"
     fill-rule="nonzero"
     style="stroke:none;stroke-width:1;fill:#88e6f9;fill-opacity:0.74596769" />
  <path
     d="m 36.876531,24.36611 -8.57621,8.57621 h -4.982729 c -0.804834,0 -1.45728,-0.652446 -1.45728,-1.45728 V 30.897048 L 30.69968,22.05768 h 4.719571 c 0.804834,0 1.45728,0.652446 1.45728,1.45728 z"
     id="Path"
     fill="#ffffff"
     style="fill-rule:evenodd;stroke:none;stroke-width:1" />
  <path
     transform="matrix(0.97777778,0,0,0.97777778,0,-3)"
     d="M 16.580078 13.675781 A 1.2195401 1.2195401 0 0 0 15.896484 13.886719 L 15.40625 16.111328 L 15.390625 16.111328 C 15.707002 19.752726 18.779567 22.630859 22.5 22.630859 C 26.220433 22.630859 29.292998 19.752726 29.609375 16.111328 L 29.59375 16.111328 L 29.103516 13.886719 A 1.2195401 1.2195401 0 0 0 28.419922 13.675781 L 16.580078 13.675781 z "
     style="color:#000000;font-style:normal;font-variant:normal;font-weight:normal;font-stretch:normal;font-size:medium;line-height:normal;font-family:sans-serif;font-variant-ligatures:normal;font-variant-position:normal;font-variant-caps:normal;font-variant-numeric:normal;font-variant-alternates:normal;font-variant-east-asian:normal;font-feature-settings:normal;font-variation-settings:normal;text-indent:0;text-align:start;text-decoration:none;text-decoration-line:none;text-decoration-style:solid;text-decoration-color:#000000;letter-spacing:normal;word-spacing:normal;text-transform:none;writing-mode:lr-tb;direction:ltr;text-orientation:mixed;dominant-baseline:auto;baseline-shift:baseline;text-anchor:start;white-space:normal;shape-padding:0;shape-margin:0;inline-size:0;clip-rule:nonzero;display:inline;overflow:visible;visibility:visible;isolation:auto;mix-blend-mode:normal;color-interpolation:sRGB;color-interpolation-filters:linearRGB;solid-color:#000000;solid-opacity:1;vector-effect:none;fill:#ffffff;fill-opacity:1;fill-rule:evenodd;stroke:none;stroke-width:2.43884;stroke-linecap:butt;stroke-linejoin:round;stroke-miterlimit:4;stroke-dasharray:none;stroke-dashoffset:0;stroke-opacity:1;color-rendering:auto;image-rendering:auto;shape-rendering:auto;text-rendering:auto;enable-background:accumulate;stop-color:#000000"
     id="path1048" />
  <path
     transform="matrix(0.97777778,0,0,0.97777778,0,-3)"
     d="M 18.095703 3.8945312 L 15.40625 16.111328 L 11.675781 16.111328 A 1.2195401 1.2195401 0 0 0 11.734375 16.113281 L 34.341797 16.113281 A 1.2195401 1.2195401 0 0 0 34.386719 16.111328 L 29.59375 16.111328 L 26.904297 3.8945312 L 18.095703 3.8945312 z "
     style="color:#000000;font-style:normal;font-variant:normal;font-weight:normal;font-stretch:normal;font-size:medium;line-height:normal;font-family:sans-serif;font-variant-ligatures:normal;font-variant-position:normal;font-variant-caps:normal;font-variant-numeric:normal;font-variant-alternates:normal;font-variant-east-asian:normal;font-feature-settings:normal;font-variation-settings:normal;text-indent:0;text-align:start;text-decoration:none;text-decoration-line:none;text-decoration-style:solid;text-decoration-color:#000000;letter-spacing:normal;word-spacing:normal;text-transform:none;writing-mode:lr-tb;direction:ltr;text-orientation:mixed;dominant-baseline:auto;baseline-shift:baseline;text-anchor:start;white-space:normal;shape-padding:0;shape-margin:0;inline-size:0;clip-rule:nonzero;display:inline;overflow:visible;visibility:visible;isolation:auto;mix-blend-mode:normal;color-interpolation:sRGB;color-interpolation-filters:linearRGB;solid-color:#000000;solid-opacity:1;vector-effect:none;fill:#d0d0d0;fill-opacity:1;fill-rule:evenodd;stroke:none;stroke-width:2.43884;stroke-linecap:butt;stroke-linejoin:round;stroke-miterlimit:4;stroke-dasharray:none;stroke-dashoffset:0;stroke-opacity:1;color-rendering:auto;image-rendering:auto;shape-rendering:auto;text-rendering:auto;enable-background:accumulate;stop-color:#000000"
     id="path1018" />
  <path
     d="m 8.5154514,0.80798606 c -1.2053933,0 -2.3196458,0.65892224 -2.9008681,1.71493064 l -4.4,7.9921883 c -0.1226431,0.222903 -0.1871529,0.474848 -0.1871528,0.729513 0,0.819978 0.6906125,1.508681 1.5105903,1.508681 H 15.063889 L 17.693576,0.80798606 h -1.481944 z m 17.7909726,0 2.629687,11.94531294 h 12.525868 c 0.254514,0 0.504594,-0.06251 0.727605,-0.185243 0.718355,-0.395383 0.991205,-1.334596 0.595832,-2.052951 l -4.4,-7.9921883 C 37.804195,1.4669106 36.689946,0.80798606 35.484549,0.80798606 Z"
     style="color:#000000;font-style:normal;font-variant:normal;font-weight:normal;font-stretch:normal;font-size:medium;line-height:normal;font-family:sans-serif;font-variant-ligatures:normal;font-variant-position:normal;font-variant-caps:normal;font-variant-numeric:normal;font-variant-alternates:normal;font-variant-east-asian:normal;font-feature-settings:normal;font-variation-settings:normal;text-indent:0;text-align:start;text-decoration:none;text-decoration-line:none;text-decoration-style:solid;text-decoration-color:#000000;letter-spacing:normal;word-spacing:normal;text-transform:none;writing-mode:lr-tb;direction:ltr;text-orientation:mixed;dominant-baseline:auto;baseline-shift:baseline;text-anchor:start;white-space:normal;shape-padding:0;shape-margin:0;inline-size:0;clip-rule:nonzero;display:inline;overflow:visible;visibility:visible;isolation:auto;mix-blend-mode:normal;color-interpolation:sRGB;color-interpolation-filters:linearRGB;solid-color:#000000;solid-opacity:1;vector-effect:none;fill:#000000;fill-opacity:0.2016129;fill-rule:evenodd;stroke:none;stroke-width:2.38464;stroke-linecap:butt;stroke-linejoin:miter;stroke-miterlimit:4;stroke-dasharray:none;stroke-dashoffset:0;stroke-opacity:1;color-rendering:auto;image-rendering:auto;shape-rendering:auto;text-rendering:auto;enable-background:accumulate;stop-color:#000000"
     id="path1054" />
  <g
     transform="matrix(0.97777778,0,0,0.97777778,44,0.422222)"
     id="g868">
    <path
       id="Combined-Shape-8"
       style="fill:#737c8c;fill-opacity:1;stroke:none;stroke-width:1"
       d="m 9.2441406,3.9316406 c -1.4217426,0 -2.7502036,0.7065173 -3.5429687,1.8867188 L 1.2890625,12.388672 c -0.57049802,0.849309 -0.49213432,1.935358 0.1035156,2.701172 -0.017234,0.110949 -0.035156,0.22211 -0.035156,0.33789 0,1.012534 0.2001324,1.976416 0.5566406,2.861328 v 19.621094 c 0,1.786089 1.4482861,3.232422 3.234375,3.232422 H 39.851562 c 1.78609,0 3.234376,-1.446333 3.234376,-3.232422 V 18.289062 c 0.356508,-0.884912 0.55664,-1.848795 0.55664,-2.861328 0,-0.11578 -0.01792,-0.226941 -0.03516,-0.33789 0.59565,-0.765814 0.674014,-1.851863 0.103516,-2.701172 L 39.298828,5.8183594 C 38.506063,4.6381579 37.177602,3.9316406 35.755859,3.9316406 Z m 0,2.1992188 H 16.341797 L 14.486328,13.228516 H 3.5566406 c -0.066898,0 -0.1299354,0.01368 -0.1953125,0.01953 L 7.5273438,7.0449219 C 7.911467,6.4730717 8.555255,6.1308594 9.2441406,6.1308594 Z m 9.3710934,0 h 7.769532 l 1.859375,7.1152346 c -0.05772,-0.0045 -0.112992,-0.01758 -0.171875,-0.01758 H 16.927734 c -0.05888,0 -0.114158,0.01304 -0.171875,0.01758 z m 10.042969,0 h 7.097656 c 0.688886,0 1.332674,0.3422123 1.716797,0.9140625 l 4.166016,6.2031251 c -0.06538,-0.0058 -0.128415,-0.01953 -0.195313,-0.01953 H 30.513672 Z M 4.1152344,17.068359 H 14.449219 c -0.696822,2.2188 -2.769991,3.828125 -5.2187502,3.828125 H 9.0253906 c -2.1596687,0 -4.021351,-1.254589 -4.9101562,-3.072265 z m 13.0644536,0 h 10.640624 c -0.696826,2.218792 -2.768043,3.828125 -5.216796,3.828125 h -0.207032 c -2.448753,0 -4.51997,-1.609333 -5.216796,-3.828125 z m 13.371093,0 h 10.333985 v 0.75586 c -0.888806,1.817676 -2.750488,3.072265 -4.910157,3.072265 h -0.205078 c -2.448759,0 -4.521928,-1.609325 -5.21875,-3.828125 z m -14.736328,2.277344 c 1.338084,2.243358 3.780156,3.75 6.582031,3.75 h 0.207032 c 2.801875,0 5.243947,-1.506642 6.582031,-3.75 1.338084,2.243358 3.782108,3.75 6.583984,3.75 h 0.205078 c 1.868863,0 3.579656,-0.668368 4.910157,-1.779297 v 16.59375 c 0,0.571062 -0.46214,1.033203 -1.033204,1.033203 H 19.382812 V 26.398438 c 0,-0.750279 -0.607142,-1.357422 -1.357421,-1.357422 H 9.5820312 c -0.750279,0 -1.3574218,0.607142 -1.3574218,1.357422 V 38.943359 H 5.1484375 c -0.5710624,0 -1.0332031,-0.462141 -1.0332031,-1.033203 v -16.59375 c 1.3305008,1.110929 3.0412936,1.779297 4.9101562,1.779297 h 0.2050782 c 2.8018762,0 5.2459002,-1.506642 6.5839842,-3.75 z m 8.275391,5.695313 c -0.750279,0 -1.359375,0.607143 -1.359375,1.357422 v 7.71875 c 0,0.750278 0.609096,1.357421 1.359375,1.357421 h 12.242187 c 0.750279,0 1.357422,-0.607143 1.357422,-1.357421 v -7.71875 c 0,-0.750279 -0.607143,-1.357422 -1.357422,-1.357422 z m -13.666016,2.199218 h 6.759766 v 11.703125 h -6.759766 z m 14.507813,0 h 10.558593 v 6.035157 H 24.931641 Z"
       transform="translate(0,-3.5)" />
  </g>
</svg>
