<?xml version="1.0" encoding="UTF-8" standalone="no"?>
<svg
   xmlns:dc="http://purl.org/dc/elements/1.1/"
   xmlns:cc="http://creativecommons.org/ns#"
   xmlns:rdf="http://www.w3.org/1999/02/22-rdf-syntax-ns#"
   xmlns:svg="http://www.w3.org/2000/svg"
   xmlns="http://www.w3.org/2000/svg"
   xmlns:sodipodi="http://sodipodi.sourceforge.net/DTD/sodipodi-0.dtd"
   xmlns:inkscape="http://www.inkscape.org/namespaces/inkscape"
   inkscape:version="1.0 (4035a4fb49, 2020-05-01)"
   sodipodi:docname="word-bank.svg"
   id="svg28"
   version="1.1"
   viewBox="0 0 22 16"
   height="16"
   width="22">
  <metadata
     id="metadata34">
    <rdf:RDF>
      <cc:Work
         rdf:about="">
        <dc:format>image/svg+xml</dc:format>
        <dc:type
           rdf:resource="http://purl.org/dc/dcmitype/StillImage" />
      </cc:Work>
    </rdf:RDF>
  </metadata>
  <defs
     id="defs32" />
  <sodipodi:namedview
     inkscape:current-layer="svg28"
     inkscape:window-maximized="1"
     inkscape:window-y="-8"
     inkscape:window-x="-8"
     inkscape:cy="8"
     inkscape:cx="11"
     inkscape:zoom="32"
     showgrid="false"
     id="namedview30"
     inkscape:window-height="745"
     inkscape:window-width="1366"
     inkscape:pageshadow="2"
     inkscape:pageopacity="0"
     guidetolerance="10"
     gridtolerance="10"
     objecttolerance="10"
     borderopacity="1"
     bordercolor="#666666"
     pagecolor="#ffffff"
     inkscape:document-rotation="0" />
  <title
     id="title2">Group</title>
  <g
     id="g855">
    <path
       d="M 1 0 C 0.446 0 0 0.446 0 1 L 0 3 C 0 3.554 0.446 4 1 4 L 4 4 C 4.554 4 5 3.554 5 3 L 5 1 C 5 0.446 4.554 0 4 0 L 1 0 z M 8 0 C 7.446 0 7 0.446 7 1 L 7 3 C 7 3.554 7.446 4 8 4 L 12 4 C 12.554 4 13 3.554 13 3 L 13 1 C 13 0.446 12.554 0 12 0 L 8 0 z M 16 0 C 15.446 0 15 0.446 15 1 L 15 3 C 15 3.554 15.446 4 16 4 L 21 4 C 21.554 4 22 3.554 22 3 L 22 1 C 22 0.446 21.554 0 21 0 L 16 0 z M 3 6 C 2.446 6 2 6.446 2 7 L 2 9 C 2 9.554 2.446 10 3 10 L 8 10 C 8.554 10 9 9.554 9 9 L 9 7 C 9 6.446 8.554 6 8 6 L 3 6 z M 12 6 C 11.446 6 11 6.446 11 7 L 11 9 C 11 9.554 11.446 10 12 10 L 19 10 C 19.554 10 20 9.554 20 9 L 20 7 C 20 6.446 19.554 6 19 6 L 12 6 z M 1 12 C 0.446 12 0 12.446 0 13 L 0 15 C 0 15.554 0.446 16 1 16 L 6 16 C 6.554 16 7 15.554 7 15 L 7 13 C 7 12.446 6.554 12 6 12 L 1 12 z M 10 12 C 9.446 12 9 12.446 9 13 L 9 15 C 9 15.554 9.446 16 10 16 L 13 16 C 13.554 16 14 15.554 14 15 L 14 13 C 14 12.446 13.554 12 13 12 L 10 12 z M 17 12 C 16.446 12 16 12.446 16 13 L 16 15 C 16 15.554 16.446 16 17 16 L 21 16 C 21.554 16 22 15.554 22 15 L 22 13 C 22 12.446 21.554 12 21 12 L 17 12 z "
       style="fill:#575e6b;fill-opacity:1;fill-rule:evenodd;stroke:none;stroke-width:1"
       id="rect4" />
  </g>
</svg>
