<?xml version="1.0" encoding="UTF-8" standalone="no"?>
<svg
   xmlns:dc="http://purl.org/dc/elements/1.1/"
   xmlns:cc="http://creativecommons.org/ns#"
   xmlns:rdf="http://www.w3.org/1999/02/22-rdf-syntax-ns#"
   xmlns:svg="http://www.w3.org/2000/svg"
   xmlns="http://www.w3.org/2000/svg"
   xmlns:sodipodi="http://sodipodi.sourceforge.net/DTD/sodipodi-0.dtd"
   xmlns:inkscape="http://www.inkscape.org/namespaces/inkscape"
   inkscape:version="1.0 (4035a4fb49, 2020-05-01)"
   sodipodi:docname="words.svg"
   id="svg12"
   version="1.1"
   viewBox="0 0 92 46"
   height="46"
   width="92">
  <metadata
     id="metadata18">
    <rdf:RDF>
      <cc:Work
         rdf:about="">
        <dc:format>image/svg+xml</dc:format>
        <dc:type
           rdf:resource="http://purl.org/dc/dcmitype/StillImage" />
      </cc:Work>
    </rdf:RDF>
  </metadata>
  <defs
     id="defs16" />
  <sodipodi:namedview
     inkscape:current-layer="svg12"
     inkscape:window-maximized="1"
     inkscape:window-y="-8"
     inkscape:window-x="-8"
     inkscape:cy="21.610795"
     inkscape:cx="24.02855"
     inkscape:zoom="5.5652174"
     inkscape:snap-page="true"
     showgrid="false"
     id="namedview14"
     inkscape:window-height="745"
     inkscape:window-width="1366"
     inkscape:pageshadow="2"
     inkscape:pageopacity="0"
     guidetolerance="10"
     gridtolerance="10"
     objecttolerance="10"
     borderopacity="1"
     bordercolor="#666666"
     pagecolor="#ffffff"
     inkscape:document-rotation="0" />
  <title
     id="title2">words</title>
  <g
     id="g850">
    <g
       id="g842">
      <path
         d="M 0,0 V 46 H 46 V 0 Z m 28.103516,5.8417969 a 5.2,5.2 0 0 1 5.066406,4.2949221 l 0.935547,5.269531 h 2.173828 c 2.8808,0 5.201172,2.320373 5.201172,5.201172 V 33.800781 C 41.480469,36.681581 39.160097,39 36.279297,39 H 17.386719 C 14.505919,39 12.1875,36.681581 12.1875,33.800781 V 32.474609 A 5.2,5.2 0 0 1 6.6289062,28.197266 L 4.3203125,15.207031 A 5.2,5.2 0 0 1 8.5410156,9.1796875 l 0.00195,0.00586 18.6054694,-3.265625 a 5.2,5.2 0 0 1 0.955078,-0.078125 z"
         style="fill:#0b0e14;fill-opacity:1;stroke:none;stroke-width:0;stroke-linecap:round;stroke-dasharray:none;paint-order:markers fill stroke;stroke-opacity:1"
         id="rect843" />
      <path
         d="m 34.105469,15.40625 1.373047,7.720703 a 5.2,5.2 0 0 1 -4.220704,6.027344 l -18.607421,3.259765 a 5.2,5.2 0 0 1 -0.462891,0.05859 v 1.328125 C 12.1875,36.681581 14.505919,39 17.386719,39 h 18.892578 c 2.8808,0 5.201172,-2.318419 5.201172,-5.199219 V 20.607422 c 0,-2.880799 -2.320372,-5.201172 -5.201172,-5.201172 z"
         style="fill:#000000;fill-opacity:0.25098;fill-rule:evenodd;stroke:none;stroke-width:1"
         id="rect4" />
    </g>
    <g
       id="g838">
      <path
         id="path832"
         style="fill:#10151e;fill-opacity:1;stroke:#606060;stroke-width:0;stroke-linecap:round;stroke-dasharray:none;paint-order:markers fill stroke"
         d="M 46,0 V 46 H 92 V 0 Z m 28.103516,5.8417969 a 5.2,5.2 0 0 1 5.066406,4.2949221 l 0.935547,5.269531 h 2.173828 c 2.8808,0 5.201172,2.320373 5.201172,5.201172 V 33.800781 C 87.480469,36.681581 85.160097,39 82.279297,39 H 63.386719 C 60.505919,39 58.1875,36.681581 58.1875,33.800781 V 32.474609 A 5.2,5.2 0 0 1 52.628906,28.197266 L 50.320312,15.207031 a 5.2,5.2 0 0 1 4.220704,-6.0273435 l 0.002,0.00586 18.605469,-3.265625 a 5.2,5.2 0 0 1 0.955078,-0.078125 z" />
      <path
         id="path834"
         style="fill:#000000;fill-opacity:0.25098;fill-rule:evenodd;stroke:none;stroke-width:1"
         d="m 80.105469,15.40625 1.373047,7.720703 a 5.2,5.2 0 0 1 -4.220704,6.027344 l -18.607421,3.259765 a 5.2,5.2 0 0 1 -0.462891,0.05859 v 1.328125 C 58.1875,36.681581 60.505919,39 63.386719,39 h 18.892578 c 2.8808,0 5.201172,-2.318419 5.201172,-5.199219 V 20.607422 c 0,-2.880799 -2.320372,-5.201172 -5.201172,-5.201172 z" />
    </g>
  </g>
</svg>
