<svg viewBox="0 0 22 22" fill="none" xmlns="http://www.w3.org/2000/svg"><mask id="mask0" mask-type="alpha" maskUnits="userSpaceOnUse" x="0" y="4" width="12" height="14"><path fill-rule="evenodd" clip-rule="evenodd" d="M3.27396 4.34276L10.5626 9.1352C11.5625 9.7927 11.8644 11.175 11.2368 12.2227C11.0634 12.5122 10.829 12.7563 10.5515 12.9363L3.26293 17.6643C2.25917 18.3154 0.941651 17.9907 0.320166 16.9391C0.110875 16.5849 0 16.1767 0 15.7601V6.23969C0 5.00282 0.957051 4.00012 2.13763 4.00012C2.53962 4.00012 2.93347 4.11888 3.27396 4.34276Z" fill="white"/></mask><g mask="url(#mask0)"><path fill-rule="evenodd" clip-rule="evenodd" d="M-0.890625 3.06702H12.4549V18.9332H-0.890625V3.06702Z" fill="white"/></g><mask id="mask1" mask-type="alpha" maskUnits="userSpaceOnUse" x="10" y="4" width="12" height="14"><path fill-rule="evenodd" clip-rule="evenodd" d="M13.7095 4.34264L20.9981 9.13508C21.9981 9.79258 22.2999 11.1749 21.6724 12.2225C21.4989 12.5121 21.2645 12.7562 20.9871 12.9362L13.6985 17.6641C12.6947 18.3153 11.3772 17.9906 10.7557 16.939C10.5464 16.5848 10.4355 16.1765 10.4355 15.76V6.23957C10.4355 5.00269 11.3926 4 12.5732 4C12.9752 4 13.369 4.11875 13.7095 4.34264Z" fill="white"/></mask><g mask="url(#mask1)"><path fill-rule="evenodd" clip-rule="evenodd" d="M9.54492 3.06689H22.8904V18.9331H9.54492V3.06689Z" fill="#1CB0F6"/></g></svg>