<svg viewBox="0 0 22 22" fill="none" xmlns="http://www.w3.org/2000/svg"><path fill-rule="evenodd" clip-rule="evenodd" d="M11.5163 2.82777C11.8763 3.18936 11.9112 3.74055 11.5943 4.05889L8.73706 6.92902C8.42015 7.24735 7.87143 7.21228 7.51146 6.85069L6.26019 5.59378C5.90021 5.23219 5.8653 4.681 6.1822 4.36267L9.03947 1.49253C9.35638 1.1742 9.9051 1.20927 10.2651 1.57086L11.5163 2.82777Z" fill="white"/><path fill-rule="evenodd" clip-rule="evenodd" d="M20.5212 11.8729C20.8812 12.2345 20.9161 12.7857 20.5992 13.1041L17.7419 15.9742C17.425 16.2925 16.8763 16.2574 16.5163 15.8959L15.2651 14.6389C14.9051 14.2774 14.8702 13.7262 15.1871 13.4078L18.0444 10.5377C18.3613 10.2194 18.91 10.2544 19.27 10.616L20.5212 11.8729Z" fill="white"/><path fill-rule="evenodd" clip-rule="evenodd" d="M0.541972 13.5508C0.576133 13.5165 0.622701 13.4976 0.671004 13.4984L8.1066 13.6255L4.73201 17.0153L0.159566 14.2491C0.0603639 14.1891 0.043613 14.0514 0.125498 13.9692L0.541972 13.5508Z" fill="#1CB0F6"/><path fill-rule="evenodd" clip-rule="evenodd" d="M18.8045 19.3102C18.8166 19.8022 18.6273 20.2776 18.2809 20.6256L17.6054 21.3041C17.5908 21.3188 17.575 21.3321 17.5581 21.3441C17.3964 21.4582 17.1731 21.419 17.0595 21.2566L11.8291 13.7783L18.504 7.07336L18.8045 19.3102Z" fill="#1CB0F6"/><path fill-rule="evenodd" clip-rule="evenodd" d="M2.83298 3.26813L15.015 3.56999L8.3401 10.2749L0.895346 5.02096C0.733612 4.90682 0.694615 4.68259 0.808243 4.52013C0.820112 4.50316 0.83342 4.48726 0.848019 4.47259L1.52351 3.79406C1.86992 3.44608 2.34322 3.25599 2.83298 3.26813Z" fill="#1CB0F6"/><path fill-rule="evenodd" clip-rule="evenodd" d="M8.53724 21.3997C8.53806 21.4484 8.51916 21.4954 8.48485 21.5298L8.06929 21.9473C8.05901 21.9576 8.04752 21.9666 8.03508 21.9741C7.95041 22.0254 7.84045 21.9979 7.78946 21.9129L5.03613 17.3207L8.41072 13.9309L8.53724 21.3997Z" fill="#1CB0F6"/><path fill-rule="evenodd" clip-rule="evenodd" d="M15.3563 1.88884C16.2658 0.975209 19.5903 -1.05428 21.3133 0.676488C23.0363 2.40725 21.0776 5.84875 20.188 6.74232L10.4613 16.5128C9.12708 17.8531 6.96384 17.8531 5.62959 16.5128C4.29534 15.1726 4.29534 12.9996 5.62959 11.6593L15.3563 1.88884Z" fill="white"/><path d="M17.1621 1.81105C17.0925 1.88096 17.0925 1.99429 17.1621 2.06419L19.8419 4.75607C19.9115 4.82597 20.0244 4.82597 20.0939 4.75607L20.3497 4.49917C20.628 4.21957 20.628 3.76624 20.3497 3.48663L18.4259 1.55416C18.1475 1.27455 17.6962 1.27456 17.4179 1.55416L17.1621 1.81105Z" fill="#1CB0F6"/><path fill-rule="evenodd" clip-rule="evenodd" d="M7.51192 13.6976C7.76853 13.4398 8.18656 13.4418 8.44318 13.6995C8.69979 13.9573 8.70176 14.3772 8.44515 14.635L5.19705 17.8977C4.94043 18.1555 4.52241 18.1535 4.26579 17.8957C4.00918 17.638 4.00721 17.2181 4.26382 16.9603L7.51192 13.6976Z" fill="#1CB0F6"/></svg>