<svg viewBox="0 0 22 22" fill="none" xmlns="http://www.w3.org/2000/svg"><path fill-rule="evenodd" clip-rule="evenodd" d="M2 4.76893C2 3.23969 3.23969 2 4.76893 2H17.2311C18.7603 2 20 3.23969 20 4.76893V17.2311C20 18.7603 18.7603 20 17.2311 20H4.76893C3.23969 20 2 18.7603 2 17.2311V4.76893Z" fill="white"/><path d="M17.3453 1.82214L19.5338 4.01065L9.35257 14.1919L7.16406 12.0034L17.3453 1.82214Z" fill="#1CB0F6"/><path fill-rule="evenodd" clip-rule="evenodd" d="M6 8C6 12.4183 9.58172 16 14 16C18.4183 16 22 12.4183 22 8C22 3.58172 18.4183 0 14 0C9.58172 0 6 3.58172 6 8ZM18.9047 7.99997C18.9047 10.7089 16.7087 12.905 13.9997 12.905C11.2908 12.905 9.09473 10.7089 9.09473 7.99997C9.09473 5.29102 11.2908 3.09498 13.9997 3.09498C16.7087 3.09498 18.9047 5.29102 18.9047 7.99997Z" fill="#1CB0F6"/></svg>