<svg viewBox="0 0 22 22" fill="none" xmlns="http://www.w3.org/2000/svg"><g clip-path="url(#clip0)"><path d="M10.1436 0.609704C10.7884 -0.203234 12.0224 -0.203235 12.6672 0.609704L18.4882 7.94836C19.6982 9.42597 20.4202 11.2913 20.4202 13.3191C20.4202 18.1134 16.3841 22 11.4054 22C6.42668 22 2.39062 18.1134 2.39062 13.3191C2.39062 12.9828 2.41048 12.651 2.44913 12.3247L2.4288 5.01211C2.42581 3.93626 3.0116 3.1426 4.013 3.31136C4.21255 3.34499 4.63441 3.47209 4.82343 3.57327L6.90786 4.68902L10.1436 0.609704Z" fill="#1CB0F6"/><path d="M12.0142 9.43428C11.6973 9.0027 11.0525 9.0027 10.7356 9.43428L8.46009 12.5328C8.43881 12.5618 8.42218 12.5921 8.40986 12.623C7.86733 13.2636 7.54199 14.0816 7.54199 14.9727C7.54199 17.0274 9.27173 18.693 11.4055 18.693C13.5392 18.693 15.2689 17.0274 15.2689 14.9727C15.2689 13.9667 14.8543 13.054 14.1807 12.3843L12.0142 9.43428Z" fill="white"/></g><defs><clipPath id="clip0"><rect width="22" height="22" fill="white"/></clipPath></defs></svg>