<svg viewBox="0 0 22 22" fill="none" xmlns="http://www.w3.org/2000/svg"><g clip-path="url(#clip0)"><path fill-rule="evenodd" clip-rule="evenodd" d="M0 8.36647C0 10.34 1.00205 12.0859 2.53835 13.1492L8.81138 18.6508C10.1455 19.8208 12.1444 19.8064 13.4614 18.6172L19.7637 12.9268C21.1282 11.8512 22.0004 10.2081 22.0004 8.36693C22.0004 5.12696 19.2996 2.50046 15.968 2.50046C13.9077 2.50046 12.0886 3.50493 11.0004 5.03777C9.91213 3.50467 8.09291 2.5 6.03239 2.5C2.70079 2.5 0 5.12651 0 8.36647Z" fill="#1CB0F6"/><path opacity="0.3" d="M5 9C6.10457 9 7 8.10457 7 7C7 5.89543 6.10457 5 5 5C3.89543 5 3 5.89543 3 7C3 8.10457 3.89543 9 5 9Z" fill="white"/><path fill-rule="evenodd" clip-rule="evenodd" d="M13.7856 12.3067C12.9418 12.3067 12.1933 11.8937 11.3632 11.0543C10.5194 11.9203 9.74368 12.3067 8.92714 12.3067C7.64789 12.3067 6.68164 11.4007 6.68164 10.0817C6.68164 8.76269 7.64789 7.84338 8.95436 7.84338C9.74368 7.84338 10.4514 8.22976 11.3496 9.13574C12.2614 8.21644 12.9418 7.84338 13.772 7.84338C15.0512 7.84338 16.0447 8.73604 16.0447 10.0817C16.0447 11.3874 15.0784 12.3067 13.7856 12.3067ZM13.7178 11.0678C14.3574 11.0678 14.7112 10.6015 14.7112 10.0553C14.7112 9.53565 14.3574 9.08266 13.7178 9.08266C13.3231 9.08266 12.942 9.30916 12.2344 10.0819C12.9148 10.8014 13.2823 11.0678 13.7178 11.0678ZM10.4789 10.0819C9.79848 10.8147 9.41742 11.0678 9.00915 11.0678C8.38313 11.0678 8.0293 10.6148 8.0293 10.0553C8.0293 9.52233 8.36952 9.08266 9.00915 9.08266C9.43103 9.08266 9.81209 9.34913 10.4789 10.0819Z" fill="white"/></g><defs><clipPath id="clip0"><rect width="22" height="22" fill="white"/></clipPath></defs></svg>