<?xml version="1.0" encoding="UTF-8" standalone="no"?>
<svg
   xmlns:dc="http://purl.org/dc/elements/1.1/"
   xmlns:cc="http://creativecommons.org/ns#"
   xmlns:rdf="http://www.w3.org/1999/02/22-rdf-syntax-ns#"
   xmlns:svg="http://www.w3.org/2000/svg"
   xmlns="http://www.w3.org/2000/svg"
   xmlns:sodipodi="http://sodipodi.sourceforge.net/DTD/sodipodi-0.dtd"
   xmlns:inkscape="http://www.inkscape.org/namespaces/inkscape"
   inkscape:version="1.0 (4035a4fb49, 2020-05-01)"
   sodipodi:docname="bell.svg"
   id="svg10"
   version="1.1"
   viewBox="0 0 40 40"
   height="40"
   width="40">
  <metadata
     id="metadata16">
    <rdf:RDF>
      <cc:Work
         rdf:about="">
        <dc:format>image/svg+xml</dc:format>
        <dc:type
           rdf:resource="http://purl.org/dc/dcmitype/StillImage" />
      </cc:Work>
    </rdf:RDF>
  </metadata>
  <defs
     id="defs14" />
  <sodipodi:namedview
     inkscape:current-layer="svg10"
     inkscape:window-maximized="1"
     inkscape:window-y="-8"
     inkscape:window-x="-8"
     inkscape:cy="29.643669"
     inkscape:cx="19.165604"
     inkscape:zoom="12.8"
     showgrid="false"
     id="namedview12"
     inkscape:window-height="745"
     inkscape:window-width="1366"
     inkscape:pageshadow="2"
     inkscape:pageopacity="0"
     guidetolerance="10"
     gridtolerance="10"
     objecttolerance="10"
     borderopacity="1"
     bordercolor="#666666"
     pagecolor="#ffffff" />
  <title
     id="title2">bell</title>
  <path
     id="path4"
     d="M 28.247,28.928 H 10.853 a 2.758,2.758 0 0 1 -2.73,-3.169 10.31,10.31 0 0 1 3.394,-6.21 v -4.516 a 8.033,8.033 0 1 1 16.066,0 v 4.515 a 10.302,10.302 0 0 1 3.395,6.212 2.758,2.758 0 0 1 -2.73,3.168 z m -6.67,0.172 h 0.329 a 1.586,1.586 0 0 1 1.248,2.542 4.517,4.517 0 0 1 -7.216,0.004 1.586,1.586 0 0 1 1.268,-2.546 h 4.372 z"
     style="fill:#e6b400;fill-rule:evenodd;stroke:#101010;stroke-width:2;stroke-opacity:1;fill-opacity:1" />
</svg>
