<?xml version="1.0" encoding="UTF-8" standalone="no"?>
<svg
   xmlns:dc="http://purl.org/dc/elements/1.1/"
   xmlns:cc="http://creativecommons.org/ns#"
   xmlns:rdf="http://www.w3.org/1999/02/22-rdf-syntax-ns#"
   xmlns:svg="http://www.w3.org/2000/svg"
   xmlns="http://www.w3.org/2000/svg"
   xmlns:sodipodi="http://sodipodi.sourceforge.net/DTD/sodipodi-0.dtd"
   xmlns:inkscape="http://www.inkscape.org/namespaces/inkscape"
   inkscape:version="1.0 (4035a4fb49, 2020-05-01)"
   sodipodi:docname="comments.svg"
   id="svg8"
   version="1.1"
   viewBox="0 0 40 40"
   height="40"
   width="40">
  <metadata
     id="metadata14">
    <rdf:RDF>
      <cc:Work
         rdf:about="">
        <dc:format>image/svg+xml</dc:format>
        <dc:type
           rdf:resource="http://purl.org/dc/dcmitype/StillImage" />
      </cc:Work>
    </rdf:RDF>
  </metadata>
  <defs
     id="defs12" />
  <sodipodi:namedview
     inkscape:current-layer="svg8"
     inkscape:window-maximized="1"
     inkscape:window-y="-8"
     inkscape:window-x="-8"
     inkscape:cy="12.796616"
     inkscape:cx="3.0643043"
     inkscape:zoom="9.0509668"
     showgrid="false"
     id="namedview10"
     inkscape:window-height="745"
     inkscape:window-width="1366"
     inkscape:pageshadow="2"
     inkscape:pageopacity="0"
     guidetolerance="10"
     gridtolerance="10"
     objecttolerance="10"
     borderopacity="1"
     bordercolor="#666666"
     pagecolor="#ffffff" />
  <title
     id="title2">comments</title>
  <g
     id="g845">
    <path
       style="fill:none;fill-rule:evenodd;stroke:#808080;stroke-opacity:1"
       id="path4"
       stroke-width="3"
       stroke="#dedede"
       d="m 22.033,25.69 -5.327,4.634 c -1.073905,0.922349 -2.733814,0.146502 -2.715,-1.269 L 14.034,25.69 H 12.615 C 11.01,25.69 10.428,25.523 9.842,25.21 9.2619598,24.90283 8.7877435,24.428266 8.481,23.848 8.167,23.262 8,22.68 8,21.075 v -7.46 C 8,12.01 8.167,11.428 8.48,10.842 8.7872743,10.261444 9.262219,9.7868481 9.843,9.48 10.428,9.167 11.01,9 12.615,9 h 15.612 c 1.605,0 2.187,0.167 2.773,0.48 0.58004,0.3071696 1.054256,0.781734 1.361,1.362 0.314,0.586 0.481,1.168 0.481,2.773 v 7.46 c 0,1.605 -0.167,2.187 -0.48,2.773 -0.307009,0.580411 -0.781589,1.054991 -1.362,1.362 -0.586,0.314 -1.168,0.481 -2.773,0.481 z"
       sodipodi:nodetypes="ccccsccssccssccssccsc" />
  </g>
</svg>
