<?xml version="1.0" encoding="UTF-8" standalone="no"?>
<svg
   width="80"
   height="40"
   viewBox="0 0 80 40"
   fill="none"
   version="1.1"
   id="svg25"
   sodipodi:docname="crown-purple.svg"
   inkscape:version="1.1.1 (3bf5ae0d25, 2021-09-20)"
   xmlns:inkscape="http://www.inkscape.org/namespaces/inkscape"
   xmlns:sodipodi="http://sodipodi.sourceforge.net/DTD/sodipodi-0.dtd"
   xmlns="http://www.w3.org/2000/svg"
   xmlns:svg="http://www.w3.org/2000/svg">
  <defs
     id="defs29" />
  <sodipodi:namedview
     id="namedview27"
     pagecolor="#505050"
     bordercolor="#ffffff"
     borderopacity="1"
     inkscape:pageshadow="0"
     inkscape:pageopacity="0"
     inkscape:pagecheckerboard="1"
     showgrid="false"
     inkscape:snap-page="true"
     inkscape:zoom="4.9497475"
     inkscape:cx="36.668537"
     inkscape:cy="33.436049"
     inkscape:window-width="1366"
     inkscape:window-height="745"
     inkscape:window-x="-8"
     inkscape:window-y="-8"
     inkscape:window-maximized="1"
     inkscape:current-layer="svg25" />
  <mask
     id="path-1-outside-1"
     maskUnits="userSpaceOnUse"
     x="-0.365479"
     y="2"
     width="41"
     height="36"
     fill="#000000">
    <rect
       fill="#ffffff"
       x="-0.36547899"
       y="2"
       width="41"
       height="36"
       id="rect2" />
    <path
       fill-rule="evenodd"
       clip-rule="evenodd"
       d="m 20,10.9541 c -1.368,0 -2.477,-1.10899 -2.477,-2.47704 C 17.523,7.10902 18.632,6 20,6 c 1.3681,0 2.4771,1.10902 2.4771,2.47706 0,1.36805 -1.109,2.47704 -2.4771,2.47704 z m 16.2635,10.296 C 36.7582,19.7007 35.3319,18.3612 33.924,18.6911 34.7161,15.2774 32.1253,11.945 28.5515,11.945 H 11.4486 c -3.57177,0 -6.16166,3.3286 -5.37386,6.7403 -1.40823,-0.3305 -2.83477,1.0093 -2.34009,2.5588 l 3.70894,11.6174 c 0.29327,0.9186 1.14688,1.5422 2.11116,1.5422 H 30.4453 c 0.9643,0 1.8179,-0.6236 2.1112,-1.5422 z"
       id="path4" />
  </mask>
  <path
     fill-rule="evenodd"
     clip-rule="evenodd"
     d="m 20,10.9541 c -1.368,0 -2.477,-1.10899 -2.477,-2.47704 C 17.523,7.10902 18.632,6 20,6 c 1.3681,0 2.4771,1.10902 2.4771,2.47706 0,1.36805 -1.109,2.47704 -2.4771,2.47704 z m 16.2635,10.296 C 36.7582,19.7007 35.3319,18.3612 33.924,18.6911 34.7161,15.2774 32.1253,11.945 28.5515,11.945 H 11.4486 c -3.57177,0 -6.16166,3.3286 -5.37386,6.7403 -1.40823,-0.3305 -2.83477,1.0093 -2.34009,2.5588 l 3.70894,11.6174 c 0.29327,0.9186 1.14688,1.5422 2.11116,1.5422 H 30.4453 c 0.9643,0 1.8179,-0.6236 2.1112,-1.5422 z"
     fill="#d6dafe"
     id="path7" />
  <path
     d="m 33.8188,19.0805 c 1.0927,-3.545 -1.5577,-7.1356 -5.2674,-7.1356 H 11.4485 c -3.70963,0 -6.36012,3.5906 -5.26739,7.1356 l 1.31163,4.2552 c 0.71248,2.3114 2.84866,3.8883 5.26736,3.8883 h 14.4797 c 2.4188,0 4.5549,-1.5769 5.2674,-3.8883 z"
     fill="#5c6cfc"
     id="path11" />
  <path
     d="M 3.7346,21.2441 C 3.16062,19.4463 5.17324,17.9307 6.74258,18.979 l 4.49102,3.0002 7.2054,-7.1616 c 0.8638,-0.8586 2.2587,-0.8591 3.1232,-0.0012 l 7.2179,7.1628 4.4743,-2.9934 c 1.5692,-1.0498 3.5833,0.4658 3.0091,2.2644 l -3.707,11.6114 c -0.2933,0.9186 -1.1469,1.5421 -2.1112,1.5421 H 9.5547 c -0.96428,0 -1.81789,-0.6235 -2.11116,-1.5421 z"
     fill="#a7a0ff"
     id="path13" />
  <circle
     transform="scale(-1,1)"
     fill="#a7a0ff"
     id="ellipse15"
     cx="-20"
     cy="8.4770603"
     r="2.4770601" />
  <path
     d="m 11.3577,24.5504 3.8177,-3.5183 c 0.6571,-0.6055 1.7176,-0.1079 1.6718,0.7844 l -0.5031,9.8095 c -0.0181,0.3535 -0.31,0.6308 -0.6639,0.6308 h -4.5869 c -0.2991,0 -0.5614,-0.1997 -0.6409,-0.488 L 8.57206,24.9526 C 8.33766,24.1029 9.24007,23.3891 10.0129,23.813 Z"
     fill="#bfafff"
     id="path17" />
  <path
     d="m 30.1475,24.859 c 0.2336,-0.7938 0.7856,-1.4555 1.5247,-1.8276 l 1.3785,-0.6941 c 0.524,-0.2638 1.108,0.231 0.9339,0.7912 l -2.6925,8.6609 c -0.0865,0.2781 -0.3438,0.4675 -0.6349,0.4675 h -1.7979 c -0.4439,0 -0.7632,-0.4267 -0.6378,-0.8525 z"
     fill="#afb5ff"
     id="path19" />
  <rect
     width="6.4358921"
     height="6.4358921"
     rx="1.1080704"
     transform="matrix(-0.70710678,0.70710678,0.70710678,0.70710678,0,0)"
     fill="#5c6cfc"
     id="rect21"
     x="1.2161529"
     y="29.513859" />
  <path
     d="m 19.2391,23.6791 c 0.2792,-0.2792 0.7566,-0.0814 0.7566,0.3134 v 1.9546 c 0,0.2448 -0.1984,0.4433 -0.4432,0.4433 h -1.9546 c -0.3949,0 -0.5926,-0.4774 -0.3134,-0.7567 z"
     fill="#d6dafe"
     id="path23" />
  <path
     id="path1080"
     d="m 60,2.6035156 c -3.2441,0 -5.873047,2.6289369 -5.873047,5.8730469 0,0.024364 0.0036,0.047972 0.0039,0.072266 h -2.68164 c -4.616459,0 -8.212067,3.4364655 -8.820313,7.6347655 -1.837411,1.228454 -2.950763,3.525569 -2.130859,6.09375 l 3.708984,11.617187 c 0.7428,2.3266 2.905307,3.90625 5.347657,3.90625 h 20.890624 c 2.4424,0 4.604857,-1.57965 5.347657,-3.90625 L 79.5,22.283203 C 80.319772,19.715579 79.207424,17.420065 77.371094,16.191406 76.766201,11.989593 73.170068,8.5488281 68.550781,8.5488281 h -2.68164 c 2.95e-4,-0.024294 0.0039,-0.047902 0.0039,-0.072266 0,-3.24411 -2.628847,-5.8730469 -5.873047,-5.8730469 z"
     style="fill:#000000;fill-opacity:1;stroke:none;stroke-opacity:0.2" />
</svg>
