<?xml version="1.0" encoding="UTF-8" standalone="no"?>
<svg
   xmlns:dc="http://purl.org/dc/elements/1.1/"
   xmlns:cc="http://creativecommons.org/ns#"
   xmlns:rdf="http://www.w3.org/1999/02/22-rdf-syntax-ns#"
   xmlns:svg="http://www.w3.org/2000/svg"
   xmlns="http://www.w3.org/2000/svg"
   xmlns:sodipodi="http://sodipodi.sourceforge.net/DTD/sodipodi-0.dtd"
   xmlns:inkscape="http://www.inkscape.org/namespaces/inkscape"
   inkscape:version="1.0 (4035a4fb49, 2020-05-01)"
   sodipodi:docname="cutout-close.svg"
   id="svg8"
   version="1.1"
   viewBox="0 0 18 18"
   height="18"
   width="18">
  <metadata
     id="metadata14">
    <rdf:RDF>
      <cc:Work
         rdf:about="">
        <dc:format>image/svg+xml</dc:format>
        <dc:type
           rdf:resource="http://purl.org/dc/dcmitype/StillImage" />
      </cc:Work>
    </rdf:RDF>
  </metadata>
  <defs
     id="defs12" />
  <sodipodi:namedview
     inkscape:current-layer="svg8"
     inkscape:window-maximized="1"
     inkscape:window-y="-8"
     inkscape:window-x="-8"
     inkscape:cy="8.1972301"
     inkscape:cx="10.153665"
     inkscape:zoom="14.222222"
     inkscape:snap-page="true"
     showgrid="false"
     id="namedview10"
     inkscape:window-height="745"
     inkscape:window-width="1366"
     inkscape:pageshadow="2"
     inkscape:pageopacity="0"
     guidetolerance="10"
     gridtolerance="10"
     objecttolerance="10"
     borderopacity="1"
     bordercolor="#666666"
     pagecolor="#ffffff" />
  <title
     id="title2">close</title>
  <path
     d="M 0 0 L 0 18 L 18 18 L 18 0 L 0 0 z M 3.4550781 2.0019531 A 1.495 1.495 0 0 1 4.5664062 2.4433594 L 8.8066406 6.6835938 L 13.046875 2.4433594 A 1.498 1.498 0 0 1 15.169922 2.4414062 A 1.495 1.495 0 0 1 15.167969 4.5664062 L 10.927734 8.8066406 L 15.167969 13.046875 C 15.754969 13.633875 15.759922 14.580922 15.169922 15.169922 A 1.495 1.495 0 0 1 13.046875 15.167969 L 8.8066406 10.927734 L 4.5664062 15.167969 A 1.498 1.498 0 0 1 2.4414062 15.169922 A 1.495 1.495 0 0 1 2.4433594 13.046875 L 6.6835938 8.8066406 L 2.4433594 4.5664062 A 1.498 1.498 0 0 1 2.4414062 2.4414062 A 1.495 1.495 0 0 1 3.4550781 2.0019531 z "
     style="fill:#0c0c0c;fill-opacity:1;stroke:#606060;stroke-width:0;stroke-linecap:round;stroke-dasharray:none;paint-order:markers fill stroke"
     id="rect839" />
</svg>
