<?xml version="1.0" encoding="UTF-8" standalone="no"?>
<svg
   xmlns:dc="http://purl.org/dc/elements/1.1/"
   xmlns:cc="http://creativecommons.org/ns#"
   xmlns:rdf="http://www.w3.org/1999/02/22-rdf-syntax-ns#"
   xmlns:svg="http://www.w3.org/2000/svg"
   xmlns="http://www.w3.org/2000/svg"
   xmlns:sodipodi="http://sodipodi.sourceforge.net/DTD/sodipodi-0.dtd"
   xmlns:inkscape="http://www.inkscape.org/namespaces/inkscape"
   inkscape:version="1.0 (4035a4fb49, 2020-05-01)"
   sodipodi:docname="cutout-mic.svg"
   id="svg20"
   version="1.1"
   viewBox="0 0 66 88"
   height="88"
   width="66">
  <metadata
     id="metadata26">
    <rdf:RDF>
      <cc:Work
         rdf:about="">
        <dc:format>image/svg+xml</dc:format>
        <dc:type
           rdf:resource="http://purl.org/dc/dcmitype/StillImage" />
      </cc:Work>
    </rdf:RDF>
  </metadata>
  <defs
     id="defs24" />
  <sodipodi:namedview
     inkscape:current-layer="svg20"
     inkscape:window-maximized="1"
     inkscape:window-y="-8"
     inkscape:window-x="-8"
     inkscape:cy="50.949008"
     inkscape:cx="18.780121"
     inkscape:zoom="2.9090909"
     inkscape:snap-page="true"
     showgrid="false"
     id="namedview22"
     inkscape:window-height="745"
     inkscape:window-width="1366"
     inkscape:pageshadow="2"
     inkscape:pageopacity="0"
     guidetolerance="10"
     gridtolerance="10"
     objecttolerance="10"
     borderopacity="1"
     bordercolor="#666666"
     pagecolor="#ffffff" />
  <title
     id="title2">Group 2</title>
  <g
     id="g890">
    <path
       id="rect851"
       style="fill:#101010;fill-opacity:1;stroke:#101010;stroke-width:0;stroke-linecap:round;stroke-dasharray:none;paint-order:markers fill stroke"
       d="M 0 0 L 0 88 L 66 88 L 66 0 L 38.042969 0 C 45.575969 0 51.683594 6.107625 51.683594 13.640625 L 51.683594 43.050781 C 51.683594 50.583781 45.575969 56.691406 38.042969 56.691406 L 27.96875 56.691406 C 20.43575 56.691406 14.328125 50.583781 14.328125 43.050781 L 14.328125 13.640625 C 14.328125 6.107625 20.43575 0 27.96875 0 L 0 0 z M 62 40.785156 A 3.52 3.52 0 0 1 65.519531 44.304688 C 65.519531 58.663963 53.837096 70.390625 39.505859 70.390625 L 36.431641 70.390625 L 36.431641 80.800781 L 40.945312 80.800781 A 3.52 3.52 0 0 1 44.464844 84.320312 A 3.52 3.52 0 0 1 40.945312 87.839844 L 25.5625 87.839844 A 3.52 3.52 0 0 1 22.042969 84.320312 A 3.52 3.52 0 0 1 25.5625 80.800781 L 29.392578 80.800781 L 29.392578 70.390625 L 25.960938 70.390625 C 11.924372 70.391782 0.48046875 58.905109 0.48046875 44.841797 A 3.52 3.52 0 0 1 4 41.320312 A 3.52 3.52 0 0 1 7.5195312 44.841797 C 7.5195314 55.112485 15.739549 63.350452 25.958984 63.349609 L 39.505859 63.349609 C 50.020623 63.349609 58.480469 54.871412 58.480469 44.304688 A 3.52 3.52 0 0 1 62 40.785156 z " />
  </g>
</svg>
