<?xml version="1.0" encoding="UTF-8" standalone="no"?>
<svg
   xmlns:dc="http://purl.org/dc/elements/1.1/"
   xmlns:cc="http://creativecommons.org/ns#"
   xmlns:rdf="http://www.w3.org/1999/02/22-rdf-syntax-ns#"
   xmlns:svg="http://www.w3.org/2000/svg"
   xmlns="http://www.w3.org/2000/svg"
   xmlns:sodipodi="http://sodipodi.sourceforge.net/DTD/sodipodi-0.dtd"
   xmlns:inkscape="http://www.inkscape.org/namespaces/inkscape"
   inkscape:version="1.0 (4035a4fb49, 2020-05-01)"
   sodipodi:docname="discuss-cutout.svg"
   id="svg14"
   version="1.1"
   viewBox="0 0 46 46"
   height="46"
   width="46">
  <metadata
     id="metadata20">
    <rdf:RDF>
      <cc:Work
         rdf:about="">
        <dc:format>image/svg+xml</dc:format>
        <dc:type
           rdf:resource="http://purl.org/dc/dcmitype/StillImage" />
      </cc:Work>
    </rdf:RDF>
  </metadata>
  <defs
     id="defs18" />
  <sodipodi:namedview
     inkscape:current-layer="svg14"
     inkscape:window-maximized="1"
     inkscape:window-y="-8"
     inkscape:window-x="-8"
     inkscape:cy="19.983765"
     inkscape:cx="-12.268208"
     inkscape:zoom="3.935203"
     inkscape:snap-page="true"
     showgrid="false"
     id="namedview16"
     inkscape:window-height="745"
     inkscape:window-width="1366"
     inkscape:pageshadow="2"
     inkscape:pageopacity="0"
     guidetolerance="10"
     gridtolerance="10"
     objecttolerance="10"
     borderopacity="1"
     bordercolor="#666666"
     pagecolor="#ffffff" />
  <title
     id="title2">discuss</title>
  <path
     d="M 0 0 L 0 46 L 46 46 L 46 0 L 0 0 z M 6.9570312 4 L 23.697266 4 A 5.957 5.957 0 0 1 29.652344 9.9570312 L 29.652344 14.716797 L 38.998047 14.716797 C 42.687047 14.716797 45.65625 17.856125 45.65625 21.703125 L 45.65625 31.068359 C 45.65625 34.279359 43.577359 37.034172 40.693359 37.826172 L 40.693359 40.796875 C 40.693359 42.369875 39.467781 43.667969 37.925781 43.667969 C 37.226781 43.667969 36.555922 43.392344 36.044922 42.902344 L 30.994141 38.054688 L 23.890625 38.054688 C 20.200625 38.054688 17.232422 34.914359 17.232422 31.068359 L 17.232422 25.308594 L 14.441406 25.308594 L 14.441406 25.310547 L 9.171875 30.292969 A 1.861 1.861 0 0 1 6.03125 28.939453 L 6.03125 25.238281 A 5.958 5.958 0 0 1 1 19.353516 L 1 9.9570312 A 5.957 5.957 0 0 1 6.9570312 4 z "
     style="fill:#101010;fill-opacity:1;stroke:none;stroke-width:0;stroke-linecap:round;stroke-dasharray:none;stroke-opacity:1;paint-order:markers fill stroke"
     id="rect854" />
  <path
     style="color:#000000;font-style:normal;font-variant:normal;font-weight:normal;font-stretch:normal;font-size:medium;line-height:normal;font-family:sans-serif;font-variant-ligatures:normal;font-variant-position:normal;font-variant-caps:normal;font-variant-numeric:normal;font-variant-alternates:normal;font-variant-east-asian:normal;font-feature-settings:normal;font-variation-settings:normal;text-indent:0;text-align:start;text-decoration:none;text-decoration-line:none;text-decoration-style:solid;text-decoration-color:#000000;letter-spacing:normal;word-spacing:normal;text-transform:none;writing-mode:lr-tb;direction:ltr;text-orientation:mixed;dominant-baseline:auto;baseline-shift:baseline;text-anchor:start;white-space:normal;shape-padding:0;shape-margin:0;inline-size:0;clip-rule:nonzero;display:inline;overflow:visible;visibility:visible;isolation:auto;mix-blend-mode:normal;color-interpolation:sRGB;color-interpolation-filters:linearRGB;solid-color:#000000;solid-opacity:1;vector-effect:none;fill:#101010;fill-opacity:1;fill-rule:evenodd;stroke:none;stroke-width:2;stroke-linecap:butt;stroke-linejoin:miter;stroke-miterlimit:4;stroke-dasharray:none;stroke-dashoffset:0;stroke-opacity:1;color-rendering:auto;image-rendering:auto;shape-rendering:auto;text-rendering:auto;enable-background:accumulate;stop-color:#000000"
     d="m 23.890625,13.716797 c -4.257299,0 -7.658203,3.625161 -7.658203,7.986328 v 9.365234 c 0,4.360301 3.400904,7.986328 7.658203,7.986329 h 6.701172 L 35.351562,43.625 c 0.692232,0.663783 1.613894,1.042969 2.574219,1.042969 2.103176,0 3.767578,-1.778492 3.767578,-3.871094 v -2.351563 c 2.917713,-1.163539 4.962891,-4.025963 4.962891,-7.376953 v -9.365234 c 0,-4.36134 -3.40175,-7.986328 -7.658203,-7.986328 z m 0,2 h 15.107422 c 3.121547,0 5.658203,2.653668 5.658203,5.986328 v 9.365234 c 0,2.779359 -1.797221,5.127243 -4.228516,5.794922 l -0.734375,0.201172 v 0.761719 2.970703 c 0,1.053398 -0.786754,1.871094 -1.767578,1.871094 -0.437674,0 -0.859684,-0.170112 -1.189453,-0.486328 l -5.339844,-5.126953 h -7.505859 c -3.122701,0 -5.658203,-2.654629 -5.658203,-5.986329 v -9.365234 c 0,-3.332833 2.535502,-5.986328 5.658203,-5.986328 z"
     id="path876" />
</svg>
