<?xml version="1.0" encoding="UTF-8" standalone="no"?>
<svg
   xmlns:dc="http://purl.org/dc/elements/1.1/"
   xmlns:cc="http://creativecommons.org/ns#"
   xmlns:rdf="http://www.w3.org/1999/02/22-rdf-syntax-ns#"
   xmlns:svg="http://www.w3.org/2000/svg"
   xmlns="http://www.w3.org/2000/svg"
   xmlns:sodipodi="http://sodipodi.sourceforge.net/DTD/sodipodi-0.dtd"
   xmlns:inkscape="http://www.inkscape.org/namespaces/inkscape"
   inkscape:version="1.0 (4035a4fb49, 2020-05-01)"
   sodipodi:docname="words.svg"
   id="svg12"
   version="1.1"
   viewBox="0 0 46 46"
   height="46"
   width="46">
  <metadata
     id="metadata18">
    <rdf:RDF>
      <cc:Work
         rdf:about="">
        <dc:format>image/svg+xml</dc:format>
        <dc:type
           rdf:resource="http://purl.org/dc/dcmitype/StillImage" />
      </cc:Work>
    </rdf:RDF>
  </metadata>
  <defs
     id="defs16" />
  <sodipodi:namedview
     inkscape:current-layer="svg12"
     inkscape:window-maximized="1"
     inkscape:window-y="-8"
     inkscape:window-x="-8"
     inkscape:cy="31.337176"
     inkscape:cx="24.028549"
     inkscape:zoom="5.5652174"
     inkscape:snap-page="true"
     showgrid="false"
     id="namedview14"
     inkscape:window-height="745"
     inkscape:window-width="1366"
     inkscape:pageshadow="2"
     inkscape:pageopacity="0"
     guidetolerance="10"
     gridtolerance="10"
     objecttolerance="10"
     borderopacity="1"
     bordercolor="#666666"
     pagecolor="#ffffff" />
  <title
     id="title2">words</title>
  <path
     d="M 0 0 L 0 46 L 46 46 L 46 0 L 0 0 z M 28.103516 5.8417969 A 5.2 5.2 0 0 1 33.169922 10.136719 L 34.105469 15.40625 L 36.279297 15.40625 C 39.160097 15.40625 41.480469 17.726623 41.480469 20.607422 L 41.480469 33.800781 C 41.480469 36.681581 39.160097 39 36.279297 39 L 17.386719 39 C 14.505919 39 12.1875 36.681581 12.1875 33.800781 L 12.1875 32.474609 A 5.2 5.2 0 0 1 6.6289062 28.197266 L 4.3203125 15.207031 A 5.2 5.2 0 0 1 8.5410156 9.1796875 L 8.5429688 9.1855469 L 27.148438 5.9199219 A 5.2 5.2 0 0 1 28.103516 5.8417969 z "
     style="fill:#101010;fill-opacity:1;stroke:#606060;stroke-width:0;stroke-linecap:round;stroke-dasharray:none;paint-order:markers fill stroke"
     id="rect843" />
  <path
     d="M 34.105469 15.40625 L 35.478516 23.126953 A 5.2 5.2 0 0 1 31.257812 29.154297 L 12.650391 32.414062 A 5.2 5.2 0 0 1 12.1875 32.472656 L 12.1875 33.800781 C 12.1875 36.681581 14.505919 39 17.386719 39 L 36.279297 39 C 39.160097 39 41.480469 36.681581 41.480469 33.800781 L 41.480469 20.607422 C 41.480469 17.726623 39.160097 15.40625 36.279297 15.40625 L 34.105469 15.40625 z "
     style="fill:#000000;fill-rule:evenodd;stroke:none;stroke-width:1;fill-opacity:0.25098041"
     id="rect4" />
</svg>
