<?xml version="1.0" encoding="UTF-8" standalone="no"?>
<svg
   xmlns:dc="http://purl.org/dc/elements/1.1/"
   xmlns:cc="http://creativecommons.org/ns#"
   xmlns:rdf="http://www.w3.org/1999/02/22-rdf-syntax-ns#"
   xmlns:svg="http://www.w3.org/2000/svg"
   xmlns="http://www.w3.org/2000/svg"
   xmlns:sodipodi="http://sodipodi.sourceforge.net/DTD/sodipodi-0.dtd"
   xmlns:inkscape="http://www.inkscape.org/namespaces/inkscape"
   inkscape:version="1.0 (4035a4fb49, 2020-05-01)"
   sodipodi:docname="dictionary.svg"
   id="svg22"
   version="1.1"
   viewBox="0 0 46 46"
   height="46"
   width="46">
  <metadata
     id="metadata28">
    <rdf:RDF>
      <cc:Work
         rdf:about="">
        <dc:format>image/svg+xml</dc:format>
        <dc:type
           rdf:resource="http://purl.org/dc/dcmitype/StillImage" />
      </cc:Work>
    </rdf:RDF>
  </metadata>
  <defs
     id="defs26" />
  <sodipodi:namedview
     inkscape:current-layer="svg22"
     inkscape:window-maximized="1"
     inkscape:window-y="-8"
     inkscape:window-x="-8"
     inkscape:cy="22.014812"
     inkscape:cx="42.895811"
     inkscape:zoom="7.8704059"
     inkscape:snap-page="true"
     showgrid="false"
     id="namedview24"
     inkscape:window-height="745"
     inkscape:window-width="1366"
     inkscape:pageshadow="2"
     inkscape:pageopacity="0"
     guidetolerance="10"
     gridtolerance="10"
     objecttolerance="10"
     borderopacity="1"
     bordercolor="#666666"
     pagecolor="#ffffff" />
  <title
     id="title2">dictionary</title>
  <g
     id="g947">
    <path
       id="rect853"
       style="fill:#101010;fill-opacity:1;stroke:#606060;stroke-width:0;stroke-linecap:round;stroke-dasharray:none;paint-order:markers fill stroke"
       d="M 0 0 L 0 46 L 46 46 L 46 0 L 0 0 z M 12.511719 18.113281 C 17.626151 18.113281 21.824218 22.27274 21.824219 27.371094 C 21.824219 29.508174 21.07924 31.474971 19.845703 33.044922 L 25.392578 38.550781 A 1.8 1.8 0 0 1 25.402344 41.097656 A 1.8 1.8 0 0 1 22.855469 41.107422 L 17.109375 35.404297 C 15.749136 36.178975 14.18153 36.628906 12.511719 36.628906 C 7.3972854 36.628906 3.1992185 32.469448 3.1992188 27.371094 C 3.1992193 22.27274 7.397286 18.113281 12.511719 18.113281 z M 12.511719 21.714844 C 9.3286253 21.714844 6.8007817 24.232674 6.8007812 27.371094 C 6.8007813 30.509514 9.328625 33.027344 12.511719 33.027344 C 15.694812 33.027344 18.224609 30.509514 18.224609 27.371094 C 18.224609 24.232674 15.694812 21.714844 12.511719 21.714844 z " />
    <g
       id="g939">
      <path
         d="M 24.564453 5 C 22.570053 5 20.964844 6.6052095 20.964844 8.5996094 L 20.964844 23.519531 C 21.510874 24.694516 21.824218 25.996482 21.824219 27.371094 C 21.824219 28.745461 21.512865 30.047449 20.964844 31.220703 L 20.964844 31.228516 C 20.964844 33.222916 22.570053 34.828125 24.564453 34.828125 L 35.205078 34.828125 C 37.199478 34.828125 38.806641 33.222916 38.806641 31.228516 L 38.806641 8.5996094 C 38.806641 6.6052095 37.199478 5 35.205078 5 L 24.564453 5 z "
         style="fill:#fdb500;fill-rule:evenodd;stroke:none;stroke-width:1"
         id="rect4" />
      <path
         d="M 21.746094 6.8632812 C 19.751694 6.8632812 18.146484 8.4704434 18.146484 10.464844 L 18.146484 20.025391 C 20.373435 21.719855 21.824218 24.380201 21.824219 27.371094 C 21.824219 28.993583 21.393081 30.516708 20.646484 31.84375 C 20.995242 31.955718 21.359188 32.03125 21.746094 32.03125 L 32.388672 32.03125 C 34.383071 32.03125 35.988281 30.426041 35.988281 28.431641 L 35.988281 10.464844 C 35.988281 8.4704433 34.383071 6.8632813 32.388672 6.8632812 L 21.746094 6.8632812 z "
         style="fill:#ffffff;fill-rule:evenodd;stroke:none;stroke-width:1"
         id="rect6" />
      <path
         d="M 14.234375 5 C 12.239975 5 10.634766 6.6052095 10.634766 8.5996094 L 10.634766 18.304688 C 11.241492 18.179934 11.869609 18.113281 12.511719 18.113281 C 17.626151 18.113281 21.824218 22.27274 21.824219 27.371094 C 21.824219 29.508174 21.07924 31.474971 19.845703 33.044922 L 21.642578 34.828125 L 28.632812 34.828125 C 30.627213 34.828125 32.232422 33.222916 32.232422 31.228516 L 32.232422 8.5996094 C 32.232422 6.6052095 30.627212 5 28.632812 5 L 14.234375 5 z "
         style="fill:#ffc733;fill-rule:evenodd;stroke:none;stroke-width:1"
         id="rect8" />
      <path
         d="M 17.207031 5 C 16.166619 5 15.330078 5.8384943 15.330078 6.8789062 L 15.330078 18.552734 C 16.760193 19.008051 18.045314 19.796642 19.085938 20.830078 L 19.085938 6.8789062 C 19.085938 5.8384943 18.247443 5 17.207031 5 z "
         style="fill:#fdb500;fill-rule:evenodd;stroke:none;stroke-width:1"
         id="rect10" />
    </g>
  </g>
</svg>
