<?xml version="1.0" encoding="UTF-8" standalone="no"?>
<svg
   xmlns:dc="http://purl.org/dc/elements/1.1/"
   xmlns:cc="http://creativecommons.org/ns#"
   xmlns:rdf="http://www.w3.org/1999/02/22-rdf-syntax-ns#"
   xmlns:svg="http://www.w3.org/2000/svg"
   xmlns="http://www.w3.org/2000/svg"
   xmlns:sodipodi="http://sodipodi.sourceforge.net/DTD/sodipodi-0.dtd"
   xmlns:inkscape="http://www.inkscape.org/namespaces/inkscape"
   width="45px"
   height="45px"
   viewBox="0 0 45 38"
   version="1.1"
   id="svg26"
   sodipodi:docname="inactive-shop.svg"
   inkscape:version="1.0 (4035a4fb49, 2020-05-01)">
  <metadata
     id="metadata32">
    <rdf:RDF>
      <cc:Work
         rdf:about="">
        <dc:format>image/svg+xml</dc:format>
        <dc:type
           rdf:resource="http://purl.org/dc/dcmitype/StillImage" />
      </cc:Work>
    </rdf:RDF>
  </metadata>
  <defs
     id="defs30" />
  <sodipodi:namedview
     inkscape:document-rotation="0"
     pagecolor="#ffffff"
     bordercolor="#666666"
     borderopacity="1"
     objecttolerance="10"
     gridtolerance="10"
     guidetolerance="10"
     inkscape:pageopacity="0"
     inkscape:pageshadow="2"
     inkscape:window-width="1366"
     inkscape:window-height="745"
     id="namedview28"
     showgrid="false"
     inkscape:zoom="11.377778"
     inkscape:cx="22.5"
     inkscape:cy="22.5"
     inkscape:window-x="-8"
     inkscape:window-y="-8"
     inkscape:window-maximized="1"
     inkscape:current-layer="svg26" />
  <title
     id="title2">shop - inactive</title>
  <desc
     id="desc4">Created with Sketch.</desc>
  <g
     id="g855">
    <path
       d="M 1.9142857,11.36851 H 43.085714 v 23.041 c 0,1.786089 -1.447911,3.234 -3.234,3.234 H 5.1482857 c -1.7860889,0 -3.234,-1.447911 -3.234,-3.234 z m 2.2,2.2 v 20.841 c 0,0.571062 0.4629376,1.034 1.034,1.034 H 39.851714 c 0.571063,0 1.034,-0.462938 1.034,-1.034 v -20.841 z"
       id="Combined-Shape"
       fill="#afafaf"
       fill-rule="nonzero"
       style="stroke:none;stroke-width:1;fill:#606060;fill-opacity:1" />
    <path
       d="m 10.424324,23.740201 h 6.75946 v 13.01159 h 2.2 v -13.85309 c 0,-0.750279 -0.608221,-1.3585 -1.3585,-1.3585 h -8.44246 c -0.750279,0 -1.3585,0.608221 -1.3585,1.3585 v 13.85309 h 2.2 z"
       id="Path"
       fill="#afafaf"
       fill-rule="nonzero"
       style="stroke:none;stroke-width:1;fill:#606060;fill-opacity:1" />
    <path
       d="m 36.331129,31.975495 h -12.24185 c -0.750279,0 -1.3585,-0.608221 -1.3585,-1.3585 v -7.718294 c 0,-0.750279 0.608221,-1.3585 1.3585,-1.3585 h 12.24185 c 0.750279,0 1.3585,0.608221 1.3585,1.3585 v 7.718294 c 0,0.750279 -0.608221,1.3585 -1.3585,1.3585 z m -0.8415,-2.2 v -6.035294 h -10.55885 v 6.035294 z"
       id="Rectangle-Copy-8"
       fill="#afafaf"
       fill-rule="nonzero"
       style="stroke:none;stroke-width:1;fill:#606060;fill-opacity:1" />
    <path
       d="m 28.071429,11.927885 c 0,3.020307 -2.448443,5.46875 -5.46875,5.46875 h -0.205357 c -3.020307,0 -5.46875,-2.448443 -5.46875,-5.46875 v 0 z"
       id="Rectangle-Copy-10"
       fill="#ffffff"
       style="fill-rule:evenodd;stroke:none;stroke-width:1;fill:#101010;fill-opacity:1" />
    <path
       d="m 41.442858,11.927885 c 0,3.020307 -2.448443,5.46875 -5.46875,5.46875 h -0.205357 c -3.020307,0 -5.46875,-2.448443 -5.46875,-5.46875 v 0 z"
       id="path10"
       fill="#ffffff"
       style="fill-rule:evenodd;stroke:none;stroke-width:1;fill:#101010;fill-opacity:1" />
    <path
       d="m 14.7,11.927885 c 0,3.020308 -2.448443,5.46875 -5.46875,5.46875 H 9.025893 c -3.020307,0 -5.46875,-2.448442 -5.46875,-5.46875 v 0 z"
       id="path12"
       fill="#ffffff"
       style="fill-rule:evenodd;stroke:none;stroke-width:1;fill:#101010;fill-opacity:1" />
    <path
       d="m 28.071429,9.727885 c 1.215026,0 2.2,0.984974 2.2,2.2 0,4.235334 -3.433416,7.66875 -7.66875,7.66875 h -0.205357 c -4.235334,0 -7.66875,-3.433416 -7.66875,-7.66875 0,-1.215026 0.984973,-2.2 2.2,-2.2 z m 0,2.2 H 16.928572 c 0,3.020307 2.448443,5.46875 5.46875,5.46875 h 0.205357 c 3.020307,0 5.46875,-2.448443 5.46875,-5.46875 z"
       id="path14"
       fill="#afafaf"
       fill-rule="nonzero"
       style="stroke:none;stroke-width:1;fill:#606060;fill-opacity:1" />
    <path
       d="m 41.442858,9.727885 c 1.215026,0 2.2,0.984973 2.2,2.2 0,4.235333 -3.433416,7.66875 -7.66875,7.66875 h -0.205357 c -4.235334,0 -7.66875,-3.433417 -7.66875,-7.66875 0,-1.215027 0.984973,-2.2 2.2,-2.2 z m 0,2.2 H 30.300001 c 0,3.020307 2.448443,5.46875 5.46875,5.46875 h 0.205357 c 3.020307,0 5.46875,-2.448443 5.46875,-5.46875 z"
       id="path16"
       fill="#afafaf"
       fill-rule="nonzero"
       style="stroke:none;stroke-width:1;fill:#606060;fill-opacity:1" />
    <path
       d="m 14.7,9.7278854 c 1.215026,0 2.2,0.9849736 2.2,2.1999996 0,4.235334 -3.433416,7.66875 -7.66875,7.66875 H 9.025893 c -4.235334,0 -7.66875,-3.433416 -7.66875,-7.66875 0,-1.215026 0.984973,-2.1999996 2.2,-2.1999996 z m 0,2.1999996 H 3.557143 c 0,3.020308 2.448443,5.46875 5.46875,5.46875 H 9.23125 c 3.020307,0 5.46875,-2.448442 5.46875,-5.46875 z"
       id="path18"
       fill="#afafaf"
       fill-rule="nonzero"
       style="stroke:none;stroke-width:1;fill:#606060;fill-opacity:1" />
    <path
       d="M 41.793598,12.48726 H 3.2064019 c -0.4587986,0 -0.9072054,-0.136622 -1.2880583,-0.392448 C 0.85930888,11.383437 0.57747492,9.9482361 1.2888499,8.8892013 L 5.702073,2.3191686 C 6.4948381,1.1389671 7.8232361,0.43100962 9.2449787,0.43100962 H 35.755021 c 1.421743,0 2.750141,0.70795748 3.542906,1.88815898 l 4.413223,6.5700327 c 0.711375,1.0590348 0.429541,2.4942357 -0.629494,3.2056107 -0.380853,0.255826 -0.829259,0.392448 -1.288058,0.392448 z m 0,-2.2 c 0.02185,0 0.0432,-0.0065 0.06134,-0.01869 0.05043,-0.03388 0.06385,-0.102218 0.02998,-0.152649 L 37.471687,3.5458908 C 37.087564,2.9740406 36.443907,2.6310096 35.755021,2.6310096 H 9.2449787 c -0.6888856,0 -1.3325423,0.343031 -1.7166656,0.9148812 L 3.1150899,10.115923 c -0.033875,0.05043 -0.020454,0.118774 0.029976,0.152649 0.018136,0.01218 0.039489,0.01869 0.061336,0.01869 z"
       id="path20"
       fill="#afafaf"
       fill-rule="nonzero"
       style="stroke:none;stroke-width:1;fill:#606060;fill-opacity:1" />
    <path
       d="M 41.793598,10.28726 H 3.2064019 c -0.021847,0 -0.0432,-0.0065 -0.061336,-0.01869 -0.05043,-0.03388 -0.063851,-0.102218 -0.029976,-0.152649 L 7.5283131,3.5458908 C 7.9124364,2.9740406 8.5560931,2.6310096 9.2449787,2.6310096 H 35.755021 c 0.688886,0 1.332543,0.343031 1.716666,0.9148812 l 4.413223,6.5700322 c 0.03388,0.05043 0.02045,0.118774 -0.02998,0.152649 -0.01814,0.01218 -0.03949,0.01869 -0.06134,0.01869 z"
       id="path22"
       fill="#ffffff"
       style="fill-rule:evenodd;stroke:none;stroke-width:1;fill:#101010;fill-opacity:1" />
    <path
       d="M 16.915156,0.43101 13.765768,12.48726 H 31.234231 L 28.084844,0.43101 Z m 1.699129,2.2 h 7.771429 l 2,7.65625 H 16.614285 Z"
       id="Rectangle-Copy-16"
       fill="#afafaf"
       fill-rule="nonzero"
       style="stroke:none;stroke-width:1;fill:#606060;fill-opacity:1" />
  </g>
</svg>
