<?xml version="1.0" encoding="UTF-8" standalone="no"?>
<svg
   xmlns:dc="http://purl.org/dc/elements/1.1/"
   xmlns:cc="http://creativecommons.org/ns#"
   xmlns:rdf="http://www.w3.org/1999/02/22-rdf-syntax-ns#"
   xmlns:svg="http://www.w3.org/2000/svg"
   xmlns="http://www.w3.org/2000/svg"
   xmlns:sodipodi="http://sodipodi.sourceforge.net/DTD/sodipodi-0.dtd"
   xmlns:inkscape="http://www.inkscape.org/namespaces/inkscape"
   width="46"
   height="46"
   viewBox="0 0 46 46"
   version="1.1"
   id="svg14"
   sodipodi:docname="inactive-stories.svg"
   inkscape:version="1.0 (4035a4fb49, 2020-05-01)">
  <metadata
     id="metadata20">
    <rdf:RDF>
      <cc:Work
         rdf:about="">
        <dc:format>image/svg+xml</dc:format>
        <dc:type
           rdf:resource="http://purl.org/dc/dcmitype/StillImage" />
      </cc:Work>
    </rdf:RDF>
  </metadata>
  <defs
     id="defs18" />
  <sodipodi:namedview
     inkscape:document-rotation="0"
     pagecolor="#ffffff"
     bordercolor="#666666"
     borderopacity="1"
     objecttolerance="10"
     gridtolerance="10"
     guidetolerance="10"
     inkscape:pageopacity="0"
     inkscape:pageshadow="2"
     inkscape:window-width="1366"
     inkscape:window-height="745"
     id="namedview16"
     showgrid="false"
     inkscape:zoom="11.130435"
     inkscape:cx="23"
     inkscape:cy="15.115209"
     inkscape:window-x="-8"
     inkscape:window-y="-8"
     inkscape:window-maximized="1"
     inkscape:current-layer="svg14" />
  <title
     id="title2">tab_stories inactive</title>
  <g
     id="g840">
    <path
       id="path4"
       stroke-linejoin="round"
       d="m 39.05,11.094 h 3.252 c 0.6,0 1.088,0.487 1.088,1.088 v 23.503 c 0,0.902 -0.73,1.632 -1.632,1.632 H 27.047 c -0.3,0 -0.544,0.244 -0.544,0.544 v 0.654 c 0,0.6 -0.487,1.088 -1.088,1.088 h -5.44 c -0.6,0 -1.088,-0.487 -1.088,-1.088 v -0.654 c 0,-0.3 -0.244,-0.544 -0.544,-0.544 H 3.632 C 2.731,37.317 2,36.587 2,35.685 V 12.182 c 0,-0.6 0.487,-1.088 1.088,-1.088 h 2.927"
       style="fill:none;fill-rule:evenodd;stroke:#808080;stroke-width:2.6;stroke-opacity:1" />
    <path
       id="path6"
       stroke-linejoin="round"
       stroke-linecap="round"
       d="M 37.732,32.033 H 27.074 c -2.04,0 -3.755,1.312 -4.241,3.088 h -0.276 c -0.486,-1.776 -2.2,-3.088 -4.241,-3.088 H 7.657 c -0.6,0 -1.088,-0.487 -1.088,-1.088 V 8.088 C 6.569,7.488 7.057,7 7.657,7 h 10.659 c 2.418,0 4.379,1.843 4.379,4.117 C 22.695,8.843 24.655,7 27.074,7 h 10.658 c 0.601,0 1.088,0.487 1.088,1.088 v 22.857 c 0,0.601 -0.487,1.088 -1.088,1.088 z"
       style="fill:none;fill-rule:evenodd;stroke:#808080;stroke-width:2.6;stroke-opacity:1" />
    <path
       id="path8"
       stroke-linecap="round"
       d="M 22.695,10.535 V 33.006"
       style="fill:none;fill-rule:evenodd;stroke:#808080;stroke-width:2.6;stroke-opacity:1" />
  </g>
</svg>
