<?xml version="1.0" encoding="UTF-8" standalone="no"?>
<svg
   xmlns:dc="http://purl.org/dc/elements/1.1/"
   xmlns:cc="http://creativecommons.org/ns#"
   xmlns:rdf="http://www.w3.org/1999/02/22-rdf-syntax-ns#"
   xmlns:svg="http://www.w3.org/2000/svg"
   xmlns="http://www.w3.org/2000/svg"
   xmlns:sodipodi="http://sodipodi.sourceforge.net/DTD/sodipodi-0.dtd"
   xmlns:inkscape="http://www.inkscape.org/namespaces/inkscape"
   width="46"
   height="46"
   viewBox="0 0 46 46"
   version="1.1"
   id="svg24"
   sodipodi:docname="inactive-profile.svg"
   inkscape:version="1.0 (4035a4fb49, 2020-05-01)">
  <metadata
     id="metadata30">
    <rdf:RDF>
      <cc:Work
         rdf:about="">
        <dc:format>image/svg+xml</dc:format>
        <dc:type
           rdf:resource="http://purl.org/dc/dcmitype/StillImage" />
      </cc:Work>
    </rdf:RDF>
  </metadata>
  <defs
     id="defs28" />
  <sodipodi:namedview
     inkscape:document-rotation="0"
     pagecolor="#ffffff"
     bordercolor="#666666"
     borderopacity="1"
     objecttolerance="10"
     gridtolerance="10"
     guidetolerance="10"
     inkscape:pageopacity="0"
     inkscape:pageshadow="2"
     inkscape:window-width="1366"
     inkscape:window-height="745"
     id="namedview26"
     showgrid="false"
     inkscape:zoom="11.130435"
     inkscape:cx="23"
     inkscape:cy="23"
     inkscape:window-x="-8"
     inkscape:window-y="-8"
     inkscape:window-maximized="1"
     inkscape:current-layer="svg24" />
  <title
     id="title2">tab_profile_inactive</title>
  <g
     id="g843">
    <path
       id="path4"
       stroke-width="2.6"
       stroke="#afafaf"
       d="M 39.5,28.698 38.7,28.365 V 21.5 C 38.7,13.105 31.895,6.3 23.5,6.3 15.105,6.3 8.3,13.105 8.3,21.5 v 6.865 l -0.8,0.333 a 5.201,5.201 0 0 0 2,10.002 h 28 a 5.2,5.2 0 0 0 2,-10.002 z"
       style="fill:none;fill-rule:evenodd;stroke:#808080;stroke-opacity:1" />
    <path
       d="M 27.347,13.15 C 25.569,16.839 21.537,19.3 17,19.3 c -1.031,0 -2.045,-0.126 -3.02,-0.372 A 10.174,10.174 0 0 0 13.3,22.6 v 6 c 0,5.634 4.567,10.2 10.2,10.2 5.633,0 10.2,-4.566 10.2,-10.2 v -6 c 0,-4.21 -2.573,-7.913 -6.353,-9.45 z"
       stroke="#afafaf"
       stroke-width="2.6"
       id="path6"
       style="fill:none;fill-rule:evenodd;stroke:#808080;stroke-opacity:1" />
    <path
       id="path8"
       d="m 20.5,19 a 1.5,1.5 0 0 1 1.5,1.5 v 4 a 1.5,1.5 0 0 1 -3,0 v -4 A 1.5,1.5 0 0 1 20.5,19 Z"
       style="fill:#808080;fill-opacity:1;fill-rule:evenodd;stroke:none;stroke-width:1" />
    <rect
       id="rect10"
       rx="1.5"
       height="7"
       width="3"
       y="19"
       x="25"
       style="fill:#808080;fill-opacity:1;fill-rule:evenodd;stroke:none;stroke-width:1" />
  </g>
</svg>
