<?xml version="1.0" encoding="UTF-8" standalone="no"?>
<svg
   xmlns:dc="http://purl.org/dc/elements/1.1/"
   xmlns:cc="http://creativecommons.org/ns#"
   xmlns:rdf="http://www.w3.org/1999/02/22-rdf-syntax-ns#"
   xmlns:svg="http://www.w3.org/2000/svg"
   xmlns="http://www.w3.org/2000/svg"
   xmlns:sodipodi="http://sodipodi.sourceforge.net/DTD/sodipodi-0.dtd"
   xmlns:inkscape="http://www.inkscape.org/namespaces/inkscape"
   inkscape:version="1.0 (4035a4fb49, 2020-05-01)"
   sodipodi:docname="plus-logo-feather.svg"
   xml:space="preserve"
   viewBox="0 0 426.7 66.4"
   y="0"
   x="0"
   id="Layer_1"
   version="1.1"><metadata
     id="metadata23"><rdf:RDF><cc:Work
         rdf:about=""><dc:format>image/svg+xml</dc:format><dc:type
           rdf:resource="http://purl.org/dc/dcmitype/StillImage" /></cc:Work></rdf:RDF></metadata><defs
     id="defs21" /><sodipodi:namedview
     inkscape:current-layer="Layer_1"
     inkscape:window-maximized="1"
     inkscape:window-y="-8"
     inkscape:window-x="-8"
     inkscape:cy="10.637281"
     inkscape:cx="433.76981"
     inkscape:zoom="0.932148"
     showgrid="false"
     id="namedview19"
     inkscape:window-height="745"
     inkscape:window-width="1366"
     inkscape:pageshadow="2"
     inkscape:pageopacity="0"
     guidetolerance="10"
     gridtolerance="10"
     objecttolerance="10"
     borderopacity="1"
     bordercolor="#666666"
     pagecolor="#ffffff" /><style
     id="style2"
     type="text/css">.st0{fill:#fff}.st1{fill:#286ec8}</style><g
     id="g16"><g
       id="g14"><path
         id="path4"
         d="M246.2 33.2c0-10.5 8-17.9 18.6-17.9s18.6 7.4 18.6 17.9c0 10.3-8 17.9-18.6 17.9s-18.6-7.5-18.6-17.9zm26.6 0c0-4.9-3.1-8.5-8-8.5s-8 3.6-8 8.5 3.1 8.5 8 8.5c4.9.1 8-3.5 8-8.5zm-33.6-8.3c.7 1.4 1 2.9 1 4.5 0 3.8-2 7.3-5.2 10 4.4 2.1 7 7.2 7 12 0 9-7.3 15-18.4 15s-18.4-5.9-18.4-15c0-4.9 2.6-9.8 7-12-3.3-2.7-5.2-6.2-5.2-10 0-7.9 6.2-13.7 16-13.7 5.8 0 7.5 1 10.8 1 2.2 0 3.7-.3 6.4-1.7.9-.5 1.6-.7 2.2-.7 1.3 0 2 1.3 2 2.9.1 3.5-1.6 6.4-5.2 7.7zm-7.6 26.2c0-4-3.1-6.8-8-6.8s-8 2.7-8 6.8c0 3.8 3.4 6.8 8 6.8 4.6.1 8-3 8-6.8zM217.2 30c0 3.4 2.9 6.1 6.4 6.1 3.6 0 6.4-2.7 6.4-6.1 0-3.6-2.6-6.1-6.4-6.1s-6.4 2.5-6.4 6.1zm-16.8 3.9v12.5c0 2.4-.9 3.4-3.5 3.4h-3.5c-2.6 0-3.5-1-3.5-3.4V34.2c0-3.1-.5-5.3-1.6-6.7-1.2-1.5-3-2.3-5.3-2.3-2.2 0-4.2.8-5.5 2.3-1.2 1.4-2 3.6-2 6.6v12.2c0 2.5-1 3.4-3.5 3.4h-3.5c-2.4 0-3.5-.9-3.5-3.4v-28c0-1.6.8-2.3 2-2.3 1.8 0 4.3 1.5 6.2 4.4 2.8-3.3 7.1-5 11.3-5 5.1 0 9.2 1.8 11.9 4.8 2.6 3.1 4 7.1 4 13.7zM145.8 5.7c0-3.2 2.6-5.7 6-5.7 3.2 0 6 2.5 6 5.7 0 3.1-2.8 5.7-6 5.7-3.4 0-6-2.5-6-5.7zm.7 40.7V20.1c0-2.4.9-3.4 3.5-3.4h3.5c2.6 0 3.5 1 3.5 3.4v26.3c0 2.4-.9 3.4-3.5 3.4H150c-2.6 0-3.5-1-3.5-3.4zm-18.5 0v-33c0-8.3 4.7-13 8.5-13 1.2 0 2 .8 2 2.3v43.6c0 2.5-1 3.4-3.5 3.4h-3.5c-2.4.1-3.5-.8-3.5-3.3zM84.7 33.2c0-10.5 8-17.9 18.6-17.9 10.6 0 18.6 7.4 18.6 17.9 0 10.3-8 17.9-18.6 17.9-10.6 0-18.6-7.5-18.6-17.9zm26.7 0c0-4.9-3.1-8.5-8-8.5s-8 3.6-8 8.5 3.1 8.5 8 8.5c4.9.1 8-3.5 8-8.5zm-32-13.1v28c0 1.6-.8 2.3-2 2.3-1.8 0-4.3-1.5-6.1-4.3-2.6 3.1-6.6 4.9-11.1 4.9s-8.1-1.6-10.8-4c-3.1-3-4.8-7.6-4.8-14.2V20.1c0-2.4.9-3.4 3.5-3.4h3.5c2.6 0 3.5 1 3.5 3.4v11.8c0 4 .7 6.1 2 7.5 1.1 1.2 2.7 1.8 4.7 1.8s3.9-.8 5-2.1c1.3-1.4 2-3.6 2-7v-12c0-2.5 1-3.4 3.5-3.4h3.5c2.5 0 3.6.9 3.6 3.4zm-42-17.3v45.4c0 1.6-.8 2.3-2 2.3-1.8 0-4.3-1.5-6.1-4.2-2.2 2.6-6.7 4.9-11.9 4.9C7 51.2 0 43.6 0 33.3c0-10.1 7.1-17.9 17.4-17.9 3.8 0 7.1 1.2 9.6 2.9v-4.8c0-8.3 4.7-13 8.5-13 1.2-.1 1.9.7 1.9 2.3zM26.9 33.2c0-5.1-3.6-8.5-8.1-8.5-4.6 0-8.2 3.4-8.2 8.5s3.6 8.5 8.2 8.5c4.5.1 8.1-3.3 8.1-8.5z"
         class="st0" /><path
         style="fill:#000000;fill-opacity:0.40322581"
         id="path6"
         d="M416.3 57.4H313.1c-5.8 0-10.5-4.7-10.5-10.5V10.6c0-5.8 4.7-10.5 10.5-10.5h103.1c5.8 0 10.5 4.7 10.5 10.5v36.3c.1 5.8-4.6 10.5-10.4 10.5z"
         class="st1" /><g
         id="g12"><g
           id="g10"><path
             id="path8"
             d="M318.3 38.8V18.1c0-1.5.9-2.5 2.4-2.5h8c5.7 0 9 3.4 9 8.3s-3.4 8.3-9 8.3h-4.6c-.2 0-.2.1-.2.2v6.4c0 1.8-1.2 3-2.8 3-1.6 0-2.8-1.2-2.8-3zM332.1 24c0-2.1-1.4-3.5-3.8-3.5H324c-.2 0-.2.1-.2.2v6.5c0 .2.1.2.2.2h4.3c2.4 0 3.8-1.3 3.8-3.4zM343.2 18.4c0-1.8 1.2-3 2.8-3 1.6 0 2.8 1.2 2.8 3v17.9c0 .2.1.2.2.2h9.2c1.7 0 2.8 1 2.8 2.5s-1.1 2.5-2.8 2.5H346c-1.7 0-2.8-1.1-2.8-2.8V18.4zM365.4 32V18.4c0-1.8 1.2-3 2.8-3 1.6 0 2.8 1.2 2.8 3v13.8c0 3.1 1.9 4.8 4.3 4.8 2.6 0 4.3-1.8 4.3-4.8V18.4c0-1.8 1.2-3 2.8-3 1.6 0 2.8 1.2 2.8 3V32c0 6.5-4.1 10-9.9 10-6-.1-9.9-3.6-9.9-10zM392.8 39.7c-.9-.6-1.3-1.4-1.3-2.4 0-1.4 1.1-2.5 2.5-2.5.6 0 1.2.2 1.6.5 2.1 1.2 3.7 1.7 5.6 1.7 2.7 0 4.2-1.3 4.2-3 0-1.5-.9-2.5-4-2.9l-1.4-.2c-5.3-.7-8.2-3.2-8.2-7.8 0-4.8 3.6-7.9 9.2-7.9 2.9 0 5.7.8 7.2 1.7.9.6 1.3 1.3 1.3 2.2 0 1.4-1.1 2.4-2.4 2.4-.5 0-1.1-.2-1.6-.4-1.3-.6-2.9-1.1-4.5-1.1-2.3 0-3.5 1.1-3.5 2.8 0 1.4 1 2.4 4 2.9l1.4.2c5.4.8 8.2 3.2 8.2 7.8s-3.4 8.2-10.2 8.2c-3.6 0-6.4-1.1-8.1-2.2z"
             class="st0" /></g></g></g></g></svg>
