<?xml version="1.0" encoding="UTF-8" standalone="no"?>
<svg
   xmlns:dc="http://purl.org/dc/elements/1.1/"
   xmlns:cc="http://creativecommons.org/ns#"
   xmlns:rdf="http://www.w3.org/1999/02/22-rdf-syntax-ns#"
   xmlns:svg="http://www.w3.org/2000/svg"
   xmlns="http://www.w3.org/2000/svg"
   xmlns:sodipodi="http://sodipodi.sourceforge.net/DTD/sodipodi-0.dtd"
   xmlns:inkscape="http://www.inkscape.org/namespaces/inkscape"
   inkscape:version="1.0 (4035a4fb49, 2020-05-01)"
   height="110"
   width="44.000004"
   sodipodi:docname="progress-tracker.svg"
   id="svg16"
   version="1.1"
   fill="none"
   viewBox="0 0 44.000004 110">
  <metadata
     id="metadata22">
    <rdf:RDF>
      <cc:Work
         rdf:about="">
        <dc:format>image/svg+xml</dc:format>
        <dc:type
           rdf:resource="http://purl.org/dc/dcmitype/StillImage" />
      </cc:Work>
    </rdf:RDF>
  </metadata>
  <defs
     id="defs20">
    <clipPath
       id="clip0">
      <rect
         y="0"
         x="0"
         width="22"
         height="22"
         fill="#ffffff"
         id="rect8" />
    </clipPath>
    <clipPath
       id="clip0-7">
      <rect
         y="0"
         x="0"
         width="22"
         height="22"
         fill="#ffffff"
         id="rect10" />
    </clipPath>
  </defs>
  <sodipodi:namedview
     inkscape:current-layer="svg16"
     inkscape:window-maximized="1"
     inkscape:window-y="-8"
     inkscape:window-x="-8"
     inkscape:cy="62.964141"
     inkscape:cx="-19.777346"
     inkscape:zoom="4"
     inkscape:snap-page="true"
     showgrid="false"
     id="namedview18"
     inkscape:window-height="745"
     inkscape:window-width="1366"
     inkscape:pageshadow="2"
     inkscape:pageopacity="0"
     guidetolerance="10"
     gridtolerance="10"
     objecttolerance="10"
     borderopacity="1"
     bordercolor="#666666"
     pagecolor="#ffffff" />
  <mask
     height="14"
     width="12"
     y="4"
     x="0"
     maskUnits="userSpaceOnUse"
     mask-type="alpha"
     id="mask0">
    <path
       id="path2"
       fill="#ffffff"
       d="M 3.27396,4.34276 10.5626,9.1352 c 0.9999,0.6575 1.3018,2.0398 0.6742,3.0875 -0.1734,0.2895 -0.4078,0.5336 -0.6853,0.7136 l -7.28857,4.728 C 2.25917,18.3154 0.941651,17.9907 0.320166,16.9391 0.110875,16.5849 0,16.1767 0,15.7601 V 6.23969 C 0,5.00282 0.957051,4.00012 2.13763,4.00012 c 0.40199,0 0.79584,0.11876 1.13633,0.34264 z"
       clip-rule="evenodd"
       fill-rule="evenodd" />
  </mask>
  <mask
     height="14"
     width="12"
     y="4"
     x="10"
     maskUnits="userSpaceOnUse"
     mask-type="alpha"
     id="mask1">
    <path
       id="path9"
       fill="#ffffff"
       d="m 13.7095,4.34264 7.2886,4.79244 c 1,0.6575 1.3018,2.03982 0.6743,3.08742 -0.1735,0.2896 -0.4079,0.5337 -0.6853,0.7137 l -7.2886,4.7279 C 12.6947,18.3153 11.3772,17.9906 10.7557,16.939 10.5464,16.5848 10.4355,16.1765 10.4355,15.76 V 6.23957 C 10.4355,5.00269 11.3926,4 12.5732,4 c 0.402,0 0.7958,0.11875 1.1363,0.34264 z"
       clip-rule="evenodd"
       fill-rule="evenodd" />
  </mask>
  <path
     style="fill:#ffffff;fill-opacity:1"
     d="M 0,3.0664062 V 18.933594 H 10.435547 V 3.0664062 Z"
     id="path5" />
  <path
     style="fill:#ffffff;fill-opacity:1"
     d="M 9.6367188 23.277344 C 9.4149251 23.263169 9.1975175 23.333022 9.0390625 23.492188 L 7.1640625 25.375 L 11.804688 25.490234 C 11.798443 25.257393 11.704291 25.017624 11.515625 24.828125 L 10.265625 23.570312 C 10.085625 23.389517 9.8585124 23.291519 9.6367188 23.277344 z "
     id="path2-1" />
  <path
     style="fill:#ffffff;fill-opacity:1"
     d="M 18.640625 32.322266 C 18.621123 32.32102 18.603367 32.330007 18.583984 32.330078 L 18.699219 37.013672 L 20.599609 35.103516 C 20.916509 34.785117 20.881484 34.234647 20.521484 33.873047 L 19.269531 32.615234 C 19.089531 32.434434 18.862413 32.336428 18.640625 32.322266 z "
     id="path4" />
  <path
     d="M 19.351562 22.005859 C 17.748518 22.104316 15.98075 23.260551 15.355469 23.888672 L 5.6289062 33.660156 C 4.4524247 34.841972 4.3165885 36.669051 5.2148438 38.003906 L 7.5117188 35.697266 C 7.7683288 35.439466 8.1867394 35.441519 8.4433594 35.699219 C 8.6999694 35.957019 8.7019225 36.376966 8.4453125 36.634766 L 6.1503906 38.941406 C 7.4780022 39.832789 9.2888053 39.691145 10.460938 38.513672 L 20.1875 28.742188 C 21.0771 27.848617 23.0355 24.406543 21.3125 22.675781 C 20.774062 22.134916 20.080219 21.961106 19.351562 22.005859 z M 17.921875 23.34375 C 18.104288 23.343749 18.286581 23.414882 18.425781 23.554688 L 20.349609 25.486328 C 20.627909 25.765938 20.627909 26.2204 20.349609 26.5 L 20.09375 26.755859 C 20.02425 26.825759 19.911397 26.825759 19.841797 26.755859 L 17.162109 24.064453 C 17.092509 23.994553 17.092509 23.880457 17.162109 23.810547 L 17.417969 23.554688 C 17.557119 23.414887 17.739462 23.343751 17.921875 23.34375 z "
     style="fill:#ffffff;fill-opacity:1"
     id="path14" />
  <path
     d="M 4.7695312 46 C 3.2402913 46 2 47.240292 2 48.769531 L 2 61.230469 C 2 62.759669 3.2402913 64 4.7695312 64 L 17.230469 64 C 18.759669 64 20 62.759669 20 61.230469 L 20 57.279297 C 18.533981 58.943781 16.392412 60 14 60 C 9.5817196 60 6 56.4183 6 52 C 6 49.607599 7.0562168 47.466022 8.7207031 46 L 4.7695312 46 z M 14 47.095703 C 11.2911 47.095703 9.0957031 49.29105 9.0957031 52 C 9.0957031 52.615335 9.2208933 53.197608 9.4277344 53.740234 L 15.740234 47.427734 C 15.197604 47.220897 14.615351 47.095703 14 47.095703 z M 18.142578 49.400391 L 11.400391 56.144531 C 12.155473 56.619134 13.042164 56.904297 14 56.904297 C 16.709 56.904297 18.904297 54.70893 18.904297 52 C 18.904297 51.041814 18.617477 50.155639 18.142578 49.400391 z "
     style="fill:#ffffff;fill-opacity:1"
     id="path2-7" />
  <path
     id="path4-07"
     fill="#ffffff"
     d="m 12.014201,75.43428 c -0.3169,-0.431579 -0.9617,-0.431579 -1.2786,0 L 8.4600905,78.5328 c -0.02128,0.029 -0.03791,0.0593 -0.05023,0.0902 -0.54253,0.6406 -0.86787,1.4586 -0.86787,2.3497 0,2.0547 1.72974,3.7203 3.8635095,3.7203 2.1337,0 3.8634,-1.6656 3.8634,-3.7203 0,-1.006 -0.4146,-1.9187 -1.0882,-2.5884 z" />
  <path
     id="path4-9"
     fill="#ffffff"
     d="m 5.0000005,97 c 1.10457,0 2,-0.89543 2,-2 0,-1.104569 -0.89543,-2 -2,-2 -1.10457,0 -2,0.895431 -2,2 0,1.10457 0.89543,2 2,2 z"
     opacity="0.3" />
  <path
     id="path6-2"
     fill="#ffffff"
     d="m 13.785601,100.3067 c -0.8438,0 -1.5923,-0.412999 -2.4224,-1.252399 -0.8438,0.866 -1.6195205,1.252399 -2.4360605,1.252399 -1.27925,0 -2.2455,-0.906 -2.2455,-2.224999 0,-1.31901 0.96625,-2.23832 2.27272,-2.23832 0.78932,0 1.4970405,0.38638 2.3952405,1.29236 0.9118,-0.9193 1.5922,-1.29236 2.4224,-1.29236 1.2792,0 2.272699,0.89266 2.272699,2.23832 0,1.3057 -0.9663,2.224999 -2.259099,2.224999 z m -0.0678,-1.238899 c 0.6396,0 0.9934,-0.466301 0.9934,-1.0125 0,-0.51965 -0.3538,-0.97264 -0.9934,-0.97264 -0.3947,0 -0.7758,0.2265 -1.4834,0.99924 0.6804,0.719499 1.0479,0.9859 1.4834,0.9859 z m -3.2389,-0.9859 c -0.6804205,0.732799 -1.0614805,0.9859 -1.4697505,0.9859 -0.62602,0 -0.97985,-0.453001 -0.97985,-1.0125 0,-0.532971 0.34022,-0.97264 0.97985,-0.97264 0.42188,0 0.80294,0.266469 1.4697505,0.99924 z"
     clip-rule="evenodd"
     fill-rule="evenodd" />
  <g
     transform="translate(22)"
     mask="url(#mask0)"
     id="g1028">
    <path
       style="fill:#000000;fill-opacity:1"
       fill-rule="evenodd"
       clip-rule="evenodd"
       d="M -0.890625,3.06702 H 12.4549 V 18.9332 H -0.890625 Z"
       fill="#ffffff"
       id="path1026" />
  </g>
  <g
     transform="translate(22)"
     mask="url(#mask1)"
     id="g1032">
    <path
       style="fill:#000000;fill-opacity:1"
       fill-rule="evenodd"
       clip-rule="evenodd"
       d="M 9.54492,3.06689 H 22.8904 V 18.9331 H 9.54492 Z"
       fill="#1cb0f6"
       id="path1030" />
  </g>
  <path
     style="fill:#000000;fill-opacity:1"
     id="path1036"
     fill="#ffffff"
     d="m 33.516301,24.827771 c 0.36,0.36159 0.3949,0.91278 0.078,1.23112 l -2.85724,2.87013 c -0.31691,0.31833 -0.86563,0.28326 -1.2256,-0.07833 l -1.25127,-1.25691 c -0.35998,-0.36159 -0.39489,-0.91278 -0.07799,-1.23111 l 2.85727,-2.87014 c 0.31691,-0.31833 0.86563,-0.28326 1.22563,0.07833 z"
     clip-rule="evenodd"
     fill-rule="evenodd" />
  <path
     style="fill:#000000;fill-opacity:1"
     id="path1038"
     fill="#ffffff"
     d="m 42.521201,33.872901 c 0.36,0.3616 0.3949,0.912801 0.078,1.2312 l -2.8573,2.8701 c -0.3169,0.3183 -0.8656,0.2832 -1.2256,-0.0783 l -1.2512,-1.256999 c -0.36,-0.3615 -0.3949,-0.9127 -0.078,-1.231099 l 2.8573,-2.8701 c 0.3169,-0.318301 0.8656,-0.2833 1.2256,0.0783 z"
     clip-rule="evenodd"
     fill-rule="evenodd" />
  <path
     style="fill:#000000;fill-opacity:1"
     id="path1040"
     fill="#1cb0f6"
     d="m 22.541973,35.550801 c 0.03416,-0.0343 0.08073,-0.0532 0.129032,-0.0524 l 7.435596,0.1271 -3.37459,3.3898 -4.572444,-2.766199 c -0.0992,-0.06 -0.115953,-0.197699 -0.03407,-0.279899 z"
     clip-rule="evenodd"
     fill-rule="evenodd" />
  <path
     style="fill:#000000;fill-opacity:1"
     id="path1042"
     fill="#1cb0f6"
     d="m 40.804501,41.310201 c 0.0121,0.492 -0.1772,0.9674 -0.5236,1.3154 l -0.6755,0.6785 c -0.0146,0.0147 -0.0304,0.028 -0.0473,0.04 -0.1617,0.1141 -0.385,0.0749 -0.4986,-0.0875 l -5.2304,-7.4783 6.6749,-6.70494 z"
     clip-rule="evenodd"
     fill-rule="evenodd" />
  <path
     style="fill:#000000;fill-opacity:1"
     id="path1044"
     fill="#1cb0f6"
     d="m 24.832981,25.268131 12.18202,0.30186 -6.6749,6.70491 -7.444754,-5.25394 c -0.161734,-0.11414 -0.200731,-0.33837 -0.0871,-0.50083 0.01187,-0.01697 0.02518,-0.03287 0.03978,-0.04754 l 0.675491,-0.67853 c 0.34641,-0.34798 0.81971,-0.53807 1.30947,-0.52593 z"
     clip-rule="evenodd"
     fill-rule="evenodd" />
  <path
     style="fill:#000000;fill-opacity:1"
     id="path1046"
     fill="#1cb0f6"
     d="m 30.537241,43.399701 c 8.2e-4,0.0487 -0.01808,0.0957 -0.05239,0.1301 l -0.41556,0.4175 c -0.01028,0.0103 -0.02177,0.0193 -0.03421,0.0268 -0.08467,0.0513 -0.19463,0.0238 -0.24562,-0.0612 l -2.75333,-4.5922 3.37459,-3.3898 z"
     clip-rule="evenodd"
     fill-rule="evenodd" />
  <path
     style="fill:#000000;fill-opacity:1"
     id="path1048"
     fill="#ffffff"
     d="m 37.356301,23.888841 c 0.9095,-0.913631 4.234,-2.94312 5.957,-1.212352 1.723,1.730762 -0.2357,5.172262 -1.1253,6.065832 l -9.7267,9.77048 c -1.33422,1.3403 -3.49746,1.3403 -4.83171,0 -1.33425,-1.3402 -1.33425,-3.5132 0,-4.8535 z"
     clip-rule="evenodd"
     fill-rule="evenodd" />
  <path
     style="fill:#000000;fill-opacity:1"
     id="path1050"
     fill="#1cb0f6"
     d="m 39.162101,23.811051 c -0.0696,0.06991 -0.0696,0.18324 0,0.25314 l 2.6798,2.69188 c 0.0696,0.0699 0.1825,0.0699 0.252,0 l 0.2558,-0.2569 c 0.2783,-0.2796 0.2783,-0.73293 0,-1.01254 l -1.9238,-1.93247 c -0.2784,-0.27961 -0.7297,-0.2796 -1.008,0 z" />
  <path
     style="fill:#000000;fill-opacity:1"
     id="path1052"
     fill="#1cb0f6"
     d="m 29.511921,35.697601 c 0.25661,-0.2578 0.67464,-0.2558 0.93126,0.0019 0.25661,0.2578 0.25858,0.6777 0.002,0.9355 l -3.2481,3.2627 c -0.25662,0.2578 -0.67464,0.2558 -0.93126,-0.002 -0.25661,-0.2577 -0.25858,-0.6776 -0.002,-0.9354 z"
     clip-rule="evenodd"
     fill-rule="evenodd" />
  <path
     style="fill:#000000;fill-opacity:1"
     id="path1056"
     fill="#ffffff"
     d="M 24,48.76893 C 24,47.239691 25.23969,46 26.76893,46 H 39.2311 C 40.7603,46 42,47.239691 42,48.76893 V 61.2311 C 42,62.7603 40.7603,64 39.2311,64 H 26.76893 C 25.23969,64 24,62.7603 24,61.2311 Z"
     clip-rule="evenodd"
     fill-rule="evenodd" />
  <path
     style="fill:#000000;fill-opacity:1"
     id="path1058"
     fill="#1cb0f6"
     d="M 39.3453,45.82214 41.5338,48.01065 31.35257,58.1919 29.16406,56.0034 Z" />
  <path
     style="fill:#000000;fill-opacity:1"
     id="path1060"
     fill="#1cb0f6"
     d="m 28,52 c 0,4.4183 3.58172,8 8,8 4.4183,0 8,-3.5817 8,-8 0,-4.41828 -3.5817,-8 -8,-8 -4.41828,0 -8,3.58172 -8,8 z m 12.9047,-3e-5 c 0,2.70893 -2.196,4.90503 -4.905,4.90503 -2.7089,0 -4.90497,-2.1961 -4.90497,-4.905029 0,-2.70895 2.19607,-4.90499 4.90497,-4.90499 2.709,0 4.905,2.19604 4.905,4.904989 z"
     clip-rule="evenodd"
     fill-rule="evenodd" />
  <path
     style="fill:#000000;fill-opacity:1"
     d="m 32.143601,66.609704 c 0.6448,-0.812938 1.8788,-0.812939 2.5236,0 l 5.821,7.338656 c 1.21,1.47761 1.932,3.34294 1.932,5.37074 0,4.7943 -4.0361,8.6809 -9.0148,8.6809 -4.97872,0 -9.01478,-3.8866 -9.01478,-8.6809 0,-0.3363 0.01986,-0.6681 0.05851,-0.9944 l -0.02033,-7.31259 c -0.003,-1.07585 0.5828,-1.86951 1.5842,-1.70075 0.19955,0.03363 0.62141,0.16073 0.81043,0.26191 l 2.08443,1.11575 z"
     fill="#1cb0f6"
     id="path1064" />
  <path
     style="fill:#000000;fill-opacity:1"
     d="m 34.014201,75.43428 c -0.3169,-0.431579 -0.9617,-0.431579 -1.2786,0 l -2.27551,3.09852 c -0.02128,0.029 -0.03791,0.0593 -0.05023,0.0902 -0.54253,0.6406 -0.86787,1.4586 -0.86787,2.3497 0,2.0547 1.72974,3.7203 3.86351,3.7203 2.1337,0 3.8634,-1.6656 3.8634,-3.7203 0,-1.006 -0.4146,-1.9187 -1.0882,-2.5884 z"
     fill="#ffffff"
     id="path1066" />
  <path
     style="fill:#000000;fill-opacity:1"
     fill-rule="evenodd"
     clip-rule="evenodd"
     d="m 22.000001,96.366471 c 0,1.97353 1.00205,3.719429 2.53835,4.782729 l 6.27303,5.5016 c 1.33412,1.17 3.33302,1.1556 4.65002,-0.0336 l 6.3023,-5.6904 c 1.3645,-1.075599 2.2367,-2.7187 2.2367,-4.55987 0,-3.23997 -2.7008,-5.866469 -6.0324,-5.866469 -2.0603,0 -3.8794,1.004469 -4.9676,2.53731 -1.08827,-1.5331 -2.90749,-2.53777 -4.96801,-2.53777 -3.3316,0 -6.03239,2.62651 -6.03239,5.86647 z"
     fill="#1cb0f6"
     id="path1072" />
  <path
     style="fill:#000000;fill-opacity:1"
     opacity="0.3"
     d="m 27.000001,97 c 1.10457,0 2,-0.89543 2,-2 0,-1.104569 -0.89543,-2 -2,-2 -1.10457,0 -2,0.895431 -2,2 0,1.10457 0.89543,2 2,2 z"
     fill="#ffffff"
     id="path1074" />
  <path
     style="fill:#000000;fill-opacity:1"
     fill-rule="evenodd"
     clip-rule="evenodd"
     d="m 35.785601,100.3067 c -0.8438,0 -1.5923,-0.412999 -2.4224,-1.252399 -0.8438,0.866 -1.61952,1.252399 -2.43606,1.252399 -1.27925,0 -2.2455,-0.906 -2.2455,-2.224999 0,-1.31901 0.96625,-2.23832 2.27272,-2.23832 0.78932,0 1.49704,0.38638 2.39524,1.29236 0.9118,-0.9193 1.5922,-1.29236 2.4224,-1.29236 1.2792,0 2.2727,0.89266 2.2727,2.23832 0,1.3057 -0.9663,2.224999 -2.2591,2.224999 z m -0.0678,-1.238899 c 0.6396,0 0.9934,-0.466301 0.9934,-1.0125 0,-0.51965 -0.3538,-0.97264 -0.9934,-0.97264 -0.3947,0 -0.7758,0.2265 -1.4834,0.99924 0.6804,0.719499 1.0479,0.9859 1.4834,0.9859 z m -3.2389,-0.9859 c -0.68042,0.732799 -1.06148,0.9859 -1.46975,0.9859 -0.62602,0 -0.97985,-0.453001 -0.97985,-1.0125 0,-0.532971 0.34022,-0.97264 0.97985,-0.97264 0.42188,0 0.80294,0.266469 1.46975,0.99924 z"
     fill="#ffffff"
     id="path1076" />
</svg>
