<?xml version="1.0" encoding="UTF-8" standalone="no"?>
<svg
   xmlns:dc="http://purl.org/dc/elements/1.1/"
   xmlns:cc="http://creativecommons.org/ns#"
   xmlns:rdf="http://www.w3.org/1999/02/22-rdf-syntax-ns#"
   xmlns:svg="http://www.w3.org/2000/svg"
   xmlns="http://www.w3.org/2000/svg"
   xmlns:sodipodi="http://sodipodi.sourceforge.net/DTD/sodipodi-0.dtd"
   xmlns:inkscape="http://www.inkscape.org/namespaces/inkscape"
   inkscape:version="1.0 (4035a4fb49, 2020-05-01)"
   sodipodi:docname="plus-check.svg"
   id="svg8"
   version="1.1"
   fill="none"
   viewBox="0 0 32 32"
   height="32"
   width="32">
  <metadata
     id="metadata14">
    <rdf:RDF>
      <cc:Work
         rdf:about="">
        <dc:format>image/svg+xml</dc:format>
        <dc:type
           rdf:resource="http://purl.org/dc/dcmitype/StillImage" />
      </cc:Work>
    </rdf:RDF>
  </metadata>
  <defs
     id="defs12" />
  <sodipodi:namedview
     inkscape:current-layer="svg8"
     inkscape:window-maximized="1"
     inkscape:window-y="-8"
     inkscape:window-x="-8"
     inkscape:cy="20.547511"
     inkscape:cx="-14.731232"
     inkscape:zoom="8"
     inkscape:snap-page="true"
     showgrid="false"
     id="namedview10"
     inkscape:window-height="745"
     inkscape:window-width="1366"
     inkscape:pageshadow="2"
     inkscape:pageopacity="0"
     guidetolerance="10"
     gridtolerance="10"
     objecttolerance="10"
     borderopacity="1"
     bordercolor="#666666"
     pagecolor="#ffffff" />
  <path
     style="fill:#000000;fill-opacity:0.40322581"
     id="path2"
     stroke-width="4"
     stroke="white"
     fill="#2B70C9"
     d="M16 30C23.732 30 30 23.732 30 16C30 8.26801 23.732 2 16 2C8.26801 2 2 8.26801 2 16C2 23.732 8.26801 30 16 30Z" />
  <path
     id="path4"
     fill="white"
     d="M14.0339 17.3486L11.6629 15.0316C11.0038 14.3875 9.94718 14.3921 9.29255 15.0318C8.63336 15.676 8.63783 16.7086 9.29233 17.3482L12.8487 20.8236C13.5078 21.4678 14.5645 21.4631 15.2191 20.8234C15.2853 20.7587 15.3447 20.6901 15.3976 20.6184C15.4715 20.5664 15.5422 20.5079 15.6088 20.4428L22.1994 14.0022C22.8566 13.36 22.8604 12.3191 22.2058 11.6794C21.5466 11.0352 20.487 11.0424 19.8288 11.6856L14.0339 17.3486V17.3486Z"
     clip-rule="evenodd"
     fill-rule="evenodd" />
  <circle
     id="circle6"
     fill="white"
     r="3.2"
     cy="12.7996"
     cx="12.7996"
     opacity="0.3" />
</svg>
