<?xml version="1.0" encoding="UTF-8" standalone="no"?>
<svg
   xmlns:dc="http://purl.org/dc/elements/1.1/"
   xmlns:cc="http://creativecommons.org/ns#"
   xmlns:rdf="http://www.w3.org/1999/02/22-rdf-syntax-ns#"
   xmlns:svg="http://www.w3.org/2000/svg"
   xmlns="http://www.w3.org/2000/svg"
   xmlns:sodipodi="http://sodipodi.sourceforge.net/DTD/sodipodi-0.dtd"
   xmlns:inkscape="http://www.inkscape.org/namespaces/inkscape"
   inkscape:version="1.0 (4035a4fb49, 2020-05-01)"
   sodipodi:docname="stories.svg"
   id="svg16"
   version="1.1"
   viewBox="0 0 46 46"
   height="46"
   width="46">
  <metadata
     id="metadata22">
    <rdf:RDF>
      <cc:Work
         rdf:about="">
        <dc:format>image/svg+xml</dc:format>
        <dc:type
           rdf:resource="http://purl.org/dc/dcmitype/StillImage" />
      </cc:Work>
    </rdf:RDF>
  </metadata>
  <defs
     id="defs20" />
  <sodipodi:namedview
     inkscape:current-layer="svg16"
     inkscape:window-maximized="1"
     inkscape:window-y="-8"
     inkscape:window-x="-8"
     inkscape:cy="34.277111"
     inkscape:cx="23.604116"
     inkscape:zoom="5.5652174"
     inkscape:snap-page="true"
     showgrid="false"
     id="namedview18"
     inkscape:window-height="745"
     inkscape:window-width="1366"
     inkscape:pageshadow="2"
     inkscape:pageopacity="0"
     guidetolerance="10"
     gridtolerance="10"
     objecttolerance="10"
     borderopacity="1"
     bordercolor="#666666"
     pagecolor="#ffffff" />
  <title
     id="title2">stories</title>
  <g
     id="g979">
    <path
       id="rect869"
       style="fill:#101010;fill-opacity:1;stroke:#808080;stroke-width:0;stroke-linecap:round;stroke-dasharray:none;paint-order:markers fill stroke"
       d="M 0 0 L 0 46 L 46 46 L 46 0 L 0 0 z M 7.9863281 5.8652344 L 18.519531 5.8652344 C 20.360194 5.8652344 21.93474 6.805054 22.953125 8.1640625 C 23.971312 6.8045411 25.546109 5.8652344 27.386719 5.8652344 L 37.921875 5.8652344 C 39.286288 5.8652344 40.416016 6.9937723 40.416016 8.359375 L 40.416016 10.091797 L 42.546875 10.091797 C 43.910463 10.091797 45.042969 11.221157 45.042969 12.585938 L 45.042969 36.251953 C 45.042969 37.992014 43.607247 39.427734 41.867188 39.427734 L 27.945312 39.427734 L 27.945312 39.472656 C 27.944242 40.737021 26.895225 41.785157 25.630859 41.785156 L 20.279297 41.785156 C 19.014201 41.785156 17.964844 40.735799 17.964844 39.470703 L 17.964844 39.425781 L 4.0390625 39.425781 C 2.2995892 39.425781 0.86608706 37.991426 0.86523438 36.251953 L 0.86523438 12.587891 C 0.86523438 11.223111 1.9957873 10.091797 3.359375 10.091797 L 5.4921875 10.091797 L 5.4921875 8.359375 C 5.4921875 6.9957873 6.6215489 5.8652344 7.9863281 5.8652344 z " />
    <path
       id="path941"
       style="color:#000000;font-style:normal;font-variant:normal;font-weight:normal;font-stretch:normal;font-size:medium;line-height:normal;font-family:sans-serif;font-variant-ligatures:normal;font-variant-position:normal;font-variant-caps:normal;font-variant-numeric:normal;font-variant-alternates:normal;font-variant-east-asian:normal;font-feature-settings:normal;font-variation-settings:normal;text-indent:0;text-align:start;text-decoration:none;text-decoration-line:none;text-decoration-style:solid;text-decoration-color:#000000;letter-spacing:normal;word-spacing:normal;text-transform:none;writing-mode:lr-tb;direction:ltr;text-orientation:mixed;dominant-baseline:auto;baseline-shift:baseline;text-anchor:start;white-space:normal;shape-padding:0;shape-margin:0;inline-size:0;clip-rule:nonzero;display:inline;overflow:visible;visibility:visible;isolation:auto;mix-blend-mode:normal;color-interpolation:sRGB;color-interpolation-filters:linearRGB;solid-color:#000000;solid-opacity:1;vector-effect:none;fill:#ffffff;fill-opacity:0.75403231;fill-rule:evenodd;stroke:none;stroke-width:2.27;stroke-linecap:round;stroke-linejoin:round;stroke-miterlimit:4;stroke-dasharray:none;stroke-dashoffset:0;stroke-opacity:1;color-rendering:auto;image-rendering:auto;shape-rendering:auto;text-rendering:auto;enable-background:accumulate;stop-color:#000000"
       d="M 7.9863281 5.8652344 C 6.6215489 5.8652344 5.4921875 6.9957873 5.4921875 8.359375 L 5.4921875 31.478516 C 5.4921875 32.843022 6.6218213 33.972656 7.9863281 33.972656 L 18.521484 33.972656 C 20.091586 33.972656 21.36266 34.996297 21.716797 36.318359 A 1.1351135 1.1351135 0 0 0 21.818359 36.572266 L 21.818359 9.6484375 A 1.135 1.135 0 0 1 22.953125 8.5136719 A 1.135 1.135 0 0 1 24.089844 9.6484375 L 24.089844 36.566406 A 1.1351135 1.1351135 0 0 0 24.189453 36.318359 C 24.544441 34.995814 25.818571 33.972656 27.388672 33.972656 L 37.919922 33.972656 L 37.921875 33.972656 C 39.286382 33.972656 40.416016 32.843022 40.416016 31.478516 L 40.416016 8.359375 C 40.416016 6.9937723 39.286288 5.8652344 37.921875 5.8652344 L 27.386719 5.8652344 C 25.546109 5.8652344 23.971312 6.8045411 22.953125 8.1640625 C 21.93474 6.805054 20.360194 5.8652344 18.519531 5.8652344 L 7.9863281 5.8652344 z " />
    <path
       style="color:#000000;font-style:normal;font-variant:normal;font-weight:normal;font-stretch:normal;font-size:medium;line-height:normal;font-family:sans-serif;font-variant-ligatures:normal;font-variant-position:normal;font-variant-caps:normal;font-variant-numeric:normal;font-variant-alternates:normal;font-variant-east-asian:normal;font-feature-settings:normal;font-variation-settings:normal;text-indent:0;text-align:start;text-decoration:none;text-decoration-line:none;text-decoration-style:solid;text-decoration-color:#000000;letter-spacing:normal;word-spacing:normal;text-transform:none;writing-mode:lr-tb;direction:ltr;text-orientation:mixed;dominant-baseline:auto;baseline-shift:baseline;text-anchor:start;white-space:normal;shape-padding:0;shape-margin:0;inline-size:0;clip-rule:nonzero;display:inline;overflow:visible;visibility:visible;isolation:auto;mix-blend-mode:normal;color-interpolation:sRGB;color-interpolation-filters:linearRGB;solid-color:#000000;solid-opacity:1;vector-effect:none;fill:#ffffff;fill-opacity:0.5;fill-rule:evenodd;stroke:none;stroke-width:2.27;stroke-linecap:round;stroke-linejoin:miter;stroke-miterlimit:4;stroke-dasharray:none;stroke-dashoffset:0;stroke-opacity:1;color-rendering:auto;image-rendering:auto;shape-rendering:auto;text-rendering:auto;enable-background:accumulate;stop-color:#000000;stop-opacity:1;opacity:1"
       d="M 22.953125 8.5136719 A 1.135 1.135 0 0 0 21.818359 9.6484375 L 21.818359 36.841797 A 1.135 1.135 0 0 0 22.953125 37.976562 A 1.135 1.135 0 0 0 24.089844 36.841797 L 24.089844 9.6484375 A 1.135 1.135 0 0 0 22.953125 8.5136719 z "
       id="path970" />
    <path
       id="path953"
       style="color:#000000;font-style:normal;font-variant:normal;font-weight:normal;font-stretch:normal;font-size:medium;line-height:normal;font-family:sans-serif;font-variant-ligatures:normal;font-variant-position:normal;font-variant-caps:normal;font-variant-numeric:normal;font-variant-alternates:normal;font-variant-east-asian:normal;font-feature-settings:normal;font-variation-settings:normal;text-indent:0;text-align:start;text-decoration:none;text-decoration-line:none;text-decoration-style:solid;text-decoration-color:#000000;letter-spacing:normal;word-spacing:normal;text-transform:none;writing-mode:lr-tb;direction:ltr;text-orientation:mixed;dominant-baseline:auto;baseline-shift:baseline;text-anchor:start;white-space:normal;shape-padding:0;shape-margin:0;inline-size:0;clip-rule:nonzero;display:inline;overflow:visible;visibility:visible;isolation:auto;mix-blend-mode:normal;color-interpolation:sRGB;color-interpolation-filters:linearRGB;solid-color:#000000;solid-opacity:1;vector-effect:none;fill:#f34848;fill-opacity:1;fill-rule:evenodd;stroke:none;stroke-width:2;stroke-linecap:butt;stroke-linejoin:round;stroke-miterlimit:4;stroke-dasharray:none;stroke-dashoffset:0;stroke-opacity:1;color-rendering:auto;image-rendering:auto;shape-rendering:auto;text-rendering:auto;enable-background:accumulate;stop-color:#000000"
       d="M 10.634766 5 A 1.0001 1.0001 0 0 0 9.6347656 6 L 9.6347656 17.210938 A 1.0001 1.0001 0 0 0 11.277344 17.976562 L 13.484375 16.123047 L 15.611328 17.966797 A 1.0001 1.0001 0 0 0 17.267578 17.210938 L 17.267578 6 A 1.0001 1.0001 0 0 0 16.267578 5 L 10.634766 5 z " />
  </g>
</svg>
