<?xml version="1.0" encoding="UTF-8" standalone="no"?>
<svg
   xmlns:dc="http://purl.org/dc/elements/1.1/"
   xmlns:cc="http://creativecommons.org/ns#"
   xmlns:rdf="http://www.w3.org/1999/02/22-rdf-syntax-ns#"
   xmlns:svg="http://www.w3.org/2000/svg"
   xmlns="http://www.w3.org/2000/svg"
   xmlns:sodipodi="http://sodipodi.sourceforge.net/DTD/sodipodi-0.dtd"
   xmlns:inkscape="http://www.inkscape.org/namespaces/inkscape"
   inkscape:version="1.0 (4035a4fb49, 2020-05-01)"
   sodipodi:docname="checkpoint-castle-complete.svg"
   id="svg26"
   version="1.1"
   viewBox="0 0 98 162"
   height="162"
   width="98">
  <metadata
     id="metadata32">
    <rdf:RDF>
      <cc:Work
         rdf:about="">
        <dc:format>image/svg+xml</dc:format>
        <dc:type
           rdf:resource="http://purl.org/dc/dcmitype/StillImage" />
      </cc:Work>
    </rdf:RDF>
  </metadata>
  <defs
     id="defs30" />
  <sodipodi:namedview
     inkscape:snap-page="true"
     inkscape:current-layer="svg26"
     inkscape:window-maximized="1"
     inkscape:window-y="-8"
     inkscape:window-x="-8"
     inkscape:cy="67.440673"
     inkscape:cx="20.970894"
     inkscape:zoom="1.5802469"
     showgrid="false"
     id="namedview28"
     inkscape:window-height="745"
     inkscape:window-width="1366"
     inkscape:pageshadow="2"
     inkscape:pageopacity="0"
     guidetolerance="10"
     gridtolerance="10"
     objecttolerance="10"
     borderopacity="1"
     bordercolor="#666666"
     pagecolor="#ffffff"
     inkscape:document-rotation="0" />
  <g
     id="g857">
    <path
       id="rect839"
       style="fill:#000000;fill-opacity:1;stroke:#606060;stroke-width:0;stroke-linecap:round;stroke-dasharray:none;paint-order:markers fill stroke"
       d="M 0,0 V 162 H 98 V 0 Z m 52.669922,18.199219 h 17.707031 2.107422 c 1.756734,0 3.171875,1.415141 3.171875,3.171875 v 0.429687 h 18.960938 a 3.17,3.17 0 0 1 3.169921,3.169922 V 48.830078 A 3.17,3.17 0 0 1 94.617188,52 H 70.375 A 3.17,3.17 0 0 1 67.205078,48.830078 V 48.400391 H 52.669922 c -1.756734,0 -3.171875,-1.415141 -3.171875,-3.171875 V 21.371094 c 0,-1.756734 1.415141,-3.171875 3.171875,-3.171875 z" />
    <g
       id="g886">
      <g
         id="g873">
        <path
           style="fill:#a36308;fill-opacity:1;fill-rule:nonzero"
           fill="#cd7900"
           d="m 42.556,14.4 c 2.5,0 4.527,2.027 4.527,4.527 V 71.224 A 2.576,2.576 0 0 1 44.508,73.8 H 40.605 A 2.576,2.576 0 0 1 38.029,71.224 V 18.927 c 0,-2.5 2.027,-4.527 4.527,-4.527 z"
           id="path2" />
        <path
           style="fill:#e6b400;fill-opacity:1;fill-rule:nonzero"
           fill="#ffd300"
           d="m 43.78,1.152 4.154,4.129 a 1.585,1.585 0 0 1 0,2.249 l -4.154,4.128 a 1.585,1.585 0 0 1 -2.235,0 L 37.391,7.53 a 1.585,1.585 0 0 1 0,-2.249 l 4.154,-4.129 a 1.585,1.585 0 0 1 2.235,0 z"
           id="path4" />
        <path
           id="rect6"
           style="fill:#000000;fill-opacity:0.25;fill-rule:nonzero"
           d="m 52.669922,18.199219 c -1.756734,0 -3.171875,1.415141 -3.171875,3.171875 v 23.857422 c 0,1.756734 1.415141,3.171875 3.171875,3.171875 H 67.205078 V 45.228516 24.970703 21.371094 c 0,-1.756734 1.415141,-3.171875 3.171875,-3.171875 z" />
      </g>
      <g
         id="g877">
        <path
           style="fill:#e6b400;fill-opacity:1;fill-rule:evenodd"
           fill="#ffc800"
           d="m 78.733,136.666 a 5.949,5.949 0 0 1 5.567,5.936 v 12.551 a 5.949,5.949 0 0 1 -5.95,5.949 H 7.137 a 5.949,5.949 0 0 1 -5.949,-5.949 v -12.55 a 5.95,5.95 0 0 1 5.786,-5.947 L 10.397,92.473 H 5.95 A 5.949,5.949 0 0 1 0,86.524 V 70.75 A 5.949,5.949 0 0 1 5.949,64.8 h 11.849 a 5.949,5.949 0 0 1 5.948,5.949 v 4.013 H 30.87 V 70.75 a 5.949,5.949 0 0 1 5.95,-5.95 h 11.849 a 5.949,5.949 0 0 1 5.949,5.949 v 4.013 h 7.124 V 70.75 a 5.949,5.949 0 0 1 5.947,-5.95 h 11.85 a 5.949,5.949 0 0 1 5.948,5.949 v 15.775 a 5.949,5.949 0 0 1 -5.949,5.949 h -3.51 z"
           id="path14" />
        <path
           id="path16"
           style="fill:#efc927;fill-opacity:1;fill-rule:evenodd"
           d="m 13.554688,69.234375 c -1.095,0 -1.984376,0.886422 -1.984376,1.982422 v 15.980469 a 1.983,1.983 0 0 0 1.984376,1.984375 h 4.345703 a 1.983,1.983 0 0 0 0.609375,-0.09766 1.983,1.983 0 0 0 0.509765,0.06836 h 23.212891 a 1.983,1.983 0 0 0 1.984375,-1.982422 v -8.210938 c 0,-0.185838 -0.03425,-0.362618 -0.08203,-0.533203 v -7.208984 c 0,-1.098582 -0.885793,-1.982422 -1.984375,-1.982422 h -4.34375 c -1.098582,0 -1.984375,0.88384 -1.984375,1.982422 v 5.759765 H 19.882812 v -5.759765 c 0,-1.096 -0.887421,-1.982422 -1.982421,-1.982422 z m 8.949218,24.851563 a 1.983,1.983 0 0 0 -1.976562,1.826171 l -2.972656,37.494141 a 1.983,1.983 0 0 0 1.976562,2.14063 h 22.724609 a 1.983,1.983 0 0 0 1.982422,-1.98243 V 96.068359 c 0,-1.095 -0.887422,-1.982421 -1.982422,-1.982421 z m -8.416015,46.714842 c -1.095,0 -1.984375,0.88547 -1.984375,1.98047 v 10.60352 a 1.983,1.983 0 0 0 1.984375,1.98242 h 28.144531 a 1.983,1.983 0 0 0 1.984375,-1.98242 v -10.60352 c 0,-1.095 -0.888375,-1.98047 -1.984375,-1.98047 z" />
      </g>
    </g>
  </g>
</svg>
