<?xml version="1.0" encoding="UTF-8" standalone="no"?>
<svg
   xmlns:dc="http://purl.org/dc/elements/1.1/"
   xmlns:cc="http://creativecommons.org/ns#"
   xmlns:rdf="http://www.w3.org/1999/02/22-rdf-syntax-ns#"
   xmlns:svg="http://www.w3.org/2000/svg"
   xmlns="http://www.w3.org/2000/svg"
   xmlns:sodipodi="http://sodipodi.sourceforge.net/DTD/sodipodi-0.dtd"
   xmlns:inkscape="http://www.inkscape.org/namespaces/inkscape"
   width="32"
   height="16.000002"
   viewBox="0 0 32 16.000002"
   version="1.1"
   id="svg18"
   sodipodi:docname="close.svg"
   inkscape:version="1.0 (4035a4fb49, 2020-05-01)">
  <metadata
     id="metadata24">
    <rdf:RDF>
      <cc:Work
         rdf:about="">
        <dc:format>image/svg+xml</dc:format>
        <dc:type
           rdf:resource="http://purl.org/dc/dcmitype/StillImage" />
      </cc:Work>
    </rdf:RDF>
  </metadata>
  <defs
     id="defs22" />
  <sodipodi:namedview
     inkscape:document-rotation="0"
     pagecolor="#ffffff"
     bordercolor="#666666"
     borderopacity="1"
     objecttolerance="10"
     gridtolerance="10"
     guidetolerance="10"
     inkscape:pageopacity="0"
     inkscape:pageshadow="2"
     inkscape:window-width="1366"
     inkscape:window-height="745"
     id="namedview20"
     showgrid="false"
     inkscape:zoom="11.313709"
     inkscape:cx="17.60511"
     inkscape:cy="9.3182591"
     inkscape:window-x="-8"
     inkscape:window-y="-8"
     inkscape:window-maximized="1"
     inkscape:current-layer="svg18"
     inkscape:snap-page="true" />
  <title
     id="title2">Group 9</title>
  <path
     id="rect840"
     style="fill:#000000;fill-opacity:1;stroke:#000000;stroke-width:0;stroke-linecap:round;stroke-dasharray:none;paint-order:markers fill stroke"
     d="M 16,5e-7 V 16 H 32 V 5e-7 Z m 1.941406,0.5 a 1.5,1.5 0 0 1 0.103516,0 1.5,1.5 0 0 1 1.015625,0.43945312 L 24,5.8789067 28.939453,0.93945362 a 1.5,1.5 0 0 1 2.121094,0 1.5,1.5 0 0 1 0,2.12109378 l -4.939453,4.9394531 4.939453,4.9394525 a 1.5,1.5 0 0 1 0,2.121094 1.5,1.5 0 0 1 -2.121094,0 L 24,10.121094 19.060547,15.060547 a 1.5,1.5 0 0 1 -2.121094,0 1.5,1.5 0 0 1 0,-2.121094 L 21.878906,8.0000005 16.939453,3.0605474 a 1.5,1.5 0 0 1 0,-2.12109378 1.5,1.5 0 0 1 1.001953,-0.43945312 z" />
  <g
     id="g871">
    <g
       id="g6"
       style="fill:none;fill-rule:evenodd;stroke:#606060;stroke-width:3;stroke-linecap:round;stroke-opacity:1">
      <path
         style="stroke:#404040;stroke-opacity:1"
         d="M 2,2 14,14 M 14,2 2,14"
         id="path4" />
    </g>
  </g>
  <g
     id="g846"
     transform="translate(16)">
    <g
       style="fill:none;fill-rule:evenodd;stroke:#606060;stroke-width:3;stroke-linecap:round;stroke-opacity:1"
       id="g844" />
  </g>
</svg>
