<?xml version="1.0" encoding="UTF-8" standalone="no"?>
<svg
   xmlns:dc="http://purl.org/dc/elements/1.1/"
   xmlns:cc="http://creativecommons.org/ns#"
   xmlns:rdf="http://www.w3.org/1999/02/22-rdf-syntax-ns#"
   xmlns:svg="http://www.w3.org/2000/svg"
   xmlns="http://www.w3.org/2000/svg"
   xmlns:sodipodi="http://sodipodi.sourceforge.net/DTD/sodipodi-0.dtd"
   xmlns:inkscape="http://www.inkscape.org/namespaces/inkscape"
   inkscape:version="1.0 (4035a4fb49, 2020-05-01)"
   sodipodi:docname="dumbell.svg"
   id="svg20"
   version="1.1"
   viewBox="0 0 23 19"
   height="19"
   width="23">
  <metadata
     id="metadata26">
    <rdf:RDF>
      <cc:Work
         rdf:about="">
        <dc:format>image/svg+xml</dc:format>
        <dc:type
           rdf:resource="http://purl.org/dc/dcmitype/StillImage" />
      </cc:Work>
    </rdf:RDF>
  </metadata>
  <defs
     id="defs24" />
  <sodipodi:namedview
     inkscape:current-layer="svg20"
     inkscape:window-maximized="1"
     inkscape:window-y="-8"
     inkscape:window-x="-8"
     inkscape:cy="9.5"
     inkscape:cx="11.5"
     inkscape:zoom="26.947368"
     showgrid="false"
     id="namedview22"
     inkscape:window-height="745"
     inkscape:window-width="1366"
     inkscape:pageshadow="2"
     inkscape:pageopacity="0"
     guidetolerance="10"
     gridtolerance="10"
     objecttolerance="10"
     borderopacity="1"
     bordercolor="#666666"
     pagecolor="#ffffff" />
  <g
     id="g888">
    <path
       style="fill:#ffffff;fill-rule:nonzero;stroke:none;stroke-width:1;fill-opacity:1"
       d="m 4.157,17.781 a 1.5,1.5 0 0 0 2.598,-1.5 l -3.5,-6.062 a 1.5,1.5 0 0 0 -2.598,1.5 z M 8.62,17.513 a 1.5004,1.5004 0 0 0 2.599,-1.5 l -5.5,-9.526 a 1.5,1.5 0 0 0 -2.598,1.5 l 5.5,9.526 z M 18.843,1.219 a 1.5,1.5 0 0 0 -2.598,1.5 l 3.5,6.062 a 1.5,1.5 0 0 0 2.598,-1.5 z M 14.38,1.487 a 1.5004,1.5004 0 0 0 -2.599,1.5 l 5.5,9.526 a 1.5,1.5 0 0 0 2.598,-1.5 l -5.5,-9.526 z m 0.035,8.062 -1.5,-2.598 -4.33,2.5 1.5,2.598 z"
       id="path2" />
  </g>
</svg>
