<?xml version="1.0" encoding="UTF-8" standalone="no"?>
<svg
   xmlns:dc="http://purl.org/dc/elements/1.1/"
   xmlns:cc="http://creativecommons.org/ns#"
   xmlns:rdf="http://www.w3.org/1999/02/22-rdf-syntax-ns#"
   xmlns:svg="http://www.w3.org/2000/svg"
   xmlns="http://www.w3.org/2000/svg"
   xmlns:sodipodi="http://sodipodi.sourceforge.net/DTD/sodipodi-0.dtd"
   xmlns:inkscape="http://www.inkscape.org/namespaces/inkscape"
   width="92"
   height="46"
   viewBox="0 0 92 46"
   version="1.1"
   id="svg16"
   sodipodi:docname="sprite-learn.svg"
   inkscape:version="1.0 (4035a4fb49, 2020-05-01)">
  <metadata
     id="metadata22">
    <rdf:RDF>
      <cc:Work
         rdf:about="">
        <dc:format>image/svg+xml</dc:format>
        <dc:type
           rdf:resource="http://purl.org/dc/dcmitype/StillImage" />
      </cc:Work>
    </rdf:RDF>
  </metadata>
  <defs
     id="defs20" />
  <sodipodi:namedview
     inkscape:document-rotation="0"
     pagecolor="#ffffff"
     bordercolor="#666666"
     borderopacity="1"
     objecttolerance="10"
     gridtolerance="10"
     guidetolerance="10"
     inkscape:pageopacity="0"
     inkscape:pageshadow="2"
     inkscape:window-width="1366"
     inkscape:window-height="745"
     id="namedview18"
     showgrid="false"
     inkscape:zoom="5.5652175"
     inkscape:cx="25.459332"
     inkscape:cy="13.082769"
     inkscape:window-x="-8"
     inkscape:window-y="-8"
     inkscape:window-maximized="1"
     inkscape:current-layer="svg16"
     inkscape:snap-page="true" />
  <title
     id="title2">tab_learn_inactive</title>
  <g
     id="g852">
    <g
       id="g844">
      <path
         id="path888"
         style="color:#000000;font-style:normal;font-variant:normal;font-weight:normal;font-stretch:normal;font-size:medium;line-height:normal;font-family:sans-serif;font-variant-ligatures:normal;font-variant-position:normal;font-variant-caps:normal;font-variant-numeric:normal;font-variant-alternates:normal;font-variant-east-asian:normal;font-feature-settings:normal;font-variation-settings:normal;text-indent:0;text-align:start;text-decoration:none;text-decoration-line:none;text-decoration-style:solid;text-decoration-color:#000000;letter-spacing:normal;word-spacing:normal;text-transform:none;writing-mode:lr-tb;direction:ltr;text-orientation:mixed;dominant-baseline:auto;baseline-shift:baseline;text-anchor:start;white-space:normal;shape-padding:0;shape-margin:0;inline-size:0;clip-rule:nonzero;display:inline;overflow:visible;visibility:visible;isolation:auto;mix-blend-mode:normal;color-interpolation:sRGB;color-interpolation-filters:linearRGB;solid-color:#000000;solid-opacity:1;vector-effect:none;fill:#606060;fill-opacity:1;fill-rule:evenodd;stroke:none;stroke-width:2.6;stroke-linecap:butt;stroke-linejoin:miter;stroke-miterlimit:4;stroke-dasharray:none;stroke-dashoffset:0;stroke-opacity:1;color-rendering:auto;image-rendering:auto;shape-rendering:auto;text-rendering:auto;enable-background:accumulate;stop-color:#000000"
         d="m 63.082031,3 c -6.089562,-2e-7 -11.076172,4.8855186 -11.076172,10.90625 10e-7,6.020731 4.98661,10.908203 11.076172,10.908203 1.976351,0 3.832121,-0.520608 5.44336,-1.421875 1.196713,3.206149 4.328225,5.5 7.974609,5.5 4.666337,0 8.500001,-3.750949 8.5,-8.371094 0,-4.620144 -3.833663,-8.36914 -8.5,-8.36914 -0.849694,0 -1.664491,0.139463 -2.439453,0.373047 C 73.366385,7.1572136 68.697602,3 63.082031,3 Z m 0,2.5996094 c 4.708709,0 8.476563,3.7157719 8.476563,8.3066406 0,4.590868 -3.767854,8.308594 -8.476563,8.308594 -4.708709,0 -8.476562,-3.717726 -8.476562,-8.308594 -10e-7,-4.5908688 3.767853,-8.3066408 8.476562,-8.3066406 z M 76.5,14.751953 c 3.286563,0 5.900391,2.580369 5.900391,5.769531 0,3.189163 -2.613827,5.771485 -5.900391,5.771485 -2.846614,0 -5.183778,-1.938425 -5.759766,-4.529297 1.781583,-1.684077 2.992749,-3.943286 3.320313,-6.476563 0.743615,-0.332071 1.56173,-0.535156 2.439453,-0.535156 z M 67,29.570312 c -3.837407,0 -7,3.08959 -7,6.894532 0,3.804941 3.162593,6.892578 7,6.892578 3.837407,0 7,-3.087637 7,-6.892578 0,-3.804942 -3.162593,-6.894532 -7,-6.894532 z m 0,2.601563 c 2.45864,0 4.400391,1.920053 4.400391,4.292969 0,2.372915 -1.941751,4.292969 -4.400391,4.292968 -2.45864,10e-7 -4.400391,-1.920053 -4.400391,-4.292968 0,-2.372916 1.941751,-4.292969 4.400391,-4.292969 z" />
    </g>
    <g
       id="g841">
      <path
         d="M 0,0 V 46 H 46 V 0 Z m 17.082031,3 c 6.139039,0 11.076172,4.8776451 11.076172,10.90625 0,6.028604 -4.937133,10.908203 -11.076172,10.908203 -6.139039,0 -11.0761711,-4.879598 -11.0761716,-10.908203 C 6.0058593,7.8776448 10.942992,2.9999997 17.082031,3 Z"
         style="fill:#000000;stroke-width:0;stroke-linecap:round;stroke-dasharray:none;paint-order:markers fill stroke;fill-opacity:1"
         id="rect847" />
      <ellipse
         fill="#ff4b4b"
         cx="21"
         cy="36.464001"
         rx="7"
         ry="6.8930001"
         id="ellipse4"
         style="fill-rule:evenodd;stroke:none;stroke-width:1" />
      <path
         id="ellipse6"
         d="m 30.4375,12.152344 a 8.5,8.3699999 0 0 0 -0.140625,0.0039 c 0.07773,0.574145 0.130859,1.155043 0.130859,1.75 0,4.934755 -2.764953,9.234264 -6.835937,11.492188 A 8.5,8.3699999 0 0 0 30.5,28.892578 8.5,8.3699999 0 0 0 39,20.521484 a 8.5,8.3699999 0 0 0 -8.5,-8.36914 8.5,8.3699999 0 0 0 -0.0625,0 z"
         style="fill:#ffc800;fill-rule:evenodd;stroke:none;stroke-width:1" />
    </g>
  </g>
</svg>
