<?xml version="1.0" encoding="UTF-8" standalone="no"?>
<svg
   xmlns:dc="http://purl.org/dc/elements/1.1/"
   xmlns:cc="http://creativecommons.org/ns#"
   xmlns:rdf="http://www.w3.org/1999/02/22-rdf-syntax-ns#"
   xmlns:svg="http://www.w3.org/2000/svg"
   xmlns="http://www.w3.org/2000/svg"
   xmlns:sodipodi="http://sodipodi.sourceforge.net/DTD/sodipodi-0.dtd"
   xmlns:inkscape="http://www.inkscape.org/namespaces/inkscape"
   width="26"
   height="30"
   viewBox="0 0 26 30"
   version="1.1"
   id="svg12"
   sodipodi:docname="lingot.svg"
   inkscape:version="1.0 (4035a4fb49, 2020-05-01)">
  <metadata
     id="metadata18">
    <rdf:RDF>
      <cc:Work
         rdf:about="">
        <dc:format>image/svg+xml</dc:format>
        <dc:type
           rdf:resource="http://purl.org/dc/dcmitype/StillImage" />
      </cc:Work>
    </rdf:RDF>
  </metadata>
  <defs
     id="defs16" />
  <sodipodi:namedview
     inkscape:document-rotation="0"
     pagecolor="#ffffff"
     bordercolor="#666666"
     borderopacity="1"
     objecttolerance="10"
     gridtolerance="10"
     guidetolerance="10"
     inkscape:pageopacity="0"
     inkscape:pageshadow="2"
     inkscape:window-width="1366"
     inkscape:window-height="745"
     id="namedview14"
     showgrid="false"
     inkscape:zoom="17.066667"
     inkscape:cx="13"
     inkscape:cy="15"
     inkscape:window-x="-8"
     inkscape:window-y="-8"
     inkscape:window-maximized="1"
     inkscape:current-layer="svg12" />
  <title
     id="title2">lingot</title>
  <path
     style="fill-rule:evenodd;stroke:#000000;stroke-opacity:1"
     d="m 4.12,6.36 6.475,-3.908 a 4.387,4.387 0 0 1 4.534,0 l 6.475,3.907 a 4.387,4.387 0 0 1 2.12,3.757 v 9.666 a 4.387,4.387 0 0 1 -2.12,3.756 l -6.475,3.907 a 4.387,4.387 0 0 1 -4.534,0 L 4.12,23.538 A 4.387,4.387 0 0 1 2,19.782 V 10.116 C 2,8.578 2.804,7.154 4.12,6.359 Z"
     stroke="#ffffff"
     stroke-width="2"
     fill="#fc4848"
     id="path4" />
  <path
     style="fill-rule:evenodd;stroke:none;stroke-width:1"
     d="m 12.89,6.273 v 3.165 c 0,0.378 -0.198,0.728 -0.52,0.924 L 9.422,12.145 A 1.08,1.08 0 0 1 8.243,12.105 L 5.857,10.433 A 1.08,1.08 0 0 1 5.912,8.628 l 5.333,-3.276 a 1.08,1.08 0 0 1 1.645,0.92 z"
     fill="#ffffff"
     opacity="0.793"
     id="path6" />
</svg>
