<?xml version="1.0" encoding="UTF-8" standalone="no"?>
<svg
   xmlns:dc="http://purl.org/dc/elements/1.1/"
   xmlns:cc="http://creativecommons.org/ns#"
   xmlns:rdf="http://www.w3.org/1999/02/22-rdf-syntax-ns#"
   xmlns:svg="http://www.w3.org/2000/svg"
   xmlns="http://www.w3.org/2000/svg"
   xmlns:sodipodi="http://sodipodi.sourceforge.net/DTD/sodipodi-0.dtd"
   xmlns:inkscape="http://www.inkscape.org/namespaces/inkscape"
   inkscape:version="1.0 (4035a4fb49, 2020-05-01)"
   sodipodi:docname="podcast.svg"
   id="svg24"
   viewBox="0 0 770.8 100"
   version="1.1">
  <metadata
     id="metadata30">
    <rdf:RDF>
      <cc:Work
         rdf:about="">
        <dc:format>image/svg+xml</dc:format>
        <dc:type
           rdf:resource="http://purl.org/dc/dcmitype/StillImage" />
      </cc:Work>
    </rdf:RDF>
  </metadata>
  <defs
     id="defs28" />
  <sodipodi:namedview
     inkscape:current-layer="svg24"
     inkscape:window-maximized="1"
     inkscape:window-y="-8"
     inkscape:window-x="-8"
     inkscape:cy="-36.460641"
     inkscape:cx="539.21825"
     inkscape:zoom="0.7297613"
     showgrid="false"
     id="namedview26"
     inkscape:window-height="745"
     inkscape:window-width="1366"
     inkscape:pageshadow="2"
     inkscape:pageopacity="0"
     guidetolerance="10"
     gridtolerance="10"
     objecttolerance="10"
     borderopacity="1"
     bordercolor="#666666"
     pagecolor="#ffffff" />
  <style
     id="style2"
     type="text/css">.st0{fill:#454545;}</style>
  <g
     id="g22">
    <g
       id="g18">
      <path
         style="fill:#a0a0a0;fill-opacity:1"
         id="path4"
         d="M453.8,87.9V29.7c0-2.8,1.8-4.5,4.2-4.5c2.4,0,4.2,1.7,4.2,4.5V31h0.1c2.3-3.8,6.5-6.4,13.7-6.4 c8.1,0,14.1,4.5,16.6,12.1c1.2,3.8,1.7,7.6,1.7,13.2c0,5.4-0.5,9.2-1.7,13.1c-2.5,7.5-8.4,12.1-16.6,12.1 c-7.2,0-11.5-2.7-13.7-6.4h-0.1v19.4c0,2.8-1.8,4.5-4.2,4.5C455.6,92.4,453.8,90.7,453.8,87.9z M484.6,59.6 c0.9-2.6,1.1-5.6,1.1-9.7c0-4.2-0.2-7.2-1.1-9.8c-1.6-4.8-5.2-7.5-10.5-7.5c-5.4,0-9,2.7-10.6,7.5c-0.9,2.6-1.1,5.6-1.1,9.8 c0,4.1,0.2,7.1,1.1,9.7c1.6,4.8,5.2,7.5,10.6,7.5C479.3,67.1,483,64.4,484.6,59.6z"
         class="st0" />
      <path
         style="fill:#a0a0a0;fill-opacity:1"
         id="path6"
         d="M504.7,62c-1.1-3.3-1.6-6.6-1.6-12.3c0-5.5,0.5-8.8,1.6-12.2c2.6-8.2,9.6-13,19-13c9.3,0,16.4,4.7,19,13 c1.1,3.3,1.6,6.6,1.6,12.2c0,5.6-0.5,8.9-1.6,12.3c-2.6,8.1-9.6,13-19,13C514.4,74.9,507.4,70.1,504.7,62z M534.6,59.6 c0.8-2.6,1.1-5.2,1.1-9.8c0-4.6-0.3-7.1-1.1-9.7c-1.6-4.8-5.5-7.5-10.8-7.5s-9.2,2.7-10.8,7.5c-0.8,2.6-1.1,5.1-1.1,9.7 c0,4.6,0.3,7.2,1.1,9.8c1.6,4.8,5.5,7.5,10.8,7.5S533,64.4,534.6,59.6z"
         class="st0" />
      <path
         style="fill:#a0a0a0;fill-opacity:1"
         id="path8"
         d="M585.2,69.8v-1.3h-0.1c-2.3,3.8-6.5,6.4-13.7,6.4c-8.1,0-14.1-4.5-16.6-12.1c-1.2-3.8-1.7-7.6-1.7-13.2 c0-5.4,0.5-9.2,1.7-13.1c2.5-7.5,8.4-12.1,16.6-12.1c7.2,0,11.5,2.7,13.7,6.4h0.1V9.5c0-2.8,1.8-4.5,4.2-4.5 c2.4,0,4.2,1.7,4.2,4.5v60.3c0,2.8-1.8,4.5-4.2,4.5C587,74.3,585.2,72.6,585.2,69.8z M584.1,59.6c0.9-2.6,1.1-5.6,1.1-9.8 c0-4.1-0.2-7.1-1.1-9.7c-1.6-4.8-5.2-7.5-10.6-7.5c-5.3,0-8.9,2.7-10.5,7.5c-0.9,2.6-1.1,5.6-1.1,9.7c0,4.2,0.2,7.2,1.1,9.8 c1.6,4.8,5.2,7.5,10.5,7.5C578.9,67.1,582.5,64.4,584.1,59.6z"
         class="st0" />
      <path
         style="fill:#a0a0a0;fill-opacity:1"
         id="path10"
         d="M606.1,62c-0.9-2.9-1.5-6.8-1.5-12.3c0-5.3,0.6-9.2,1.5-12.2c2.7-8.3,9.7-13,19-13c7.2,0,12.4,3.1,15.4,7 c0.8,1.1,1.2,2,1.2,3.1c0,2.1-1.6,3.7-3.7,3.7c-1.5,0-2.6-0.8-3.7-2c-2.2-2.4-4.8-4-9.1-4c-5.2,0-9.1,2.5-10.7,7.5 c-0.8,2.5-1.1,5.5-1.1,9.7c0,4.3,0.3,7.3,1.1,9.8c1.6,5,5.5,7.5,10.7,7.5c4.3,0,6.9-1.6,9.1-4c1.1-1.2,2.2-2,3.7-2 c2.1,0,3.7,1.6,3.7,3.7c0,1.1-0.4,2-1.2,3.1c-3,3.9-8.1,7-15.4,7C615.9,74.9,608.9,70.3,606.1,62z"
         class="st0" />
      <path
         style="fill:#a0a0a0;fill-opacity:1"
         id="path12"
         d="M692.1,70.3c0,2.3-1.8,4-4.3,4c-1.5,0-2.7-0.7-3.7-2.1l-1.9-3h-0.1c-3.2,3.6-7.7,5.7-14.8,5.7 c-10.7,0-17-5.3-17-14.5c0-9.9,6.8-14.9,18.8-14.9h10.9c0.4,0,0.6-0.2,0.6-0.6v-2.3c0-6.7-3.1-10.5-11.6-10.5 c-3.7,0-7.5,1.2-9.8,2.4c-0.8,0.4-1.7,0.7-2.4,0.7c-2.2,0-3.6-1.4-3.6-3.6c0-1.3,0.6-2.6,2-3.4c3-2,8-3.6,14.7-3.6 c12.9,0,18.9,6.1,18.9,18v17.3c0,2.5,0.2,3.5,0.9,4.9l1.7,3.1C691.8,68.6,692.1,69.5,692.1,70.3z M680.7,58.3v-5.3 c0-0.4-0.2-0.6-0.6-0.6h-9.6c-8.2,0-12,2.4-12,7.8c0,5,3.6,7.5,10,7.5C675.9,67.7,680.7,64.2,680.7,58.3z"
         class="st0" />
      <path
         style="fill:#a0a0a0;fill-opacity:1"
         id="path14"
         d="M702.1,69.6c-1.3-0.9-2-2.1-2-3.5c0-2,1.6-3.8,3.9-3.8c0.8,0,1.6,0.2,2.8,0.9c3.9,2.3,8,4.2,13.5,4.2 c6.9,0,10.5-3,10.5-7.2c0-4-1.8-6-9.4-6.8l-5-0.5c-9.4-1-14.4-5.8-14.4-13.6c0-9.1,6.5-14.7,17.8-14.7c5.6,0,10.6,1.4,14.4,3.5 c1.7,0.9,2.5,2,2.5,3.5c0,2-1.6,3.6-3.6,3.6c-0.8,0-1.7-0.2-3-0.8c-3.2-1.5-6.8-2.5-10.6-2.5c-6,0-9.1,2.7-9.1,6.6 c0,3.8,2.2,5.8,9.4,6.5l5,0.5c10,1.1,14.5,5.8,14.5,13.7c0,9.4-6.8,15.7-19.6,15.7C712.2,74.9,706.1,72.4,702.1,69.6z"
         class="st0" />
      <path
         style="fill:#a0a0a0;fill-opacity:1"
         id="path16"
         d="M765.3,74.3c-9.8,0-13.5-4.1-13.5-14.2v-27c0-0.4-0.2-0.6-0.6-0.6h-2.7c-2.3,0-3.6-1.4-3.6-3.4 c0-2,1.3-3.4,3.6-3.4h2.7c0.4,0,0.6-0.2,0.6-0.6V14.6c0-2.8,1.8-4.5,4.2-4.5c2.4,0,4.2,1.7,4.2,4.5v10.5c0,0.4,0.2,0.6,0.6,0.6 h6.3c2.3,0,3.6,1.4,3.6,3.4c0,2-1.3,3.4-3.6,3.4h-6.3c-0.4,0-0.6,0.2-0.6,0.6v26.7c0,5.1,1.3,6.6,6.4,6.6c2.6,0,4.1,1.6,4.1,3.9 c0,2.3-1.5,3.9-4.5,3.9H765.3z"
         class="st0" />
    </g>
    <path
       style="fill:#a0a0a0;fill-opacity:1"
       id="path20"
       d="M370.8,50c0-15.8,12-27,28-27c16,0,28,11.1,28,27s-12,27-28,27C382.8,77,370.8,65.7,370.8,50z M411,50 c0-7.4-4.7-12.8-12-12.8s-12,5.4-12,12.8s4.7,12.8,12,12.8S411,57.5,411,50z M360.2,37.5c1.1,2.1,1.5,4.4,1.5,6.8 c0,5.7-3,11-7.8,15.1c6.6,3.2,10.5,10.8,10.5,18.1c0,13.6-11,22.6-27.7,22.6S309,91.1,309,77.4c-0.2-7.5,3.9-14.5,10.5-18.1 c-5-4.1-7.8-9.3-7.8-15.1c0-11.9,9.3-20.6,24.1-20.6c8.7,0,11.3,1.5,16.3,1.5c3.3,0.2,6.8-0.8,9.6-2.6c1.1-0.6,2.1-1.1,3.3-1.1 c2,0,3,2,3,4.4C368.5,31.2,365.2,35.8,360.2,37.5z M348.9,77c0-6-4.7-10.2-12-10.2s-12,4.1-12,10.2c0,5.7,5.1,10.2,12,10.2 C343.8,87.2,348.9,82.7,348.9,77z M327.1,45.2c0.2,5.3,4.7,9.5,10.1,9.3c5.1-0.2,9-4.2,9.3-9.3c0-5.4-3.9-9.2-9.6-9.2 S327.1,39.6,327.1,45.2z M301.8,51.1v18.8c0,3.6-1.4,5.1-5.3,5.1h-5.3c-3.9,0-5.3-1.5-5.3-5.1V51.5c0-4.7-0.8-8-2.4-10.1 c-2-2.4-5-3.6-8-3.5c-3.2-0.2-6.2,1.2-8.3,3.5c-1.8,2.1-3,5.4-3,9.9v18.4c0,3.8-1.7,5.1-5.3,5.1h-5.3c-3.6,0-5.3-1.4-5.3-5.1V27.6 c0-2.4,1.2-3.5,3-3.5c2.7,0,6.5,2.3,9.3,6.6c4.4-4.8,10.5-7.5,17-7.5c7.7,0,13.9,2.7,17.9,7.2C299.8,34.9,301.8,41.1,301.8,51.1z M219.6,8.6c0-4.8,4.1-8.6,8.7-8.6c0.2,0,0.2,0,0.3,0c4.7,0.3,8.3,4.4,8,9s-4.4,8.3-9,8C223,16.9,219.6,13.1,219.6,8.6z M220.6,69.9V30.3c0-3.6,1.4-5.3,5.3-5.3h5.3c3.9,0,5.3,1.5,5.3,5.3v39.6c0,3.6-1.4,5.1-5.3,5.1h-5.3C222,75,220.6,73.5,220.6,69.9 L220.6,69.9z M192.8,69.9V20.2c0-12.5,6.9-19.6,12.8-19.6c1.8,0,3,1.2,3,3.5v65.8c0,3.8-1.5,5.1-5.3,5.1H198 C194.4,75,192.8,73.6,192.8,69.9z M127.7,50c0-15.8,12-27,28-27s28,11.1,28,27s-12,27-28,27S127.7,65.7,127.7,50z M167.8,50 c0-7.4-4.7-12.8-12-12.8c-7.4,0-12,5.4-12,12.8s4.7,12.8,12,12.8C163.1,62.8,167.8,57.5,167.8,50L167.8,50z M119.6,30.3v42.2 c0,2.4-1.2,3.5-3,3.5c-2.7,0-6.5-2.3-9.2-6.5c-4.2,4.8-10.2,7.5-16.7,7.4c-6,0.2-11.7-2-16.3-6c-4.7-4.5-7.2-11.4-7.2-21.4V30.3 c0-3.6,1.4-5.3,5.3-5.3h5.3c3.9,0,5.3,1.5,5.3,5.3V48c0,6,1.1,9.2,3,11.3c1.8,1.8,4.5,2.9,7.1,2.7c2.9,0,5.6-1.1,7.5-3.2 s3-5.4,3-10.5V30.3c0-3.8,1.7-5.3,5.3-5.3h5.3C117.9,25,119.6,26.5,119.6,30.3z M56.3,4.1v68.4c0,2.4-1.2,3.5-3,3.5 c-2.7,0-6.5-2.3-9.2-6.3C40.8,73.5,34,77,26.2,77C10.5,77,0,65.5,0,50s10.8-27,26.2-27c5.1,0,10.1,1.5,14.5,4.4v-7.2 c0-12.5,7.1-19.6,12.8-19.6C55.3,0.6,56.3,1.8,56.3,4.1z M40.7,50c0-7.7-5.4-12.8-12.2-12.8S16.1,42.3,16.1,50s5.4,12.8,12.3,12.8 S40.7,57.8,40.7,50z"
       class="st0" />
  </g>
</svg>
