<?xml version="1.0" encoding="UTF-8" standalone="no"?>
<svg
   xmlns:dc="http://purl.org/dc/elements/1.1/"
   xmlns:cc="http://creativecommons.org/ns#"
   xmlns:rdf="http://www.w3.org/1999/02/22-rdf-syntax-ns#"
   xmlns:svg="http://www.w3.org/2000/svg"
   xmlns="http://www.w3.org/2000/svg"
   xmlns:sodipodi="http://sodipodi.sourceforge.net/DTD/sodipodi-0.dtd"
   xmlns:inkscape="http://www.inkscape.org/namespaces/inkscape"
   inkscape:version="1.0 (4035a4fb49, 2020-05-01)"
   sodipodi:docname="duolingo-score.svg"
   id="svg26"
   version="1.1"
   fill="none"
   viewBox="0 0 206 44"
   height="44"
   width="206">
  <metadata
     id="metadata30">
    <rdf:RDF>
      <cc:Work
         rdf:about="">
        <dc:format>image/svg+xml</dc:format>
        <dc:type
           rdf:resource="http://purl.org/dc/dcmitype/StillImage" />
        <dc:title></dc:title>
      </cc:Work>
    </rdf:RDF>
  </metadata>
  <sodipodi:namedview
     inkscape:current-layer="svg26"
     inkscape:window-maximized="1"
     inkscape:window-y="-8"
     inkscape:window-x="-8"
     inkscape:cy="3.326742"
     inkscape:cx="104.62968"
     inkscape:zoom="3.4977758"
     showgrid="false"
     id="namedview28"
     inkscape:window-height="745"
     inkscape:window-width="1366"
     inkscape:pageshadow="2"
     inkscape:pageopacity="0"
     guidetolerance="10"
     gridtolerance="10"
     objecttolerance="10"
     borderopacity="1"
     bordercolor="#666666"
     pagecolor="#ffffff" />
  <path
     d="M 98.953125 13.125 C 98.444725 13.1212 97.954944 13.325606 97.589844 13.691406 C 97.224744 14.057306 97.013953 14.556631 97.001953 15.082031 C 96.996753 15.582531 97.180625 16.064281 97.515625 16.425781 C 97.850625 16.787181 98.308969 16.999625 98.792969 17.015625 C 99.052569 17.055825 99.318966 17.04005 99.572266 16.96875 C 99.825566 16.89735 100.06163 16.770509 100.26562 16.599609 C 100.46962 16.428809 100.63586 16.215909 100.75586 15.974609 C 100.87586 15.733209 100.94689 15.470119 100.96289 15.199219 C 100.97789 14.928319 100.93866 14.656844 100.84766 14.402344 C 100.75666 14.147844 100.61659 13.915603 100.43359 13.720703 C 100.25059 13.525703 100.02981 13.371831 99.787109 13.269531 C 99.543909 13.167131 99.282031 13.1173 99.019531 13.125 L 98.953125 13.125 z M 59.794922 13.271484 C 58.510922 13.271484 56.919922 14.889386 56.919922 17.742188 L 56.919922 19.398438 C 55.955622 18.746738 54.827981 18.399491 53.675781 18.400391 C 50.237481 18.400391 47.804688 21.021812 47.804688 24.570312 C 47.804688 28.118813 50.161781 30.740234 53.675781 30.740234 C 55.427481 30.740234 56.9387 29.949375 57.6875 29.046875 C 58.2903 29.974575 59.145994 30.494141 59.746094 30.494141 C 60.146194 30.494141 60.417969 30.261925 60.417969 29.703125 L 60.417969 14.056641 C 60.417969 13.539741 60.176022 13.265884 59.794922 13.271484 z M 93.859375 13.271484 C 92.534875 13.271484 90.984375 14.889387 90.984375 17.742188 L 90.984375 29.101562 L 90.994141 29.101562 C 90.994141 29.967763 91.368328 30.269791 92.173828 30.275391 L 93.351562 30.275391 C 94.194962 30.275391 94.527344 29.959363 94.527344 29.101562 L 94.527344 14.0625 C 94.527344 13.5512 94.259375 13.271484 93.859375 13.271484 z M 129.64453 18.041016 C 129.37853 18.054516 129.11953 18.139609 128.89453 18.287109 C 128.24753 18.702409 127.49342 18.905947 126.73242 18.873047 C 125.60742 18.873047 125.03408 18.533203 123.08008 18.533203 C 119.76008 18.533203 117.67578 20.538106 117.67578 23.253906 C 117.67578 24.564306 118.31478 25.765759 119.42578 26.693359 C 118.70078 27.090259 118.09769 27.686316 117.67969 28.416016 C 117.26169 29.145716 117.04659 29.980325 117.05859 30.828125 C 117.05859 33.968725 119.52039 36 123.27539 36 C 127.02939 36 129.49219 33.926825 129.49219 30.828125 C 129.49219 29.176825 128.609 27.417059 127.125 26.693359 C 128.206 25.768559 128.87695 24.564306 128.87695 23.253906 C 128.88995 22.714606 128.77402 22.179966 128.54102 21.697266 C 129.07702 21.515166 129.54038 21.156281 129.85938 20.675781 C 130.17937 20.195381 130.3395 19.619709 130.3125 19.037109 C 130.3125 18.492309 130.08553 18.041016 129.64453 18.041016 z M 82.691406 18.384766 C 79.120606 18.384766 76.417969 20.935181 76.417969 24.550781 C 76.417969 28.141081 79.120606 30.720703 82.691406 30.720703 C 86.262206 30.720703 88.964844 28.166281 88.964844 24.550781 C 88.964844 20.935181 86.262206 18.384766 82.691406 18.384766 z M 137.16992 18.384766 C 133.59892 18.384766 130.89648 20.935181 130.89648 24.550781 C 130.89648 28.141081 133.60969 30.720703 137.17969 30.720703 C 140.75069 30.720703 143.45312 28.166281 143.45312 24.550781 C 143.45312 20.935181 140.73992 18.384766 137.16992 18.384766 z M 110.08203 18.423828 C 109.36603 18.421328 108.65795 18.572841 108.00195 18.869141 C 107.34495 19.165541 106.75453 19.599731 106.26953 20.144531 C 105.63953 19.147031 104.78659 18.626953 104.18359 18.626953 C 103.78659 18.626953 103.51562 18.861122 103.51562 19.419922 L 103.51562 29.078125 C 103.51562 29.938625 103.88041 30.25 104.69141 30.25 L 105.85938 30.25 C 106.66238 30.25 107.03516 29.938625 107.03516 29.078125 L 107.03516 24.886719 C 107.03516 23.847319 107.30312 23.083269 107.70312 22.605469 C 107.93912 22.342569 108.22783 22.1365 108.54883 22 C 108.86983 21.8635 109.2155 21.799553 109.5625 21.814453 C 109.8995 21.792053 110.23978 21.852934 110.55078 21.990234 C 110.86178 22.127634 111.13747 22.337869 111.35547 22.605469 C 111.72247 23.083269 111.89453 23.847509 111.89453 24.912109 L 111.89453 29.101562 C 111.89453 29.934162 112.19022 30.275391 113.07422 30.275391 L 114.25 30.275391 C 115.12 30.275391 115.42773 29.939763 115.42773 29.101562 L 115.42773 24.791016 L 115.43359 24.796875 C 115.43359 22.519775 115.0067 21.110819 114.0957 20.074219 C 113.1847 19.037619 111.80903 18.423828 110.08203 18.423828 z M 152.6582 18.730469 C 150.0822 18.730469 148.58789 19.994891 148.58789 22.087891 C 148.58789 23.858891 149.71495 24.963359 151.87695 25.193359 L 153.02539 25.308594 C 154.77339 25.492594 155.1875 25.951094 155.1875 26.871094 C 155.1875 27.837094 154.36044 28.527344 152.77344 28.527344 C 151.53144 28.527344 150.58841 28.0915 149.69141 27.5625 C 149.41541 27.4015 149.23087 27.355469 149.04688 27.355469 C 148.51788 27.355469 148.15039 27.768516 148.15039 28.228516 C 148.15039 28.550516 148.31037 28.826203 148.60938 29.033203 C 149.52937 29.677203 150.93233 30.253906 152.61133 30.253906 C 155.53233 30.253906 157.09766 28.826062 157.09766 26.664062 C 157.09766 24.870062 156.08516 23.790109 153.78516 23.537109 L 152.63477 23.421875 C 150.97877 23.260875 150.47266 22.801734 150.47266 21.927734 C 150.47266 21.030734 151.18641 20.408203 152.56641 20.408203 C 153.44041 20.408203 154.26791 20.639375 155.00391 20.984375 C 155.30291 21.122375 155.50936 21.167969 155.69336 21.167969 C 156.15336 21.167969 156.52148 20.799844 156.52148 20.339844 C 156.52148 19.994844 156.33827 19.742156 155.94727 19.535156 C 155.09627 19.052156 153.9462 18.730469 152.6582 18.730469 z M 163.38086 18.730469 C 161.26486 18.730469 159.6542 19.788266 159.0332 21.697266 C 158.8262 22.364266 158.68945 23.261469 158.68945 24.480469 C 158.68945 25.722469 158.8262 26.618156 159.0332 27.285156 C 159.6542 29.194156 161.26486 30.253906 163.38086 30.253906 C 165.03686 30.253906 166.21039 29.539578 166.90039 28.642578 C 167.08439 28.389578 167.17578 28.182688 167.17578 27.929688 C 167.17578 27.446687 166.80722 27.078125 166.32422 27.078125 C 165.97922 27.078125 165.72761 27.263062 165.47461 27.539062 C 164.96861 28.091062 164.36986 28.458984 163.38086 28.458984 C 162.18486 28.458984 161.28792 27.884375 160.91992 26.734375 C 160.73592 26.159375 160.66797 25.469469 160.66797 24.480469 C 160.66797 23.514469 160.73592 22.823047 160.91992 22.248047 C 161.28792 21.098047 162.18486 20.523438 163.38086 20.523438 C 164.36986 20.523438 164.96861 20.891359 165.47461 21.443359 C 165.72761 21.719359 165.97922 21.904297 166.32422 21.904297 C 166.80722 21.904297 167.17578 21.535734 167.17578 21.052734 C 167.17578 20.799734 167.08439 20.592844 166.90039 20.339844 C 166.21039 19.442844 165.03686 18.730469 163.38086 18.730469 z M 173.44727 18.730469 C 171.30827 18.730469 169.69956 19.811266 169.10156 21.697266 C 168.84856 22.456266 168.73242 23.215469 168.73242 24.480469 C 168.73242 25.768469 168.84856 26.526156 169.10156 27.285156 C 169.69956 29.148156 171.30827 30.253906 173.44727 30.253906 C 175.58627 30.253906 177.19692 29.148156 177.79492 27.285156 C 178.04792 26.526156 178.16211 25.768469 178.16211 24.480469 C 178.16211 23.215469 178.04792 22.456266 177.79492 21.697266 C 177.19692 19.811266 175.58627 18.730469 173.44727 18.730469 z M 185.23828 18.730469 C 183.88128 18.730469 182.8682 19.419203 182.4082 20.408203 L 182.38672 20.408203 L 182.38672 19.902344 C 182.38672 19.258344 181.97192 18.867188 181.41992 18.867188 C 180.86792 18.867188 180.45312 19.258344 180.45312 19.902344 L 180.45312 29.080078 C 180.45312 29.724078 180.86792 30.115234 181.41992 30.115234 C 181.97192 30.115234 182.38672 29.724078 182.38672 29.080078 L 182.38672 23.744141 C 182.38672 21.904141 183.05298 20.523438 184.70898 20.523438 C 185.16898 20.523438 185.56061 20.639781 185.97461 20.800781 C 186.13561 20.869781 186.31903 20.914063 186.45703 20.914062 C 187.03203 20.914062 187.42383 20.501219 187.42383 19.949219 C 187.42383 19.627219 187.26209 19.328094 186.87109 19.121094 C 186.50309 18.914094 185.99728 18.730469 185.23828 18.730469 z M 192.58984 18.730469 C 190.49684 18.730469 188.91006 19.788266 188.28906 21.697266 C 188.05906 22.387266 187.94336 23.169469 187.94336 24.480469 C 187.94336 25.791469 188.0825 26.573672 188.3125 27.263672 C 188.9335 29.195672 190.47495 30.253906 192.75195 30.253906 C 194.45395 30.253906 195.76403 29.608375 196.70703 28.734375 C 196.89103 28.550375 197.00586 28.320922 197.00586 28.044922 C 197.00586 27.584922 196.66117 27.240234 196.20117 27.240234 C 195.97117 27.240234 195.7632 27.331625 195.5332 27.515625 C 194.7052 28.136625 193.96967 28.458984 192.88867 28.458984 C 191.53167 28.458984 190.51947 27.815781 190.10547 26.550781 C 189.96747 26.113781 189.92187 25.745797 189.92188 25.216797 C 189.92188 25.124797 189.96855 25.078125 190.06055 25.078125 L 196.52344 25.078125 C 196.98344 25.078125 197.28125 24.778797 197.28125 24.341797 C 197.28125 23.260797 197.16706 22.409828 196.91406 21.673828 C 196.31606 19.787828 194.75184 18.730469 192.58984 18.730469 z M 64.025391 18.847656 C 63.154991 18.847656 62.847656 19.208675 62.847656 20.046875 L 62.847656 24.414062 C 62.847656 26.680063 63.42535 28.264181 64.46875 29.300781 C 65.47035 30.226581 66.777994 30.719134 68.121094 30.677734 C 68.825794 30.695434 69.526928 30.555125 70.173828 30.265625 C 70.820628 29.976225 71.397487 29.545253 71.867188 29.001953 C 72.467287 29.968753 73.324934 30.488281 73.927734 30.488281 C 74.325034 30.488281 74.595703 30.256166 74.595703 29.697266 L 74.595703 20.046875 C 74.595703 19.189075 74.221963 18.833756 73.351562 18.847656 L 72.175781 18.847656 C 71.372981 18.847656 70.998047 19.189075 70.998047 20.046875 L 70.998047 24.173828 C 70.998047 25.347328 70.770678 26.110091 70.330078 26.587891 C 70.110978 26.820891 69.847241 27.004906 69.556641 27.128906 C 69.266141 27.252906 68.954925 27.313994 68.640625 27.308594 C 68.348625 27.324394 68.057103 27.277575 67.783203 27.171875 C 67.509303 27.066075 67.259328 26.903159 67.048828 26.693359 C 66.621728 26.215559 66.380859 25.492734 66.380859 24.115234 L 66.380859 20.046875 C 66.380859 19.189075 66.085072 18.847656 65.201172 18.847656 L 64.025391 18.847656 z M 98.40625 18.847656 C 97.53855 18.847656 97.230469 19.208675 97.230469 20.046875 L 97.230469 29.101562 C 97.230469 29.939762 97.54935 30.269791 98.40625 30.275391 L 99.585938 30.275391 C 100.45344 30.275391 100.76172 29.939763 100.76172 29.101562 L 100.76172 20.046875 C 100.76172 19.189075 100.46744 18.847656 99.585938 18.847656 L 98.40625 18.847656 z M 192.61328 20.431641 C 193.85528 20.431641 194.77458 21.05225 195.14258 22.15625 C 195.25758 22.50125 195.30469 22.892438 195.30469 23.398438 C 195.30469 23.490437 195.25802 23.537109 195.16602 23.537109 L 190.06055 23.537109 C 189.96855 23.537109 189.92188 23.490437 189.92188 23.398438 C 189.92188 22.892437 189.96703 22.50125 190.08203 22.15625 C 190.45003 21.05225 191.37128 20.431641 192.61328 20.431641 z M 173.44727 20.523438 C 174.66627 20.523438 175.56364 21.144047 175.93164 22.248047 C 176.11564 22.846047 176.18555 23.422469 176.18555 24.480469 C 176.18555 25.538469 176.11564 26.136375 175.93164 26.734375 C 175.56364 27.838375 174.66627 28.458984 173.44727 28.458984 C 172.22827 28.458984 171.33284 27.838375 170.96484 26.734375 C 170.78084 26.136375 170.71094 25.538469 170.71094 24.480469 C 170.71094 23.422469 170.78084 22.846047 170.96484 22.248047 C 171.33284 21.144047 172.22827 20.523438 173.44727 20.523438 z M 123.28906 21.351562 C 124.57006 21.351562 125.45117 22.211678 125.45117 23.455078 C 125.42317 24.031478 125.18234 24.574856 124.77734 24.972656 C 124.37334 25.370456 123.83634 25.591797 123.27734 25.591797 C 122.71934 25.591797 122.18234 25.370456 121.77734 24.972656 C 121.37471 24.576204 121.13481 24.035159 121.10547 23.460938 L 121.10547 23.457031 L 121.10547 23.455078 C 121.10832 22.173271 122.01009 21.351562 123.28906 21.351562 z M 54.175781 21.617188 C 55.686881 21.617187 56.904297 22.790481 56.904297 24.550781 L 56.898438 24.550781 C 56.898437 26.352881 55.727381 27.484375 54.175781 27.484375 C 52.624181 27.484375 51.408203 26.310981 51.408203 24.550781 C 51.393503 24.167481 51.454891 23.785834 51.587891 23.427734 C 51.720791 23.069734 51.922541 22.74325 52.181641 22.46875 C 52.440641 22.19415 52.75085 21.976478 53.09375 21.830078 C 53.43665 21.683778 53.804781 21.611587 54.175781 21.617188 z M 82.691406 21.617188 C 84.351106 21.617188 85.394531 22.874281 85.394531 24.550781 L 85.390625 24.550781 C 85.390625 26.285881 84.351106 27.484375 82.691406 27.484375 C 81.031706 27.484375 79.988281 26.241181 79.988281 24.550781 C 79.988281 22.860281 81.031706 21.617188 82.691406 21.617188 z M 137.20703 21.617188 C 138.86703 21.617188 139.91016 22.874281 139.91016 24.550781 C 139.91016 26.285881 138.86703 27.484375 137.20703 27.484375 C 135.54803 27.484375 134.50391 26.241181 134.50391 24.550781 C 134.50391 22.860281 135.54803 21.617188 137.20703 21.617188 z M 123.29688 28.373047 C 124.95686 28.373047 126 29.343203 126 30.720703 C 126 32.031103 124.85088 33.066406 123.29688 33.066406 C 121.74286 33.066406 120.59375 32.031103 120.59375 30.720703 C 120.59375 29.301303 121.63687 28.373047 123.29688 28.373047 z "
     style="fill:#a0a0a0;fill-opacity:1"
     id="path12" />
  <path
     d="m 32.2293,35.0819 -1.0407,2.8248 c -0.2196,0.5957 -0.6313,1.0949 -1.1655,1.4135 -0.5343,0.3186 -1.1584,0.4371 -1.7673,0.3356 l -2.887,-0.4778 c -0.1866,-0.0304 -0.3773,-0.02 -0.5599,0.0305 -0.1825,0.0506 -0.3527,0.1401 -0.4997,0.2628 l -2.2679,1.9056 c -0.4779,0.4026 -1.0756,0.6224 -1.6921,0.6224 -0.6166,0 -1.2142,-0.2198 -1.6922,-0.6224 l -2.2679,-1.9056 c -0.1473,-0.1231 -0.318,-0.2128 -0.501,-0.2634 -0.183,-0.0505 -0.3742,-0.0607 -0.5613,-0.0299 l -2.8869,0.4778 C 11.831,39.7573 11.2068,39.6388 10.6726,39.3202 10.1383,39.0016 9.72668,38.5024 9.50699,37.9067 L 8.4663,35.0819 C 8.3987,34.8998 8.295,34.7344 8.16185,34.5963 8.02871,34.4582 7.86907,34.3505 7.69321,34.2799 L 4.96036,33.2042 C 4.38373,32.9776 3.90044,32.5522 3.59214,31.9998 3.28384,31.4475 3.16942,30.8021 3.26822,30.1727 L 3.73045,27.1886 C 3.7617,26.9966 3.75379,26.8 3.70725,26.6114 3.6607,26.4228 3.57653,26.2463 3.46014,26.0933 L 1.6031,23.7491 C 1.21364,23.255 1.00098,22.6373 1.00098,22 c 0,-0.6373 0.21266,-1.2551 0.60212,-1.7491 l 1.84352,-2.3442 c 0.11639,-0.1531 0.20056,-0.3295 0.24711,-0.5182 0.04655,-0.1886 0.05445,-0.3852 0.0232,-0.5771 L 3.26822,13.8273 c -0.0988,-0.6294 0.01562,-1.2748 0.32392,-1.8272 0.3083,-0.5523 0.79159,-0.9777 1.36822,-1.2044 L 7.69321,9.71722 C 7.86949,9.64826 8.02958,9.54135 8.16287,9.40358 8.29615,9.26582 8.39958,9.10034 8.4663,8.91812 L 9.5097,6.09331 C 9.72895,5.49726 10.1405,4.99771 10.6749,4.67904 11.2092,4.36036 11.8336,4.2421 12.4426,4.34422 L 15.3268,4.822 c 0.1857,0.0323 0.3759,0.02414 0.5584,-0.02398 0.1824,-0.04812 0.3532,-0.13512 0.5012,-0.25543 l 2.2679,-1.90556 c 0.478,-0.40256 1.0756,-0.62238 1.6922,-0.62238 0.6165,0 1.2142,0.21982 1.6921,0.62238 l 2.2679,1.90556 c 0.1481,0.12031 0.3188,0.20731 0.5013,0.25543 0.1824,0.04812 0.3726,0.05628 0.5583,0.02398 l 2.887,-0.47778 c 0.6089,-0.10212 1.2333,0.01614 1.7677,0.33482 0.5343,0.31867 0.9459,0.81822 1.1651,1.41427 l 1.0407,2.82481 c 0.0682,0.18178 0.1725,0.34679 0.3061,0.48442 0.1336,0.13762 0.2936,0.24482 0.4697,0.31468 l 2.7329,1.07848 c 0.5763,0.2271 1.0593,0.6526 1.3675,1.2048 0.3082,0.5522 0.4229,1.1974 0.3246,1.8268 l -0.4595,2.9813 c -0.0294,0.1929 -0.0193,0.3901 0.0296,0.5787 0.0489,0.1887 0.1355,0.3647 0.2542,0.5166 l 1.8435,2.3442 c 0.3895,0.494 0.6022,1.1118 0.6022,1.7491 0,0.6373 -0.2127,1.255 -0.6022,1.7491 l -1.8435,2.3442 c -0.1187,0.1519 -0.2053,0.3279 -0.2542,0.5165 -0.0489,0.1887 -0.059,0.3859 -0.0296,0.5788 l 0.4622,2.9841 c 0.0983,0.6294 -0.0164,1.2745 -0.3246,1.8267 -0.3082,0.5523 -0.7912,0.9778 -1.3675,1.2048 l -2.7329,1.0758 c -0.1766,0.0704 -0.3369,0.1785 -0.4706,0.3171 -0.1336,0.1386 -0.2376,0.3047 -0.3052,0.4876 z"
     fill="url(#paint0_linear)"
     id="path4"
     style="fill:url(#paint0_linear)" />
  <path
     d="m 27.8313,19.3227 c 0.7084,1.627 0.8461,3.4585 0.3894,5.1792 -0.4568,1.7207 -1.4795,3.223 -2.8921,4.2485 -1.4126,1.0255 -3.1269,1.51 -4.8478,1.3702 -1.7209,-0.1399 -3.3408,-0.8953 -4.5811,-2.1363 -1.3099,0.495 -2.7364,0.5562 -4.0815,0.1752 C 10.4731,27.7784 9.27603,26.9741 8.39321,25.858 8.30592,25.7467 8.24537,25.6155 8.21651,25.4754 8.18765,25.3352 8.19129,25.1899 8.22715,25.0515 8.26301,24.9131 8.33005,24.7853 8.42281,24.6788 8.51557,24.5723 8.6314,24.49 8.76083,24.4386 l 3.59247,-1.4361 -1.8246,-2.6907 c -0.2366,-0.3501 -0.3857,-0.7553 -0.4341,-1.1794 -0.0484,-0.424 0.0053,-0.8539 0.1565,-1.2513 0.1512,-0.3975 0.395,-0.7501 0.7099,-1.0265 0.3149,-0.2764 0.691,-0.4681 1.0949,-0.5579 2.0544,-0.4527 3.3753,-0.8913 3.9628,-1.316 0.5875,-0.4247 1.4236,-1.5424 2.5085,-3.3529 0.2188,-0.3633 0.5214,-0.6647 0.8806,-0.8774 0.3592,-0.2127 0.7639,-0.3299 1.1777,-0.3413 0.4138,-0.0113 0.8239,0.0836 1.1936,0.2763 0.3696,0.1927 0.6872,0.4771 0.9244,0.8278 l 1.8138,2.6712 2.4922,-2.9646 c 0.0908,-0.1083 0.2051,-0.1929 0.3336,-0.2468 0.1285,-0.0539 0.2675,-0.0756 0.4056,-0.0634 0.1382,0.0123 0.2716,0.0582 0.3893,0.134 0.1177,0.0757 0.2164,0.1792 0.288,0.302 0.7093,1.2305 1.033,2.6578 0.9265,4.086 -0.1064,1.4282 -0.6378,2.7874 -1.5212,3.8911 z m -6.4388,12.7186 -1.9274,-0.2794 c -0.3244,-0.0486 -0.6541,0.0381 -0.9167,0.2409 -0.2626,0.2028 -0.4365,0.5051 -0.4835,0.8404 -0.0469,0.3353 0.0369,0.6762 0.2331,0.9476 0.1962,0.2714 0.4886,0.4512 0.813,0.4997 l 1.9274,0.2794 c 0.3247,0.0467 0.6541,-0.0419 0.9157,-0.2462 0.2616,-0.2044 0.4339,-0.5078 0.4791,-0.8435 0.0451,-0.3356 -0.0406,-0.6761 -0.2383,-0.9465 -0.1977,-0.2704 -0.4912,-0.4485 -0.816,-0.4952 z M 31.521,23.1002 c -0.3201,-0.0704 -0.6541,-0.0067 -0.9288,0.1772 -0.2747,0.1838 -0.4675,0.4728 -0.5363,0.8036 l -0.4027,1.981 c -0.0391,0.1662 -0.0455,0.3388 -0.0188,0.5076 0.0267,0.1688 0.0859,0.3303 0.1741,0.475 0.0883,0.1447 0.2037,0.2696 0.3396,0.3673 0.1358,0.0977 0.2893,0.1661 0.4512,0.2013 0.1619,0.0352 0.3291,0.0364 0.4914,0.0036 0.1624,-0.0329 0.3168,-0.0991 0.454,-0.1948 0.1371,-0.0957 0.2543,-0.2189 0.3445,-0.3623 0.0902,-0.1434 0.1516,-0.304 0.1805,-0.4724 v 0 l 0.4028,-1.9559 c 0.069,-0.3323 0.0076,-0.6794 -0.1708,-0.9649 -0.1785,-0.2856 -0.4592,-0.4862 -0.7807,-0.5579 z"
     fill="#ffffff"
     id="path6" />
  <defs
     id="defs24">
    <linearGradient
       gradientUnits="userSpaceOnUse"
       y2="34.8189"
       x2="34.5084"
       y1="8.27269"
       x1="7.06879"
       id="paint0_linear">
      <stop
         style="stop-color:#e6b400;stop-opacity:1"
         id="stop16"
         stop-color="#FFC100" />
      <stop
         style="stop-color:#e6a100;stop-opacity:1"
         id="stop18"
         stop-color="#FFA300"
         offset="1" />
    </linearGradient>
    <clipPath
       id="clip0">
      <rect
         id="rect21"
         transform="translate(1 2)"
         fill="white"
         height="40"
         width="203" />
    </clipPath>
  </defs>
</svg>
