<?xml version="1.0" encoding="UTF-8" standalone="no"?>
<svg
   xmlns:dc="http://purl.org/dc/elements/1.1/"
   xmlns:cc="http://creativecommons.org/ns#"
   xmlns:rdf="http://www.w3.org/1999/02/22-rdf-syntax-ns#"
   xmlns:svg="http://www.w3.org/2000/svg"
   xmlns="http://www.w3.org/2000/svg"
   xmlns:sodipodi="http://sodipodi.sourceforge.net/DTD/sodipodi-0.dtd"
   xmlns:inkscape="http://www.inkscape.org/namespaces/inkscape"
   inkscape:version="1.0 (4035a4fb49, 2020-05-01)"
   sodipodi:docname="crack.svg"
   id="svg121"
   version="1.1"
   style="width:100%;height:100%;transform:translate3d(0px, 0px, 0px)"
   preserveAspectRatio="xMidYMid meet"
   height="135"
   width="135"
   viewBox="0 0 135 135">
  <metadata
     id="metadata125">
    <rdf:RDF>
      <cc:Work
         rdf:about="">
        <dc:format>image/svg+xml</dc:format>
        <dc:type
           rdf:resource="http://purl.org/dc/dcmitype/StillImage" />
      </cc:Work>
    </rdf:RDF>
  </metadata>
  <sodipodi:namedview
     inkscape:current-layer="svg121"
     inkscape:window-maximized="1"
     inkscape:window-y="-8"
     inkscape:window-x="-8"
     inkscape:cy="67.5"
     inkscape:cx="67.5"
     inkscape:zoom="3.7925926"
     showgrid="false"
     id="namedview123"
     inkscape:window-height="745"
     inkscape:window-width="1366"
     inkscape:pageshadow="2"
     inkscape:pageopacity="0"
     guidetolerance="10"
     gridtolerance="10"
     objecttolerance="10"
     borderopacity="1"
     bordercolor="#666666"
     pagecolor="#ffffff" />
  <defs
     id="defs85">
    <clipPath
       id="__lottie_element_85710">
      <rect
         id="rect2"
         y="0"
         x="0"
         height="135"
         width="135" />
    </clipPath>
    <clipPath
       id="__lottie_element_85712">
      <path
         id="path5"
         d="M0,0 L208,0 L208,188 L0,188z" />
    </clipPath>
    <mask
       mask-type="alpha"
       id="__lottie_element_85718">
      <g
         id="g62"
         style="display:block"
         opacity="1"
         transform="matrix(1,0,0,1,26,16)"
         clip-path="url(#__lottie_element_85719)">
        <g
           id="g12"
           style="display:block"
           opacity="1"
           transform="matrix(1,0,0,1,78,78)">
          <g
             id="g10"
             transform="matrix(2,0,0,2,0,0)"
             opacity="1">
            <path
               id="path8"
               d="M0,-39 C21.524099349975586,-39 39,-21.524099349975586 39,0 C39,21.524099349975586 21.524099349975586,39 0,39 C-21.524099349975586,39 -39,21.524099349975586 -39,0 C-39,-21.524099349975586 -21.524099349975586,-39 0,-39z"
               fill-opacity="1"
               fill="rgb(253,200,3)" />
          </g>
        </g>
        <g
           id="g20"
           style="display:block"
           mask="url(#__lottie_element_85740)">
          <g
             id="g18"
             opacity="1"
             transform="matrix(1,0,0,1,117.2959976196289,97.2959976196289)">
            <g
               id="g16"
               transform="matrix(2,0,0,2,0,0)"
               opacity="1">
              <path
                 id="path14"
                 d="M-41.71799850463867,27.582000732421875 C-41.71799850463867,27.582000732421875 27.582000732421875,-41.71799850463867 27.582000732421875,-41.71799850463867 C31.48200035095215,-45.62799835205078 37.8120002746582,-45.62799835205078 41.72200012207031,-41.71799850463867 C45.62200164794922,-37.81800079345703 45.62200164794922,-31.47800064086914 41.72200012207031,-27.577999114990234 C41.72200012207031,-27.577999114990234 -27.577999114990234,41.72200012207031 -27.577999114990234,41.72200012207031 C-31.47800064086914,45.62200164794922 -37.81800079345703,45.62200164794922 -41.71799850463867,41.72200012207031 C-45.62799835205078,37.8120002746582 -45.62799835205078,31.48200035095215 -41.71799850463867,27.582000732421875z"
                 fill-opacity="1"
                 fill="rgb(253,216,0)" />
            </g>
          </g>
        </g>
        <g
           id="g28"
           style="display:block"
           mask="url(#__lottie_element_85746)">
          <g
             id="g26"
             opacity="1"
             transform="matrix(1,0,0,1,117.2959976196289,12.295999526977539)">
            <g
               id="g24"
               transform="matrix(2,0,0,2,0,0)"
               opacity="1">
              <path
                 id="path22"
                 d="M-41.71799850463867,27.582000732421875 C-41.71799850463867,27.582000732421875 27.582000732421875,-41.71799850463867 27.582000732421875,-41.71799850463867 C31.48200035095215,-45.62799835205078 37.8120002746582,-45.62799835205078 41.72200012207031,-41.71799850463867 C45.62200164794922,-37.81800079345703 45.62200164794922,-31.47800064086914 41.72200012207031,-27.577999114990234 C41.72200012207031,-27.577999114990234 -27.577999114990234,41.72200012207031 -27.577999114990234,41.72200012207031 C-31.47800064086914,45.62200164794922 -37.81800079345703,45.62200164794922 -41.71799850463867,41.72200012207031 C-45.62799835205078,37.8120002746582 -45.62799835205078,31.48200035095215 -41.71799850463867,27.582000732421875z"
                 fill-opacity="1"
                 fill="rgb(253,216,0)" />
            </g>
          </g>
        </g>
        <g
           id="g60"
           style="display:block"
           opacity="1"
           transform="matrix(1,0,0,1,0,0)"
           clip-path="url(#__lottie_element_85750)">
          <g
             id="g34"
             style="display:block"
             opacity="1"
             transform="matrix(1,0,0,1,80,77)">
            <g
               id="g32"
               transform="matrix(2,0,0,2,0,0)"
               opacity="1">
              <path
                 id="path30"
                 d="M0,25.5 C11.600000381469727,25.5 21,15.890000343322754 21,4.050000190734863 C21,-7.800000190734863 11.600000381469727,-25.5 0,-25.5 C-11.600000381469727,-25.5 -21,-7.800000190734863 -21,4.050000190734863 C-21,15.890000343322754 -11.600000381469727,25.5 0,25.5z"
                 fill-opacity="1"
                 fill="rgb(255,177,0)" />
            </g>
          </g>
          <g
             id="g40"
             style="display:block"
             opacity="1"
             transform="matrix(1,0,0,1,52,52)">
            <g
               id="g38"
               transform="matrix(2,0,0,2,0,0)"
               opacity="1">
              <path
                 id="path36"
                 d="M3.0199999809265137,-7 C4.25,-5.519999980926514 5,-3.569999933242798 5,-1.4500000476837158 C5,3.2200000286102295 1.399999976158142,7 -3.0399999618530273,7 C-3.7200000286102295,7 -4.369999885559082,6.909999847412109 -5,6.75 C-3.2899999618530273,1.6200000047683716 -0.47999998927116394,-3.430000066757202 3.0199999809265137,-7z"
                 fill-opacity="1"
                 fill="rgb(248,151,0)" />
            </g>
          </g>
          <g
             id="g46"
             style="display:block"
             opacity="1"
             transform="matrix(1,0,0,1,101,54)">
            <g
               id="g44"
               transform="matrix(2,0,0,2,0,0)"
               opacity="1">
              <path
                 id="path42"
                 d="M8.5,7.309999942779541 C6.690000057220459,8.979999542236328 4.300000190734863,10 1.6699999570846558,10 C-3.950000047683716,10 -8.5,5.360000133514404 -8.5,-0.3700000047683716 C-8.5,-4.730000019073486 -5.860000133514404,-8.470000267028809 -2.119999885559082,-10 C2.7799999713897705,-6.050000190734863 6.630000114440918,0.7200000286102295 8.5,7.309999942779541z"
                 fill-opacity="1"
                 fill="rgb(248,151,0)" />
            </g>
          </g>
          <g
             id="g52"
             style="display:block"
             opacity="1"
             transform="matrix(1,0,0,1,100,114)">
            <g
               id="g50"
               transform="matrix(2,0,0,2,0,0)"
               opacity="1">
              <path
                 id="path48"
                 d="M-6.489999771118164,6 C-6.820000171661377,5.03000020980835 -7,3.9800000190734863 -7,2.880000114440918 C-7,-2.0199999809265137 -3.380000114440918,-6 1.090000033378601,-6 C3.4200000762939453,-6 5.519999980926514,-4.909999847412109 7,-3.180000066757202 C3.9000000953674316,1.659999966621399 -0.9200000166893005,5.079999923706055 -6.489999771118164,6z"
                 fill-opacity="1"
                 fill="rgb(248,151,0)" />
            </g>
          </g>
          <g
             id="g58"
             style="display:block"
             opacity="1"
             transform="matrix(1,0,0,1,65,95)">
            <g
               id="g56"
               transform="matrix(2,0,0,2,0,0)"
               opacity="1">
              <path
                 id="path54"
                 d="M0,-7.5 C4.139249801635742,-7.5 7.5,-4.139249801635742 7.5,0 C7.5,4.139249801635742 4.139249801635742,7.5 0,7.5 C-4.139249801635742,7.5 -7.5,4.139249801635742 -7.5,0 C-7.5,-4.139249801635742 -4.139249801635742,-7.5 0,-7.5z"
                 fill-opacity="1"
                 fill="rgb(248,151,0)" />
            </g>
          </g>
        </g>
      </g>
    </mask>
    <clipPath
       id="__lottie_element_85719">
      <path
         id="path65"
         d="M0,0 L156,0 L156,156 L0,156z" />
    </clipPath>
    <mask
       mask-type="alpha"
       id="__lottie_element_85740">
      <g
         id="g72"
         style="display:block"
         opacity="1"
         transform="matrix(1,0,0,1,78,78)">
        <g
           id="g70"
           transform="matrix(2,0,0,2,0,0)"
           opacity="1">
          <path
             id="path68"
             d="M0,-39 C21.524099349975586,-39 39,-21.524099349975586 39,0 C39,21.524099349975586 21.524099349975586,39 0,39 C-21.524099349975586,39 -39,21.524099349975586 -39,0 C-39,-21.524099349975586 -21.524099349975586,-39 0,-39z"
             fill-opacity="1"
             fill="rgb(253,200,3)" />
        </g>
      </g>
    </mask>
    <mask
       mask-type="alpha"
       id="__lottie_element_85746">
      <g
         id="g79"
         style="display:block"
         opacity="1"
         transform="matrix(1,0,0,1,78,78)">
        <g
           id="g77"
           transform="matrix(2,0,0,2,0,0)"
           opacity="1">
          <path
             id="path75"
             d="M0,-39 C21.524099349975586,-39 39,-21.524099349975586 39,0 C39,21.524099349975586 21.524099349975586,39 0,39 C-21.524099349975586,39 -39,21.524099349975586 -39,0 C-39,-21.524099349975586 -21.524099349975586,-39 0,-39z"
             fill-opacity="1"
             fill="rgb(253,200,3)" />
        </g>
      </g>
    </mask>
    <clipPath
       id="__lottie_element_85750">
      <path
         id="path82"
         d="M0,0 L208,0 L208,188 L0,188z" />
    </clipPath>
  </defs>
  <g
     id="g1001">
    <path
       style="opacity:0.8;stroke-width:0.85"
       fill="#ffffff"
       fill-opacity="1"
       d="m 47.794752,-81.944628 c 0,0 -136.736778,136.736778 -136.736778,136.736778 0,0 -16.103684,-16.103686 -16.103684,-16.103686 0,0 136.736776,-136.736777 136.736776,-136.736777 0,0 16.103686,16.103685 16.103686,16.103685 z"
       id="path87" />
    <path
       fill="#ffffff"
       fill-opacity="1"
       d="m 67.2875,74.9375 c 0,0 -4.675,0.2125 -4.8875,0.85 -0.2125,0.6375 -4.8875,31.2375 -4.8875,31.2375 0,0 18.1458,27.24505 18.1458,27.24505 0,0 15.75815,-1.96095 15.038201,-2.8033 C 82.063049,121.36025 66.225,102.5625 66.225,102.5625 c 0,0 1.0625,-27.625 1.0625,-27.625 z"
       id="path93"
       style="stroke-width:0.85;fill:#202020;fill-opacity:1" />
    <path
       fill="#ffffff"
       fill-opacity="1"
       d="m 87.815,2.3092485 c 0,0 -17.5525,16.9532505 -17.5525,16.9532505 0,0 0.6375,52.487501 0.6375,52.487501 0,0 -39.312501,5.525 -39.312501,5.525 0,0 7.225,5.1 7.225,5.1 0,0 39.312501,-7.0125 39.312501,-7.0125 0,0 5.95,-46.962501 5.95,-46.962501 0,0 20.95335,-18.293703 20.95335,-18.293703 0,0 -3.74935,-3.3167008 -8.10135,-5.4739958 C 92.575001,2.4749985 87.815,2.3092485 87.815,2.3092485 Z"
       id="path99"
       style="stroke-width:0.85;fill:#202020;fill-opacity:1" />
    <path
       fill="#ffffff"
       fill-opacity="1"
       d="m 31.162499,76.425 c 0,0 -29.1125005,20.187501 -29.3250005,20.825001 -0.2125,0.6375 11.0500005,18.912499 11.0500005,18.912499 0,0 29.325,-38.0375 29.325,-38.0375 0,0 -11.05,-1.7 -11.05,-1.7 z"
       id="path105"
       style="stroke-width:0.85;fill:#202020;fill-opacity:1" />
    <path
       fill="#ffffff"
       fill-opacity="1"
       d="m 0.49790182,56.0318 c 0,0 27.26459718,29.7432 27.26459718,29.7432 0,0 11.2625,-3.6125 11.2625,-3.6125 0,0 -37.2342505,-33.0973 -37.2342505,-33.0973 0,0 -1.29284668,6.9666 -1.29284668,6.9666 z"
       id="path111"
       style="stroke-width:0.85;fill:#202020;fill-opacity:1" />
  </g>
</svg>
