<?xml version="1.0" encoding="UTF-8" standalone="no"?>
<svg
   xmlns:dc="http://purl.org/dc/elements/1.1/"
   xmlns:cc="http://creativecommons.org/ns#"
   xmlns:rdf="http://www.w3.org/1999/02/22-rdf-syntax-ns#"
   xmlns:svg="http://www.w3.org/2000/svg"
   xmlns="http://www.w3.org/2000/svg"
   xmlns:sodipodi="http://sodipodi.sourceforge.net/DTD/sodipodi-0.dtd"
   xmlns:inkscape="http://www.inkscape.org/namespaces/inkscape"
   width="92"
   height="46"
   viewBox="0 0 92 46"
   version="1.1"
   id="svg14"
   sodipodi:docname="discuss.svg"
   inkscape:version="1.0 (4035a4fb49, 2020-05-01)">
  <metadata
     id="metadata20">
    <rdf:RDF>
      <cc:Work
         rdf:about="">
        <dc:format>image/svg+xml</dc:format>
        <dc:type
           rdf:resource="http://purl.org/dc/dcmitype/StillImage" />
      </cc:Work>
    </rdf:RDF>
  </metadata>
  <defs
     id="defs18" />
  <sodipodi:namedview
     inkscape:document-rotation="0"
     pagecolor="#ffffff"
     bordercolor="#666666"
     borderopacity="1"
     objecttolerance="10"
     gridtolerance="10"
     guidetolerance="10"
     inkscape:pageopacity="0"
     inkscape:pageshadow="2"
     inkscape:window-width="1366"
     inkscape:window-height="745"
     id="namedview16"
     showgrid="false"
     inkscape:zoom="5.5652174"
     inkscape:cx="35.29384"
     inkscape:cy="29.589326"
     inkscape:window-x="-8"
     inkscape:window-y="-8"
     inkscape:window-maximized="1"
     inkscape:current-layer="svg14"
     inkscape:snap-page="true" />
  <title
     id="title2">tab_discuss inactive</title>
  <g
     id="g847">
    <g
       id="g841">
      <path
         id="path837"
         style="color:#000000;font-style:normal;font-variant:normal;font-weight:normal;font-stretch:normal;font-size:medium;line-height:normal;font-family:sans-serif;font-variant-ligatures:normal;font-variant-position:normal;font-variant-caps:normal;font-variant-numeric:normal;font-variant-alternates:normal;font-variant-east-asian:normal;font-feature-settings:normal;font-variation-settings:normal;text-indent:0;text-align:start;text-decoration:none;text-decoration-line:none;text-decoration-style:solid;text-decoration-color:#000000;letter-spacing:normal;word-spacing:normal;text-transform:none;writing-mode:lr-tb;direction:ltr;text-orientation:mixed;dominant-baseline:auto;baseline-shift:baseline;text-anchor:start;white-space:normal;shape-padding:0;shape-margin:0;inline-size:0;clip-rule:nonzero;display:inline;overflow:visible;visibility:visible;isolation:auto;mix-blend-mode:normal;color-interpolation:sRGB;color-interpolation-filters:linearRGB;solid-color:#000000;solid-opacity:1;vector-effect:none;fill:#808080;fill-opacity:1;fill-rule:evenodd;stroke:none;stroke-width:2.6;stroke-linecap:butt;stroke-linejoin:miter;stroke-miterlimit:4;stroke-dasharray:none;stroke-dashoffset:0;stroke-opacity:1;color-rendering:auto;image-rendering:auto;shape-rendering:auto;text-rendering:auto;enable-background:accumulate;stop-color:#000000;opacity:0.9954"
         d="M 52.957031,4.0000005 C 49.682469,4.0000005 47,6.6824695 47,9.9570317 v 9.3964843 c 5.75e-4,2.921889 2.141261,5.426777 5.027344,5.882812 h 0.002 l 0.002,0.002 V 28.9395 c -3.79e-4,0.764611 0.50238,1.442692 1.125,1.710938 0.623151,0.268474 1.460199,0.167273 2.015625,-0.359375 v 0.002 L 60.4415,25.308688 h 3.791016 v 5.759765 c 0,3.25866 2.513224,5.986329 5.658203,5.986329 h 7.505859 l 5.320313,5.107421 c 0.315138,0.315578 0.741568,0.497087 1.1875,0.503907 h 0.01172 0.0098 c 1.097923,0 1.767578,-0.946399 1.767578,-1.869141 v -3.787108 c 2.851716,-0.368347 4.962891,-2.945828 4.962891,-5.941407 V 21.70322 c 0,-3.259408 -2.513224,-5.986328 -5.658203,-5.986328 H 75.652344 V 9.9570317 c 0,-3.2740728 -2.681005,-5.9563282 -5.955078,-5.9570312 z m 0,2.5996094 h 16.740235 c 1.869126,4.013e-4 3.355468,1.4882959 3.355468,3.3574218 v 5.7597653 h -3.162109 c -3.144979,0 -5.658203,2.72692 -5.658203,5.986328 v 1.005859 h -4.824219 l -4.777344,4.517578 v -4.214843 l -2.197265,-0.34375 h -0.002 C 50.791759,22.407962 49.599936,21.014076 49.599609,19.353516 V 9.9570317 c 0,-1.8694179 1.488004,-3.3574218 3.357422,-3.3574218 z M 69.890625,18.316406 h 15.107422 c 1.635021,0 3.058594,1.436127 3.058594,3.386719 v 9.365234 c 0,1.784422 -1.228982,3.173628 -2.697266,3.363282 l -2.265625,0.294921 v 4.195313 l -4.652344,-4.466797 h -8.550781 c -1.635021,0 -3.058594,-1.437378 -3.058594,-3.386719 v -9.365234 c 0,-1.950592 1.423573,-3.386719 3.058594,-3.386719 z" />
    </g>
    <g
       id="g842">
      <path
         d="M 0,0 V 46 H 46 V 34.205078 18.488281 0 Z M 6.9570312,4 H 23.697266 a 5.957,5.957 0 0 1 5.955078,5.9570312 v 3.7597658 h -5.761719 c -4.257299,0 -7.658203,3.625161 -7.658203,7.986328 v 3.605469 h -1.791016 v 0.002 L 9.171875,30.292969 A 1.861,1.861 0 0 1 6.03125,28.939453 V 25.238281 A 5.958,5.958 0 0 1 1,19.353516 V 9.9570312 A 5.957,5.957 0 0 1 6.9570312,4 Z M 23.890625,15.716797 h 15.107422 c 3.121547,0 5.658203,2.653668 5.658203,5.986328 v 9.365234 c 0,2.779359 -1.797221,5.127243 -4.228516,5.794922 l -0.734375,0.201172 v 0.761719 2.970703 c 0,1.053398 -0.786754,1.871094 -1.767578,1.871094 -0.437674,0 -0.859684,-0.170112 -1.189453,-0.486328 l -5.339844,-5.126953 h -7.505859 c -3.122701,0 -5.658203,-2.654629 -5.658203,-5.986329 v -9.365234 c 0,-3.332833 2.535502,-5.986328 5.658203,-5.986328 z"
         style="fill:#202020;fill-opacity:1;stroke:none;stroke-width:0;stroke-linecap:round;stroke-dasharray:none;stroke-opacity:1;paint-order:markers fill stroke"
         id="rect854" />
    </g>
  </g>
</svg>
