<?xml version="1.0" encoding="UTF-8" standalone="no"?>
<svg
   xmlns:dc="http://purl.org/dc/elements/1.1/"
   xmlns:cc="http://creativecommons.org/ns#"
   xmlns:rdf="http://www.w3.org/1999/02/22-rdf-syntax-ns#"
   xmlns:svg="http://www.w3.org/2000/svg"
   xmlns="http://www.w3.org/2000/svg"
   xmlns:sodipodi="http://sodipodi.sourceforge.net/DTD/sodipodi-0.dtd"
   xmlns:inkscape="http://www.inkscape.org/namespaces/inkscape"
   inkscape:version="1.0 (4035a4fb49, 2020-05-01)"
   sodipodi:docname="inactive-shop.svg"
   id="svg26"
   version="1.1"
   viewBox="0 0 45 38"
   height="45px"
   width="45px">
  <metadata
     id="metadata32">
    <rdf:RDF>
      <cc:Work
         rdf:about="">
        <dc:format>image/svg+xml</dc:format>
        <dc:type
           rdf:resource="http://purl.org/dc/dcmitype/StillImage" />
      </cc:Work>
    </rdf:RDF>
  </metadata>
  <defs
     id="defs30" />
  <sodipodi:namedview
     inkscape:current-layer="svg26"
     inkscape:window-maximized="1"
     inkscape:window-y="-8"
     inkscape:window-x="-8"
     inkscape:cy="20.010259"
     inkscape:cx="22.5"
     inkscape:zoom="11.377778"
     showgrid="false"
     id="namedview28"
     inkscape:window-height="745"
     inkscape:window-width="1366"
     inkscape:pageshadow="2"
     inkscape:pageopacity="0"
     guidetolerance="10"
     gridtolerance="10"
     objecttolerance="10"
     borderopacity="1"
     bordercolor="#666666"
     pagecolor="#ffffff"
     inkscape:document-rotation="0" />
  <title
     id="title2">shop - inactive</title>
  <desc
     id="desc4">Created with Sketch.</desc>
  <g
     id="g868">
    <path
       id="Combined-Shape"
       style="fill:#808080;fill-opacity:1;stroke:none;stroke-width:1"
       d="M 9.2441406 3.9316406 C 7.822398 3.9316406 6.493937 4.6381579 5.7011719 5.8183594 L 1.2890625 12.388672 C 0.71856448 13.237981 0.79692818 14.32403 1.3925781 15.089844 C 1.3753437 15.200793 1.3574219 15.311954 1.3574219 15.427734 C 1.3574219 16.440268 1.5575543 17.40415 1.9140625 18.289062 L 1.9140625 37.910156 C 1.9140625 39.696245 3.3623486 41.142578 5.1484375 41.142578 L 39.851562 41.142578 C 41.637652 41.142578 43.085938 39.696245 43.085938 37.910156 L 43.085938 18.289062 C 43.442446 17.40415 43.642578 16.440267 43.642578 15.427734 C 43.642578 15.311954 43.624656 15.200793 43.607422 15.089844 C 44.203072 14.32403 44.281436 13.237981 43.710938 12.388672 L 39.298828 5.8183594 C 38.506063 4.6381579 37.177602 3.9316406 35.755859 3.9316406 L 9.2441406 3.9316406 z M 9.2441406 6.1308594 L 16.341797 6.1308594 L 14.486328 13.228516 L 3.5566406 13.228516 C 3.4897427 13.228516 3.4267052 13.242201 3.3613281 13.248047 L 7.5273438 7.0449219 C 7.911467 6.4730717 8.555255 6.1308594 9.2441406 6.1308594 z M 18.615234 6.1308594 L 26.384766 6.1308594 L 28.244141 13.246094 C 28.186424 13.241553 28.131149 13.228516 28.072266 13.228516 L 16.927734 13.228516 C 16.868851 13.228516 16.813576 13.241553 16.755859 13.246094 L 18.615234 6.1308594 z M 28.658203 6.1308594 L 35.755859 6.1308594 C 36.444745 6.1308594 37.088533 6.4730717 37.472656 7.0449219 L 41.638672 13.248047 C 41.573295 13.242201 41.510257 13.228516 41.443359 13.228516 L 30.513672 13.228516 L 28.658203 6.1308594 z M 4.1152344 17.068359 L 14.449219 17.068359 C 13.752397 19.287159 11.679228 20.896484 9.2304688 20.896484 L 9.0253906 20.896484 C 6.8657219 20.896484 5.0040396 19.641895 4.1152344 17.824219 L 4.1152344 17.068359 z M 17.179688 17.068359 L 27.820312 17.068359 C 27.123486 19.287151 25.052269 20.896484 22.603516 20.896484 L 22.396484 20.896484 C 19.947731 20.896484 17.876514 19.287151 17.179688 17.068359 z M 30.550781 17.068359 L 40.884766 17.068359 L 40.884766 17.824219 C 39.99596 19.641895 38.134278 20.896484 35.974609 20.896484 L 35.769531 20.896484 C 33.320772 20.896484 31.247603 19.287159 30.550781 17.068359 z M 15.814453 19.345703 C 17.152537 21.589061 19.594609 23.095703 22.396484 23.095703 L 22.603516 23.095703 C 25.405391 23.095703 27.847463 21.589061 29.185547 19.345703 C 30.523631 21.589061 32.967655 23.095703 35.769531 23.095703 L 35.974609 23.095703 C 37.843472 23.095703 39.554265 22.427335 40.884766 21.316406 L 40.884766 37.910156 C 40.884766 38.481218 40.422626 38.943359 39.851562 38.943359 L 19.382812 38.943359 L 19.382812 26.398438 C 19.382812 25.648159 18.77567 25.041016 18.025391 25.041016 L 9.5820312 25.041016 C 8.8317522 25.041016 8.2246094 25.648158 8.2246094 26.398438 L 8.2246094 38.943359 L 5.1484375 38.943359 C 4.5773751 38.943359 4.1152344 38.481218 4.1152344 37.910156 L 4.1152344 21.316406 C 5.4457352 22.427335 7.156528 23.095703 9.0253906 23.095703 L 9.2304688 23.095703 C 12.032345 23.095703 14.476369 21.589061 15.814453 19.345703 z M 24.089844 25.041016 C 23.339565 25.041016 22.730469 25.648159 22.730469 26.398438 L 22.730469 34.117188 C 22.730469 34.867466 23.339565 35.474609 24.089844 35.474609 L 36.332031 35.474609 C 37.08231 35.474609 37.689453 34.867466 37.689453 34.117188 L 37.689453 26.398438 C 37.689453 25.648159 37.08231 25.041016 36.332031 25.041016 L 24.089844 25.041016 z M 10.423828 27.240234 L 17.183594 27.240234 L 17.183594 38.943359 L 10.423828 38.943359 L 10.423828 27.240234 z M 24.931641 27.240234 L 35.490234 27.240234 L 35.490234 33.275391 L 24.931641 33.275391 L 24.931641 27.240234 z "
       transform="translate(0,-3.5)" />
  </g>
</svg>
