<?xml version="1.0" encoding="UTF-8" standalone="no"?>
<svg
   xmlns:dc="http://purl.org/dc/elements/1.1/"
   xmlns:cc="http://creativecommons.org/ns#"
   xmlns:rdf="http://www.w3.org/1999/02/22-rdf-syntax-ns#"
   xmlns:svg="http://www.w3.org/2000/svg"
   xmlns="http://www.w3.org/2000/svg"
   xmlns:sodipodi="http://sodipodi.sourceforge.net/DTD/sodipodi-0.dtd"
   xmlns:inkscape="http://www.inkscape.org/namespaces/inkscape"
   width="46"
   height="46"
   viewBox="0 0 46 46"
   version="1.1"
   id="svg24"
   sodipodi:docname="inactive-profile.svg"
   inkscape:version="1.0 (4035a4fb49, 2020-05-01)">
  <metadata
     id="metadata30">
    <rdf:RDF>
      <cc:Work
         rdf:about="">
        <dc:format>image/svg+xml</dc:format>
        <dc:type
           rdf:resource="http://purl.org/dc/dcmitype/StillImage" />
      </cc:Work>
    </rdf:RDF>
  </metadata>
  <defs
     id="defs28" />
  <sodipodi:namedview
     inkscape:document-rotation="0"
     pagecolor="#ffffff"
     bordercolor="#666666"
     borderopacity="1"
     objecttolerance="10"
     gridtolerance="10"
     guidetolerance="10"
     inkscape:pageopacity="0"
     inkscape:pageshadow="2"
     inkscape:window-width="1366"
     inkscape:window-height="745"
     id="namedview26"
     showgrid="false"
     inkscape:zoom="11.130435"
     inkscape:cx="23"
     inkscape:cy="23"
     inkscape:window-x="-8"
     inkscape:window-y="-8"
     inkscape:window-maximized="1"
     inkscape:current-layer="svg24" />
  <title
     id="title2">tab_profile_inactive</title>
  <g
     id="g843">
    <path
       id="path841"
       style="color:#000000;font-style:normal;font-variant:normal;font-weight:normal;font-stretch:normal;font-size:medium;line-height:normal;font-family:sans-serif;font-variant-ligatures:normal;font-variant-position:normal;font-variant-caps:normal;font-variant-numeric:normal;font-variant-alternates:normal;font-variant-east-asian:normal;font-feature-settings:normal;font-variation-settings:normal;text-indent:0;text-align:start;text-decoration:none;text-decoration-line:none;text-decoration-style:solid;text-decoration-color:#000000;letter-spacing:normal;word-spacing:normal;text-transform:none;writing-mode:lr-tb;direction:ltr;text-orientation:mixed;dominant-baseline:auto;baseline-shift:baseline;text-anchor:start;white-space:normal;shape-padding:0;shape-margin:0;inline-size:0;clip-rule:nonzero;display:inline;overflow:visible;visibility:visible;isolation:auto;mix-blend-mode:normal;color-interpolation:sRGB;color-interpolation-filters:linearRGB;solid-color:#000000;solid-opacity:1;vector-effect:none;fill:#808080;fill-opacity:1;fill-rule:evenodd;stroke:none;stroke-width:2.6;stroke-linecap:butt;stroke-linejoin:miter;stroke-miterlimit:4;stroke-dasharray:none;stroke-dashoffset:0;stroke-opacity:1;color-rendering:auto;image-rendering:auto;shape-rendering:auto;text-rendering:auto;enable-background:accumulate;stop-color:#000000;stop-opacity:1;opacity:1"
       d="M 23.5 5 C 14.402479 5 7 12.402479 7 21.5 L 7 27.498047 C 3.8261855 28.820326 2.5753804 32.024789 3.125 34.773438 C 3.6746196 37.522084 6.0617561 39.999868 9.5 40 L 22.060547 40 C 22.533143 40.059528 23.01166 40.099609 23.5 40.099609 C 23.98834 40.099609 24.466857 40.059528 24.939453 40 L 37.498047 40 C 40.938853 40.003184 43.329015 37.525395 43.878906 34.775391 C 44.428704 32.025854 43.176259 28.818668 40 27.498047 L 40 21.5 C 40 12.402479 32.597521 5 23.5 5 z M 23.5 7.5996094 C 31.192479 7.5996094 37.400391 13.807521 37.400391 21.5 L 37.400391 29.232422 L 39 29.898438 L 39.001953 29.898438 C 41.078593 30.761261 41.671321 32.55907 41.330078 34.265625 C 40.988835 35.97218 39.750707 37.402472 37.501953 37.400391 L 37.5 37.400391 L 30.882812 37.400391 C 33.395583 35.288405 35 32.127692 35 28.599609 L 35 22.599609 C 35 17.859934 32.100155 13.679203 27.835938 11.945312 L 26.705078 11.486328 L 26.175781 12.585938 C 24.633344 15.786191 21.066895 18 17 18 C 16.074917 18 15.168619 17.887424 14.298828 17.667969 L 13.181641 17.384766 L 12.767578 18.460938 C 12.25863 19.782184 11.997928 21.185682 12 22.601562 L 12 28.599609 C 12 32.127692 13.604417 35.288405 16.117188 37.400391 L 9.5 37.400391 C 7.2531777 37.400304 6.0168545 35.969379 5.6757812 34.263672 C 5.334708 32.557965 5.925977 30.762519 8 29.898438 L 9.5996094 29.232422 L 9.5996094 21.5 C 9.5996094 13.807521 15.807521 7.5996094 23.5 7.5996094 z M 27.726562 14.869141 C 30.512213 16.396378 32.400391 19.273804 32.400391 22.599609 L 32.400391 28.599609 C 32.400391 33.097941 29.093834 36.785591 24.771484 37.400391 L 22.228516 37.400391 C 17.906166 36.785591 14.599609 33.097941 14.599609 28.599609 L 14.599609 22.599609 L 14.599609 22.597656 C 14.598487 21.831088 14.82158 21.094227 15.015625 20.355469 C 15.67503 20.452567 16.324091 20.599609 17 20.599609 C 17.681033 20.599609 18.348728 20.543247 19.001953 20.443359 A 1.5 1.5 0 0 0 19 20.5 L 19 24.5 A 1.5 1.5 0 0 0 22 24.5 L 22 20.5 A 1.5 1.5 0 0 0 21.771484 19.705078 C 24.2374 18.738952 26.322504 17.041916 27.726562 14.869141 z M 26.5 19 C 25.669 19 25 19.669 25 20.5 L 25 24.5 C 25 25.331 25.669 26 26.5 26 C 27.331 26 28 25.331 28 24.5 L 28 20.5 C 28 19.669 27.331 19 26.5 19 z " />
  </g>
</svg>
