<?xml version="1.0" encoding="UTF-8" standalone="no"?>
<svg
   xmlns:dc="http://purl.org/dc/elements/1.1/"
   xmlns:cc="http://creativecommons.org/ns#"
   xmlns:rdf="http://www.w3.org/1999/02/22-rdf-syntax-ns#"
   xmlns:svg="http://www.w3.org/2000/svg"
   xmlns="http://www.w3.org/2000/svg"
   xmlns:sodipodi="http://sodipodi.sourceforge.net/DTD/sodipodi-0.dtd"
   xmlns:inkscape="http://www.inkscape.org/namespaces/inkscape"
   inkscape:version="1.0 (4035a4fb49, 2020-05-01)"
   sodipodi:docname="keyboard.svg"
   id="svg28"
   version="1.1"
   viewBox="0 0 27 19"
   height="19"
   width="27">
  <metadata
     id="metadata34">
    <rdf:RDF>
      <cc:Work
         rdf:about="">
        <dc:format>image/svg+xml</dc:format>
        <dc:type
           rdf:resource="http://purl.org/dc/dcmitype/StillImage" />
      </cc:Work>
    </rdf:RDF>
  </metadata>
  <defs
     id="defs32" />
  <sodipodi:namedview
     inkscape:current-layer="svg28"
     inkscape:window-maximized="1"
     inkscape:window-y="-8"
     inkscape:window-x="-8"
     inkscape:cy="8.3969199"
     inkscape:cx="23.797587"
     inkscape:zoom="13.473684"
     showgrid="false"
     id="namedview30"
     inkscape:window-height="745"
     inkscape:window-width="1366"
     inkscape:pageshadow="2"
     inkscape:pageopacity="0"
     guidetolerance="10"
     gridtolerance="10"
     objecttolerance="10"
     borderopacity="1"
     bordercolor="#666666"
     pagecolor="#ffffff"
     inkscape:document-rotation="0" />
  <title
     id="title2">Group 8</title>
  <g
     id="g942">
    <path
       id="path847"
       style="color:#000000;font-style:normal;font-variant:normal;font-weight:normal;font-stretch:normal;font-size:medium;line-height:normal;font-family:sans-serif;font-variant-ligatures:normal;font-variant-position:normal;font-variant-caps:normal;font-variant-numeric:normal;font-variant-alternates:normal;font-variant-east-asian:normal;font-feature-settings:normal;font-variation-settings:normal;text-indent:0;text-align:start;text-decoration:none;text-decoration-line:none;text-decoration-style:solid;text-decoration-color:#000000;letter-spacing:normal;word-spacing:normal;text-transform:none;writing-mode:lr-tb;direction:ltr;text-orientation:mixed;dominant-baseline:auto;baseline-shift:baseline;text-anchor:start;white-space:normal;shape-padding:0;shape-margin:0;inline-size:0;clip-rule:nonzero;display:inline;overflow:visible;visibility:visible;isolation:auto;mix-blend-mode:normal;color-interpolation:sRGB;color-interpolation-filters:linearRGB;solid-color:#000000;solid-opacity:1;vector-effect:none;fill:#606060;fill-opacity:1;fill-rule:evenodd;stroke:none;stroke-width:2;stroke-linecap:butt;stroke-linejoin:miter;stroke-miterlimit:4;stroke-dasharray:none;stroke-dashoffset:0;stroke-opacity:1;color-rendering:auto;image-rendering:auto;shape-rendering:auto;text-rendering:auto;enable-background:accumulate;stop-color:#000000;stop-opacity:1;opacity:1"
       d="M 2.2792969 0 C 1.0334741 1.3003357e-16 0 1.0334741 0 2.2792969 L 0 16.720703 C 1.3003357e-16 17.966526 1.0334741 19 2.2792969 19 L 24.720703 19 C 25.966526 19 27 17.966526 27 16.720703 L 27 2.2792969 C 27 1.0334741 25.966526 0 24.720703 0 L 2.2792969 0 z M 2.2792969 2 L 24.720703 2 C 24.89312 2 25 2.1068796 25 2.2792969 L 25 16.720703 C 25 16.89312 24.89312 17 24.720703 17 L 2.2792969 17 C 2.1068796 17 2 16.89312 2 16.720703 L 2 2.2792969 C 2 2.1068796 2.1068796 2 2.2792969 2 z M 5 4 A 1 1 0 0 0 4 5 L 4 6 A 1 1 0 0 0 5 7 L 6 7 A 1 1 0 0 0 7 6 L 7 5 A 1 1 0 0 0 6 4 L 5 4 z M 9 4 A 1 1 0 0 0 8 5 L 8 6 A 1 1 0 0 0 9 7 L 10 7 A 1 1 0 0 0 11 6 L 11 5 A 1 1 0 0 0 10 4 L 9 4 z M 13 4 A 1 1 0 0 0 12 5 L 12 6 A 1 1 0 0 0 13 7 L 14 7 A 1 1 0 0 0 15 6 L 15 5 A 1 1 0 0 0 14 4 L 13 4 z M 17 4 A 1 1 0 0 0 16 5 L 16 6 A 1 1 0 0 0 17 7 L 18 7 A 1 1 0 0 0 19 6 L 19 5 A 1 1 0 0 0 18 4 L 17 4 z M 21 4 C 20.446 4 20 4.446 20 5 L 20 6 C 20 6.554 20.446 7 21 7 L 22 7 C 22.554 7 23 6.554 23 6 L 23 5 C 23 4.446 22.554 4 22 4 L 21 4 z M 5 8 A 1 1 0 0 0 4 9 L 4 10 A 1 1 0 0 0 5 11 L 6 11 A 1 1 0 0 0 7 10 L 7 9 A 1 1 0 0 0 6 8 L 5 8 z M 9 8 A 1 1 0 0 0 8 9 L 8 10 A 1 1 0 0 0 9 11 L 10 11 A 1 1 0 0 0 11 10 L 11 9 A 1 1 0 0 0 10 8 L 9 8 z M 13 8 A 1 1 0 0 0 12 9 L 12 10 A 1 1 0 0 0 13 11 L 14 11 A 1 1 0 0 0 15 10 L 15 9 A 1 1 0 0 0 14 8 L 13 8 z M 17 8 A 1 1 0 0 0 16 9 L 16 10 A 1 1 0 0 0 17 11 L 18 11 A 1 1 0 0 0 19 10 L 19 9 A 1 1 0 0 0 18 8 L 17 8 z M 21 8 C 20.446 8 20 8.446 20 9 L 20 10 C 20 10.554 20.446 11 21 11 L 22 11 C 22.554 11 23 10.554 23 10 L 23 9 C 23 8.446 22.554 8 22 8 L 21 8 z M 5 12 A 1 1 0 0 0 4 13 L 4 14 A 1 1 0 0 0 5 15 L 6 15 A 1 1 0 0 0 7 14 L 7 13 A 1 1 0 0 0 6 12 L 5 12 z M 9 12 C 8.446 12 8 12.446 8 13 L 8 14 C 8 14.554 8.446 15 9 15 L 18 15 C 18.554 15 19 14.554 19 14 L 19 13 C 19 12.446 18.554 12 18 12 L 9 12 z M 21 12 C 20.446 12 20 12.446 20 13 L 20 14 C 20 14.554 20.446 15 21 15 L 22 15 C 22.554 15 23 14.554 23 14 L 23 13 C 23 12.446 22.554 12 22 12 L 21 12 z " />
  </g>
</svg>
