<?xml version="1.0" encoding="UTF-8" standalone="no"?>
<svg
   xmlns:dc="http://purl.org/dc/elements/1.1/"
   xmlns:cc="http://creativecommons.org/ns#"
   xmlns:rdf="http://www.w3.org/1999/02/22-rdf-syntax-ns#"
   xmlns:svg="http://www.w3.org/2000/svg"
   xmlns="http://www.w3.org/2000/svg"
   xmlns:sodipodi="http://sodipodi.sourceforge.net/DTD/sodipodi-0.dtd"
   xmlns:inkscape="http://www.inkscape.org/namespaces/inkscape"
   inkscape:version="1.0 (4035a4fb49, 2020-05-01)"
   sodipodi:docname="aed279fcbad509208b45ca7a17f3e8dc.svg"
   id="svg7"
   version="1.1"
   viewBox="0 0 72 30"
   height="30"
   width="72">
  <metadata
     id="metadata13">
    <rdf:RDF>
      <cc:Work
         rdf:about="">
        <dc:format>image/svg+xml</dc:format>
        <dc:type
           rdf:resource="http://purl.org/dc/dcmitype/StillImage" />
      </cc:Work>
    </rdf:RDF>
  </metadata>
  <defs
     id="defs11" />
  <sodipodi:namedview
     inkscape:current-layer="svg7"
     inkscape:window-maximized="1"
     inkscape:window-y="-8"
     inkscape:window-x="-8"
     inkscape:cy="18.019475"
     inkscape:cx="25.543897"
     inkscape:zoom="6.0339779"
     inkscape:snap-page="true"
     showgrid="false"
     id="namedview9"
     inkscape:window-height="745"
     inkscape:window-width="1366"
     inkscape:pageshadow="2"
     inkscape:pageopacity="0"
     guidetolerance="10"
     gridtolerance="10"
     objecttolerance="10"
     borderopacity="1"
     bordercolor="#666666"
     pagecolor="#ffffff" />
  <path
     d="M 11.861328 2.8203125 C 11.255714 2.8203125 10.650346 2.9832477 10.111328 3.3085938 L 3.6367188 7.2167969 C 3.6354987 7.2175269 3.6340325 7.2180116 3.6328125 7.21875 C 2.6177986 7.8342382 2 8.9276482 2 10.115234 L 2 19.78125 C 2 20.969336 2.6196024 22.067719 3.6367188 22.681641 L 10.111328 26.587891 C 11.189364 27.238583 12.533293 27.238583 13.611328 26.587891 L 13.613281 26.587891 L 20.087891 22.681641 C 21.105007 22.067719 21.724609 20.969336 21.724609 19.78125 L 21.724609 10.115234 C 21.724919 8.9269129 21.105254 7.828914 20.087891 7.2148438 L 13.613281 3.3085938 L 13.611328 3.3085938 C 13.07231 2.9832479 12.466942 2.8203125 11.861328 2.8203125 z "
     style="color:#000000;font-style:normal;font-variant:normal;font-weight:normal;font-stretch:normal;font-size:medium;line-height:normal;font-family:sans-serif;font-variant-ligatures:normal;font-variant-position:normal;font-variant-caps:normal;font-variant-numeric:normal;font-variant-alternates:normal;font-variant-east-asian:normal;font-feature-settings:normal;font-variation-settings:normal;text-indent:0;text-align:start;text-decoration:none;text-decoration-line:none;text-decoration-style:solid;text-decoration-color:#000000;letter-spacing:normal;word-spacing:normal;text-transform:none;writing-mode:lr-tb;direction:ltr;text-orientation:mixed;dominant-baseline:auto;baseline-shift:baseline;text-anchor:start;white-space:normal;shape-padding:0;shape-margin:0;inline-size:0;clip-rule:nonzero;display:inline;overflow:visible;visibility:visible;isolation:auto;mix-blend-mode:normal;color-interpolation:sRGB;color-interpolation-filters:linearRGB;solid-color:#000000;solid-opacity:1;vector-effect:none;fill:#fc4848;fill-opacity:1;fill-rule:nonzero;stroke:none;stroke-width:2;stroke-linecap:butt;stroke-linejoin:miter;stroke-miterlimit:4;stroke-dasharray:none;stroke-dashoffset:0;stroke-opacity:1;color-rendering:auto;image-rendering:auto;shape-rendering:auto;text-rendering:auto;enable-background:accumulate;stop-color:#000000"
     id="path914" />
  <path
     opacity="0.793"
     fill="#ffffff"
     id="path3"
     d="m 11.89,6.273 v 3.165 c 0,0.378 -0.198,0.728 -0.52,0.924 L 8.422,12.145 C 8.0557859,12.366438 7.5933638,12.350749 7.243,12.105 L 4.857,10.433 C 4.5590157,10.224183 4.3862125,9.8793527 4.3972947,9.5156544 4.4083769,9.1519561 4.6018546,8.8182869 4.912,8.628 L 10.245,5.352 C 10.578204,5.1474627 10.995935,5.1389799 11.337168,5.3298216 11.678401,5.5206632 11.889848,5.8810261 11.89,6.272 Z"
     style="fill-rule:nonzero;stroke:none;stroke-width:1" />
  <path
     d="m 35.861328,2.8203125 c -0.605614,0 -1.210982,0.1629352 -1.75,0.4882813 l -6.474609,3.9082031 c -0.0012,7.3e-4 -0.0027,0.00121 -0.0039,0.00195 C 26.6178,7.8342382 26,8.9276482 26,10.115234 v 9.666016 c 0,1.188086 0.619602,2.286469 1.636719,2.900391 l 6.474609,3.90625 c 1.078036,0.650692 2.421965,0.650692 3.5,0 h 0.002 l 6.47461,-3.90625 c 1.017116,-0.613922 1.636718,-1.712305 1.636718,-2.900391 v -9.666016 c 3.1e-4,-1.1883211 -0.619355,-2.28632 -1.636718,-2.9003902 l -6.47461,-3.90625 h -0.002 c -0.539018,-0.3253459 -1.144386,-0.4882813 -1.75,-0.4882813 z"
     style="color:#000000;font-style:normal;font-variant:normal;font-weight:normal;font-stretch:normal;font-size:medium;line-height:normal;font-family:sans-serif;font-variant-ligatures:normal;font-variant-position:normal;font-variant-caps:normal;font-variant-numeric:normal;font-variant-alternates:normal;font-variant-east-asian:normal;font-feature-settings:normal;font-variation-settings:normal;text-indent:0;text-align:start;text-decoration:none;text-decoration-line:none;text-decoration-style:solid;text-decoration-color:#000000;letter-spacing:normal;word-spacing:normal;text-transform:none;writing-mode:lr-tb;direction:ltr;text-orientation:mixed;dominant-baseline:auto;baseline-shift:baseline;text-anchor:start;white-space:normal;shape-padding:0;shape-margin:0;inline-size:0;clip-rule:nonzero;display:inline;overflow:visible;visibility:visible;isolation:auto;mix-blend-mode:normal;color-interpolation:sRGB;color-interpolation-filters:linearRGB;solid-color:#000000;solid-opacity:1;vector-effect:none;fill:#606060;fill-opacity:1;fill-rule:nonzero;stroke:none;stroke-width:2;stroke-linecap:butt;stroke-linejoin:miter;stroke-miterlimit:4;stroke-dasharray:none;stroke-dashoffset:0;stroke-opacity:1;color-rendering:auto;image-rendering:auto;shape-rendering:auto;text-rendering:auto;enable-background:accumulate;stop-color:#000000"
     id="path906" />
  <g
     style="fill:#000000;fill-opacity:1;stroke:#000000;stroke-opacity:1"
     fill-rule="evenodd"
     fill="none"
     stroke-width="1"
     stroke="none"
     id="g902"
     transform="translate(48,0.0515001)">
    <g
       style="fill:#000000;fill-opacity:1;stroke:#000000;stroke-opacity:1"
       stroke-width="2"
       stroke="#ffffff"
       fill-rule="nonzero"
       fill="#e5e5e5"
       transform="translate(1,1)"
       id="g900">
      <path
         style="fill:#000000;fill-opacity:1;stroke:#000000;stroke-opacity:1"
         id="path898"
         d="M 2.12,5.36 8.595,1.452 c 1.3941922,-0.84152077 3.139808,-0.84152077 4.534,0 l 6.475,3.907 c 1.316114,0.7943933 2.1204,2.2197245 2.12,3.757 v 9.666 c 0,1.536919 -0.804191,2.961791 -2.12,3.756 l -6.475,3.907 c -1.394192,0.841521 -3.1398078,0.841521 -4.534,0 L 2.12,22.538 C 0.80419138,21.743791 0,20.318919 0,18.782 V 9.116 C 0,7.578 0.804,6.154 2.12,5.359 Z" />
    </g>
  </g>
</svg>
