<?xml version="1.0" encoding="UTF-8" standalone="no"?>
<svg
   xmlns:dc="http://purl.org/dc/elements/1.1/"
   xmlns:cc="http://creativecommons.org/ns#"
   xmlns:rdf="http://www.w3.org/1999/02/22-rdf-syntax-ns#"
   xmlns:svg="http://www.w3.org/2000/svg"
   xmlns="http://www.w3.org/2000/svg"
   xmlns:sodipodi="http://sodipodi.sourceforge.net/DTD/sodipodi-0.dtd"
   xmlns:inkscape="http://www.inkscape.org/namespaces/inkscape"
   inkscape:version="1.0 (4035a4fb49, 2020-05-01)"
   sodipodi:docname="podcast.svg"
   id="svg24"
   viewBox="0 0 770.8 100"
   version="1.1">
  <metadata
     id="metadata30">
    <rdf:RDF>
      <cc:Work
         rdf:about="">
        <dc:format>image/svg+xml</dc:format>
        <dc:type
           rdf:resource="http://purl.org/dc/dcmitype/StillImage" />
      </cc:Work>
    </rdf:RDF>
  </metadata>
  <defs
     id="defs28" />
  <sodipodi:namedview
     inkscape:current-layer="svg24"
     inkscape:window-maximized="1"
     inkscape:window-y="-8"
     inkscape:window-x="-8"
     inkscape:cy="-71.996784"
     inkscape:cx="222.7808"
     inkscape:zoom="0.51601916"
     showgrid="false"
     id="namedview26"
     inkscape:window-height="745"
     inkscape:window-width="1366"
     inkscape:pageshadow="2"
     inkscape:pageopacity="0"
     guidetolerance="10"
     gridtolerance="10"
     objecttolerance="10"
     borderopacity="1"
     bordercolor="#666666"
     pagecolor="#ffffff" />
  <style
     id="style2"
     type="text/css">.st0{fill:#454545;}</style>
  <g
     id="g889">
    <g
       id="g878">
      <path
         style="fill:#c0c0c0;fill-opacity:1"
         id="path4"
         d="M 453.8,87.9 V 29.7 c 0,-2.8 1.8,-4.5 4.2,-4.5 2.4,0 4.2,1.7 4.2,4.5 V 31 h 0.1 c 2.3,-3.8 6.5,-6.4 13.7,-6.4 8.1,0 14.1,4.5 16.6,12.1 1.2,3.8 1.7,7.6 1.7,13.2 0,5.4 -0.5,9.2 -1.7,13.1 -2.5,7.5 -8.4,12.1 -16.6,12.1 -7.2,0 -11.5,-2.7 -13.7,-6.4 h -0.1 v 19.4 c 0,2.8 -1.8,4.5 -4.2,4.5 -2.4,-0.2 -4.2,-1.9 -4.2,-4.7 z m 30.8,-28.3 c 0.9,-2.6 1.1,-5.6 1.1,-9.7 0,-4.2 -0.2,-7.2 -1.1,-9.8 -1.6,-4.8 -5.2,-7.5 -10.5,-7.5 -5.4,0 -9,2.7 -10.6,7.5 -0.9,2.6 -1.1,5.6 -1.1,9.8 0,4.1 0.2,7.1 1.1,9.7 1.6,4.8 5.2,7.5 10.6,7.5 5.2,0 8.9,-2.7 10.5,-7.5 z"
         class="st0" />
      <path
         style="fill:#c0c0c0;fill-opacity:1"
         id="path6"
         d="m 504.7,62 c -1.1,-3.3 -1.6,-6.6 -1.6,-12.3 0,-5.5 0.5,-8.8 1.6,-12.2 2.6,-8.2 9.6,-13 19,-13 9.3,0 16.4,4.7 19,13 1.1,3.3 1.6,6.6 1.6,12.2 0,5.6 -0.5,8.9 -1.6,12.3 -2.6,8.1 -9.6,13 -19,13 -9.3,-0.1 -16.3,-4.9 -19,-13 z m 29.9,-2.4 c 0.8,-2.6 1.1,-5.2 1.1,-9.8 0,-4.6 -0.3,-7.1 -1.1,-9.7 -1.6,-4.8 -5.5,-7.5 -10.8,-7.5 -5.3,0 -9.2,2.7 -10.8,7.5 -0.8,2.6 -1.1,5.1 -1.1,9.7 0,4.6 0.3,7.2 1.1,9.8 1.6,4.8 5.5,7.5 10.8,7.5 5.3,0 9.2,-2.7 10.8,-7.5 z"
         class="st0" />
      <path
         style="fill:#c0c0c0;fill-opacity:1"
         id="path8"
         d="m 585.2,69.8 v -1.3 h -0.1 c -2.3,3.8 -6.5,6.4 -13.7,6.4 -8.1,0 -14.1,-4.5 -16.6,-12.1 -1.2,-3.8 -1.7,-7.6 -1.7,-13.2 0,-5.4 0.5,-9.2 1.7,-13.1 2.5,-7.5 8.4,-12.1 16.6,-12.1 7.2,0 11.5,2.7 13.7,6.4 h 0.1 V 9.5 c 0,-2.8 1.8,-4.5 4.2,-4.5 2.4,0 4.2,1.7 4.2,4.5 v 60.3 c 0,2.8 -1.8,4.5 -4.2,4.5 -2.4,0 -4.2,-1.7 -4.2,-4.5 z m -1.1,-10.2 c 0.9,-2.6 1.1,-5.6 1.1,-9.8 0,-4.1 -0.2,-7.1 -1.1,-9.7 -1.6,-4.8 -5.2,-7.5 -10.6,-7.5 -5.3,0 -8.9,2.7 -10.5,7.5 -0.9,2.6 -1.1,5.6 -1.1,9.7 0,4.2 0.2,7.2 1.1,9.8 1.6,4.8 5.2,7.5 10.5,7.5 5.4,0 9,-2.7 10.6,-7.5 z"
         class="st0" />
      <path
         style="fill:#c0c0c0;fill-opacity:1"
         id="path10"
         d="m 606.1,62 c -0.9,-2.9 -1.5,-6.8 -1.5,-12.3 0,-5.3 0.6,-9.2 1.5,-12.2 2.7,-8.3 9.7,-13 19,-13 7.2,0 12.4,3.1 15.4,7 0.8,1.1 1.2,2 1.2,3.1 0,2.1 -1.6,3.7 -3.7,3.7 -1.5,0 -2.6,-0.8 -3.7,-2 -2.2,-2.4 -4.8,-4 -9.1,-4 -5.2,0 -9.1,2.5 -10.7,7.5 -0.8,2.5 -1.1,5.5 -1.1,9.7 0,4.3 0.3,7.3 1.1,9.8 1.6,5 5.5,7.5 10.7,7.5 4.3,0 6.9,-1.6 9.1,-4 1.1,-1.2 2.2,-2 3.7,-2 2.1,0 3.7,1.6 3.7,3.7 0,1.1 -0.4,2 -1.2,3.1 -3,3.9 -8.1,7 -15.4,7 -9.2,0.3 -16.2,-4.3 -19,-12.6 z"
         class="st0" />
      <path
         style="fill:#c0c0c0;fill-opacity:1"
         id="path12"
         d="m 692.1,70.3 c 0,2.3 -1.8,4 -4.3,4 -1.5,0 -2.7,-0.7 -3.7,-2.1 l -1.9,-3 h -0.1 c -3.2,3.6 -7.7,5.7 -14.8,5.7 -10.7,0 -17,-5.3 -17,-14.5 0,-9.9 6.8,-14.9 18.8,-14.9 H 680 c 0.4,0 0.6,-0.2 0.6,-0.6 v -2.3 c 0,-6.7 -3.1,-10.5 -11.6,-10.5 -3.7,0 -7.5,1.2 -9.8,2.4 -0.8,0.4 -1.7,0.7 -2.4,0.7 -2.2,0 -3.6,-1.4 -3.6,-3.6 0,-1.3 0.6,-2.6 2,-3.4 3,-2 8,-3.6 14.7,-3.6 12.9,0 18.9,6.1 18.9,18 v 17.3 c 0,2.5 0.2,3.5 0.9,4.9 l 1.7,3.1 c 0.4,0.7 0.7,1.6 0.7,2.4 z m -11.4,-12 V 53 c 0,-0.4 -0.2,-0.6 -0.6,-0.6 h -9.6 c -8.2,0 -12,2.4 -12,7.8 0,5 3.6,7.5 10,7.5 7.4,0 12.2,-3.5 12.2,-9.4 z"
         class="st0" />
      <path
         style="fill:#c0c0c0;fill-opacity:1"
         id="path14"
         d="m 702.1,69.6 c -1.3,-0.9 -2,-2.1 -2,-3.5 0,-2 1.6,-3.8 3.9,-3.8 0.8,0 1.6,0.2 2.8,0.9 3.9,2.3 8,4.2 13.5,4.2 6.9,0 10.5,-3 10.5,-7.2 0,-4 -1.8,-6 -9.4,-6.8 l -5,-0.5 C 707,51.9 702,47.1 702,39.3 c 0,-9.1 6.5,-14.7 17.8,-14.7 5.6,0 10.6,1.4 14.4,3.5 1.7,0.9 2.5,2 2.5,3.5 0,2 -1.6,3.6 -3.6,3.6 -0.8,0 -1.7,-0.2 -3,-0.8 -3.2,-1.5 -6.8,-2.5 -10.6,-2.5 -6,0 -9.1,2.7 -9.1,6.6 0,3.8 2.2,5.8 9.4,6.5 l 5,0.5 c 10,1.1 14.5,5.8 14.5,13.7 0,9.4 -6.8,15.7 -19.6,15.7 -7.5,0 -13.6,-2.5 -17.6,-5.3 z"
         class="st0" />
      <path
         style="fill:#c0c0c0;fill-opacity:1"
         id="path16"
         d="m 765.3,74.3 c -9.8,0 -13.5,-4.1 -13.5,-14.2 v -27 c 0,-0.4 -0.2,-0.6 -0.6,-0.6 h -2.7 c -2.3,0 -3.6,-1.4 -3.6,-3.4 0,-2 1.3,-3.4 3.6,-3.4 h 2.7 c 0.4,0 0.6,-0.2 0.6,-0.6 V 14.6 c 0,-2.8 1.8,-4.5 4.2,-4.5 2.4,0 4.2,1.7 4.2,4.5 v 10.5 c 0,0.4 0.2,0.6 0.6,0.6 h 6.3 c 2.3,0 3.6,1.4 3.6,3.4 0,2 -1.3,3.4 -3.6,3.4 h -6.3 c -0.4,0 -0.6,0.2 -0.6,0.6 v 26.7 c 0,5.1 1.3,6.6 6.4,6.6 2.6,0 4.1,1.6 4.1,3.9 0,2.3 -1.5,3.9 -4.5,3.9 h -0.9 z"
         class="st0" />
    </g>
    <path
       id="path20"
       d="m 370.8,50 c 0,-15.8 12,-27 28,-27 16,0 28,11.1 28,27 0,15.9 -12,27 -28,27 -16,0 -28,-11.3 -28,-27 z m 40.2,0 c 0,-7.4 -4.7,-12.8 -12,-12.8 -7.3,0 -12,5.4 -12,12.8 0,7.4 4.7,12.8 12,12.8 7.3,0 12,-5.3 12,-12.8 z M 360.2,37.5 c 1.1,2.1 1.5,4.4 1.5,6.8 0,5.7 -3,11 -7.8,15.1 6.6,3.2 10.5,10.8 10.5,18.1 0,13.6 -11,22.6 -27.7,22.6 -16.7,0 -27.7,-9 -27.7,-22.7 -0.2,-7.5 3.9,-14.5 10.5,-18.1 -5,-4.1 -7.8,-9.3 -7.8,-15.1 0,-11.9 9.3,-20.6 24.1,-20.6 8.7,0 11.3,1.5 16.3,1.5 3.3,0.2 6.8,-0.8 9.6,-2.6 1.1,-0.6 2.1,-1.1 3.3,-1.1 2,0 3,2 3,4.4 0.5,5.4 -2.8,10 -7.8,11.7 z M 348.9,77 c 0,-6 -4.7,-10.2 -12,-10.2 -7.3,0 -12,4.1 -12,10.2 0,5.7 5.1,10.2 12,10.2 6.9,0 12,-4.5 12,-10.2 z M 327.1,45.2 c 0.2,5.3 4.7,9.5 10.1,9.3 5.1,-0.2 9,-4.2 9.3,-9.3 0,-5.4 -3.9,-9.2 -9.6,-9.2 -5.7,0 -9.8,3.6 -9.8,9.2 z m -25.3,5.9 v 18.8 c 0,3.6 -1.4,5.1 -5.3,5.1 h -5.3 c -3.9,0 -5.3,-1.5 -5.3,-5.1 V 51.5 c 0,-4.7 -0.8,-8 -2.4,-10.1 -2,-2.4 -5,-3.6 -8,-3.5 -3.2,-0.2 -6.2,1.2 -8.3,3.5 -1.8,2.1 -3,5.4 -3,9.9 v 18.4 c 0,3.8 -1.7,5.1 -5.3,5.1 h -5.3 c -3.6,0 -5.3,-1.4 -5.3,-5.1 V 27.6 c 0,-2.4 1.2,-3.5 3,-3.5 2.7,0 6.5,2.3 9.3,6.6 4.4,-4.8 10.5,-7.5 17,-7.5 7.7,0 13.9,2.7 17.9,7.2 4.3,4.5 6.3,10.7 6.3,20.7 z M 219.6,8.6 c 0,-4.8 4.1,-8.6 8.7,-8.6 0.2,0 0.2,0 0.3,0 4.7,0.3 8.3,4.4 8,9 -0.3,4.6 -4.4,8.3 -9,8 -4.6,-0.1 -8,-3.9 -8,-8.4 z m 1,61.3 V 30.3 c 0,-3.6 1.4,-5.3 5.3,-5.3 h 5.3 c 3.9,0 5.3,1.5 5.3,5.3 v 39.6 c 0,3.6 -1.4,5.1 -5.3,5.1 h -5.3 c -3.9,0 -5.3,-1.5 -5.3,-5.1 z m -27.8,0 V 20.2 c 0,-12.5 6.9,-19.6 12.8,-19.6 1.8,0 3,1.2 3,3.5 v 65.8 c 0,3.8 -1.5,5.1 -5.3,5.1 H 198 c -3.6,0 -5.2,-1.4 -5.2,-5.1 z M 127.7,50 c 0,-15.8 12,-27 28,-27 16,0 28,11.1 28,27 0,15.9 -12,27 -28,27 -16,0 -28,-11.3 -28,-27 z m 40.1,0 c 0,-7.4 -4.7,-12.8 -12,-12.8 -7.4,0 -12,5.4 -12,12.8 0,7.4 4.7,12.8 12,12.8 7.3,0 12,-5.3 12,-12.8 z M 119.6,30.3 v 42.2 c 0,2.4 -1.2,3.5 -3,3.5 -2.7,0 -6.5,-2.3 -9.2,-6.5 -4.2,4.8 -10.2,7.5 -16.7,7.4 -6,0.2 -11.7,-2 -16.3,-6 C 69.7,66.4 67.2,59.5 67.2,49.5 V 30.3 c 0,-3.6 1.4,-5.3 5.3,-5.3 h 5.3 c 3.9,0 5.3,1.5 5.3,5.3 V 48 c 0,6 1.1,9.2 3,11.3 1.8,1.8 4.5,2.9 7.1,2.7 2.9,0 5.6,-1.1 7.5,-3.2 1.9,-2.1 3,-5.4 3,-10.5 v -18 c 0,-3.8 1.7,-5.3 5.3,-5.3 h 5.3 c 3.6,0 5.3,1.5 5.3,5.3 z M 56.3,4.1 v 68.4 c 0,2.4 -1.2,3.5 -3,3.5 -2.7,0 -6.5,-2.3 -9.2,-6.3 C 40.8,73.5 34,77 26.2,77 10.5,77 0,65.5 0,50 0,34.5 10.8,23 26.2,23 c 5.1,0 10.1,1.5 14.5,4.4 v -7.2 c 0,-12.5 7.1,-19.6 12.8,-19.6 1.8,0 2.8,1.2 2.8,3.5 z M 40.7,50 c 0,-7.7 -5.4,-12.8 -12.2,-12.8 -6.8,0 -12.4,5.1 -12.4,12.8 0,7.7 5.4,12.8 12.3,12.8 6.9,0 12.3,-5 12.3,-12.8 z"
       class="st0"
       style="fill:#c0c0c0;fill-opacity:1" />
  </g>
</svg>
