<?xml version="1.0" encoding="UTF-8" standalone="no"?>
<svg
   xmlns:dc="http://purl.org/dc/elements/1.1/"
   xmlns:cc="http://creativecommons.org/ns#"
   xmlns:rdf="http://www.w3.org/1999/02/22-rdf-syntax-ns#"
   xmlns:svg="http://www.w3.org/2000/svg"
   xmlns="http://www.w3.org/2000/svg"
   xmlns:sodipodi="http://sodipodi.sourceforge.net/DTD/sodipodi-0.dtd"
   xmlns:inkscape="http://www.inkscape.org/namespaces/inkscape"
   inkscape:version="1.0 (4035a4fb49, 2020-05-01)"
   sodipodi:docname="profile.svg"
   id="svg28"
   version="1.1"
   viewBox="0 0 92 46"
   height="46"
   width="92">
  <metadata
     id="metadata34">
    <rdf:RDF>
      <cc:Work
         rdf:about="">
        <dc:format>image/svg+xml</dc:format>
        <dc:type
           rdf:resource="http://purl.org/dc/dcmitype/StillImage" />
      </cc:Work>
    </rdf:RDF>
  </metadata>
  <defs
     id="defs32" />
  <sodipodi:namedview
     inkscape:current-layer="svg28"
     inkscape:window-maximized="1"
     inkscape:window-y="-8"
     inkscape:window-x="-8"
     inkscape:cy="17.172913"
     inkscape:cx="25.240205"
     inkscape:zoom="5.5652174"
     inkscape:snap-page="true"
     showgrid="false"
     id="namedview30"
     inkscape:window-height="745"
     inkscape:window-width="1366"
     inkscape:pageshadow="2"
     inkscape:pageopacity="0"
     guidetolerance="10"
     gridtolerance="10"
     objecttolerance="10"
     borderopacity="1"
     bordercolor="#666666"
     pagecolor="#ffffff"
     inkscape:document-rotation="0" />
  <title
     id="title2">profile</title>
  <path
     d="M 0,0 V 46 H 46 V 0 Z M 23.5,5 C 32.613,5 40,12.387 40,21.5 v 5.998047 A 6.502,6.502 0 0 1 37.5,40 H 9.5 A 6.5,6.5 0 0 1 7,27.498047 V 21.5 C 7,12.387 14.387,5 23.5,5 Z"
     style="fill:#202020;fill-opacity:1;fill-rule:evenodd;stroke-width:4.1;stroke-linecap:round;paint-order:markers fill stroke"
     id="rect859" />
  <path
     d="M 23.5,5 C 14.387,5 7,12.387 7,21.5 v 5.998047 A 6.5,6.5 0 0 0 9.5,40 h 28 A 6.502,6.502 0 0 0 40,27.498047 V 21.5 C 40,12.387 32.613,5 23.5,5 Z"
     style="fill:#000000;fill-opacity:0.201613;fill-rule:evenodd;stroke:none;stroke-width:1"
     id="path4" />
  <path
     d="m 29.603516,10.595703 c -1.491426,4.941164 -4.521764,7.796861 -7.816407,9.283203 -3.364248,1.517745 -6.959532,1.70432 -9.660156,1.722656 a 1.1331133,1.1331133 0 0 1 -0.0078,0 H 11 V 27.5 C 11,34.404 16.596,40 23.5,40 30.404,40 36,34.404 36,27.5 v -6 c 0,-4.685937 -2.581381,-8.764208 -6.396484,-10.904297 z"
     style="fill:#ffad92;fill-opacity:1;fill-rule:evenodd;stroke:none;stroke-width:1"
     id="path6" />
  <path
     d="M 26.5,19 A 1.5,1.5 0 0 0 25,20.5 v 4 a 1.5,1.5 0 0 0 3,0 v -4 A 1.5,1.5 0 0 0 26.5,19 Z m -4.650391,0.847656 c -0.02098,0.0096 -0.0415,0.02178 -0.0625,0.03125 C 20.867333,20.293854 19.931311,20.602084 19,20.841797 V 24.5 a 1.5,1.5 0 0 0 3,0 v -4 a 1.5,1.5 0 0 0 -0.150391,-0.652344 z"
     style="fill:#c97356;fill-rule:evenodd;stroke:none;stroke-width:1"
     id="path8" />
  <path
     d="m 20,28 h 7 c 0.63,0 1,0.385 1,1 0,2.898 -2.281,4.875 -4.5,4.875 -2.219,0 -4.5,-1.977 -4.5,-4.875 0,-0.615 0.37,-1 1,-1 z"
     fill="#ffffff"
     fill-rule="nonzero"
     id="path16"
     style="stroke:none;stroke-width:1" />
  <g
     transform="translate(46)"
     id="g843">
    <path
       id="path841"
       style="color:#000000;font-style:normal;font-variant:normal;font-weight:normal;font-stretch:normal;font-size:medium;line-height:normal;font-family:sans-serif;font-variant-ligatures:normal;font-variant-position:normal;font-variant-caps:normal;font-variant-numeric:normal;font-variant-alternates:normal;font-variant-east-asian:normal;font-feature-settings:normal;font-variation-settings:normal;text-indent:0;text-align:start;text-decoration:none;text-decoration-line:none;text-decoration-style:solid;text-decoration-color:#000000;letter-spacing:normal;word-spacing:normal;text-transform:none;writing-mode:lr-tb;direction:ltr;text-orientation:mixed;dominant-baseline:auto;baseline-shift:baseline;text-anchor:start;white-space:normal;shape-padding:0;shape-margin:0;inline-size:0;clip-rule:nonzero;display:inline;overflow:visible;visibility:visible;opacity:1;isolation:auto;mix-blend-mode:normal;color-interpolation:sRGB;color-interpolation-filters:linearRGB;solid-color:#000000;solid-opacity:1;vector-effect:none;fill:#808080;fill-opacity:1;fill-rule:evenodd;stroke:none;stroke-width:2.6;stroke-linecap:butt;stroke-linejoin:miter;stroke-miterlimit:4;stroke-dasharray:none;stroke-dashoffset:0;stroke-opacity:1;color-rendering:auto;image-rendering:auto;shape-rendering:auto;text-rendering:auto;enable-background:accumulate;stop-color:#000000;stop-opacity:1"
       d="M 23.5,5 C 14.402479,5 7,12.402479 7,21.5 v 5.998047 C 3.8261855,28.820326 2.5753804,32.024789 3.125,34.773438 3.6746196,37.522084 6.0617561,39.999868 9.5,40 h 12.560547 c 0.472596,0.05953 0.951113,0.09961 1.439453,0.09961 0.48834,0 0.966857,-0.04008 1.439453,-0.09961 h 12.558594 c 3.440806,0.0032 5.830968,-2.474605 6.380859,-5.224609 C 44.428704,32.025854 43.176259,28.818668 40,27.498047 V 21.5 C 40,12.402479 32.597521,5 23.5,5 Z m 0,2.5996094 c 7.692479,0 13.900391,6.2079116 13.900391,13.9003906 v 7.732422 L 39,29.898438 h 0.002 c 2.07664,0.862823 2.669368,2.660632 2.328125,4.367187 -0.341243,1.706555 -1.579371,3.136847 -3.828125,3.134766 H 37.5 30.882812 C 33.395583,35.288405 35,32.127692 35,28.599609 v -6 c 0,-4.739675 -2.899845,-8.920406 -7.164062,-10.654297 l -1.13086,-0.458984 -0.529297,1.09961 C 24.633344,15.786191 21.066895,18 17,18 16.074917,18 15.168619,17.887424 14.298828,17.667969 l -1.117187,-0.283203 -0.414063,1.076172 C 12.25863,19.782184 11.997928,21.185682 12,22.601562 v 5.998047 c 0,3.528083 1.604417,6.688796 4.117188,8.800782 H 9.5 C 7.2531777,37.400304 6.0168545,35.969379 5.6757812,34.263672 5.334708,32.557965 5.925977,30.762519 8,29.898438 L 9.5996094,29.232422 V 21.5 C 9.5996094,13.807521 15.807521,7.5996094 23.5,7.5996094 Z m 4.226562,7.2695316 c 2.785651,1.527237 4.673829,4.404663 4.673829,7.730468 v 6 c 0,4.498332 -3.306557,8.185982 -7.628907,8.800782 h -2.542968 c -4.32235,-0.6148 -7.628907,-4.30245 -7.628907,-8.800782 v -6 -0.002 c -0.0011,-0.766568 0.221971,-1.503429 0.416016,-2.242187 0.659405,0.0971 1.308466,0.24414 1.984375,0.24414 0.681033,0 1.348728,-0.05636 2.001953,-0.15625 A 1.5,1.5 0 0 0 19,20.5 v 4 a 1.5,1.5 0 0 0 3,0 v -4 a 1.5,1.5 0 0 0 -0.228516,-0.794922 c 2.465916,-0.966126 4.55102,-2.663162 5.955078,-4.835937 z M 26.5,19 C 25.669,19 25,19.669 25,20.5 v 4 c 0,0.831 0.669,1.5 1.5,1.5 0.831,0 1.5,-0.669 1.5,-1.5 v -4 C 28,19.669 27.331,19 26.5,19 Z" />
  </g>
</svg>
