<?xml version="1.0" encoding="UTF-8" standalone="no"?>
<svg
   xmlns:dc="http://purl.org/dc/elements/1.1/"
   xmlns:cc="http://creativecommons.org/ns#"
   xmlns:rdf="http://www.w3.org/1999/02/22-rdf-syntax-ns#"
   xmlns:svg="http://www.w3.org/2000/svg"
   xmlns="http://www.w3.org/2000/svg"
   xmlns:sodipodi="http://sodipodi.sourceforge.net/DTD/sodipodi-0.dtd"
   xmlns:inkscape="http://www.inkscape.org/namespaces/inkscape"
   inkscape:version="1.0 (4035a4fb49, 2020-05-01)"
   sodipodi:docname="special-char-down.svg"
   id="svg10"
   version="1.1"
   viewBox="0 0 24 17"
   height="17"
   width="24">
  <metadata
     id="metadata16">
    <rdf:RDF>
      <cc:Work
         rdf:about="">
        <dc:format>image/svg+xml</dc:format>
        <dc:type
           rdf:resource="http://purl.org/dc/dcmitype/StillImage" />
      </cc:Work>
    </rdf:RDF>
  </metadata>
  <defs
     id="defs14" />
  <sodipodi:namedview
     inkscape:current-layer="svg10"
     inkscape:window-maximized="1"
     inkscape:window-y="-8"
     inkscape:window-x="-8"
     inkscape:cy="8.5"
     inkscape:cx="12"
     inkscape:zoom="30.117647"
     showgrid="false"
     id="namedview12"
     inkscape:window-height="745"
     inkscape:window-width="1366"
     inkscape:pageshadow="2"
     inkscape:pageopacity="0"
     guidetolerance="10"
     gridtolerance="10"
     objecttolerance="10"
     borderopacity="1"
     bordercolor="#666666"
     pagecolor="#ffffff"
     inkscape:document-rotation="0" />
  <title
     id="title2">special char down</title>
  <g
     id="g837">
    <path
       style="fill:#606060;fill-opacity:1;fill-rule:evenodd;stroke:none;stroke-width:1"
       id="path4"
       d="m 1.262,12.18 c 0,-2.98 3.68,-3.48 5.96,-3.48 h 0.42 V 8.46 c 0,-1.34 -0.86,-1.8 -1.9,-1.8 -0.86,0 -1.64,0.32 -2.12,0.58 -0.5,0.22 -0.88,0.14 -1.12,-0.34 L 2.302,6.52 C 2.062,6.06 2.142,5.66 2.622,5.4 c 0.66,-0.34 1.82,-0.84 3.34,-0.84 2.64,0 4.22,1.48 4.22,4.06 v 5.54 c 0,0.56 -0.28,0.84 -0.84,0.84 h -0.68 c -0.54,0 -0.82,-0.28 -0.82,-0.84 v -0.4 c 0,-0.28 0.04,-0.44 0.04,-0.44 h -0.04 c 0,0 -0.96,1.92 -3.2,1.92 -1.86,0 -3.38,-1.2 -3.38,-3.06 z m 2.52,-0.22 c 0,0.68 0.52,1.34 1.54,1.34 1.42,0 2.34,-1.44 2.34,-2.68 v -0.38 h -0.42 c -1.28,0 -3.46,0.2 -3.46,1.72 z m 2.12,-8.44 c -0.58,0 -0.8,-0.42 -0.5,-0.94 l 0.7,-1.2 C 6.342,0.96 6.642,0.8 7.082,0.8 h 0.72 c 0.72,0 0.88,0.46 0.44,1 l -0.9,1.22 c -0.28,0.34 -0.58,0.5 -1.02,0.5 z" />
    <path
       style="fill:#606060;fill-opacity:1;stroke:none;stroke-width:1"
       id="path6"
       fill-rule="nonzero"
       d="m 21.546,7.547 a 1,1 0 1 1 1.344,1.48 l -3.168,2.877 a 1,1 0 0 1 -1.345,0 L 15.21,9.027 a 1,1 0 0 1 1.344,-1.48 l 2.497,2.266 2.496,-2.266 z" />
  </g>
</svg>
