<?xml version="1.0" encoding="UTF-8" standalone="no"?>
<svg
   xmlns:dc="http://purl.org/dc/elements/1.1/"
   xmlns:cc="http://creativecommons.org/ns#"
   xmlns:rdf="http://www.w3.org/1999/02/22-rdf-syntax-ns#"
   xmlns:svg="http://www.w3.org/2000/svg"
   xmlns="http://www.w3.org/2000/svg"
   xmlns:xlink="http://www.w3.org/1999/xlink"
   xmlns:sodipodi="http://sodipodi.sourceforge.net/DTD/sodipodi-0.dtd"
   xmlns:inkscape="http://www.inkscape.org/namespaces/inkscape"
   inkscape:version="1.0 (4035a4fb49, 2020-05-01)"
   sodipodi:docname="ad-blocker.svg"
   id="svg78"
   version="1.1"
   viewBox="0 0 124 107"
   height="107"
   width="124">
  <metadata
     id="metadata82">
    <rdf:RDF>
      <cc:Work
         rdf:about="">
        <dc:format>image/svg+xml</dc:format>
        <dc:type
           rdf:resource="http://purl.org/dc/dcmitype/StillImage" />
      </cc:Work>
    </rdf:RDF>
  </metadata>
  <sodipodi:namedview
     inkscape:current-layer="svg78"
     inkscape:window-maximized="1"
     inkscape:window-y="-8"
     inkscape:window-x="-8"
     inkscape:cy="50.90462"
     inkscape:cx="53.689979"
     inkscape:zoom="1.6917695"
     inkscape:snap-page="true"
     showgrid="false"
     id="namedview80"
     inkscape:window-height="745"
     inkscape:window-width="1366"
     inkscape:pageshadow="2"
     inkscape:pageopacity="0"
     guidetolerance="10"
     gridtolerance="10"
     objecttolerance="10"
     borderopacity="1"
     bordercolor="#666666"
     pagecolor="#ffffff"
     inkscape:document-rotation="0" />
  <title
     id="title2">plus duo ad blocker</title>
  <defs
     id="defs5">
    <path
       id="a"
       d="M7.742.39a6.852 6.852 0 0 1 6.852 6.853v5.784a6.852 6.852 0 0 1-13.704 0V7.243A6.852 6.852 0 0 1 7.742.39z" />
  </defs>
  <g
     id="g1690">
    <g
       id="g1652"
       style="fill:#000000;fill-opacity:0.39919403">
      <path
         d="m 62.679688,-37.46875 c -12.940811,0 -24.792736,4.647031 -33.990235,12.35742 -3.476116,-2.20224 -7.261489,-3.97133 -11.300781,-5.210936 -4.069,-1.249 -8.1696564,1.861536 -8.0976564,6.144536 L 9.890625,11.58594 c -0.093612,1.2868 -0.1582031,2.58189 -0.1582031,3.89258 V 53.27148 A 41.769,41.769 0 0 0 36.078125,92.08984 c 8.867,3.523 17.733562,5.28321 26.601563,5.28321 8.867998,0 17.735515,-1.76021 26.603515,-5.28321 A 41.769,41.769 0 0 0 115.63086,53.27148 V 15.47852 c 0,-1.77652 -0.0908,-3.5321 -0.26172,-5.26368 l -0.0918,-34.62304 c -0.011,-4.279 -4.17465,-7.323675 -8.22265,-6.013675 -3.81774,1.235615 -7.398128,2.943895 -10.693362,5.042965 -9.153248,-7.553231 -20.888266,-12.08984 -33.68164,-12.08984 z"
         style="fill-opacity:0.39919403;fill-rule:evenodd;stroke:none;stroke-width:1;fill:#000000"
         id="path7" />
      <path
         style="color:#000000;font-style:normal;font-variant:normal;font-weight:normal;font-stretch:normal;font-size:medium;line-height:normal;font-family:sans-serif;font-variant-ligatures:normal;font-variant-position:normal;font-variant-caps:normal;font-variant-numeric:normal;font-variant-alternates:normal;font-variant-east-asian:normal;font-feature-settings:normal;font-variation-settings:normal;text-indent:0;text-align:start;text-decoration:none;text-decoration-line:none;text-decoration-style:solid;text-decoration-color:#000000;letter-spacing:normal;word-spacing:normal;text-transform:none;writing-mode:lr-tb;direction:ltr;text-orientation:mixed;dominant-baseline:auto;baseline-shift:baseline;text-anchor:start;white-space:normal;shape-padding:0;shape-margin:0;inline-size:0;clip-rule:nonzero;display:inline;overflow:visible;visibility:visible;isolation:auto;mix-blend-mode:normal;color-interpolation:sRGB;color-interpolation-filters:linearRGB;solid-color:#000000;solid-opacity:1;vector-effect:none;fill-opacity:0.39919403;fill-rule:evenodd;stroke:none;stroke-width:2.924;stroke-linecap:butt;stroke-linejoin:miter;stroke-miterlimit:4;stroke-dasharray:none;stroke-dashoffset:0;stroke-opacity:1;color-rendering:auto;image-rendering:auto;shape-rendering:auto;text-rendering:auto;enable-background:accumulate;stop-color:#000000;fill:#000000"
         d="m 90.472,85.788 c -7.892,4.041 -17.23,6.055 -27.999,6.055 -10.768,0 -20.106,-2.014 -27.999,-6.055 C 22.404473,79.60737 14.811887,67.189 14.812,53.629 v -17.02 c 0,-4.508 2.239,-8.723 5.975,-11.247 12.254,-8.28 26.23,-12.422 41.89,-12.422 15.652,0 29.522,4.138 41.568,12.412 3.68683,2.53197 5.88992,6.71747 5.89,11.19 v 17.087 c -8e-5,13.56022 -7.59308,25.97865 -19.663,32.159 z"
         id="path1574" />
      <path
         id="path17"
         fill="#235390"
         d="M 115.366,8.947 106.66,8.623 a 3.776,3.776 0 0 1 -3.626,-3.897 l 0.458,-14.15 a 3.738,3.738 0 0 1 3.872,-3.62 h 0.002 l 7.943,0.297 z"
         style="fill-opacity:0.39919403;fill-rule:evenodd;stroke:none;stroke-width:1;fill:#000000" />
      <rect
         transform="scale(-1)"
         fill="#235390"
         x="-47.108002"
         y="-6.7829905"
         width="21.179001"
         height="7.5139999"
         rx="3.757"
         id="rect21"
         style="fill-opacity:0.39919403;fill-rule:evenodd;stroke:none;stroke-width:1;fill:#000000" />
    </g>
    <g
       style="fill:none;fill-rule:evenodd;stroke:none;stroke-width:1"
       id="g64"
       transform="rotate(180,78.5,48.687)">
      <path
         id="path25"
         fill="#78c800"
         d="m 70.202,11.479 c 11.619,4.741 19.728,7.111 24.324,7.111 4.607,0 12.692,-2.381 24.253,-7.143 a 47.31,47.31 0 0 1 3.071,1.435 c 11.583,5.928 18.876,17.884 18.876,30.944 v 16.91 a 12.15,12.15 0 0 1 -5.338,10.069 c -12.007,8.11 -25.695,12.166 -41.065,12.166 -15.359,0 -28.937,-4.05 -40.733,-12.15 A 12.15,12.15 0 0 1 48.327,60.803 V 43.827 c 0,-13.06 7.293,-25.016 18.876,-30.944 0.977,-0.5 1.976,-0.968 3,-1.404 z" />
      <path
         id="path27"
         fill-rule="nonzero"
         fill="#8ee000"
         d="m 71.616,19.346 15.933,17.397 a 1.85,1.85 0 0 1 -0.616,2.922 C 81.455,42.113 74.922,40.735 70.802,36.139 66.682,31.543 66,24.871 68.997,19.656 c 0.624,-1.086 1.783,-1.243 2.619,-0.31 z" />
      <path
         id="path29"
         fill="#8ee000"
         d="m 84.183,33.424 c 5.32,5.904 15.094,5.878 20.31,-0.026 V 67.63 c 0,-0.07 -6.77,-0.07 -20.31,0 -0.051,-10.059 -0.051,-21.46 0,-34.206 z" />
      <path
         id="path31"
         fill-rule="nonzero"
         fill="#8ee000"
         d="m 63.637,23.508 15.605,17.409 c 0.837,0.933 0.525,2.413 -0.615,2.922 -5.478,2.448 -12.014,1.067 -16.137,-3.532 -4.123,-4.6 -4.807,-11.274 -1.81,-16.49 a 1.833,1.833 0 0 1 2.957,-0.31 z" />
      <path
         id="path33"
         fill="#8ee000"
         d="M 75.17,80.642 A 67.555,67.555 0 0 1 53.59,70.822 12.141,12.141 0 0 1 48.462,62.617 20.34,20.34 0 0 1 48.431,61.479 V 47.063 c 0,-11.006 8.88,-19.928 19.833,-19.928 h 1.446 c 10.954,0 19.833,8.922 19.833,19.928 v 14.416 c 0,9.103 -6.075,16.78 -14.373,19.163 z" />
      <path
         id="path35"
         fill-rule="nonzero"
         fill="#8ee000"
         d="m 116.858,19.333 -15.605,17.409 c -0.837,0.933 -0.525,2.413 0.615,2.922 5.478,2.448 12.014,1.067 16.137,-3.532 4.123,-4.6 4.807,-11.273 1.81,-16.49 a 1.833,1.833 0 0 0 -2.957,-0.31 z" />
      <path
         id="path37"
         fill-rule="nonzero"
         fill="#8ee000"
         d="m 124.748,23.508 -15.605,17.409 c -0.836,0.933 -0.525,2.413 0.615,2.922 5.478,2.448 12.014,1.067 16.137,-3.532 4.123,-4.6 4.807,-11.274 1.81,-16.49 a 1.833,1.833 0 0 0 -2.957,-0.31 z" />
      <path
         id="path39"
         fill="#8ee000"
         d="m 140.546,62.825 a 12.14,12.14 0 0 1 -5.158,7.98 c -6.46,4.364 -13.406,7.554 -20.839,9.57 -8.53,-2.18 -14.858,-9.915 -14.928,-19.16 l -0.11,-14.417 c -0.084,-11.005 8.727,-19.995 19.68,-20.08 h 1.599 c 10.954,0 19.833,8.922 19.833,19.927 v 14.417 c 0,0.594 -0.025,1.182 -0.076,1.763 z" />
      <path
         id="path41"
         fill="#ffffff"
         d="m 68.364,34.65 c 8.027,0 14.535,6.507 14.535,14.535 v 8.92 c 0,8.027 -6.508,14.535 -14.535,14.535 -8.027,0 -14.535,-6.508 -14.535,-14.535 v -8.92 c 0,-8.028 6.508,-14.535 14.535,-14.535 z m 51.495,0 c 8.027,0 14.534,6.507 14.534,14.535 v 8.92 c 0,8.027 -6.507,14.535 -14.534,14.535 -8.028,0 -14.535,-6.508 -14.535,-14.535 v -8.92 c 0,-8.028 6.507,-14.535 14.535,-14.535 z" />
      <g
         id="g50"
         transform="translate(62.906,36.298)">
        <mask
           fill="#ffffff"
           id="b">
          <use
             height="100%"
             width="100%"
             y="0"
             x="0"
             id="use43"
             xlink:href="#a" />
        </mask>
        <use
           height="100%"
           width="100%"
           y="0"
           x="0"
           id="use46"
           xlink:href="#a"
           fill="#4b4b4b" />
        <ellipse
           id="ellipse48"
           ry="4.3829999"
           rx="4.3600001"
           cy="16.979"
           cx="10.901"
           mask="url(#b)"
           fill="#ffffff" />
      </g>
      <path
         id="path52"
         fill="#f49000"
         d="m 94.527,59.28 a 7.475,7.475 0 0 1 7.475,7.476 v 2.166 a 7.475,7.475 0 1 1 -14.95,0 v -2.166 a 7.475,7.475 0 0 1 7.475,-7.475 z" />
      <path
         id="path54"
         fill-rule="nonzero"
         fill="#ffc200"
         d="m 84.145,67.752 c 0.871,-4.77 5.232,-8.471 10.678,-8.471 4.853,0 9.214,3.701 10.086,8.471 v 0.605 L 94.527,70.135 84.145,68.357 Z" />
      <path
         id="path56"
         stroke-linejoin="round"
         stroke-linecap="round"
         stroke-width="2.986"
         stroke="#ffde00"
         d="m 92.035,62.848 c 1.523,-0.606 3.045,-0.606 4.568,0" />
      <g
         id="g62"
         transform="translate(110.463,36.298)">
        <path
           id="path58"
           fill="#4b4b4b"
           d="m 7.112,0.39 a 6.852,6.852 0 0 1 6.852,6.853 v 5.784 a 6.852,6.852 0 1 1 -13.704,0 V 7.243 A 6.852,6.852 0 0 1 7.112,0.39 Z" />
        <ellipse
           id="ellipse60"
           ry="4.3829999"
           rx="4.3600001"
           cy="16.979"
           cx="11.798"
           fill="#ffffff" />
      </g>
    </g>
    <g
       id="g1583">
      <path
         id="path1428"
         d="m 90.472,85.788 c -7.892,4.041 -17.23,6.055 -27.999,6.055 -10.768,0 -20.106,-2.014 -27.999,-6.055 C 22.404473,79.60737 14.811887,67.189002 14.812,53.629 v -17.02 c 0,-4.508 2.239,-8.723 5.975,-11.247 12.254,-8.28 26.23,-12.422 41.89,-12.422 15.652,0 29.522,4.138 41.568,12.412 3.68683,2.531965 5.88992,6.717466 5.89,11.19 v 17.087 c -8e-5,13.560222 -7.59308,25.97865 -19.663,32.159 z"
         style="color:#000000;font-style:normal;font-variant:normal;font-weight:normal;font-stretch:normal;font-size:medium;line-height:normal;font-family:sans-serif;font-variant-ligatures:normal;font-variant-position:normal;font-variant-caps:normal;font-variant-numeric:normal;font-variant-alternates:normal;font-variant-east-asian:normal;font-feature-settings:normal;font-variation-settings:normal;text-indent:0;text-align:start;text-decoration:none;text-decoration-line:none;text-decoration-style:solid;text-decoration-color:#000000;letter-spacing:normal;word-spacing:normal;text-transform:none;writing-mode:lr-tb;direction:ltr;text-orientation:mixed;dominant-baseline:auto;baseline-shift:baseline;text-anchor:start;white-space:normal;shape-padding:0;shape-margin:0;inline-size:0;clip-rule:nonzero;display:inline;overflow:visible;visibility:visible;opacity:1;isolation:auto;mix-blend-mode:normal;color-interpolation:sRGB;color-interpolation-filters:linearRGB;solid-color:#000000;solid-opacity:1;vector-effect:none;fill:#ffffff;fill-opacity:0.34677419;fill-rule:evenodd;stroke:none;stroke-width:2.924;stroke-linecap:butt;stroke-linejoin:miter;stroke-miterlimit:4;stroke-dasharray:none;stroke-dashoffset:0;stroke-opacity:1;color-rendering:auto;image-rendering:auto;shape-rendering:auto;text-rendering:auto;enable-background:accumulate;stop-color:#000000" />
      <path
         d="m 57.917969,-25.361328 c -2.3,0 -4.164063,1.873594 -4.164063,4.183594 v 33.11914 C 41.375908,13.24611 30.080947,17.317602 19.96875,24.150391 c -4.137108,2.794984 -6.619141,7.466894 -6.619141,12.458984 v 17.019531 c -1.17e-4,14.10575 7.903697,27.031558 20.458985,33.460938 5.8968,3.019 12.557443,4.921009 19.945312,5.742187 v 3.947266 c 2.975358,0.396828 5.950424,0.59375 8.925782,0.59375 a 67.475,67.475 0 0 0 8.929687,-0.59375 V 92.785156 C 78.831841,91.939267 85.353653,90.05199 91.138672,87.089844 103.69436,80.66075 111.59757,67.734885 111.59766,53.628906 v -17.08789 c -9e-5,-4.952622 -2.44282,-9.590782 -6.52539,-12.394532 C 95.130835,17.318046 83.942731,13.24968 71.609375,11.943359 v -33.121093 c 0,-2.311 -1.864063,-4.183594 -4.164063,-4.183594 z m 4.759765,39.763672 c 15.394323,0 28.938432,4.048028 40.740236,12.154297 3.29108,2.26018 5.25579,5.993881 5.25586,9.986328 v 17.085937 c -8e-5,13.014466 -7.28305,24.925808 -18.867189,30.857422 -7.650977,3.917587 -16.747265,5.894531 -27.333985,5.894531 -10.585702,0 -19.67999,-1.976895 -27.332031,-5.894531 C 23.556859,78.554451 16.273329,66.64316 16.273438,53.628906 V 36.609375 c 0,-4.02391 1.997139,-7.782141 5.332031,-10.035156 12.014125,-8.117917 25.67006,-12.171875 41.072265,-12.171875 z"
         style="fill:#ffffff;fill-opacity:1;fill-rule:evenodd;stroke:none;stroke-width:1"
         id="path11" />
    </g>
  </g>
</svg>
