<?xml version="1.0" encoding="UTF-8" standalone="no"?>
<svg
   xmlns:dc="http://purl.org/dc/elements/1.1/"
   xmlns:cc="http://creativecommons.org/ns#"
   xmlns:rdf="http://www.w3.org/1999/02/22-rdf-syntax-ns#"
   xmlns:svg="http://www.w3.org/2000/svg"
   xmlns="http://www.w3.org/2000/svg"
   xmlns:sodipodi="http://sodipodi.sourceforge.net/DTD/sodipodi-0.dtd"
   xmlns:inkscape="http://www.inkscape.org/namespaces/inkscape"
   width="320px"
   height="320px"
   viewBox="0 0 320 320"
   version="1.1"
   id="svg56"
   sodipodi:docname="chill.svg"
   inkscape:version="1.0 (4035a4fb49, 2020-05-01)">
  <metadata
     id="metadata62">
    <rdf:RDF>
      <cc:Work
         rdf:about="">
        <dc:format>image/svg+xml</dc:format>
        <dc:type
           rdf:resource="http://purl.org/dc/dcmitype/StillImage" />
      </cc:Work>
    </rdf:RDF>
  </metadata>
  <defs
     id="defs60" />
  <sodipodi:namedview
     inkscape:document-rotation="0"
     pagecolor="#ffffff"
     bordercolor="#666666"
     borderopacity="1"
     objecttolerance="10"
     gridtolerance="10"
     guidetolerance="10"
     inkscape:pageopacity="0"
     inkscape:pageshadow="2"
     inkscape:window-width="1366"
     inkscape:window-height="745"
     id="namedview58"
     showgrid="false"
     inkscape:snap-page="true"
     inkscape:zoom="2.2627418"
     inkscape:cx="183.21833"
     inkscape:cy="183.33396"
     inkscape:window-x="-8"
     inkscape:window-y="-8"
     inkscape:window-maximized="1"
     inkscape:current-layer="svg56" />
  <title
     id="title2">duo_plus_drink</title>
  <desc
     id="desc4">Created with Sketch.</desc>
  <g
     id="g899">
    <path
       d="M 135.5957 73.806641 C 129.35462 73.946499 123.30588 74.836713 117.44922 76.478516 C 108.07856 79.1054 99.199033 83.655093 90.8125 90.126953 C 87.391214 92.767148 84.411221 95.845081 81.898438 99.236328 C 70.519684 97.912918 59.588318 105.08983 56.535156 116.48438 L 48.003906 148.39453 C 44.649646 160.9128 52.07224 173.78052 64.587891 177.14453 L 93.628906 184.96484 C 95.019616 187.31236 96.591176 189.58989 98.359375 191.77344 L 109.60352 205.6582 C 129.21369 229.87475 164.74243 233.61017 188.95898 214 C 211.63519 195.63717 216.35064 163.31704 200.75781 139.39648 L 207.66602 113.61719 C 211.02213 101.09202 203.58961 88.217436 191.06445 84.861328 L 157.60156 75.894531 C 155.5026 75.332115 153.3944 75.078949 151.32227 75.095703 C 149.91518 74.786172 148.48787 74.535896 147.03711 74.365234 C 143.15407 73.90845 139.34035 73.722725 135.5957 73.806641 z "
       style="fill-rule:evenodd;stroke:none;fill:#000000;fill-opacity:0.39112905"
       id="Rectangle-63" />
    <path
       d="m 188.92914,191.09379 c -2.40931,2.19822 -5.0083,4.20677 -7.78188,6.00796 l -1.02297,0.66432 c -0.73673,0.47844 -1.48195,0.93976 -2.23526,1.38383 l -1.85799,1.09525 -0.0948,-2.1547 c -0.58933,-13.4006 -4.71382,-22.81375 -11.35317,-29.39978 -2.22263,-2.20479 -4.53649,-3.92011 -7.21463,-5.52228 -0.45817,-0.2741 -0.90781,-0.53408 -1.4547,-0.84352 -0.0178,-0.0101 -0.98894,-0.55679 -1.23222,-0.6962 -0.96985,-0.5558 -1.45282,-0.87759 -1.80222,-1.26871 -1.76081,-1.97109 -1.44068,-7.00279 0.98293,-9.63072 3.2735,-3.54949 9.16039,-2.84181 17.29639,2.8638 10.74617,7.53605 16.21375,20.83531 18.18267,36.38059 l 0.0845,0.66701 z"
       id="Path"
       stroke="#ffffff"
       stroke-width="2.59182"
       fill="#ffffff"
       stroke-linecap="square"
       stroke-linejoin="round"
       style="fill-rule:evenodd" />
    <path
       d="M 135.02148 73.822266 C 129.67521 73.981886 124.46936 74.694999 119.40625 75.960938 C 121.23897 77.274962 123.19472 78.914772 125.19141 80.941406 C 125.49347 81.248 125.77772 81.568771 126.05664 81.896484 C 126.9487 81.585978 127.84522 81.280041 128.76758 80.998047 C 132.41872 79.881779 135.95439 79.108297 139.38477 78.652344 C 138.88975 76.935386 137.66961 75.275014 135.02148 73.822266 z "
       style="fill-rule:evenodd;stroke:none;fill:#ffffff;fill-opacity:0.99596769"
       id="path12" />
    <path
       d=""
       id="Path-35"
       stroke="#979797"
       stroke-width="0.671495"
       style="fill:none;fill-rule:evenodd" />
    <path
       d="M 225.64648 181.19531 C 222.58218 181.24488 219.6988 183.09495 218.47852 186.11523 L 214.05859 197.05469 C 213.43981 198.58624 213.3392 200.19603 213.67188 201.69531 C 210.71486 203.19906 208.92176 206.48008 209.46875 209.93359 C 210.14819 214.22344 214.17695 217.15014 218.4668 216.4707 L 230.11914 214.625 C 234.40898 213.94556 237.33569 209.9168 236.65625 205.62695 C 236.11374 202.20171 233.43431 199.65284 230.19336 199.10742 L 233.0625 192.00781 C 234.68953 187.98075 232.74386 183.39657 228.7168 181.76953 C 227.71003 181.36277 226.66792 181.17879 225.64648 181.19531 z "
       style="fill-rule:evenodd;stroke:none;fill:#000000;fill-opacity:0.60483873"
       id="Rectangle-4-Copy-44" />
    <path
       d="m 106.00101,93.424202 c 6.11873,-5.517606 13.71319,-9.658487 22.76606,-12.426225 3.90781,-1.19474 7.68917,-2.011941 11.34409,-2.45017 19.52842,-2.341482 37.92867,9.644983 43.67912,28.453863 l 6.05898,19.81801 c 1.32378,4.32989 0.65661,9.02403 -1.82117,12.81361 -7.89675,12.07751 -19.23019,20.37914 -33.93764,24.87566 -14.72355,4.50144 -29.57958,4.19829 -44.51799,-0.90419 -4.63553,-1.58335 -8.22929,-5.29561 -9.661471,-9.98006 l -5.552001,-18.15978 c -4.61205,-15.08533 -0.07291,-31.47669 11.642022,-42.040718 z"
       id="Mask-Copy-11"
       stroke="#ffffff"
       stroke-width="3.28704"
       fill="#235390"
       style="fill-rule:evenodd;fill:#000000;fill-opacity:0.39919358" />
    <path
       d="m 151.2688,80.413425 c 14.31745,2.351991 26.52911,12.609419 30.94978,27.068765 l 6.05897,19.81801 c 1.18122,3.86359 0.5859,8.05221 -1.62504,11.43368 -7.68231,11.74954 -18.6965,19.81733 -33.04257,24.20336 -14.39064,4.39966 -28.89272,4.10373 -43.50624,-0.88778 -4.13632,-1.41283 -7.34306,-4.72531 -8.62101,-8.90528 L 95.930693,134.9844 c -4.277906,-13.9924 -0.350597,-29.15582 10.069787,-39.307502 14.58719,-0.128203 24.42553,-0.874166 29.51501,-2.23789 4.23249,-1.134092 8.15918,-4.135377 11.78006,-9.003854 1.15928,-1.558714 2.50086,-2.901813 3.97325,-4.021729 z"
       id="path19"
       fill="#78c800"
       style="fill-rule:evenodd;stroke:none" />
    <path
       d="m 168.97789,88.192065 c 6.11275,4.784129 10.83263,11.413712 13.24069,19.290125 l 6.05897,19.81801 c 1.18122,3.86359 0.5859,8.05221 -1.62504,11.43368 -2.53066,3.87047 -5.42288,7.34142 -8.67666,10.41285 -8.19113,0.90194 -16.16881,-3.98527 -18.88449,-12.08926 l -12.39111,4.02611 c 1.08762,10.28267 -5.10837,20.2768 -15.33594,23.59994 l -2.19667,0.71374 c -0.46305,0.15046 -0.92746,0.28499 -1.39262,0.40391 -5.87222,-0.48293 -11.76266,-1.7335 -17.67132,-3.75171 -1.05011,-0.35868 -2.0403,-0.8398 -2.95423,-1.42647 -2.75992,-2.52304 -4.92394,-5.77385 -6.16202,-9.58425 l -2.513726,-7.73646 -2.194553,-7.17806 c -1.603582,-7.66193 0.960052,-15.41877 6.348809,-20.63653 -0.55465,-2.22816 -0.62664,-4.57439 -0.15119,-6.8825 0.28478,-1.38251 1.85788,-2.06167 3.10671,-1.34127 l 5.4161,3.1243 0.0186,-0.006 c -1.18654,-2.86463 -1.53881,-6.04139 -0.89866,-9.14903 0.28478,-1.382521 1.4895,-1.946381 2.73833,-1.22598 l 20.15825,11.34919 c 0.19395,0.0592 0.40639,0.15566 0.63732,0.28935 6.47889,3.75092 13.96027,0.34727 16.49133,-5.41584 0.39897,-0.88242 0.80197,-1.57696 1.209,-2.0836 l 7.85877,-17.038215 c 0.47577,-1.067273 1.71785,-1.18976 2.78864,-0.318542 2.03621,1.65671 3.57773,3.660822 4.55179,5.803976 0.16432,-0.02463 0.32861,-0.04691 0.49284,-0.06685 z"
       id="path21"
       fill="#8ee000"
       style="fill-rule:evenodd;stroke:none" />
    <path
       d="m 132.73111,126.1864 0.99463,2.88864 c 1.64797,4.78605 -1.09415,10.07011 -6.12471,11.80226 -5.03055,1.73216 -10.44456,-0.74351 -12.09254,-5.52956 l -0.99463,-2.88864 z"
       id="Rectangle-64"
       stroke="#68ad00"
       stroke-width="4.47216"
       stroke-linecap="round"
       stroke-linejoin="round"
       style="fill:none;fill-rule:evenodd" />
    <path
       d="m 173.23243,113.03455 1.44674,4.20166 c 1.39828,4.06089 -0.8266,8.50929 -4.96941,9.93577 -4.14281,1.42649 -8.63475,-0.70912 -10.03303,-4.77002 l -1.44674,-4.20166 z"
       id="Rectangle-3"
       stroke="#68ad00"
       stroke-width="4.47216"
       stroke-linecap="round"
       stroke-linejoin="round"
       style="fill:none;fill-rule:evenodd" />
    <path
       d="m 151.81888,134.26528 0.36425,-0.0708 c 4.55053,-0.88453 8.95652,2.08735 9.84106,6.63788 l 1.33692,6.87788 c 0.88453,4.55053 -2.08735,8.95652 -6.63788,9.84106 l -0.36424,0.0708 c -4.55054,0.88453 -8.95653,-2.08735 -9.84106,-6.63788 l -1.33693,-6.87788 c -0.88453,-4.55053 2.08735,-8.95652 6.63788,-9.84106 z"
       id="Rectangle-2-Copy-2"
       fill="#f49000"
       style="fill-rule:evenodd;stroke:none" />
    <path
       d="m 152.01936,136.12744 c 4.06246,-0.78966 7.99587,1.86346 8.78553,5.92591 l 1.36282,7.01108 c 0.52262,2.68864 -1.2333,5.29189 -3.92194,5.81451 -2.86615,0.55712 -5.74633,-0.89457 -7.00339,-3.52989 l -3.35259,-7.02845 c -1.37955,-2.89211 -0.15338,-6.35497 2.73873,-7.73451 0.44238,-0.21102 0.90972,-0.36513 1.39084,-0.45865 z"
       id="Rectangle-2-Copy-3"
       fill="#b86d00"
       style="fill-rule:evenodd;stroke:none" />
    <path
       d="m 116.75579,117.85 c 7.48837,-2.72554 15.76838,1.13549 18.49393,8.62386 l 3.07632,8.45213 c 2.72555,7.48837 -1.13549,15.76838 -8.62386,18.49393 -7.48837,2.72554 -15.76838,-1.13549 -18.49393,-8.62386 l -3.07632,-8.45213 c -2.72554,-7.48837 1.13549,-15.76838 8.62386,-18.49393 z"
       id="Rectangle-130"
       fill="#ffffff"
       style="fill-rule:evenodd;stroke:none" />
    <path
       d="m 118.31894,126.54902 c 3.61722,-1.53542 7.79426,0.15221 9.32968,3.76944 l 2.8664,6.75281 c 1.53542,3.61722 -0.15221,7.79426 -3.76944,9.32968 -3.61722,1.53542 -7.79426,-0.15221 -9.32968,-3.76944 l -2.8664,-6.75281 c -1.53542,-3.61722 0.15221,-7.79426 3.76944,-9.32968 z"
       id="Rectangle-130-Copy-40"
       fill="#4b4b4b"
       style="fill-rule:evenodd;stroke:none" />
    <ellipse
       id="Oval-10-Copy-4"
       fill="#ffffff"
       transform="rotate(-23)"
       cx="54.60627"
       cy="169.70293"
       rx="4.8897347"
       ry="4.795011"
       style="fill-rule:evenodd;stroke:none" />
    <path
       d="m 162.14364,102.80484 c 5.98993,-2.18016 12.61309,0.90827 14.79325,6.8982 l 4.91009,13.49038 c 2.18016,5.98993 -0.90827,12.61309 -6.8982,14.79325 -5.98993,2.18015 -12.6131,-0.90828 -14.79325,-6.89821 l -4.9101,-13.49037 c -2.18015,-5.98993 0.90828,-12.6131 6.89821,-14.79325 z"
       id="path30"
       fill="#ffffff"
       style="fill-rule:evenodd;stroke:none" />
    <path
       d="m 158.91588,122.87532 c 0.5351,-4.3e-4 1.0803,-0.0882 1.61602,-0.27268 2.5534,-0.87921 3.92441,-3.62178 3.06224,-6.12571 -0.7272,-2.11195 -2.81084,-3.37957 -4.97754,-3.19714 0.73339,-0.95936 1.74799,-1.72053 2.97535,-2.14314 3.31699,-1.14213 6.93182,0.62094 8.07396,3.93793 l 2.95236,8.57428 c 1.14213,3.31699 -0.62094,6.93182 -3.93793,8.07395 -3.31699,1.14213 -6.93183,-0.62094 -8.07396,-3.93793 z"
       id="path32"
       fill="#4b4b4b"
       style="fill-rule:evenodd;stroke:none" />
    <path
       d="m 144.32402,144.35653 c -0.16127,-5.73536 3.94787,-10.82762 9.74925,-11.9553 5.80138,-1.12767 11.5189,2.05448 13.51788,7.43262 l 0.13725,0.36927 -23.39331,4.5472 z"
       id="Combined-Shape-Copy"
       fill="#ffc200"
       fill-rule="nonzero"
       style="stroke:none" />
    <path
       d="m 152.44237,136.50053 c 1.6018,-0.91845 3.31731,-1.25191 5.14653,-1.00039 z"
       id="Path-37-Copy"
       stroke="#ffde00"
       stroke-width="3.35747"
       stroke-linecap="round"
       stroke-linejoin="round"
       style="fill:none;fill-rule:evenodd" />
    <path
       d="m 188.74069,154.39055 3.28847,-2.30261 c 2.11069,-1.47792 5.01983,-0.96496 6.49775,1.14573 1.47792,2.11069 0.96496,5.01983 -1.14573,6.49775 l -3.28846,2.30261 c -2.11069,1.47792 -5.01984,0.96496 -6.49776,-1.14573 -1.47792,-2.11069 -0.96496,-5.01983 1.14573,-6.49775 z"
       id="Rectangle-Copy"
       fill="#235390"
       style="fill-rule:evenodd;stroke:none;fill:#000000;fill-opacity:0.39919358" />
    <path
       d="M 146.52734 175.88672 C 145.89242 175.8836 145.24546 175.94206 144.5957 176.06836 C 139.58425 177.04249 136.29257 181.63798 136.94336 186.50195 C 139.08552 185.14948 141.7737 183.43094 145.61719 180.94336 C 146.70905 180.24388 148.16184 180.56244 148.86133 181.6543 C 149.1031 182.03169 149.232 182.47172 149.23242 182.91992 C 149.2372 187.68013 149.2411 191.31757 149.24414 194.10742 C 153.81257 192.66807 156.64751 188.10595 155.73438 183.4082 C 154.87359 178.97979 150.97179 175.90856 146.52734 175.88672 z M 143.13867 189.54883 L 138.71875 190.83398 C 140.28922 192.91031 142.6957 194.27447 145.375 194.52539 L 143.13867 189.54883 z "
       style="color:#000000;font-style:normal;font-variant:normal;font-weight:normal;font-stretch:normal;font-size:medium;line-height:normal;font-family:sans-serif;font-variant-ligatures:normal;font-variant-position:normal;font-variant-caps:normal;font-variant-numeric:normal;font-variant-alternates:normal;font-variant-east-asian:normal;font-feature-settings:normal;font-variation-settings:normal;text-indent:0;text-align:start;text-decoration:none;text-decoration-line:none;text-decoration-style:solid;text-decoration-color:#000000;letter-spacing:normal;word-spacing:normal;text-transform:none;writing-mode:lr-tb;direction:ltr;text-orientation:mixed;dominant-baseline:auto;baseline-shift:baseline;text-anchor:start;white-space:normal;shape-padding:0;shape-margin:0;inline-size:0;clip-rule:nonzero;display:inline;overflow:visible;visibility:visible;isolation:auto;mix-blend-mode:normal;color-interpolation:sRGB;color-interpolation-filters:linearRGB;solid-color:#000000;solid-opacity:1;vector-effect:none;fill:#ffffff;fill-opacity:1;fill-rule:evenodd;stroke:none;stroke-width:2.81746;stroke-linecap:butt;stroke-linejoin:miter;stroke-miterlimit:4;stroke-dasharray:none;stroke-dashoffset:0;stroke-opacity:1;color-rendering:auto;image-rendering:auto;shape-rendering:auto;text-rendering:auto;enable-background:accumulate;stop-color:#000000"
       id="path939" />
    <path
       d="M 146.53906 173.07031 C 145.72106 173.0644 144.89175 173.14079 144.05859 173.30273 C 137.39337 174.59832 132.97415 181.00021 134.25391 187.58398 C 135.53367 194.16775 142.02814 198.44792 148.69336 197.15234 C 155.35858 195.85675 159.7778 189.45485 158.49805 182.87109 C 157.37826 177.1103 152.26507 173.11172 146.53906 173.07031 z M 146.52734 175.88672 C 150.97179 175.90856 154.87359 178.97979 155.73438 183.4082 C 156.64752 188.10595 153.81257 192.66807 149.24414 194.10742 C 149.2411 191.31757 149.2372 187.68013 149.23242 182.91992 C 149.232 182.47172 149.1031 182.03169 148.86133 181.6543 C 148.16184 180.56244 146.70905 180.24388 145.61719 180.94336 C 141.7737 183.43094 139.08552 185.14948 136.94336 186.50195 C 136.29257 181.63798 139.58425 177.04249 144.5957 176.06836 C 145.24546 175.94206 145.89242 175.8836 146.52734 175.88672 z M 143.13867 189.54883 L 145.375 194.52539 C 142.6957 194.27447 140.28922 192.91031 138.71875 190.83398 L 143.13867 189.54883 z "
       style="color:#000000;font-style:normal;font-variant:normal;font-weight:normal;font-stretch:normal;font-size:medium;line-height:normal;font-family:sans-serif;font-variant-ligatures:normal;font-variant-position:normal;font-variant-caps:normal;font-variant-numeric:normal;font-variant-alternates:normal;font-variant-east-asian:normal;font-feature-settings:normal;font-variation-settings:normal;text-indent:0;text-align:start;text-decoration:none;text-decoration-line:none;text-decoration-style:solid;text-decoration-color:#000000;letter-spacing:normal;word-spacing:normal;text-transform:none;writing-mode:lr-tb;direction:ltr;text-orientation:mixed;dominant-baseline:auto;baseline-shift:baseline;text-anchor:start;white-space:normal;shape-padding:0;shape-margin:0;inline-size:0;clip-rule:nonzero;display:inline;overflow:visible;visibility:visible;isolation:auto;mix-blend-mode:normal;color-interpolation:sRGB;color-interpolation-filters:linearRGB;solid-color:#000000;solid-opacity:1;vector-effect:none;fill:#000000;fill-opacity:0.39516127;fill-rule:evenodd;stroke:none;stroke-width:2.81746;stroke-linecap:butt;stroke-linejoin:miter;stroke-miterlimit:4;stroke-dasharray:none;stroke-dashoffset:0;stroke-opacity:1;color-rendering:auto;image-rendering:auto;shape-rendering:auto;text-rendering:auto;enable-background:accumulate;stop-color:#000000"
       id="path941" />
    <path
       d="m 107.14318,140.70707 c 13.03996,-9.57986 23.07712,-14.36978 30.11148,-14.36978 7.03435,0 2.48843,-4.0339 -13.63778,-12.1017 l -16.4737,7.8147 -3.3446,13.86751 z"
       id="Path-10"
       fill="#8ee000"
       style="fill-rule:evenodd;stroke:none" />
    <path
       d="m 148.31989,126.58842 c 13.03997,-9.57985 23.07713,-14.36978 30.11148,-14.36978 6.02905,0 3.55126,-5.96329 -7.43336,-11.88986 -1.22108,-0.658816 -3.28922,-0.729425 -6.20441,-0.21183 l -12.35603,7.81469 -7.46228,13.86751 z"
       id="Path-10-Copy"
       fill="#8ee000"
       style="fill-rule:evenodd;stroke:none" />
    <path
       d="m 112.43344,254.48983 h 75.37788 c 3.06331,0 5.54661,2.4833 5.54661,5.54661 0,3.06331 -2.4833,5.54661 -5.54661,5.54661 h -75.37788 c -3.0633,0 -5.54661,-2.4833 -5.54661,-5.54661 0,-3.06331 2.48331,-5.54661 5.54661,-5.54661 z"
       id="Rectangle-11"
       fill="#169fe3"
       style="fill-rule:evenodd;stroke:none;fill:#000000;fill-opacity:0.20564516" />
    <path
       d="m 108.81834,93.33732 c 6.00765,-4.833817 13.60528,-8.625308 22.79288,-11.374468 10.81887,-3.237277 21.06311,-3.94497 30.73272,-2.123081 v 0 c 14.72211,2.773841 26.55131,13.740519 30.42972,28.210909 l 4.70869,17.56814 c 1.08813,4.05983 0.53143,8.38497 -1.54929,12.03693 -6.42313,11.27353 -17.0834,19.33052 -31.98079,24.17098 -17.73271,5.76171 -35.59716,5.91934 -53.59334,0.47289 v 0 c -4.20261,-1.2719 -7.49294,-4.55772 -8.7706,-8.75857 l -5.625693,-18.49688 c -4.629998,-15.2231 0.458739,-31.73213 12.855703,-41.70685 z"
       id="path44"
       fill="#98ddff"
       opacity="0.492857"
       style="fill-rule:evenodd;stroke:none;fill:#ffffff;fill-opacity:0.35080642;opacity:1" />
    <ellipse
       id="Oval-Copy-2"
       fill="#ffffff"
       cx="117.17761"
       cy="107.1656"
       rx="9.261363"
       ry="9.0656033"
       style="fill-rule:evenodd;stroke:none" />
    <path
       d="m 232.00715,112.99901 -4.68465,-3.2906 42.18812,-57.211325 c 1.55172,-2.104283 4.55746,-2.582431 6.71351,-1.067973 0.18001,0.126443 0.35084,0.264887 0.51128,0.41434 l 14.76795,13.757038 c 0.30551,0.284595 0.32246,0.762967 0.0379,1.068475 -0.004,0.0045 -0.008,0.0089 -0.0127,0.01327 l -2.92763,2.993644 c -0.28693,0.293399 -0.75552,0.304313 -1.0558,0.02459 L 274.17021,57.241116 c -0.3055,-0.284595 -0.78388,-0.267641 -1.06847,0.03787 -0.0197,0.02113 -0.0382,0.04338 -0.0553,0.06662 z"
       id="Path-13"
       fill="#ffffff"
       fill-rule="nonzero"
       style="stroke:none" />
    <path
       d="m 229.08765,88.069869 c 8.19948,3.921849 14.03539,6.112533 17.50772,6.572052 11.35115,1.502184 -1.53914,-14.646288 5.19459,-18.589519 4.48916,-2.628821 7.71684,0.876273 9.68304,10.515284 l -10.93184,30.469394 c -0.59868,1.66863 -2.37839,2.59784 -4.08976,2.1353 l -18.95729,-5.12366 c -1.70889,-0.46187 -2.77802,-2.15708 -2.4585,-3.89822 z"
       id="Path-14"
       fill="#ffe894"
       style="fill-rule:evenodd;stroke:none;fill:#ffcd15;fill-opacity:1" />
    <path
       d="m 234.8242,58.124732 32.88594,8.811761 c 2.0165,0.540321 3.21318,2.613034 2.67286,4.629535 -0.0236,0.08823 -0.0502,0.175646 -0.0805,0.261828 l -17.27911,49.750384 c -0.65008,1.87174 -2.63519,2.92384 -4.5491,2.41101 l -25.51788,-6.8375 c -1.91391,-0.51283 -3.107,-2.41652 -2.73413,-4.36254 l 9.91112,-51.724631 c 0.39287,-2.050335 2.37348,-3.393979 4.42382,-3.00111 0.0897,0.0172 0.17875,0.03765 0.26698,0.06129 z"
       id="Rectangle-65"
       fill="#a7e2ff"
       style="fill-rule:evenodd;stroke:none;fill:#b5eeff;fill-opacity:0.50403225" />
    <path
       d="m 234.26189,69.292576 h 10.04512 c 0.62629,0 1.134,0.507709 1.134,1.134 v 9.749468 c 0,0.626291 -0.50771,1.134 -1.134,1.134 h -10.04512 c -0.62629,0 -1.134,-0.507709 -1.134,-1.134 v -9.749468 c 0,-0.626291 0.50771,-1.134 1.134,-1.134 z"
       id="Rectangle-6"
       fill="#ffffff"
       opacity="0.621429"
       style="fill-rule:evenodd;stroke:none;fill:#d0eff8;fill-opacity:0.94901961;opacity:1" />
    <path
       d="m 257.78805,40 h -10.84183 c -1.04382,0 -1.89,0.846182 -1.89,1.89 v 10.490742 c 0,1.043818 0.84618,1.89 1.89,1.89 h 10.84183 c 1.04382,0 1.89,-0.846182 1.89,-1.89 V 41.89 c 0,-1.043818 -0.84618,-1.89 -1.89,-1.89 z"
       id="Rectangle-6-Copy-2"
       fill="#b7e7ff"
       opacity="0.992857"
       style="fill-rule:evenodd;stroke:none;fill:#9adcf1;fill-opacity:0.94758064;opacity:1" />
    <path
       d="m 248.75579,41.126638 h -0.0882 c -1.35696,0 -2.457,1.100036 -2.457,2.457 v 7.103467 c 0,1.356963 1.10004,2.457 2.457,2.457 h 0.0882 c 1.35696,0 2.457,-1.100037 2.457,-2.457 v -7.103467 c 0,-1.356964 -1.10004,-2.457 -2.457,-2.457 z"
       id="path52"
       fill="#ffffff"
       opacity="0.992857"
       style="fill-rule:evenodd;stroke:none" />
    <path
       d="m 243.59861,72.67249 v 0 c 0,-1.16881 -0.94751,-2.11631 -2.11632,-2.11631 h -4.78046 c -1.16881,0 -2.11632,0.9475 -2.11632,2.11631 v 0 c 0,1.16881 0.94751,2.11632 2.11632,2.11632 h 4.78046 c 1.16881,0 2.11632,-0.94751 2.11632,-2.11632 z"
       id="Rectangle-6-Copy-3"
       fill="#ffffff"
       opacity="0.992857"
       style="fill-rule:evenodd;stroke:none" />
  </g>
</svg>
