<?xml version="1.0" encoding="UTF-8" standalone="no"?>
<svg
   xmlns:dc="http://purl.org/dc/elements/1.1/"
   xmlns:cc="http://creativecommons.org/ns#"
   xmlns:rdf="http://www.w3.org/1999/02/22-rdf-syntax-ns#"
   xmlns:svg="http://www.w3.org/2000/svg"
   xmlns="http://www.w3.org/2000/svg"
   xmlns:sodipodi="http://sodipodi.sourceforge.net/DTD/sodipodi-0.dtd"
   xmlns:inkscape="http://www.inkscape.org/namespaces/inkscape"
   inkscape:version="1.0 (4035a4fb49, 2020-05-01)"
   sodipodi:docname="college.svg"
   id="svg76"
   version="1.1"
   fill="none"
   viewBox="0 0 264 264"
   height="264"
   width="264">
  <metadata
     id="metadata82">
    <rdf:RDF>
      <cc:Work
         rdf:about="">
        <dc:format>image/svg+xml</dc:format>
        <dc:type
           rdf:resource="http://purl.org/dc/dcmitype/StillImage" />
      </cc:Work>
    </rdf:RDF>
  </metadata>
  <defs
     id="defs80" />
  <sodipodi:namedview
     inkscape:current-layer="svg76"
     inkscape:window-maximized="1"
     inkscape:window-y="-8"
     inkscape:window-x="-8"
     inkscape:cy="76.342325"
     inkscape:cx="148.19884"
     inkscape:zoom="1.9393939"
     inkscape:snap-intersection-paths="true"
     inkscape:snap-smooth-nodes="true"
     inkscape:object-paths="true"
     inkscape:snap-midpoints="true"
     inkscape:snap-page="true"
     showgrid="false"
     id="namedview78"
     inkscape:window-height="745"
     inkscape:window-width="1366"
     inkscape:pageshadow="2"
     inkscape:pageopacity="0"
     guidetolerance="10"
     gridtolerance="10"
     objecttolerance="10"
     borderopacity="1"
     bordercolor="#666666"
     pagecolor="#ffffff" />
  <g
     id="g995">
    <path
       fill-rule="evenodd"
       clip-rule="evenodd"
       d="M58.7096 180.772C61.8131 179.088 65.6716 180.182 67.3492 183.213L72.2143 192.054C73.8919 195.169 72.8014 199.042 69.6979 200.726C66.5943 202.41 62.7358 201.315 61.0582 198.284L56.1932 189.444C54.5156 186.329 55.606 182.456 58.7096 180.772Z"
       fill="#235390"
       id="path2"
       style="fill:#000000;fill-opacity:0.60080647" />
    <path
       fill-rule="evenodd"
       clip-rule="evenodd"
       d="M163.896 215.039C165.406 218.239 163.98 222.027 160.792 223.543L151.733 227.837C148.546 229.352 144.771 227.921 143.261 224.722C141.751 221.522 143.177 217.734 146.365 216.218L155.424 211.924C158.611 210.493 162.47 211.84 163.896 215.039Z"
       fill="#235390"
       id="path4"
       style="fill:#000000;fill-opacity:0.60080647" />
    <path
       id="path6"
       d="M 124.3418 90.453125 C 123.24621 90.476971 122.14275 90.523981 121.03125 90.597656 C 105.26225 91.607956 91.757494 102.13213 86.808594 117.20312 L 85.199219 122.17773 L 64.078125 108.95312 C 60.722925 106.84812 56.277984 108.61528 55.271484 112.48828 C 50.852516 130.47693 58.172327 149.66476 73.953125 160.20703 C 71.415256 182.99146 85.025305 205.15358 107.61133 212.51367 C 130.12012 219.84961 154.02462 210.05308 165.35547 190.25977 C 165.51221 190.26683 165.6671 190.27971 165.82422 190.28516 C 185.28422 190.95816 202.81544 179.0883 209.27344 161.1543 C 210.61644 157.4503 207.93223 153.49222 203.99023 153.32422 L 178.7168 152.42969 L 180.25195 147.68359 C 185.11695 132.61259 180.33583 116.02587 168.17383 105.92188 C 161.29583 100.28088 153.99633 96.070822 146.11133 93.544922 C 139.28633 91.334847 132.0109 90.286202 124.3418 90.453125 z "
       style="fill:#000000;fill-opacity:0.39516127" />
    <path
       id="path12"
       d="M 138.14453 91.525391 L 136.5332 96.503906 C 139.1983 97.043407 141.91194 97.753569 144.68555 98.681641 C 147.37019 99.579961 149.8915 100.58915 152.2832 101.68945 L 153.91211 96.660156 C 151.39611 95.397156 148.79631 94.386922 146.19531 93.544922 C 143.59531 92.703022 140.91253 92.030591 138.14453 91.525391 z M 114.35938 164.98633 L 104.42383 195.67383 C 103.83683 197.69483 104.92645 199.88459 106.93945 200.55859 L 115.32812 203.33594 C 117.34212 203.92594 119.52136 202.83155 120.19336 200.81055 L 130.13086 170.11719 C 127.47437 169.5557 124.80502 168.84455 122.12305 167.97461 C 119.42712 167.1002 116.842 166.10006 114.35938 164.98633 z " />
    <path
       fill-rule="evenodd"
       clip-rule="evenodd"
       d="M138.228 179.088L150.307 183.045C152.152 183.634 153.159 185.571 152.572 187.423C151.985 189.275 150.055 190.286 148.21 189.696L136.131 185.739C134.286 185.15 133.279 183.213 133.867 181.361C134.454 179.425 136.383 178.498 138.228 179.088Z"
       fill="#235390"
       id="path14"
       style="fill:#000000;fill-opacity:0.40322581" />
    <path
       id="path916"
       style="color:#000000;font-style:normal;font-variant:normal;font-weight:normal;font-stretch:normal;font-size:medium;line-height:normal;font-family:sans-serif;font-variant-ligatures:normal;font-variant-position:normal;font-variant-caps:normal;font-variant-numeric:normal;font-variant-alternates:normal;font-variant-east-asian:normal;font-feature-settings:normal;font-variation-settings:normal;text-indent:0;text-align:start;text-decoration:none;text-decoration-line:none;text-decoration-style:solid;text-decoration-color:#000000;letter-spacing:normal;word-spacing:normal;text-transform:none;writing-mode:lr-tb;direction:ltr;text-orientation:mixed;dominant-baseline:auto;baseline-shift:baseline;text-anchor:start;white-space:normal;shape-padding:0;shape-margin:0;inline-size:0;clip-rule:nonzero;display:inline;overflow:visible;visibility:visible;isolation:auto;mix-blend-mode:normal;color-interpolation:sRGB;color-interpolation-filters:linearRGB;solid-color:#000000;solid-opacity:1;vector-effect:none;fill:#ffffff;fill-opacity:1;fill-rule:nonzero;stroke:none;stroke-width:1;stroke-linecap:butt;stroke-linejoin:miter;stroke-miterlimit:4;stroke-dasharray:none;stroke-dashoffset:0;stroke-opacity:1;color-rendering:auto;image-rendering:auto;shape-rendering:auto;text-rendering:auto;enable-background:accumulate;stop-color:#000000"
       d="M 93.519531 164.35352 C 90.164331 164.35352 86.97695 166.3742 85.71875 169.6582 C 85.696341 169.7139 85.681319 169.77032 85.660156 169.82617 L 94.695312 169.82617 C 96.037413 169.82617 97.210937 170.92056 97.210938 172.35156 C 97.210938 172.85656 97.044569 173.27822 96.792969 173.69922 L 92.017578 181.17188 C 93.610577 181.46133 95.245969 181.28652 96.791016 180.60352 C 98.888016 179.67752 100.48131 178.07766 101.32031 175.97266 C 102.15931 173.86766 102.15931 171.59523 101.32031 169.49023 C 100.48131 167.38523 98.804031 165.78536 96.707031 164.94336 C 95.616631 164.52236 94.526131 164.35352 93.519531 164.35352 z M 85.357422 174.91406 C 85.752225 176.48876 86.591738 177.92855 87.792969 179.04883 L 88.320312 175.80469 L 85.357422 174.91406 z " />
    <path
       id="path18"
       d="M 93.265625 161.79297 C 88.995589 161.87964 84.985634 164.50167 83.287109 168.73242 C 81.022309 174.37342 83.706272 180.77192 89.326172 183.04492 C 90.668272 183.63392 92.093447 183.88672 93.435547 183.88672 C 94.861447 183.88672 96.288944 183.54994 97.714844 182.96094 C 100.39884 181.78194 102.49494 179.59244 103.58594 176.89844 C 104.67594 174.20444 104.67595 171.17352 103.50195 168.47852 C 102.32695 165.78452 100.23058 163.67994 97.546875 162.58594 C 96.141875 162.01744 94.68897 161.76408 93.265625 161.79297 z M 93.519531 164.35352 C 94.526131 164.35352 95.616631 164.52236 96.707031 164.94336 C 98.804031 165.78536 100.48131 167.38523 101.32031 169.49023 C 102.15931 171.59523 102.15931 173.86766 101.32031 175.97266 C 100.48131 178.07766 98.888016 179.67752 96.791016 180.60352 C 95.245969 181.28652 93.610577 181.46133 92.017578 181.17188 L 96.792969 173.69922 C 97.044569 173.27822 97.210938 172.85656 97.210938 172.35156 C 97.210937 170.92056 96.037413 169.82617 94.695312 169.82617 L 85.660156 169.82617 C 85.681319 169.77032 85.696341 169.7139 85.71875 169.6582 C 86.97695 166.3742 90.164331 164.35352 93.519531 164.35352 z M 85.357422 174.91406 L 88.320312 175.80469 L 87.792969 179.04883 C 86.591738 177.92855 85.752225 176.48876 85.357422 174.91406 z "
       style="fill:#000000;fill-opacity:0.40322581" />
    <path
       fill-rule="evenodd"
       clip-rule="evenodd"
       d="M118.684 95.9029C126.652 94.64 135.376 95.5662 144.686 98.6814C153.997 101.797 161.546 106.091 167.334 111.816C176.309 120.741 179.497 133.959 175.638 145.999L170.857 160.818C169.599 164.775 166.411 167.89 162.385 169.069C149.3 172.857 135.879 172.436 122.123 167.974C108.366 163.512 97.378 155.934 89.2417 145.241C86.7253 141.958 85.9704 137.58 87.2286 133.707L92.0097 118.72C95.8682 106.68 106.269 97.8394 118.684 95.9029Z"
       fill="#235390"
       id="path22"
       style="fill:#000000;fill-opacity:0.40322581" />
    <path
       fill-rule="evenodd"
       clip-rule="evenodd"
       d="M121.871 96.9133C130.679 104.322 137.053 108.701 141.08 109.964C145.106 111.311 152.823 111.479 164.231 110.637C164.985 111.311 165.74 111.984 166.411 112.658C175.051 121.162 178.071 133.875 174.38 145.41L169.599 160.228C168.425 163.764 165.573 166.543 162.05 167.553C149.216 171.258 136.047 170.837 122.626 166.459C109.121 162.08 98.3848 154.671 90.3323 144.147C88.0675 141.2 87.3965 137.327 88.5708 133.791L93.352 118.972C97.1266 107.438 107.024 98.934 119.019 97.1659C119.858 97.0817 120.865 96.9975 121.871 96.9133Z"
       fill="#58CC02"
       id="path24" />
    <path
       fill-rule="evenodd"
       clip-rule="evenodd"
       d="M174.296 145.662L169.515 160.396C168.341 163.933 165.489 166.711 161.966 167.721C156.178 169.405 150.306 170.247 144.435 170.247C138.06 167.637 133.782 161.744 133.111 155.176C130.762 154.419 126.82 153.156 121.284 151.388C117.006 156.355 110.296 158.797 103.669 157.365C98.5524 153.745 94.1068 149.451 90.2483 144.399C87.9835 141.453 87.3125 137.58 88.4868 134.043L93.1841 119.646C95.7844 114.089 100.817 110.384 106.521 109.29C107.276 107.606 108.283 106.09 109.708 104.743C110.547 103.986 111.973 104.238 112.393 105.333L114.238 109.542C114.322 109.542 114.406 109.542 114.406 109.627C115.077 107.353 116.335 105.164 118.18 103.565C119.019 102.807 120.11 102.975 120.613 104.07L128.833 122.088C132.021 126.718 138.144 128.739 143.428 126.971L160.456 117.036C161.462 116.447 162.721 117.036 162.972 118.13C163.476 120.404 163.308 122.761 162.553 124.95C162.637 124.95 162.637 124.95 162.721 125.034L166.16 123.014C167.166 122.424 168.424 123.014 168.676 124.108C169.012 125.708 169.012 127.308 168.76 128.823C173.373 132.949 175.554 139.348 174.296 145.662Z"
       fill="#89E219"
       id="path26" />
    <path
       fill-rule="evenodd"
       clip-rule="evenodd"
       d="M126.737 167.806C125.311 167.469 123.885 167.048 122.543 166.543C121.285 166.122 120.027 165.701 118.768 165.196C117.594 163.512 117.175 161.239 117.846 159.049L121.452 147.936C122.627 144.315 126.569 142.295 130.176 143.473C133.783 144.652 135.796 148.609 134.622 152.23L131.015 163.343C130.344 165.532 128.75 167.132 126.737 167.806Z"
       fill="#F49000"
       id="path28" />
    <path
       fill-rule="evenodd"
       clip-rule="evenodd"
       d="M129.337 146.168C132.189 147.094 133.699 150.125 132.776 152.987L130.344 160.397C129.421 163.259 126.401 164.775 123.549 163.849C120.697 162.922 119.188 159.891 120.11 157.029L122.543 149.62C123.465 146.757 126.485 145.241 129.337 146.168Z"
       fill="#B86D00"
       id="path30" />
    <path
       d="M119.188 146.252C121.285 142.295 126.234 140.274 131.015 141.874C135.293 143.305 138.061 147.767 137.474 152.23L137.306 152.735L127.66 151.303L119.021 146.757L119.188 146.252Z"
       fill="#FFC200"
       id="path32" />
    <path
       d="M127.66 145.326C126.905 145.326 126.234 144.736 126.234 143.979C126.234 143.221 126.822 142.547 127.576 142.547C129.422 142.463 131.099 143.052 132.525 144.147C133.113 144.652 133.196 145.494 132.777 146.083C132.358 146.673 131.435 146.757 130.848 146.336C129.841 145.662 128.835 145.326 127.66 145.326Z"
       fill="#FFDE00"
       id="path34" />
    <path
       fill-rule="evenodd"
       clip-rule="evenodd"
       d="M113.4 116.531C120.446 118.804 124.388 126.466 122.039 133.622L119.523 141.453C117.258 148.525 109.625 152.482 102.495 150.125C95.4495 147.851 91.5071 140.19 93.8558 133.033L96.3722 125.203C98.7208 118.13 106.354 114.173 113.4 116.531Z"
       fill="white"
       id="path36" />
    <path
       fill-rule="evenodd"
       clip-rule="evenodd"
       d="M113.064 124.529C116.419 125.624 118.264 129.244 117.174 132.528L114.993 139.179C113.902 142.547 110.296 144.399 107.024 143.305C103.669 142.21 101.824 138.59 102.914 135.306L105.095 128.655C106.102 125.287 109.708 123.435 113.064 124.529Z"
       fill="#122431"
       id="path38" />
    <path
       d="M106.773 130.423C108.997 130.423 110.8 128.614 110.8 126.382C110.8 124.15 108.997 122.34 106.773 122.34C104.55 122.34 102.747 124.15 102.747 126.382C102.747 128.614 104.55 130.423 106.773 130.423Z"
       fill="white"
       id="path40" />
    <path
       fill-rule="evenodd"
       clip-rule="evenodd"
       d="M158.863 131.349C165.909 133.622 169.851 141.284 167.502 148.441L164.986 156.271C162.721 163.343 155.088 167.3 147.958 164.943C140.829 162.586 136.97 155.008 139.319 147.851L141.835 140.021C144.184 132.949 151.733 128.992 158.863 131.349Z"
       fill="white"
       id="path42" />
    <path
       fill-rule="evenodd"
       clip-rule="evenodd"
       d="M154.417 138.085C157.772 139.179 159.618 142.8 158.527 146.083L156.346 152.735C155.256 156.102 151.649 157.955 148.378 156.86C145.023 155.766 143.177 152.145 144.268 148.862L146.449 142.21C147.539 138.758 151.146 136.99 154.417 138.085Z"
       fill="#122431"
       id="path44" />
    <path
       d="M147.455 143.642C149.679 143.642 151.481 141.832 151.481 139.6C151.481 137.368 149.679 135.559 147.455 135.559C145.231 135.559 143.429 137.368 143.429 139.6C143.429 141.832 145.231 143.642 147.455 143.642Z"
       fill="white"
       id="path46" />
    <path
       d="M93.0163 130.086C100.398 134.128 108.199 139.769 116.419 147.094L110.547 153.745C109.289 155.176 107.108 155.345 105.598 154.082C100.23 149.451 96.3715 146.588 91.6742 143.81C90.416 143.052 89.8288 141.621 90.1644 140.274L93.0163 130.086Z"
       fill="#8EE000"
       id="path48" />
    <path
       d="M167.166 154.503L165.153 160.565C163.979 164.101 160.623 166.374 156.933 166.206C152.571 165.953 148.041 166.038 142.254 166.543C140.66 166.711 139.234 165.532 139.15 163.933L138.228 154.503C149.216 153.408 158.862 153.408 167.166 154.503Z"
       fill="#8EE000"
       id="path50" />
    <path
       opacity="0.3929"
       fill-rule="evenodd"
       clip-rule="evenodd"
       d="m 119.019,97.3343 c 7.885,-1.263 16.357,-0.3368 25.668,2.6947 9.143,2.946 16.524,7.24 22.06,12.881 8.472,8.588 11.492,21.133 7.717,32.584 l -4.865,14.903 c -1.174,3.536 -4.026,6.314 -7.633,7.325 -12.75,3.62 -25.835,3.199 -39.34,-1.179 -13.421,-4.378 -24.1572,-11.788 -32.2097,-22.144 -2.2648,-2.946 -2.9358,-6.819 -1.8454,-10.356 l 4.8651,-14.902 c 3.8585,-11.535 13.672,-19.9544 25.583,-21.8067 z"
       fill="#98ddff"
       id="path52"
       style="opacity:1;fill:#ffffff;fill-opacity:0.350806" />
    <path
       d="M119.775 116.362C123.944 116.362 127.324 112.97 127.324 108.785C127.324 104.6 123.944 101.207 119.775 101.207C115.605 101.207 112.226 104.6 112.226 108.785C112.226 112.97 115.605 116.362 119.775 116.362Z"
       fill="white"
       id="path54" />
    <path
       d="M144.267 172.857C136.802 172.857 129.252 171.595 121.703 169.153C107.779 164.606 96.4554 156.776 88.1512 145.915C85.3832 142.295 84.5444 137.495 85.9704 133.117L90.7515 118.299C94.8616 105.67 105.514 96.5765 118.516 94.64C126.652 93.3771 135.627 94.3032 145.106 97.4184C154.584 100.534 162.385 105.08 168.257 110.89C177.651 120.235 180.923 133.875 176.896 146.42L172.115 161.238C170.689 165.701 167.166 169.069 162.721 170.332C156.681 172.016 150.474 172.857 144.267 172.857ZM125.729 96.7449C123.381 96.7449 121.116 96.9133 118.935 97.2501C106.856 99.1023 97.0425 107.438 93.2679 119.057L88.4868 133.875C87.3124 137.411 87.9835 141.284 90.2482 144.231C98.2168 154.671 109.121 162.165 122.542 166.543C135.963 170.921 149.216 171.258 161.966 167.637C165.572 166.627 168.341 163.849 169.515 160.312L174.296 145.494C178.071 133.875 175.051 121.33 166.327 112.742C160.791 107.185 153.326 102.891 144.183 99.9443C137.808 97.8394 131.517 96.7449 125.729 96.7449Z"
       fill="white"
       id="path56" />
    <path
       id="path58"
       d="M 147.78711 35.958984 C 146.67793 36.017215 145.5875 36.590578 144.98438 37.556641 C 143.97437 39.231441 144.42952 41.267244 146.10352 42.277344 L 158.5293 49.728516 L 141.69531 77.742188 C 141.29931 78.472688 141.59431 79.296937 142.19531 79.648438 L 165.64258 93.789062 C 166.37258 94.185063 167.19588 93.890362 167.54688 93.289062 L 184.40234 65.242188 L 197.5957 73.152344 C 199.2707 74.162344 201.30445 73.708003 202.31445 72.033203 C 203.32445 70.358503 202.87031 68.3225 201.19531 67.3125 L 178.42188 53.65625 C 178.53454 53.519903 178.64668 53.382975 178.74219 53.224609 L 180.14844 50.820312 C 181.15844 49.145513 180.70234 47.109709 179.02734 46.099609 C 177.35334 45.089509 175.31859 45.545903 174.30859 47.220703 L 172.90234 49.625 C 172.79217 49.807688 172.70649 49.996084 172.63086 50.185547 L 149.70312 36.4375 C 149.12375 36.075362 148.45262 35.924046 147.78711 35.958984 z "
       style="fill:#000000;fill-opacity:0.60483873" />
    <path
       id="path60"
       style="fill:#ffffff;fill-opacity:1"
       d="M 179.85938 51.314453 L 178.74219 53.224609 C 178.6474 53.381782 178.54155 53.526928 178.42969 53.662109 L 190.85742 61.113281 L 190.03906 69.75 C 186.83843 70.645943 184.80244 73.858128 185.2168 77.167969 L 186.70508 88.001953 C 186.85908 88.821053 187.60597 89.279434 188.29297 89.177734 L 189.67969 88.996094 L 188.77148 82.591797 C 188.61848 81.773897 189.24464 81.110314 189.93164 81.007812 C 190.03364 80.989213 190.13398 80.981911 190.23047 80.986328 C 190.90586 81.017247 191.42678 81.578503 191.51953 82.181641 L 192.43359 88.638672 L 193.69531 88.472656 L 191.97656 76.626953 C 191.82356 75.809353 192.44972 75.145369 193.13672 75.042969 C 193.23859 75.024381 193.33916 75.019019 193.43555 75.023438 C 194.11027 75.054362 194.62991 75.613922 194.72266 76.216797 L 196.44922 88.103516 L 195.87891 88.189453 L 199.07812 87.771484 C 199.89312 87.623584 200.34528 86.8778 200.23828 86.1875 L 199.79883 82.988281 C 200.62231 83.75756 201.5441 84.336678 202.58008 84.693359 C 203.22608 84.915659 204.04941 84.620703 204.31641 83.845703 C 204.58341 83.070803 204.24375 82.376275 203.46875 82.109375 C 201.40275 81.397875 199.82423 79.266312 198.86523 75.757812 C 198.84281 75.688052 198.81121 75.622123 198.77734 75.558594 L 198.75 75.353516 C 198.30534 72.731362 196.47524 70.686924 194.12109 69.876953 L 194.83984 62.310547 C 195.1315 61.383682 194.81568 60.3199 193.96875 59.769531 L 179.85938 51.314453 z " />
    <path
       id="path68"
       d="M 193.43555 75.023438 C 193.33916 75.01902 193.23859 75.024381 193.13672 75.042969 C 192.44972 75.145369 191.82356 75.809353 191.97656 76.626953 L 193.70117 88.513672 L 196.44922 88.103516 L 194.72266 76.216797 C 194.62991 75.613922 194.11027 75.054362 193.43555 75.023438 z M 190.23047 80.986328 C 190.13398 80.981911 190.03364 80.989213 189.93164 81.007812 C 189.24464 81.110313 188.61848 81.773897 188.77148 82.591797 L 189.69336 89.097656 L 192.44141 88.6875 L 191.51953 82.181641 C 191.42678 81.578503 190.90586 81.017247 190.23047 80.986328 z "
       style="fill:#ffffff;fill-opacity:0.75403231" />
  </g>
</svg>
