<?xml version="1.0" encoding="UTF-8" standalone="no"?>
<svg
   xmlns:dc="http://purl.org/dc/elements/1.1/"
   xmlns:cc="http://creativecommons.org/ns#"
   xmlns:rdf="http://www.w3.org/1999/02/22-rdf-syntax-ns#"
   xmlns:svg="http://www.w3.org/2000/svg"
   xmlns="http://www.w3.org/2000/svg"
   xmlns:sodipodi="http://sodipodi.sourceforge.net/DTD/sodipodi-0.dtd"
   xmlns:inkscape="http://www.inkscape.org/namespaces/inkscape"
   inkscape:version="1.0 (4035a4fb49, 2020-05-01)"
   sodipodi:docname="jet-pack.svg"
   id="svg75"
   version="1.1"
   viewBox="0 0 320 320"
   height="320px"
   width="320px">
  <metadata
     id="metadata81">
    <rdf:RDF>
      <cc:Work
         rdf:about="">
        <dc:format>image/svg+xml</dc:format>
        <dc:type
           rdf:resource="http://purl.org/dc/dcmitype/StillImage" />
      </cc:Work>
    </rdf:RDF>
  </metadata>
  <defs
     id="defs79" />
  <sodipodi:namedview
     inkscape:current-layer="svg75"
     inkscape:window-maximized="1"
     inkscape:window-y="-8"
     inkscape:window-x="-8"
     inkscape:cy="184.01479"
     inkscape:cx="180.35948"
     inkscape:zoom="1.1313709"
     inkscape:snap-page="true"
     showgrid="false"
     id="namedview77"
     inkscape:window-height="745"
     inkscape:window-width="1366"
     inkscape:pageshadow="2"
     inkscape:pageopacity="0"
     guidetolerance="10"
     gridtolerance="10"
     objecttolerance="10"
     borderopacity="1"
     bordercolor="#666666"
     pagecolor="#ffffff" />
  <title
     id="title2">duo_plus_jetpack</title>
  <desc
     id="desc4">Created with Sketch.</desc>
  <ellipse
     id="Oval-49"
     fill="#ffffff"
     transform="scale(-1,1)"
     cx="-32.038933"
     cy="230.94829"
     rx="12.836246"
     ry="12.684383"
     style="fill-rule:evenodd;stroke:none" />
  <ellipse
     id="Oval-49-Copy-2"
     fill="#ffffff"
     transform="scale(-1,1)"
     cx="-44.66124"
     cy="195.64342"
     rx="8.7714348"
     ry="8.6676617"
     style="fill-rule:evenodd;stroke:none" />
  <ellipse
     id="Oval-49-Copy"
     fill="#ffffff"
     transform="scale(-1,1)"
     cx="-18.560875"
     cy="237.9247"
     rx="6.6320605"
     ry="6.5535979"
     style="fill-rule:evenodd;stroke:none" />
  <path
     d="m 33.115454,226.33101 c 0.470559,0.81374 2.327567,4.14061 2.800652,4.94611 4.896919,8.33782 10.5335,10.67441 30.78069,10.67441 v 1.71046 H 18.752367 l 0.218965,-1.03263 c 1.980339,-9.33921 3.69,-14.11232 5.628918,-14.85238 0.708343,-0.27037 1.362678,-0.71714 2.225405,-1.46472 0.174422,-0.15114 0.79645,-0.70424 0.749641,-0.66292 0.303903,-0.26829 0.528426,-0.45784 0.750432,-0.629 0.624177,-0.48124 1.165448,-0.76033 1.752106,-0.83059 1.164064,-0.13941 2.137345,0.58442 3.03762,2.14126 z"
     id="Path-48"
     stroke="#ffffff"
     stroke-width="1.71046"
     fill="#ffffff"
     stroke-linecap="round"
     stroke-linejoin="round"
     style="fill-rule:evenodd" />
  <ellipse
     id="Oval-49-Copy-3"
     fill="#ffffff"
     cx="116.33028"
     cy="234.33078"
     rx="10.268996"
     ry="10.147507"
     style="fill-rule:evenodd;stroke:none" />
  <path
     d="m 107.93846,230.0325 c 0.72022,-1.24547 1.49885,-1.82454 2.4301,-1.71301 0.46933,0.0562 0.90234,0.27949 1.40169,0.66447 0.1776,0.13693 0.35722,0.28857 0.60034,0.50321 -0.0375,-0.0331 0.46018,0.40942 0.59971,0.53033 0.69018,0.59807 1.21365,0.95548 1.78033,1.17177 1.68674,0.64382 1.9383,4.47299 1.18013,12.02276 l -0.0614,0.61163 -0.61469,0.004 c -6.8116,0.0463 -14.38321,0.0694 -22.714881,0.0694 v -1.36836 c 6.099364,0 10.176371,-3.46547 15.398691,-12.49642 z"
     id="Path-48-Copy"
     stroke="#ffffff"
     stroke-width="1.36836"
     fill="#ffffff"
     stroke-linecap="round"
     stroke-linejoin="round"
     style="fill-rule:evenodd" />
  <path
     d="M 142.18555 219.95117 C 141.01324 219.98337 139.83219 220.30045 138.74609 220.92969 C 135.25705 222.95109 134.06137 227.4131 136.07227 230.9082 L 141.42188 240.20898 C 141.42587 240.21498 141.42989 240.22056 141.43359 240.22656 C 143.02713 242.6518 145.96108 244.52721 148.49414 244.56836 L 151.34961 244.56836 C 153.77424 244.56836 155.91716 243.38354 157.24805 241.56641 C 159.13281 243.35716 161.51991 244.51048 164.04297 244.56836 L 166.89844 244.56836 C 170.93768 244.56836 174.21094 241.29314 174.21094 237.25391 C 174.21094 233.22325 170.95123 229.95528 166.92383 229.94141 L 163.27148 223.5957 C 163.26748 223.5897 163.26572 223.58217 163.26172 223.57617 C 161.8774 221.18674 159.3408 219.88031 156.76172 219.95117 C 155.58941 219.98337 154.40837 220.30045 153.32227 220.92969 C 151.4936 221.98914 150.30245 223.72113 149.86523 225.63086 L 148.69531 223.5957 C 148.69131 223.5897 148.68729 223.58217 148.68359 223.57617 C 147.29926 221.18674 144.76462 219.88031 142.18555 219.95117 z "
     style="fill:#000000;fill-opacity:0.596774;fill-rule:evenodd;stroke:none"
     id="Rectangle-4-Copy-46" />
  <path
     d="m 97.474561,221.14239 -11.87568,12.06379 c -1.770487,1.79854 -4.038202,2.15369 -5.397435,0.21762 -0.270864,-0.38582 -0.751052,-1.29481 -0.893214,-1.77582 l -1.565917,-5.29835 -11.129917,1.36641 c -2.466877,0.30285 -4.712188,-1.45143 -5.015044,-3.91831 -0.04471,-0.36421 -0.04471,-0.73252 0,-1.09674 l 2.477347,-20.17895 c 0.0083,-0.068 0.01964,-0.13485 0.03373,-0.20054 0.406702,-4.57203 2.338806,-9.003 5.80563,-12.46983 7.976693,-7.97669 21.057548,-7.82861 29.216907,0.33075 8.159362,8.15936 8.307442,21.24022 0.330747,29.21691 -0.632006,0.632 -1.296054,1.213 -1.987158,1.74306 z"
     id="Path"
     fill="#ff9600"
     style="fill-rule:evenodd;stroke:none" />
  <path
     d="m 88.193462,210.71183 c -0.09977,0.0497 -0.207066,0.0844 -0.318468,0.10224 l -8.023893,1.28791 c -1.20854,0.19398 -2.345508,-0.62848 -2.53949,-1.83702 -0.03735,-0.23267 -0.03735,-0.4698 0,-0.70247 l 1.272806,-7.9298 c 0.01013,-2.21815 0.849195,-4.41619 2.522898,-6.08989 3.418582,-3.41859 9.024663,-3.35512 12.521531,0.14175 3.496869,3.49686 3.560332,9.10294 0.141749,12.52153 -1.544587,1.54458 -3.535735,2.37834 -5.577133,2.50575 z"
     id="path18"
     fill="#ffc800"
     style="fill-rule:evenodd;stroke:none" />
  <path
     d="M 119.10938 154.12891 C 117.98479 154.1061 116.85343 154.48467 115.94336 155.26953 L 94.205078 174.01562 C 94.078103 174.12512 93.956361 174.24085 93.841797 174.36328 C 92.066811 176.26013 92.165647 179.23674 94.0625 181.01172 L 107.11133 193.22266 C 107.24159 193.34455 107.37823 193.45813 107.52148 193.56445 C 109.60754 195.11267 112.55334 194.67786 114.10156 192.5918 L 123.48242 179.95312 C 122.77946 172.88424 123.51714 165.65326 125.78516 158.72461 L 122.22852 155.39648 C 121.35102 154.57536 120.23396 154.15172 119.10938 154.12891 z "
     style="fill-rule:evenodd;stroke:none;fill:#b1b1b1;fill-opacity:1"
     id="Rectangle-6-Copy-4" />
  <path
     d="M 149.43555 89.982422 C 137.07295 89.98242 126.96875 100.12452 126.96875 112.50195 C 126.96875 121.35702 132.14105 129.06803 139.61133 132.74023 C 140.7255 131.14152 141.92442 129.58086 143.23242 128.07617 L 143.70312 127.5332 L 143.75977 127.55469 L 144.64062 125.16016 C 139.54351 123.23618 135.94726 118.33591 135.94727 112.50195 C 135.94727 104.96349 141.9402 98.962889 149.43555 98.962891 C 151.26076 98.962891 152.99398 99.323489 154.57617 99.970703 C 156.10615 97.314429 157.89965 94.849049 159.91992 92.607422 C 156.78527 90.935766 153.21713 89.982423 149.43555 89.982422 z "
     style="color:#000000;font-style:normal;font-variant:normal;font-weight:normal;font-stretch:normal;font-size:medium;line-height:normal;font-family:sans-serif;font-variant-ligatures:normal;font-variant-position:normal;font-variant-caps:normal;font-variant-numeric:normal;font-variant-alternates:normal;font-variant-east-asian:normal;font-feature-settings:normal;font-variation-settings:normal;text-indent:0;text-align:start;text-decoration:none;text-decoration-line:none;text-decoration-style:solid;text-decoration-color:#000000;letter-spacing:normal;word-spacing:normal;text-transform:none;writing-mode:lr-tb;direction:ltr;text-orientation:mixed;dominant-baseline:auto;baseline-shift:baseline;text-anchor:start;white-space:normal;shape-padding:0;shape-margin:0;inline-size:0;clip-rule:nonzero;display:inline;overflow:visible;visibility:visible;isolation:auto;mix-blend-mode:normal;color-interpolation:sRGB;color-interpolation-filters:linearRGB;solid-color:#000000;solid-opacity:1;vector-effect:none;fill:#5e5e5e;fill-opacity:1;fill-rule:evenodd;stroke:none;stroke-width:8.97989;stroke-linecap:butt;stroke-linejoin:miter;stroke-miterlimit:4;stroke-dasharray:none;stroke-dashoffset:0;stroke-opacity:1;color-rendering:auto;image-rendering:auto;shape-rendering:auto;text-rendering:auto;enable-background:accumulate;stop-color:#000000;stop-opacity:1;opacity:1"
     id="path1115" />
  <path
     d="M 144.55078 113.17578 C 143.42511 113.15376 142.29077 113.53329 141.38086 114.32031 L 88.681641 159.9043 C 88.556535 160.01251 88.437238 160.12727 88.324219 160.24805 C 86.549233 162.1449 86.646116 165.1215 88.542969 166.89648 L 123.28711 199.4082 C 123.41572 199.52855 123.55208 199.64091 123.69336 199.74609 C 125.46757 201.06683 127.86081 200.93788 129.49219 199.58789 C 121.43905 184.69607 120.94384 166.35685 129.1582 150.74023 C 130.49223 148.20407 132.03058 145.83625 133.71484 143.61523 C 135.94193 138.09173 139.10014 132.82982 143.23242 128.07617 L 143.70312 127.5332 L 143.75977 127.55469 L 148.34766 115.07617 L 147.67188 114.44336 C 146.79343 113.62135 145.67645 113.1978 144.55078 113.17578 z "
     style="fill-rule:evenodd;stroke:none;fill:#d8d8d8;fill-opacity:1"
     id="Mask" />
  <path
     d="M 122.7793 130.41016 L 120.50391 132.37695 L 133.17188 144.35938 C 133.35337 144.11171 133.52975 143.85932 133.71484 143.61523 C 133.9903 142.93207 134.27996 142.25282 134.58398 141.57812 L 122.7793 130.41016 z "
     style="fill:#b8b7b7;fill-rule:evenodd;stroke:none"
     id="polygon23" />
  <path
     d="M 105.99805 144.92578 L 91.189453 157.73438 L 125.94727 191.41406 C 122.88867 182.31198 122.36868 172.44202 124.60156 162.95117 L 105.99805 144.92578 z "
     style="fill:#ffc800;fill-rule:evenodd;stroke:none"
     id="polygon25" />
  <path
     d="M 122.01172 160.44336 L 121.0957 186.71289 L 125.94727 191.41406 C 122.88867 182.31198 122.36868 172.44202 124.60156 162.95117 L 122.01172 160.44336 z "
     style="fill:#5e5e5e;fill-rule:evenodd;stroke:none"
     id="polygon27" />
  <polygon
     id="polygon29"
     fill="#5e5e5e"
     points="106.30267,145.21961 117.11058,155.69276 116.1932,181.96315 105.38529,171.49 "
     style="fill-rule:evenodd;stroke:none" />
  <ellipse
     id="Oval"
     fill="#b8b7b7"
     cx="136.93192"
     cy="127.03667"
     rx="3.4012425"
     ry="3.4111676"
     style="fill-rule:evenodd;stroke:none" />
  <path
     d="M 236.4082 185 C 231.04284 193.97939 223.06758 203.09345 210.83789 210.58594 C 206.07703 213.33754 200.97941 215.3203 195.73438 216.52539 C 197.99176 220.94889 200.93345 225.05878 204.53906 228.67578 C 207.64906 231.79561 212.91862 230.93158 214.94531 226.96875 L 236.4082 185 z "
     style="stroke:none;fill:#000000;fill-opacity:0.5"
     id="path32" />
  <path
     d="M 194.08594 78.308594 C 192.87331 78.297263 191.65033 78.313126 190.41797 78.355469 C 172.94986 78.955647 157.50969 90.159604 151.45312 106.63086 L 143.75977 127.55469 L 143.70312 127.5332 L 143.23242 128.07617 C 139.10014 132.82982 135.94193 138.09173 133.71484 143.61523 C 132.03058 145.83625 130.49223 148.20407 129.1582 150.74023 C 118.69246 170.63701 122.3598 194.95593 137.79102 210.92969 C 141.00275 214.25434 146.47633 213.52297 148.59961 209.48633 L 150.21875 206.4082 C 167.91346 220.36451 192.00643 221.46982 210.83789 210.58594 C 229.38553 199.22278 238.1866 184.12761 242.85938 171.43359 C 243.06359 170.87882 243.27326 170.41137 243.48828 170.02539 L 244.92383 166.12305 L 245.0957 166.18945 L 253.48242 143.38281 C 259.53899 126.91156 254.9863 108.50606 241.99414 96.933594 C 234.66144 90.402155 226.69737 85.586584 218.10156 82.490234 C 210.58023 79.780927 202.57433 78.387911 194.08594 78.308594 z "
     style="fill-rule:evenodd;stroke:none;fill:#000000;fill-opacity:0.39919358"
     id="path34" />
  <path
     d="M 222.49414 84.246094 C 223.29583 86.336126 224.01598 88.809392 224.5293 91.667969 C 224.79438 93.144164 224.82739 94.646472 224.75781 96.21875 C 226.20543 96.580518 227.65954 96.979265 229.13086 97.458984 C 231.79986 98.329209 234.29439 99.333435 236.62695 100.45703 C 237.09394 98.015087 236.79582 94.946427 234.91992 91.302734 C 230.94479 88.496416 226.80345 86.143581 222.49414 84.246094 z "
     style="fill-rule:evenodd;stroke:none;fill:#ffffff;fill-opacity:1"
     id="path36" />
  <path
     d="m 203.9934,167.56905 c 0,0 28.45937,-17.84053 15.07789,7.80248 -9.2819,17.78694 -30.21613,30.20726 -34.97539,28.98403 -2.82722,-0.72666 -14.7766,-4.74409 -10.09874,-5.96375 1.06534,-0.27777 12.48998,-6.24894 18.00284,-12.11149 8.32277,-8.85071 11.9934,-18.71127 11.9934,-18.71127 z"
     id="Path-68-Copy-3"
     fill="#ffffff"
     style="fill-rule:evenodd;stroke:none" />
  <path
     d="M 173.30273 168.64258 C 169.8859 168.70032 166.67597 170.773 165.30273 174.17188 C 165.28704 174.21071 165.27683 174.25014 165.26172 174.28906 L 174.79883 174.25391 C 176.23616 174.24891 177.40382 175.40763 177.4082 176.84375 C 177.4102 177.34409 177.26643 177.83452 176.99609 178.25586 L 171.9375 186.14062 C 175.91741 186.82171 179.96293 184.66834 181.55078 180.73828 C 183.38176 176.20644 181.22632 171.09848 176.72852 169.28125 C 175.60407 168.82694 174.44168 168.62333 173.30273 168.64258 z M 164.89844 179.54492 C 165.30394 181.24354 166.20991 182.79488 167.52148 183.98633 L 168.08594 180.49609 L 164.89844 179.54492 z "
     style="color:#000000;font-style:normal;font-variant:normal;font-weight:normal;font-stretch:normal;font-size:medium;line-height:normal;font-family:sans-serif;font-variant-ligatures:normal;font-variant-position:normal;font-variant-caps:normal;font-variant-numeric:normal;font-variant-alternates:normal;font-variant-east-asian:normal;font-feature-settings:normal;font-variation-settings:normal;text-indent:0;text-align:start;text-decoration:none;text-decoration-line:none;text-decoration-style:solid;text-decoration-color:#000000;letter-spacing:normal;word-spacing:normal;text-transform:none;writing-mode:lr-tb;direction:ltr;text-orientation:mixed;dominant-baseline:auto;baseline-shift:baseline;text-anchor:start;white-space:normal;shape-padding:0;shape-margin:0;inline-size:0;clip-rule:nonzero;display:inline;overflow:visible;visibility:visible;isolation:auto;mix-blend-mode:normal;color-interpolation:sRGB;color-interpolation-filters:linearRGB;solid-color:#000000;solid-opacity:1;vector-effect:none;fill:#ffffff;fill-opacity:1;fill-rule:evenodd;stroke:none;stroke-width:2.63429;stroke-linecap:butt;stroke-linejoin:miter;stroke-miterlimit:4;stroke-dasharray:none;stroke-dashoffset:0;stroke-opacity:1;color-rendering:auto;image-rendering:auto;shape-rendering:auto;text-rendering:auto;enable-background:accumulate;stop-color:#000000"
     id="path1140" />
  <path
     d="M 173.26953 166.01562 C 168.82577 166.09968 164.63051 168.80183 162.85938 173.18555 C 160.49786 179.03051 163.31197 185.71892 169.13672 188.07227 C 174.96146 190.42562 181.63068 187.56956 183.99219 181.72461 C 186.35371 175.87966 183.53959 169.19319 177.71484 166.83984 C 176.25866 166.25151 174.75078 165.98761 173.26953 166.01562 z M 173.30273 168.64258 C 174.44168 168.62333 175.60407 168.82694 176.72852 169.28125 C 181.22632 171.09848 183.38176 176.20644 181.55078 180.73828 C 179.96293 184.66834 175.91741 186.82171 171.9375 186.14062 L 176.99609 178.25586 C 177.26643 177.83452 177.4102 177.34409 177.4082 176.84375 C 177.40382 175.40763 176.23616 174.24891 174.79883 174.25391 L 165.26172 174.28906 C 165.27683 174.25014 165.28704 174.21071 165.30273 174.17188 C 166.67597 170.773 169.8859 168.70032 173.30273 168.64258 z M 164.89844 179.54492 L 168.08594 180.49609 L 167.52148 183.98633 C 166.20991 182.79488 165.30394 181.24354 164.89844 179.54492 z "
     style="color:#000000;font-style:normal;font-variant:normal;font-weight:normal;font-stretch:normal;font-size:medium;line-height:normal;font-family:sans-serif;font-variant-ligatures:normal;font-variant-position:normal;font-variant-caps:normal;font-variant-numeric:normal;font-variant-alternates:normal;font-variant-east-asian:normal;font-feature-settings:normal;font-variation-settings:normal;text-indent:0;text-align:start;text-decoration:none;text-decoration-line:none;text-decoration-style:solid;text-decoration-color:#000000;letter-spacing:normal;word-spacing:normal;text-transform:none;writing-mode:lr-tb;direction:ltr;text-orientation:mixed;dominant-baseline:auto;baseline-shift:baseline;text-anchor:start;white-space:normal;shape-padding:0;shape-margin:0;inline-size:0;clip-rule:nonzero;display:inline;overflow:visible;visibility:visible;isolation:auto;mix-blend-mode:normal;color-interpolation:sRGB;color-interpolation-filters:linearRGB;solid-color:#000000;solid-opacity:1;vector-effect:none;fill:#000000;fill-opacity:0.39919358;fill-rule:evenodd;stroke:none;stroke-width:2.63429;stroke-linecap:butt;stroke-linejoin:miter;stroke-miterlimit:4;stroke-dasharray:none;stroke-dashoffset:0;stroke-opacity:1;color-rendering:auto;image-rendering:auto;shape-rendering:auto;text-rendering:auto;enable-background:accumulate;stop-color:#000000"
     id="path1142" />
  <path
     d="m 144.35341,145.14482 11.95602,7.20664 c 1.85854,1.12026 2.46024,3.53312 1.34534,5.39488 l -7.64729,12.77003 c -1.11717,1.86555 -3.53515,2.47223 -5.40071,1.35505 l -0.01,-0.006 -11.95602,-7.20664 c -1.85854,-1.12026 -2.46024,-3.53312 -1.34534,-5.39488 l 7.64729,-12.77003 c 1.11718,-1.86555 3.53516,-2.47223 5.40071,-1.35505 z"
     id="Rectangle-182"
     fill="#235390"
     style="fill-rule:evenodd;stroke:none;fill:#000000;fill-opacity:0.40322581" />
  <path
     d="m 206.17359,94.875748 c 7.29536,-0.891544 14.95169,-0.02635 22.95785,2.584036 3.34699,1.091281 6.42972,2.381408 9.2475,3.871326 15.88449,8.39902 23.43523,26.99873 17.9001,44.09327 l -5.9824,18.47588 c -1.2589,3.88795 -4.16523,7.02474 -7.94601,8.57609 -12.12566,4.97545 -24.8234,5.30554 -38.0284,1.00008 -13.22509,-4.31201 -24.03745,-12.31904 -32.40199,-23.98886 -2.57042,-3.58613 -3.28524,-8.17976 -1.92607,-12.37738 l 5.47644,-16.9133 c 4.43473,-13.69607 16.41314,-23.574823 30.70298,-25.321142 z"
     id="Mask-Copy-13"
     stroke="#ffffff"
     stroke-width="2.9933"
     fill="#235390"
     style="fill-rule:evenodd;fill:#000000;fill-opacity:0.40322581" />
  <path
     d="m 245.38349,108.14959 c 9.81426,9.20963 13.78641,23.48828 9.47169,36.81375 l -5.98241,18.47588 c -1.12332,3.46925 -3.71667,6.26823 -7.09029,7.65251 -11.79145,4.83832 -24.12356,5.15891 -36.99631,0.96178 -12.91924,-4.2123 -23.46907,-12.02491 -31.64948,-23.43785 -2.29361,-3.19992 -2.93145,-7.29886 -1.71866,-11.04443 l 5.47645,-16.91329 c 4.22088,-13.03565 15.56365,-22.467423 29.12853,-24.254425 10.42822,7.182045 17.82467,11.564505 22.18936,13.147385 3.6405,1.32025 8.00268,1.13871 13.08651,-0.54463 1.35386,-0.44828 2.72279,-0.73013 4.08461,-0.85668 z"
     id="path47"
     fill="#78c800"
     style="fill-rule:evenodd;stroke:none" />
  <path
     d="m 254.54652,122.18542 c 2.53096,7.14524 2.78857,15.11902 0.30866,22.77792 l -5.98241,18.47588 c -1.12332,3.46925 -3.71667,6.26823 -7.09029,7.65251 -3.69712,1.51702 -7.44739,2.5899 -11.25081,3.21866 -8.22546,-2.68591 -12.81866,-11.47717 -10.27782,-19.78789 l 0.12682,-0.41481 -11.06168,-3.3819 c -4.5082,8.37482 -14.4365,12.68858 -23.87975,9.80149 l -1.11814,-0.34185 c -0.38418,-0.11745 -0.76235,-0.24524 -1.13432,-0.38295 -3.67421,-3.23635 -7.02424,-6.96529 -10.05009,-11.18682 -2.29361,-3.19992 -2.93145,-7.29886 -1.71866,-11.04443 l 5.47645,-16.91329 c 0.79609,-2.45864 1.84553,-4.78907 3.11545,-6.96419 2.90013,-2.74013 6.56027,-4.58304 10.50125,-5.27393 0.78137,-1.88063 1.96278,-3.60924 3.51135,-5.04784 0.95141,-0.88385 2.48349,-0.59352 3.02572,0.57338 l 2.21035,4.75673 c 0.68362,-2.61354 2.09343,-5.03871 4.15223,-6.9513 0.95141,-0.88385 2.14812,-0.69402 2.69035,0.47287 l 9.91118,20.74005 c 3.32576,5.10899 10.08099,6.09095 14.68992,3.30959 0.78244,-0.46072 1.46571,-0.77371 2.04982,-0.93896 l 0.32575,-0.19045 c 0.45825,-0.30046 0.93153,-0.57712 1.41776,-0.82888 l 14.30279,-8.36202 c 0.89325,-0.53824 1.87851,0.0355 2.23404,1.2558 0.6851,2.35143 0.81224,4.696 0.43474,6.83214 z"
     id="path49"
     fill="#8ee000"
     style="fill-rule:evenodd;stroke:none" />
  <path
     d="m 199.01275,116.20773 c 7.85762,2.40232 12.28002,10.71964 9.8777,18.57726 l -2.84878,9.31793 c -2.40231,7.85762 -10.71963,12.28002 -18.57725,9.87771 -7.85762,-2.40232 -12.28002,-10.71964 -9.87771,-18.57726 l 2.84878,-9.31794 c 2.40232,-7.85762 10.71964,-12.28002 18.57726,-9.8777 z"
     id="Rectangle-130"
     fill="#ffffff"
     style="fill-rule:evenodd;stroke:none" />
  <path
     d="m 242.26556,129.88209 c 6.28529,1.9216 9.82276,8.57461 7.90115,14.8599 l -4.46358,14.59972 c -1.92161,6.28529 -8.57461,9.82276 -14.8599,7.90115 -6.2853,-1.92161 -9.82276,-8.57461 -7.90115,-14.85991 l 4.46358,-14.59971 c 1.9216,-6.28529 8.57461,-9.82276 14.8599,-7.90115 z"
     id="path52"
     fill="#ffffff"
     style="fill-rule:evenodd;stroke:none" />
  <path
     d="m 227.16737,171.14703 -8.24827,-12.91068 c 7.48616,-3.65141 17.32311,-5.16009 29.62302,-4.81933 -2.21415,4.49686 -3.37476,8.3695 -3.48183,11.61793 -0.0131,0.39662 -13.55796,3.99768 -17.89292,6.11208 z"
     id="path54"
     fill="#8ee000"
     fill-rule="nonzero"
     style="stroke:none" />
  <path
     d="m 172.76299,146.38146 6.06772,-15.99754 c 11.99285,5.69229 20.68802,11.94089 26.05227,19.05855 l -15.02562,11.32411 c -3.25256,-4.31572 -7.60627,-9.88168 -17.09437,-14.38512 z"
     id="path56"
     fill="#8ee000"
     fill-rule="nonzero"
     style="stroke:none" />
  <path
     d="m 216.61348,187.2661 4.5949,2.05341 c 2.1522,0.9618 3.12009,3.48394 2.16386,5.63862 l -0.0869,0.19583 c -0.95798,2.15862 -3.48449,3.13193 -5.64311,2.17395 l -0.0101,-0.005 -4.5949,-2.0534 c -2.1522,-0.9618 -3.12009,-3.48394 -2.16386,-5.63862 l 0.0869,-0.19583 c 0.95798,-2.15862 3.48449,-3.13193 5.64311,-2.17395 z"
     id="Rectangle-Copy-5"
     fill="#235390"
     style="fill-rule:evenodd;stroke:none;fill:#000000;fill-opacity:0.39516127" />
  <path
     d="m 236.62643,134.2895 c 1.45832,-2.96731 5.046,-4.1906 8.01332,-2.73228 2.70953,1.33163 4.29514,3.83489 4.68694,6.78348 0.26761,2.01406 -0.004,4.19957 -0.70231,6.68859 -0.89338,3.18332 -4.1982,5.03968 -7.38152,4.1463 -3.18332,-0.89339 -5.03968,-4.19821 -4.14629,-7.38153 0.11949,-0.4258 0.20441,-0.78856 0.26199,-1.07974 -1.43166,-1.75786 -1.79757,-4.25691 -0.73213,-6.42482 z"
     id="path59"
     fill="#4b4b4b"
     fill-rule="nonzero"
     style="stroke:none" />
  <ellipse
     id="Oval-53-Copy"
     fill="#ffffff"
     transform="rotate(18)"
     cx="266.74548"
     cy="61.320927"
     rx="5.3465848"
     ry="5.3586378"
     style="fill-rule:evenodd;stroke:none" />
  <path
     d="m 195.66705,121.7451 c 1.62358,-2.88021 5.27463,-3.89891 8.15484,-2.27533 5.06496,2.85513 5.98363,8.24558 3.88089,14.1517 -1.10895,3.11479 -4.53296,4.74084 -7.64775,3.63189 -3.11478,-1.10894 -4.74084,-4.53296 -3.63189,-7.64774 0.0908,-0.25499 0.16339,-0.48626 0.21908,-0.6922 -1.84945,-1.85242 -2.3236,-4.77622 -0.97517,-7.16832 z"
     id="path62"
     fill="#4b4b4b"
     fill-rule="nonzero"
     style="stroke:none" />
  <ellipse
     id="Oval-53"
     fill="#ffffff"
     transform="rotate(18)"
     cx="224.42596"
     cy="64.258781"
     rx="5.3465848"
     ry="5.3586378"
     style="fill-rule:evenodd;stroke:none" />
  <path
     d="m 216.76378,149.96234 c 3.68026,1.64367 5.33618,5.9557 3.70206,9.6402 l -1.17416,2.64742 c -1.62866,3.67219 -5.92585,5.3288 -9.59804,3.70014 -0.006,-0.003 -0.0115,-0.005 -0.0172,-0.008 -3.68026,-1.64366 -5.33618,-5.95569 -3.70205,-9.6402 l 1.17415,-2.64741 c 1.62866,-3.67219 5.92585,-5.3288 9.59804,-3.70014 0.006,0.003 0.0115,0.005 0.0172,0.008 z"
     id="Rectangle-2-Copy-4"
     fill="#f49000"
     style="fill-rule:evenodd;stroke:none" />
  <path
     d="m 206.21348,152.57228 c 2.94585,-4.56769 8.67007,-6.39098 13.51361,-4.22701 4.84353,2.16397 7.32351,7.65268 5.91195,12.90586 l -0.0969,0.36069 -19.53091,-8.72592 z"
     id="Combined-Shape-Copy-2"
     fill="#ffc200"
     fill-rule="nonzero"
     style="stroke:none" />
  <path
     d="m 216.24469,152.3736 c -0.83526,0.12318 -1.61222,-0.45408 -1.7354,-1.28933 -0.12317,-0.83525 0.45408,-1.61222 1.28934,-1.7354 2.86312,-0.42223 5.22185,0.63159 6.82371,3.04734 0.46658,0.70365 0.2744,1.65231 -0.42925,2.11889 -0.70365,0.46659 -1.65231,0.27441 -2.11889,-0.42924 -0.94739,-1.42875 -2.13973,-1.96146 -3.82951,-1.71226 z"
     id="path67"
     fill="#ffde00"
     fill-rule="nonzero"
     style="stroke:none" />
  <polygon
     id="polygon69"
     fill="#5e5e5e"
     points="100.60506,149.5898 100.02178,166.29263 91.189368,157.73379 "
     style="fill-rule:evenodd;stroke:none" />
  <path
     d="m 203.97199,96.61365 c 8.31166,-1.4095 17.4711,-0.4483 27.47833,2.88361 9.0119,3.00051 16.44036,7.3364 22.28541,13.00765 10.02257,9.72458 13.41099,24.42271 8.6574,37.55369 l -5.99063,16.5481 c -1.29093,3.56598 -3.92414,6.4864 -7.33794,8.13828 -10.69387,5.1746 -22.85915,5.67009 -36.49585,1.48646 -16.19956,-4.96991 -29.50666,-14.15693 -39.92131,-27.56108 -2.42361,-3.1193 -3.15272,-7.23329 -1.94871,-10.99551 l 5.40425,-16.88678 c 4.04278,-12.63258 14.79203,-21.95679 27.86905,-24.17442 z"
     id="path71"
     fill="#98ddff"
     opacity="0.492857"
     style="fill-rule:evenodd;stroke:none;fill:#ffffff;fill-opacity:0.35080642;opacity:1" />
  <ellipse
     id="Oval-Copy-2"
     fill="#ffffff"
     cx="213.68677"
     cy="108.60406"
     rx="8.2601604"
     ry="8.2842636"
     style="fill-rule:evenodd;stroke:none" />
</svg>
