<?xml version="1.0" encoding="UTF-8" standalone="no"?>
<svg
   xmlns:dc="http://purl.org/dc/elements/1.1/"
   xmlns:cc="http://creativecommons.org/ns#"
   xmlns:rdf="http://www.w3.org/1999/02/22-rdf-syntax-ns#"
   xmlns:svg="http://www.w3.org/2000/svg"
   xmlns="http://www.w3.org/2000/svg"
   xmlns:sodipodi="http://sodipodi.sourceforge.net/DTD/sodipodi-0.dtd"
   xmlns:inkscape="http://www.inkscape.org/namespaces/inkscape"
   inkscape:version="1.0 (4035a4fb49, 2020-05-01)"
   sodipodi:docname="parachute.svg"
   id="svg60"
   version="1.1"
   viewBox="0 0 320 320"
   height="320px"
   width="320px">
  <metadata
     id="metadata66">
    <rdf:RDF>
      <cc:Work
         rdf:about="">
        <dc:format>image/svg+xml</dc:format>
        <dc:type
           rdf:resource="http://purl.org/dc/dcmitype/StillImage" />
      </cc:Work>
    </rdf:RDF>
  </metadata>
  <defs
     id="defs64" />
  <sodipodi:namedview
     inkscape:current-layer="svg60"
     inkscape:window-maximized="1"
     inkscape:window-y="-8"
     inkscape:window-x="-8"
     inkscape:cy="150.797"
     inkscape:cx="179.00065"
     inkscape:zoom="1.6"
     inkscape:snap-page="true"
     showgrid="false"
     id="namedview62"
     inkscape:window-height="745"
     inkscape:window-width="1366"
     inkscape:pageshadow="2"
     inkscape:pageopacity="0"
     guidetolerance="10"
     gridtolerance="10"
     objecttolerance="10"
     borderopacity="1"
     bordercolor="#666666"
     pagecolor="#ffffff" />
  <title
     id="title2">duo_plus_parachute</title>
  <desc
     id="desc4">Created with Sketch.</desc>
  <g
     id="g1024">
    <path
       id="Rectangle-71"
       style="fill-rule:evenodd;stroke:none;fill:#ffffff;fill-opacity:1"
       d="M 197.72656 147.03125 C 197.95153 149.31339 198.01221 151.62822 197.88672 153.95898 L 193.75586 187.89844 C 198.65175 190.54249 202.36911 195.27582 203.51367 201.16406 L 203.94727 203.39648 L 206.77734 195.6543 C 211.25104 194.6269 215.13296 191.43724 216.82617 186.80664 L 222.60352 171.00586 C 222.60782 170.99286 222.61219 170.9799 222.61719 170.9668 C 225.25583 163.68352 221.49226 155.64059 214.20898 153.00195 L 197.72656 147.03125 z " />
    <path
       id="Rectangle-7-Copy"
       style="fill-rule:evenodd;stroke:none;fill:#000000;fill-opacity:0.40322581"
       d="M 140.16602 103.04297 C 133.37637 103.15557 126.53123 104.3141 119.62891 106.51953 C 103.32277 111.72968 91.989874 126.85893 91.029297 144.69922 L 90.304688 150.82617 L 78.539062 156.55273 C 78.529352 156.55793 78.519466 156.56141 78.509766 156.56641 C 68.960137 161.23405 65.00228 172.75896 69.669922 182.30859 L 77.050781 197.41016 C 77.460104 198.2476 77.940351 199.02598 78.449219 199.77539 C 80.013284 216.98184 89.928029 233.08995 106.31055 241.83008 C 106.35411 241.85338 106.39781 241.87729 106.44141 241.90039 C 123.84333 251.12203 144.03659 249.7343 159.64062 240.02734 C 163.82752 243.12657 169.23744 244.543 174.75391 243.4707 L 191.5 240.2168 C 201.93403 238.18863 208.74692 228.08636 206.71875 217.65234 L 203.51367 201.16406 C 202.36911 195.27582 198.65175 190.54249 193.75586 187.89844 L 197.88672 153.95898 C 198.8473 136.11869 189.24273 119.17541 173.64648 111.20117 C 164.84404 106.70055 155.94027 104.05932 146.9375 103.2793 C 144.68681 103.08429 142.42923 103.00544 140.16602 103.04297 z " />
    <path
       id="Path"
       style="opacity:0.372001;fill:#ffffff;fill-rule:nonzero;stroke:none"
       d="M 219.60938 69.419922 L 197.76562 147.41602 C 197.95984 149.57325 198.00515 151.75935 197.88672 153.95898 L 196.98828 161.34375 L 222.50391 70.230469 L 219.60938 69.419922 z " />
    <path
       id="polygon11"
       style="opacity:0.372001;fill:#ffffff;fill-rule:nonzero;stroke:none"
       d="M 279.39844 85.710938 L 197.43164 157.69922 L 196.88672 162.17969 L 281.38086 87.96875 L 279.39844 85.710938 z " />
    <path
       id="polygon13"
       style="opacity:0.372001;fill:#ffffff;fill-rule:nonzero;stroke:none"
       d="M 311.33398 104.87109 L 196.97656 161.43359 L 196.54297 165.00195 L 312.66797 107.56445 L 311.33398 104.87109 z " />
    <path
       id="polygon15"
       style="opacity:0.372001;fill:#ffffff;fill-rule:nonzero;stroke:none"
       d="M 124.61914 65.591797 L 122.20898 67.386719 L 149.11914 103.52539 C 150.52791 103.69487 151.93595 103.89726 153.33984 104.1582 L 124.61914 65.591797 z M 196.83789 162.57031 L 196.3125 166.89648 L 209.375 184.43945 L 211.78711 182.64453 L 196.83789 162.57031 z " />
    <path
       id="polygon17"
       style="opacity:0.372001;fill:#ffffff;fill-rule:nonzero;stroke:none"
       d="M 161.58984 61.904297 L 158.78711 62.990234 L 178.60352 114.17969 C 180.24961 115.3223 181.80885 116.57124 183.27344 117.91797 L 161.58984 61.904297 z M 197.72852 155.25977 L 196.95703 161.59375 L 201.38086 173.02148 L 204.18359 171.93555 L 197.72852 155.25977 z " />
    <path
       style="stroke:none"
       fill-rule="nonzero"
       fill="#ffffff"
       id="Mask"
       d="m 119.81841,62.72932 c 19.74296,-44.86389 68.70535,-70.2234831 117.4179,-59.9068524 48.71255,10.3166304 83.08972,53.3263654 82.81165,102.3126424 -0.0186,3.27708 -2.27777,5.87472 -6.27259,5.02868 -7.59542,-6.66025 -11.13875,-17.162119 -17.32808,-18.626066 -8.27725,-1.9578 -19.0901,6.670146 -29.55987,8.695856 -19.2274,-4.07209 -31.51633,-26.204123 -47.08939,-29.502278 -19.49197,-4.128123 -41.23276,10.796896 -54.99977,7.881238 -5.75,-1.21777 -11.81105,-16.364598 -21.16331,-18.345273 -3.71736,-0.787286 -10.43037,2.412055 -20.13903,9.59802 -3.21879,-0.681695 -4.99827,-4.134665 -3.67751,-7.135967 z" />
    <path
       id="path22"
       style="fill-rule:evenodd;stroke:none;fill:#ffffff;fill-opacity:1"
       d="M 141.58008 103.03516 C 137.9579 103.01773 134.31838 103.29933 130.66406 103.87891 C 128.30246 105.72047 127.37193 107.48475 127.16211 109.16602 C 127.23343 109.16071 127.30358 109.1514 127.375 109.14648 C 130.65935 108.92034 134.11212 108.99521 137.73047 109.37109 C 138.5337 109.45453 139.31873 109.56439 140.10352 109.67383 C 140.27984 109.37487 140.46307 109.07892 140.6582 108.79102 C 142.17158 106.55817 143.71436 104.69313 145.19727 103.15234 C 143.99345 103.0802 142.78747 103.04096 141.58008 103.03516 z " />
    <path
       style="fill-rule:evenodd"
       stroke-linejoin="round"
       stroke-linecap="square"
       fill="#ffffff"
       stroke-width="2.42383"
       stroke="#ffffff"
       id="path24"
       d="m 101.83249,220.18067 c -0.87931,-14.51366 1.76765,-27.52473 10.0655,-36.25404 6.38462,-6.7166 11.62646,-8.419 15.24699,-5.71642 2.67041,1.99336 3.8582,6.56961 2.61306,8.69526 -0.17814,0.30412 -5.44269,4.93794 -7.58165,7.61878 -5.84153,7.3214 -8.59209,17.03999 -6.76273,30.47922 l 0.27392,2.01229 -1.90106,-0.71437 c -0.40633,-0.15269 -0.81138,-0.31027 -1.21508,-0.47272 l -3.09374,-1.24493 c -0.0713,-0.0287 -0.0713,-0.0287 -0.14258,-0.0576 -2.38993,-0.96948 -4.69297,-2.09522 -6.89903,-3.36928 l -0.5642,-0.32584 z" />
    <path
       style="fill-rule:evenodd;stroke:none;fill:#000000;fill-opacity:0.59677422"
       fill="#235390"
       id="Rectangle-4-Copy-44"
       d="m 76.358183,228.88274 c -3.3783,2.18961 -7.891603,1.23028 -10.087246,-2.1441 l -6.175233,-9.49044 -0.0071,-0.0109 c -2.184566,-3.37051 -1.223167,-7.87379 2.147345,-10.05836 3.378301,-2.18961 7.891603,-1.23028 10.087247,2.1441 l 6.175232,9.49044 0.0071,0.0109 c 2.184566,3.37051 1.223167,7.87379 -2.147345,10.05836 z" />
    <path
       style="fill-rule:evenodd;stroke:none;fill:#000000;fill-opacity:0.59677422"
       fill="#235390"
       id="path27"
       d="m 87.541402,246.38695 c -1.248116,3.8207 -5.351893,5.91168 -9.176525,4.67567 l -10.851226,-3.50681 c -0.0073,-0.002 -0.01456,-0.005 -0.02183,-0.007 -3.805097,-1.24302 -5.882072,-5.33532 -4.639053,-9.14042 1.248116,-3.8207 5.351892,-5.91167 9.176525,-4.67566 l 10.851225,3.5068 c 0.0073,0.002 0.01456,0.005 0.02183,0.007 3.805097,1.24302 5.882071,5.33533 4.639054,9.14042 z" />
    <path
       style="fill-rule:evenodd;fill:#000000;fill-opacity:0.40322581"
       fill="#235390"
       stroke-width="3.07398"
       stroke="#ffffff"
       id="Mask-Copy-11"
       d="m 160.28404,116.49047 c 12.71802,7.59731 19.85885,21.8953 18.29245,36.62667 l -1.92739,18.12624 c -0.47908,4.50556 -3.0691,8.51597 -6.97877,10.80598 -12.7258,7.45389 -26.21767,10.45046 -40.42929,8.97415 -14.18732,-1.47379 -25.96227,-7.08211 -35.259959,-16.80721 -2.90223,-3.03564 -4.320108,-7.19547 -3.876045,-11.37169 l 2.107386,-19.81908 c 1.948922,-18.32878 16.774868,-32.61339 35.163448,-33.8795 3.28435,-0.22614 6.73582,-0.15068 10.35417,0.2252 8.57326,0.89059 16.09629,3.26162 22.554,7.11924 z" />
    <path
       style="fill-rule:evenodd;stroke:none"
       fill="#78c800"
       id="path30"
       d="m 117.08886,112.94581 c 1.70803,0.78719 3.32623,1.84556 4.79161,3.17809 4.0635,3.69511 8.08078,5.67926 12.05183,5.95245 4.85582,0.33405 13.90171,-0.75624 27.13768,-3.27088 11.21407,7.49833 17.41525,20.63365 15.97813,34.14916 l -1.92738,18.12624 c -0.42749,4.02035 -2.73859,7.59887 -6.22721,9.64226 -12.4459,7.28994 -25.61046,10.21381 -39.49368,8.77161 -13.8305,-1.43672 -25.26643,-6.88357 -34.307804,-16.34057 -2.589682,-2.70872 -3.854865,-6.42057 -3.458624,-10.14705 l 2.107385,-19.81907 c 1.484769,-13.96362 10.758543,-25.481 23.348063,-30.24224 z" />
    <path
       style="fill-rule:evenodd;stroke:none"
       fill="#8ee000"
       id="path32"
       d="m 101.78328,123.95024 2.15483,3.06344 c 0.45852,-0.0594 0.92208,-0.0999 1.38974,-0.12057 0.54022,-2.09337 1.60805,-4.16226 3.17377,-6.01399 0.83805,-0.99115 2.00452,-1.10904 2.62633,-0.22503 l 10.61227,14.67568 c 0.29786,0.32572 0.60692,0.71803 0.92716,1.17696 3.03429,4.44976 9.50025,6.32231 14.59192,3.04768 l 18.15193,-15.37879 c 1.0082,-0.87279 2.21596,-0.55947 2.73484,0.66106 1.14331,2.68931 1.42643,5.60118 0.91858,8.3808 l 4.23565,-3.66674 c 1.0082,-0.87279 2.57459,-0.51609 3.09348,0.70445 0.85253,2.00534 1.22677,4.13443 1.15143,6.24016 5.73094,3.78584 9.39746,10.27869 9.39961,17.4307 l -1.02701,9.65858 -0.67317,5.48254 c -0.44427,3.61832 -1.78775,6.90676 -3.77901,9.66887 -0.76069,0.76134 -1.62281,1.43105 -2.57211,1.98709 -5.0165,2.93831 -10.14974,5.16731 -15.39974,6.68699 -0.51619,-0.0251 -1.03525,-0.0693 -1.55644,-0.13329 l -1.74569,-0.21435 c -10.01469,-1.22965 -17.50224,-9.34769 -18.29764,-19.02315 l -11.9672,-1.46939 -0.0109,0.0883 c -0.97816,7.96646 -7.46053,13.91361 -15.16822,14.49837 -3.4755,-2.23721 -6.694068,-4.90471 -9.655704,-8.00249 -2.589682,-2.70872 -3.854865,-6.42057 -3.458624,-10.14705 L 93.740747,143.188 c 0.774251,-7.2815 3.666511,-13.89782 8.042483,-19.23781 z" />
    <path
       style="fill:none;fill-rule:evenodd"
       stroke-linejoin="round"
       stroke-linecap="round"
       stroke-width="4.18229"
       stroke="#68ad00"
       id="Rectangle-64"
       d="m 142.01452,151.77027 17.68016,2.48372 -0.40004,2.84518 c -0.66279,4.71404 -5.15794,7.97952 -10.04018,7.29366 -4.88224,-0.68587 -8.30277,-5.06335 -7.63998,-9.77739 z" />
    <path
       style="fill:none;fill-rule:evenodd"
       stroke-linejoin="round"
       stroke-linecap="round"
       stroke-width="4.18229"
       stroke="#68ad00"
       id="Rectangle-3"
       d="m 102.84798,146.96777 14.56013,2.04542 -0.58187,4.13844 c -0.56237,3.99979 -4.27766,6.78438 -8.29833,6.21955 -4.02067,-0.56483 -6.82418,-4.26518 -6.2618,-8.26497 z" />
    <path
       style="fill-rule:evenodd;stroke:none"
       fill="#f49000"
       id="Rectangle-2-Copy-2"
       d="m 126.05589,162.60342 c 4.33523,0 7.84963,3.51441 7.84963,7.84964 v 6.67779 c 0,4.33524 -3.5144,7.84964 -7.84963,7.84964 h -0.20066 c -4.33523,0 -7.84963,-3.5144 -7.84963,-7.84964 v -6.67779 c 0,-4.33523 3.5144,-7.84964 7.84963,-7.84964 z" />
    <path
       style="fill-rule:evenodd;stroke:none"
       fill="#b86d00"
       id="Rectangle-2-Copy-3"
       d="m 126.27438,164.35849 c 0.44942,0 0.89709,0.0561 1.33259,0.16713 2.88789,0.73597 4.63236,3.67369 3.89639,6.56158 l -1.84667,7.2462 c -0.66766,2.61981 -3.02696,4.45326 -5.7305,4.45326 -2.53808,0 -4.5956,-2.05752 -4.5956,-4.5956 v -6.88879 c 0,-3.83494 3.10884,-6.94378 6.94379,-6.94378 z" />
    <path
       style="fill-rule:evenodd;stroke:none"
       fill="#ffffff"
       id="Rectangle-130"
       d="m 155.16226,141.09219 c 7.29404,1.15658 12.27036,8.0059 11.11636,15.30034 l -1.3841,8.74887 -7.4e-4,0.005 c -1.15605,7.29071 -8.0035,12.26384 -15.29422,11.10779 -7.29403,-1.15658 -12.27036,-8.0059 -11.11635,-15.30034 l 1.3841,-8.74887 7.4e-4,-0.005 c 1.15605,-7.29071 8.0035,-12.26383 15.29421,-11.10779 z" />
    <path
       style="fill-rule:evenodd;stroke:none"
       fill="#4b4b4b"
       id="Rectangle-130-Copy-40"
       d="m 155.27021,149.40126 c 3.56181,0.75708 5.83549,4.25825 5.07841,7.82006 l -1.47523,6.94041 c -0.75709,3.56182 -4.25825,5.8355 -7.82007,5.07841 -3.56181,-0.75709 -5.83549,-4.25825 -5.0784,-7.82006 l 1.47523,-6.94042 c 0.75708,-3.56181 4.25824,-5.83549 7.82006,-5.0784 z" />
    <ellipse
       style="fill-rule:evenodd;stroke:none"
       ry="4.5094719"
       rx="4.5310917"
       cy="39.215488"
       cx="-218.90855"
       transform="matrix(-0.82903757,-0.5591929,-0.5591929,0.82903757,0,0)"
       fill="#ffffff"
       id="Oval-10-Copy-4" />
    <path
       style="fill-rule:evenodd;stroke:none"
       fill="#ffffff"
       id="path41"
       d="m 111.20502,135.48436 c 5.83448,0.92514 9.81503,6.4039 8.89194,12.2387 l -2.15955,13.65049 -5.9e-4,0.004 c -0.92472,5.83183 -6.40198,9.80982 -12.23381,8.8851 -5.834478,-0.92515 -9.815032,-6.4039 -8.891944,-12.23871 l 2.159557,-13.65049 5.89e-4,-0.004 c 0.924721,-5.83182 6.401978,-9.80982 12.233808,-8.88509 z" />
    <path
       style="fill-rule:evenodd;stroke:none"
       fill="#4b4b4b"
       id="path43"
       d="m 117.65672,153.39642 -0.69399,4.93794 c -0.45242,3.21918 -3.42884,5.46207 -6.64801,5.00964 -3.21918,-0.45242 -5.46207,-3.42884 -5.00965,-6.64802 l 1.21131,-8.61889 c 0.45243,-3.21917 3.42884,-5.46207 6.64802,-5.00964 1.1911,0.1674 2.24854,0.68033 3.08525,1.42325 -1.83043,0.36697 -3.31313,1.84622 -3.58655,3.79175 -0.34662,2.46628 1.38129,4.74792 3.85939,5.09619 0.38481,0.0541 0.76507,0.0584 1.13423,0.0178 z" />
    <path
       style="stroke:none"
       fill-rule="nonzero"
       fill="#ffc200"
       id="Combined-Shape-Copy"
       d="m 134.7293,170.57445 0.0596,0.36553 h -22.08323 l 0.0596,-0.36553 c 0.8674,-5.32366 5.50556,-9.28732 10.98206,-9.28732 5.47649,0 10.11466,3.96366 10.98206,9.28732 z" />
    <path
       style="stroke:none"
       fill-rule="nonzero"
       fill="#ffde00"
       id="path46"
       d="m 125.44563,166.26042 c -1.28895,-0.44267 -2.54949,-0.44267 -3.83845,0 -0.82004,0.28162 -1.71311,-0.15485 -1.99473,-0.97488 -0.28163,-0.82004 0.15484,-1.71311 0.97487,-1.99473 1.94992,-0.66966 3.92825,-0.66966 5.87817,0 0.82003,0.28162 1.2565,1.17469 0.97488,1.99473 -0.28163,0.82003 -1.1747,1.2565 -1.99474,0.97488 z" />
    <path
       style="fill-rule:evenodd;stroke:none;fill:#000000;fill-opacity:0.40322581"
       fill="#235390"
       id="Rectangle-Copy"
       d="m 96.069704,187.76611 0.01002,0.004 c 2.208201,0.98647 3.198607,3.57626 2.212134,5.78446 l -0.004,0.009 c -0.987486,2.21047 -3.577697,3.20476 -5.790631,2.22281 l -3.280723,-1.45576 -0.01002,-0.004 C 86.99833,193.34 86.007924,190.7502 86.994397,188.542 l 0.004,-0.009 c 0.987486,-2.21047 3.577697,-3.20475 5.790631,-2.2228 z" />
    <path
       id="path49"
       style="stroke:none;fill:#ffffff;fill-opacity:1"
       d="M 186.9707 178.9082 C 180.67954 178.6852 174.57622 181.99559 171.42188 187.79492 L 180.94922 185.94336 C 190.75949 184.03643 200.27587 189.94622 203.06445 199.33203 C 204.61742 191.79018 200.87878 183.89745 193.5918 180.51367 L 193.5332 180.48633 C 191.40515 179.49815 189.17733 178.98642 186.9707 178.9082 z " />
    <path
       style="fill:#ffffff;fill-opacity:0.35483873;fill-rule:evenodd;stroke:none;opacity:1"
       opacity="0.492857"
       fill="#98ddff"
       id="path52"
       d="m 153.5625,114.78885 c 16.22537,6.23166 25.25149,22.49044 23.44048,39.77675 l -1.74042,16.61259 c -0.45051,4.3002 -3.01579,8.09254 -6.83948,10.111 -15.4866,8.17514 -31.83258,11.21506 -49.03794,9.11978 -14.36509,-1.74939 -25.488247,-7.14552 -33.369474,-16.18838 -2.751962,-3.15759 -4.131669,-7.28193 -3.833623,-11.45983 L 83.31092,146.9366 c 1.117452,-15.664 11.655767,-29.07097 26.61255,-33.8568 7.62388,-2.43947 15.90417,-2.80626 25.02965,-2.3923 6.3698,0.28895 12.57292,1.65607 18.60938,4.10135 z" />
    <ellipse
       style="fill-rule:evenodd;stroke:none"
       ry="8.4951286"
       rx="8.5307131"
       cy="100.75644"
       cx="-175.15263"
       transform="matrix(-0.98162718,-0.190809,-0.190809,0.98162718,0,0)"
       fill="#ffffff"
       id="Oval-Copy-2" />
    <path
       id="path931"
       style="color:#000000;font-style:normal;font-variant:normal;font-weight:normal;font-stretch:normal;font-size:medium;line-height:normal;font-family:sans-serif;font-variant-ligatures:normal;font-variant-position:normal;font-variant-caps:normal;font-variant-numeric:normal;font-variant-alternates:normal;font-variant-east-asian:normal;font-feature-settings:normal;font-variation-settings:normal;text-indent:0;text-align:start;text-decoration:none;text-decoration-line:none;text-decoration-style:solid;text-decoration-color:#000000;letter-spacing:normal;word-spacing:normal;text-transform:none;writing-mode:lr-tb;direction:ltr;text-orientation:mixed;dominant-baseline:auto;baseline-shift:baseline;text-anchor:start;white-space:normal;shape-padding:0;shape-margin:0;inline-size:0;clip-rule:nonzero;display:inline;overflow:visible;visibility:visible;isolation:auto;mix-blend-mode:normal;color-interpolation:sRGB;color-interpolation-filters:linearRGB;solid-color:#000000;solid-opacity:1;vector-effect:none;fill:#ffffff;fill-opacity:1;fill-rule:evenodd;stroke:none;stroke-width:2.81746;stroke-linecap:butt;stroke-linejoin:miter;stroke-miterlimit:4;stroke-dasharray:none;stroke-dashoffset:0;stroke-opacity:1;color-rendering:auto;image-rendering:auto;shape-rendering:auto;text-rendering:auto;enable-background:accumulate;stop-color:#000000"
       d="M 134.90039 199.73047 C 130.16924 199.80316 126.16314 203.50177 125.73047 208.44727 C 125.28555 213.53275 128.79598 217.96399 133.65039 218.67969 C 132.94077 216.24772 132.03101 213.18887 130.69922 208.80859 C 130.32778 207.56623 131.03303 206.25815 132.27539 205.88672 C 132.70481 205.75833 133.1628 205.75573 133.59375 205.87891 C 138.17079 207.18601 141.66908 208.18477 144.35156 208.95117 C 144.2271 204.1633 140.62288 200.18273 135.85547 199.76562 C 135.53446 199.73755 135.2158 199.72562 134.90039 199.73047 z M 143.68555 212.78516 L 138.28711 213.5625 L 138.30273 218.16797 C 140.73179 217.23055 142.70549 215.29174 143.68555 212.78516 z " />
    <path
       id="path933"
       style="color:#000000;font-style:normal;font-variant:normal;font-weight:normal;font-stretch:normal;font-size:medium;line-height:normal;font-family:sans-serif;font-variant-ligatures:normal;font-variant-position:normal;font-variant-caps:normal;font-variant-numeric:normal;font-variant-alternates:normal;font-variant-east-asian:normal;font-feature-settings:normal;font-variation-settings:normal;text-indent:0;text-align:start;text-decoration:none;text-decoration-line:none;text-decoration-style:solid;text-decoration-color:#000000;letter-spacing:normal;word-spacing:normal;text-transform:none;writing-mode:lr-tb;direction:ltr;text-orientation:mixed;dominant-baseline:auto;baseline-shift:baseline;text-anchor:start;white-space:normal;shape-padding:0;shape-margin:0;inline-size:0;clip-rule:nonzero;display:inline;overflow:visible;visibility:visible;isolation:auto;mix-blend-mode:normal;color-interpolation:sRGB;color-interpolation-filters:linearRGB;solid-color:#000000;solid-opacity:1;vector-effect:none;fill:#000000;fill-opacity:0.39919358;fill-rule:evenodd;stroke:none;stroke-width:2.81746;stroke-linecap:butt;stroke-linejoin:miter;stroke-miterlimit:4;stroke-dasharray:none;stroke-dashoffset:0;stroke-opacity:1;color-rendering:auto;image-rendering:auto;shape-rendering:auto;text-rendering:auto;enable-background:accumulate;stop-color:#000000"
       d="M 134.85938 196.91211 C 128.70308 197.0116 123.47863 201.85981 122.92383 208.20117 C 122.33205 214.9653 127.26776 220.97795 133.94922 221.5625 C 140.63069 222.14705 146.53516 217.08249 147.12695 210.31836 C 147.71873 203.55424 142.78303 197.54158 136.10156 196.95703 C 135.68397 196.9205 135.26979 196.90548 134.85938 196.91211 z M 134.90039 199.73047 C 135.2158 199.72562 135.53446 199.73754 135.85547 199.76562 C 140.62288 200.18273 144.2271 204.1633 144.35156 208.95117 C 141.66908 208.18477 138.17079 207.18601 133.59375 205.87891 C 133.1628 205.75573 132.70481 205.75833 132.27539 205.88672 C 131.03303 206.25815 130.32778 207.56623 130.69922 208.80859 C 132.03101 213.18887 132.94077 216.24772 133.65039 218.67969 C 128.79598 217.96399 125.28555 213.53275 125.73047 208.44727 C 126.16314 203.50177 130.16924 199.80316 134.90039 199.73047 z M 143.68555 212.78516 C 142.70549 215.29174 140.73179 217.23055 138.30273 218.16797 L 138.28711 213.5625 L 143.68555 212.78516 z " />
  </g>
</svg>
