<?xml version="1.0" encoding="UTF-8" standalone="no"?>
<svg
   xmlns:dc="http://purl.org/dc/elements/1.1/"
   xmlns:cc="http://creativecommons.org/ns#"
   xmlns:rdf="http://www.w3.org/1999/02/22-rdf-syntax-ns#"
   xmlns:svg="http://www.w3.org/2000/svg"
   xmlns="http://www.w3.org/2000/svg"
   xmlns:sodipodi="http://sodipodi.sourceforge.net/DTD/sodipodi-0.dtd"
   xmlns:inkscape="http://www.inkscape.org/namespaces/inkscape"
   width="320px"
   height="270px"
   viewBox="0 50 320 270"
   version="1.1"
   id="svg56"
   sodipodi:docname="plus-fly.svg"
   inkscape:version="1.0 (4035a4fb49, 2020-05-01)">
  <metadata
     id="metadata60">
    <rdf:RDF>
      <cc:Work
         rdf:about="">
        <dc:format>image/svg+xml</dc:format>
        <dc:type
           rdf:resource="http://purl.org/dc/dcmitype/StillImage" />
      </cc:Work>
    </rdf:RDF>
  </metadata>
  <sodipodi:namedview
     inkscape:document-rotation="0"
     pagecolor="#ffffff"
     bordercolor="#666666"
     borderopacity="1"
     objecttolerance="10"
     gridtolerance="10"
     guidetolerance="10"
     inkscape:pageopacity="0"
     inkscape:pageshadow="2"
     inkscape:window-width="1366"
     inkscape:window-height="745"
     id="namedview58"
     showgrid="false"
     inkscape:snap-page="true"
     inkscape:zoom="1.340884"
     inkscape:cx="171.37671"
     inkscape:cy="189.16209"
     inkscape:window-x="-8"
     inkscape:window-y="-8"
     inkscape:window-maximized="1"
     inkscape:current-layer="svg56" />
  <title
     id="title2">duo_plus_fly</title>
  <desc
     id="desc4">Created with Sketch.</desc>
  <defs
     id="defs11">
    <linearGradient
       x1="148.49562"
       y1="212.80088"
       x2="101.92532"
       y2="308.56128"
       id="linearGradient-1"
       gradientTransform="matrix(1.0640044,0,0,0.93984572,0,-50)"
       gradientUnits="userSpaceOnUse">
      <stop
         stop-color="#FFFFFF"
         offset="0%"
         id="stop6" />
      <stop
         stop-color="#FFFFFF"
         stop-opacity="0"
         offset="100%"
         id="stop8" />
    </linearGradient>
  </defs>
  <g
     id="duo_plus_fly"
     stroke="none"
     fill="none"
     fill-rule="evenodd">
    <path
       id="Rectangle-238"
       style="opacity:0.25;fill:url(#linearGradient-1)"
       d="M 91.646484 116.85156 L 0.06640625 252.62695 L 150.72461 253 L 197.45508 183.99609 C 194.59321 185.07575 191.18284 184.39844 189.01953 181.80664 C 186.76547 179.10611 184.79748 176.23013 183.11328 173.22266 C 172.97786 175.35502 162.19133 175.0407 151.60352 171.80078 C 135.96787 167.0162 123.52926 156.71328 115.72656 143.6582 C 106.15004 146.31225 95.906092 146.49024 85.984375 143.83008 C 81.034794 142.50302 78.832176 136.69052 81.634766 132.35156 L 91.646484 116.85156 z "
       transform="translate(0,50)" />
    <path
       id="Combined-Shape-Copy-123"
       style="fill:#000000;fill-opacity:0.40000001"
       d="M 174.10352 7 C 172.082 6.9941421 170.06402 7.0640086 168.05273 7.2089844 C 157.32587 7.9821884 146.74463 10.901259 136.30859 15.964844 C 117.81794 24.936548 106.59766 44.326055 107.99219 64.898438 L 109.62695 89.015625 L 81.634766 132.35156 C 78.832176 136.69052 81.034794 142.50302 85.984375 143.83008 C 95.906092 146.49024 106.15004 146.31225 115.72656 143.6582 C 123.52926 156.71328 135.96787 167.0162 151.60352 171.80078 C 162.19133 175.0407 172.97786 175.35502 183.11328 173.22266 C 184.79748 176.23013 186.76547 179.10611 189.01953 181.80664 C 192.3081 185.74658 198.48706 185.29027 201.22266 180.90625 L 221.16602 148.94531 C 221.35114 148.69826 221.5428 148.45713 221.72461 148.20703 C 236.21001 127.16452 238.42861 106.75945 237.35938 90.902344 C 237.31265 90.209339 237.31348 89.608732 237.35938 89.091797 L 237.0293 84.21875 L 237.24414 84.207031 L 235.31445 55.722656 C 233.91992 35.150274 220.19116 17.555984 200.66992 11.324219 C 191.71805 8.4665126 182.8634 7.0253844 174.10352 7 z "
       transform="translate(0,50)" />
    <path
       id="path18"
       d="M 173.32617 7.0019531 C 171.56469 7.0136885 169.80644 7.0825753 168.05273 7.2089844 C 167.19986 7.2704606 166.34908 7.3449953 165.49805 7.4335938 C 167.46444 9.6331435 169.47535 12.188711 171.45508 15.134766 C 171.8608 15.738531 172.23145 16.362329 172.58789 16.996094 C 175.88988 16.131272 179.35171 15.496047 182.98633 15.105469 C 186.41438 14.737088 189.71001 14.608582 192.87305 14.722656 C 192.9811 14.726553 193.08745 14.737503 193.19531 14.742188 C 192.73465 12.712211 191.58564 10.610657 189.28516 8.4433594 C 183.93076 7.446502 178.61061 6.9667471 173.32617 7.0019531 z "
       transform="translate(0,50)"
       style="fill:#ffffff;fill-opacity:1" />
    <path
       d="M186.59077,152.598393 C185.565277,138.49487 209.7607,119.967429 207.530818,153.687867 C205.984088,177.077627 189.378989,200.331791 183.687343,201.308166 C180.306243,201.888178 166.76779,203.664892 170.015034,199.792567 C176.706106,190.93681 187.616263,166.701917 186.59077,152.598393 Z"
       id="Path-68-Copy"
       fill="#FFFFFF" />
    <path
       sodipodi:nodetypes="sccscccscccscsccscs"
       transform="translate(0,50)"
       d="m 119.75391,178.04102 c -2.64146,0.0524 -5.21059,1.37453 -6.75391,3.76171 l -7.1543,11.06446 c -2.47981,3.83575 -1.3925,8.95654 2.43164,11.45117 0.008,0.005 0.0159,0.0107 0.0234,0.0156 3.81608,2.47153 8.91155,1.3781 11.38086,-2.4414 l 0.45117,-0.69727 c 0.63621,1.22756 1.58246,2.31427 2.82227,3.12305 0.008,0.005 0.0159,0.0107 0.0234,0.0156 3.81607,2.47153 8.91154,1.3781 11.38086,-2.4414 l 7.15234,-11.06446 c 2.47982,-3.83575 1.39251,-8.95654 -2.43164,-11.45117 -0.008,-0.005 -0.0159,-0.009 -0.0234,-0.0137 -1.43103,-0.92682 -3.04208,-1.35373 -4.62695,-1.32226 -2.64146,0.0524 -5.21059,1.37453 -6.75391,3.76171 L 127.22461,182.5 c -0.6362,-1.22692 -1.58298,-2.31462 -2.82227,-3.12305 -0.008,-0.005 -0.0139,-0.009 -0.0215,-0.0137 -1.43103,-0.92682 -3.04208,-1.35373 -4.62695,-1.32226 z"
       style="fill:#000000;fill-opacity:0.596774"
       id="Rectangle-4-Copy-44" />
    <path
       d="m 156.5997,73.82538 c 7.50732,-4.732748 16.30967,-7.637183 26.38683,-8.720081 3.42805,-0.368381 6.72366,-0.495939 9.8867,-0.381865 21.66783,0.781444 39.44443,17.428816 41.66267,39.014926 l 2.33027,22.67619 c 0.48556,4.72503 -1.10709,9.42776 -4.36336,12.88361 -10.5758,11.22399 -23.9633,17.7139 -40.08772,19.44664 -16.0978,1.72988 -31.3708,-1.66126 -45.7642,-10.15506 -4.46822,-2.63679 -7.41876,-7.24131 -7.94941,-12.40516 L 136.53234,115.0763 C 134.84186,98.62596 142.6188,82.63917 156.5997,73.82538 Z"
       id="Mask-Copy-11"
       stroke="#ffffff"
       stroke-width="3.52183"
       fill="#235390"
       style="fill:#000000;fill-opacity:0.4" />
    <path
       d="M232.845262,104.154148 L235.114484,126.887843 C235.547755,131.104076 234.126629,135.300344 231.221197,138.383849 C220.937697,149.297621 207.939614,155.598753 192.22695,157.287247 C176.509384,158.976267 161.615679,155.669344 147.545834,147.366479 C143.5593,145.013951 140.926669,140.905537 140.45317,136.297852 L138.284026,115.189572 C136.622984,99.3665919 143.883913,84.4701675 156.640625,75.8878924 C171.629825,78.7340346 181.731209,80.3585839 187.234643,79.9618902 C191.644282,79.6440386 196.10878,77.4428702 200.628137,73.3583852 C202.40365,71.7537188 204.492042,70.2373435 206.57006,69.3295964 C220.78704,74.877588 231.207307,88.2149474 232.845262,104.154148 Z"
       id="path25"
       fill="#78C800" />
    <path
       d="M223.19763,82.0012334 C228.213169,88.1385747 231.523805,95.7497598 232.385837,104.138328 L234.716106,126.814525 C235.149378,131.030758 233.728252,135.227026 230.82282,138.310531 C227.38872,141.955105 223.651897,145.085288 219.612349,147.70108 C211.009496,146.914234 203.816017,140.221976 202.720366,131.290612 L202.678509,130.949404 L189.131258,132.614289 C188.244675,143.715892 179.670298,153.038443 168.19572,154.448608 L166.692294,154.633371 C165.875415,154.733761 165.063105,154.791683 164.257576,154.808865 C158.424897,153.087751 152.721523,150.582517 147.147457,147.293161 C146.414428,146.860587 145.727175,146.368646 145.090704,145.825149 C142.407604,142.474159 140.591694,138.359501 140.030414,133.784145 L138.635574,122.413897 L138.073619,116.945426 C137.842519,108.548682 142.028652,100.871654 148.686848,96.4062758 C148.597363,93.9815886 149.022354,91.5288776 149.994746,89.2190859 C150.583893,87.819642 152.360749,87.4099522 153.503871,88.4099866 L158.274865,92.5837838 C157.709562,89.4089813 158.034696,86.0849834 159.327675,83.0136776 C159.916823,81.6142337 161.286869,81.2544572 162.429991,82.2544916 L181.871005,98.8990314 C188.025767,103.938604 196.603662,101.837869 200.486484,96.3162208 C201.167324,95.3699289 201.804881,94.6690792 202.399153,94.2136719 C202.921408,93.3807648 203.507931,92.5899835 204.152734,91.8489985 L215.083395,76.5678625 C215.78655,75.557133 217.111004,75.6957316 218.065319,76.833635 C219.928909,79.0557365 221.175767,81.5479555 221.766664,84.0581353 L223.19763,82.0012334 Z"
       id="path27"
       fill="#8EE000" />
    <path
       d="M161.845044,100.154987 C171.453184,98.9741974 180.198482,105.812901 181.378213,115.429658 L182.727875,126.431629 C183.907606,136.048386 177.075031,144.801527 167.46689,145.982317 C157.85875,147.163106 149.113452,140.324403 147.933721,130.707645 L146.584059,119.705675 C145.404328,110.088917 152.236903,101.335776 161.845044,100.154987 Z"
       id="Rectangle-130"
       fill="#FFFFFF" />
    <path
       d="M147.5,146.494602 L147.871258,129.403587 C163.117157,129.735359 175.070699,132.168002 183.825038,136.973658 L175.611776,151.962392 C169.641718,148.685154 160.240075,146.771844 147.5,146.494602 Z"
       id="path30"
       fill="#8EE000"
       fill-rule="nonzero" />
    <path
       d="M215.377686,93.832496 C223.063215,92.8879854 230.058558,98.3582482 231.002222,106.05067 L233.145421,123.521274 C234.089085,131.213696 228.623724,138.215313 220.938195,139.159824 C213.252666,140.104335 206.257322,134.634072 205.313658,126.94165 L203.17046,109.471046 C202.226795,101.778624 207.692157,94.7770066 215.377686,93.832496 Z"
       id="path32"
       fill="#FFFFFF" />
    <path
       d="M234.723346,118.910314 L234.70626,126.595823 C234.696836,130.83429 232.845259,134.858889 229.633718,137.621529 C228.187811,138.865331 226.706015,140.030312 225.188331,141.116471 C223.224849,142.183113 221.511566,143.284611 220.048878,144.415143 C219.247178,144.873434 218.436429,145.311853 217.616633,145.7304 L206.209677,133.804478 C212.616219,127.665725 222.115144,122.783686 234.723346,118.910314 Z"
       id="path34"
       fill="#8EE000" />
    <path
       d="M212.5,101.573029 C214.401358,99.2299989 217.677393,98.29722 220.614591,99.4961188 C226.629632,101.951325 228.534876,107.77134 227.088511,114.411707 C226.261169,118.210099 222.514029,120.61801 218.71904,119.789925 C215.065554,118.992717 212.699636,115.486965 213.266484,111.837488 C214.588221,111.01883 215.577843,109.66661 215.896254,108.010998 C216.421641,105.279189 214.946497,102.621377 212.5,101.573029 Z"
       id="path36"
       fill="#4B4B4B"
       fill-rule="nonzero" />
    <path
       d="M162.177419,108.726662 C164.278405,106.315399 167.832665,105.577159 170.776357,107.143587 C176.822976,110.361176 178.892291,116.507361 176.742611,123.170518 C175.549066,126.870032 171.585146,128.900654 167.888947,127.706039 C164.401961,126.579042 162.398956,122.984199 163.185508,119.474659 C164.327146,118.745884 165.232878,117.627276 165.683192,116.231479 C166.670529,113.171127 165.108977,109.892799 162.177419,108.726662 Z"
       id="path38"
       fill="#4B4B4B"
       fill-rule="nonzero" />
    <path
       d="M196.318129,126.255605 L196.366286,126.255605 C201.325482,126.255605 205.345705,130.279434 205.345705,135.243078 L205.345705,142.959728 C205.345705,147.923372 201.325482,151.947201 196.366286,151.947201 L196.318129,151.947201 C191.358933,151.947201 187.33871,147.923372 187.33871,142.959728 L187.33871,135.243078 C187.33871,130.279434 191.358933,126.255605 196.318129,126.255605 Z"
       id="Rectangle-2"
       fill="#F49000" />
    <path
       d="M195.567369,128.35426 C199.910525,128.35426 203.431348,131.878241 203.431348,136.225292 L203.431348,144.302769 C203.431348,147.179772 201.101166,149.512045 198.22674,149.512045 C195.166946,149.512045 192.498787,147.430195 191.752182,144.460225 L189.622239,135.987382 C188.796102,132.701033 190.78811,129.366603 194.071514,128.539725 C194.560612,128.416552 195.063027,128.35426 195.567369,128.35426 Z"
       id="path41"
       fill="#B86D00" />
    <path
       d="M186.357772,134.819929 C187.340119,128.70772 192.592938,124.156951 198.795181,124.156951 C204.997424,124.156951 210.250243,128.70772 211.23259,134.819929 L211.300039,135.2396 L186.290323,135.2396 L186.357772,134.819929 Z"
       id="Combined-Shape"
       fill="#FFC200"
       fill-rule="nonzero" />
    <path
       d="M197.063996,130.229826 C196.127248,130.556079 195.103622,130.060494 194.777662,129.122907 C194.451702,128.185319 194.946842,127.160775 195.88359,126.834522 C198.099864,126.062633 200.349858,126.062633 202.566133,126.834522 C203.50288,127.160775 203.998021,128.185319 203.672061,129.122907 C203.346101,130.060494 202.322474,130.556079 201.385727,130.229826 C199.93391,129.724184 198.515813,129.724184 197.063996,130.229826 Z"
       id="path44"
       fill="#FFDE00"
       fill-rule="nonzero" />
    <path
       d="M211.233129,169.278027 L217.692639,169.278027 C220.467014,169.278027 222.71609,171.52912 222.71609,174.305984 L222.71609,174.325205 C222.71609,177.102069 220.467014,179.353162 217.692639,179.353162 L211.233129,179.353162 C208.458753,179.353162 206.209677,177.102069 206.209677,174.325205 L206.209677,174.305984 C206.209677,171.52912 208.458753,169.278027 211.233129,169.278027 Z"
       id="Rectangle"
       fill="#235390"
       style="fill:#000000;fill-opacity:0.40000001" />
    <path
       id="path888"
       style="color:#000000;font-style:normal;font-variant:normal;font-weight:normal;font-stretch:normal;font-size:medium;line-height:normal;font-family:sans-serif;font-variant-ligatures:normal;font-variant-position:normal;font-variant-caps:normal;font-variant-numeric:normal;font-variant-alternates:normal;font-variant-east-asian:normal;font-feature-settings:normal;font-variation-settings:normal;text-indent:0;text-align:start;text-decoration:none;text-decoration-line:none;text-decoration-style:solid;text-decoration-color:#000000;letter-spacing:normal;word-spacing:normal;text-transform:none;writing-mode:lr-tb;direction:ltr;text-orientation:mixed;dominant-baseline:auto;baseline-shift:baseline;text-anchor:start;white-space:normal;shape-padding:0;shape-margin:0;inline-size:0;clip-rule:nonzero;display:inline;overflow:visible;visibility:visible;isolation:auto;mix-blend-mode:normal;color-interpolation:sRGB;color-interpolation-filters:linearRGB;solid-color:#000000;solid-opacity:1;vector-effect:none;fill:#ffffff;fill-opacity:1;fill-rule:nonzero;stroke:none;stroke-width:3.01871;stroke-linecap:butt;stroke-linejoin:miter;stroke-miterlimit:4;stroke-dasharray:none;stroke-dashoffset:0;stroke-opacity:1;color-rendering:auto;image-rendering:auto;shape-rendering:auto;text-rendering:auto;enable-background:accumulate;stop-color:#000000"
       d="M 159.60156 116.13086 C 154.06374 116.13086 149.59766 120.61784 149.59766 126.20508 C 149.59766 126.22421 149.5995 126.24261 149.59961 126.26172 L 159.79883 122.09766 C 161.3178 121.47747 163.05224 122.20819 163.67188 123.72852 C 163.88775 124.2582 163.94551 124.83819 163.83984 125.40039 L 161.84375 136.02148 C 166.29515 135.00074 169.60547 131.01307 169.60547 126.20508 C 169.60546 120.61784 165.13938 116.13086 159.60156 116.13086 z M 155.36719 131.58594 L 151.38477 131.95898 C 152.5777 133.68739 154.29577 135.01166 156.30859 135.71484 L 155.36719 131.58594 z "
       transform="translate(0,50)" />
    <path
       id="path890"
       style="color:#000000;font-style:normal;font-variant:normal;font-weight:normal;font-stretch:normal;font-size:medium;line-height:normal;font-family:sans-serif;font-variant-ligatures:normal;font-variant-position:normal;font-variant-caps:normal;font-variant-numeric:normal;font-variant-alternates:normal;font-variant-east-asian:normal;font-feature-settings:normal;font-variation-settings:normal;text-indent:0;text-align:start;text-decoration:none;text-decoration-line:none;text-decoration-style:solid;text-decoration-color:#000000;letter-spacing:normal;word-spacing:normal;text-transform:none;writing-mode:lr-tb;direction:ltr;text-orientation:mixed;dominant-baseline:auto;baseline-shift:baseline;text-anchor:start;white-space:normal;shape-padding:0;shape-margin:0;inline-size:0;clip-rule:nonzero;display:inline;overflow:visible;visibility:visible;isolation:auto;mix-blend-mode:normal;color-interpolation:sRGB;color-interpolation-filters:linearRGB;solid-color:#000000;solid-opacity:1;vector-effect:none;fill:#000000;fill-opacity:0.40000001;fill-rule:nonzero;stroke:none;stroke-width:3.01871;stroke-linecap:butt;stroke-linejoin:miter;stroke-miterlimit:4;stroke-dasharray:none;stroke-dashoffset:0;stroke-opacity:1;color-rendering:auto;image-rendering:auto;shape-rendering:auto;text-rendering:auto;enable-background:accumulate;stop-color:#000000"
       d="M 159.60156 113.11133 C 152.42222 113.11133 146.57814 118.99645 146.57812 126.20508 C 146.57812 133.41371 152.42221 139.29883 159.60156 139.29883 C 166.78091 139.29883 172.62305 133.41371 172.62305 126.20508 C 172.62304 118.99645 166.78091 113.11133 159.60156 113.11133 z M 159.60156 116.13086 C 165.13938 116.13086 169.60546 120.61784 169.60547 126.20508 C 169.60547 131.01307 166.29515 135.00074 161.84375 136.02148 L 163.83984 125.40039 C 163.94551 124.83819 163.88775 124.2582 163.67188 123.72852 C 163.05224 122.20819 161.3178 121.47747 159.79883 122.09766 L 149.59961 126.26172 C 149.5995 126.24261 149.59766 126.22421 149.59766 126.20508 C 149.59766 120.61784 154.06374 116.13086 159.60156 116.13086 z M 155.36719 131.58594 L 156.30859 135.71484 C 154.29577 135.01166 152.5777 133.68739 151.38477 131.95898 L 155.36719 131.58594 z "
       transform="translate(0,50)" />
    <path
       d="m 159.40647,74.117153 c 7.99648,-4.433943 17.55731,-6.957967 28.84958,-7.673207 10.82592,-0.685702 20.7967,0.886271 29.44872,4.378279 15.26094,6.159406 25.47515,20.726343 26.07394,37.185175 l 0.76484,21.02331 c 0.16027,4.40522 -1.38582,8.70213 -4.31545,11.99356 -9.25917,10.40268 -22.14898,16.32733 -38.66941,17.77398 -19.52385,1.70965 -37.66867,-2.21127 -54.43444,-11.76275 -4.0223,-2.29151 -6.6609,-6.41687 -7.05634,-11.0323 l -1.8503,-21.59649 c -1.40506,-16.39957 6.80378,-32.313225 21.18886,-40.289557 z"
       id="path50"
       fill="#98ddff"
       opacity="0.492857"
       style="fill:#ffffff;fill-opacity:0.34509805;opacity:1" />
    <ellipse
       id="Oval-Copy-2"
       fill="#FFFFFF"
       transform="translate(173.760570, 86.487107) rotate(-5.000000) translate(-173.760570, -86.487107)"
       cx="173.76057"
       cy="86.4871067"
       rx="9.71944684"
       ry="9.7885367" />
    <path
       d="M104.008837,147.807067 L112.084675,153.033056 C115.330366,155.133388 116.258862,159.467196 114.15853,162.712886 L114.152381,162.722372 L108.706,171.109062 C106.602833,174.347655 102.274303,175.271366 99.0323182,173.173432 L90.9375,167.93516 L104.008837,147.807067 Z"
       id="path53"
       fill="#235390"
       style="fill:#000000;fill-opacity:0.40000001" />
  </g>
</svg>
